<?xml version="1.0" encoding="UTF-8"?>
<!DOCTYPE svg PUBLIC "-//W3C//DTD SVG 1.1//EN" "http://www.w3.org/Graphics/SVG/1.1/DTD/svg11.dtd">
<!-- Creator: CorelDRAW X5 -->
<svg xmlns="http://www.w3.org/2000/svg" xml:space="preserve" width="430px" height="600px" style="shape-rendering:geometricPrecision; text-rendering:geometricPrecision; image-rendering:optimizeQuality; fill-rule:evenodd; clip-rule:evenodd"
viewBox="0 0 430000 600335"
 xmlns:xlink="http://www.w3.org/1999/xlink">
 <title>Logo Associazione Sportiva Casale Calcio</title>
  <desc> 
    * Vector dibuat oleh Ostiamare;
    * Hak cipta logo ini dipegang oleh klub/perusahaan yang bersangkutan, bukan pembuat vector.
    * Logo ini mungkin tidak ditampilkan dengan baik oleh beberapa browser. Bagaimanapun juga, telah dicoba menggunakan Firefox.
    * Beberapa bagian logo ini mungkin tidak sama persis dengan logo aslinya karena dikerjakan secara manual.
    * Logo ini hanya dimaksudkan untuk mengilustrasikan sebuah produk/jasa/instansi yang bersangkutan dengan logo ini, dan membuat pembaca yakin mereka telah menemukan produk/jasa/instansi yang mereka cari.
  </desc>
 <defs>
  <style type="text/css">
   <![CDATA[
    .fil0 {fill:#FEFEFE}
    .fil1 {fill:black}
    .fil3 {fill:#009900}
    .fil4 {fill:#A28D60}
    .fil2 {fill:#CB0002}
    .fil5 {fill:black;fill-rule:nonzero}
   ]]>
  </style>
 </defs>
 <g id="Casale_x0020_-_x0020_Ayun_x0020_G._x0020_Aribowo">
  <metadata id="CorelCorpID_0Corel-Layer"/>
  <g id="Ostiamare">
   <path class="fil0" d="M215000 1425l213552 0c0,199162 0,258004 0,457165 0,10398 -3366,24249 -18563,33591 -46912,28836 -118179,69198 -170717,98837 -8232,4644 -18069,7891 -24272,7891 -6203,0 -16041,-3247 -24272,-7891 -52538,-29639 -123805,-70002 -170717,-98837 -15198,-9342 -18563,-23192 -18563,-33591 0,-199161 0,-258004 0,-457165l213552 0z"/>
   <path class="fil1" d="M215000 1425l213552 0 0 217734 1245 0 0 106233 -1245 0 0 133198c0,10398 -3366,24249 -18563,33591 -46912,28836 -118179,69198 -170717,98837 -8232,4644 -18069,7891 -24272,7891l0 -273517 -212308 0 0 -106233 212308 0 0 -217734z"/>
   <path class="fil2" d="M322271 368549c23606,0 42742,19136 42742,42742 0,23606 -19136,42742 -42742,42742 -23606,0 -42742,-19136 -42742,-42742 0,-23606 19136,-42742 42742,-42742z"/>
   <path class="fil0" d="M106901 50472l41826 0c0,39007 0,50532 0,89540 0,2037 -659,4749 -3636,6579 -9188,5648 -23146,13553 -33436,19358 -1612,910 -3539,1545 -4754,1545 -1215,0 -3142,-636 -4754,-1545 -10290,-5805 -24248,-13710 -33436,-19358 -2976,-1830 -3636,-4542 -3636,-6579 0,-39007 0,-50532 0,-89540l41826 0zm215370 331978c15928,0 28840,12912 28840,28840 0,15928 -12912,28840 -28840,28840 -15928,0 -28840,-12912 -28840,-28840 0,-15928 12912,-28840 28840,-28840z"/>
   <path class="fil3" d="M322271 396559c8136,0 14732,6596 14732,14732 0,8136 -6596,14731 -14732,14731 -8136,0 -14731,-6595 -14731,-14731 0,-8136 6595,-14732 14731,-14732z"/>
   <polygon class="fil4" points="106486,451751 74118,476234 86524,436347 53785,411083 94382,411083 106901,370831 118787,411083 159188,411083 126284,436474 138024,476234 "/>
   <path class="fil3" d="M93603 161116c-8625,-4898 -18073,-10333 -24893,-14525 -2976,-1830 -3636,-4542 -3636,-6579 0,-39007 0,-50532 0,-89540l28529 0 0 110644z"/>
   <path class="fil2" d="M120992 50472l27735 0c0,39007 0,50532 0,89540 0,2037 -659,4749 -3636,6579 -6611,4064 -15693,9297 -24099,14075l0 -110193z"/>
   <path class="fil0" d="M236580 87404l55049 42444 -20606 67524 54362 -41497 53946 41912 -20808 -67826 54421 -42557 -67478 0 -20497 -66811 -20388 66811 -68001 0zm-207626 149147l-5413 0 -1699 3215 -117 222 -249 0 -3203 0 -702 0 339 -614 8581 -15558 119 -216 244 0 3453 0 353 0 55 350 2463 15558 76 480 -485 0 -2954 0 -358 0 -52 -355 -452 -3082zm-509 -3420l-629 -4531 -2421 4531 3050 0zm6896 3086l2928 0 508 0 -103 497 -607 2941 -69 332 -337 0 -2923 0 -507 0 102 -498 603 -2941 68 -332 337 0zm5671 -2099l2962 -160 413 -22 21 414c20,395 57,730 111,1004l0 2c48,246 106,431 176,553 67,119 160,228 276,325l-1 1c121,101 271,190 448,266l3 2c184,80 404,142 660,183 265,43 574,64 928,64 449,0 836,-40 1162,-120 309,-76 563,-187 761,-331 188,-137 328,-293 419,-467l-2 -1c89,-171 134,-367 134,-586 0,-151 -24,-288 -73,-409 -49,-123 -125,-237 -227,-343 -109,-113 -326,-260 -649,-439 -344,-191 -803,-414 -1377,-667l-2 -2c-737,-331 -1356,-627 -1857,-889 -509,-266 -895,-498 -1155,-693 -269,-202 -507,-426 -712,-672 -207,-248 -385,-521 -531,-816l1 0c-150,-300 -262,-616 -335,-947l2 0c-74,-336 -112,-687 -112,-1051 0,-749 133,-1427 399,-2035 268,-613 667,-1147 1198,-1601 528,-452 1148,-789 1862,-1013 701,-220 1491,-330 2369,-330 883,0 1684,109 2403,327 727,221 1365,554 1913,998l1 -1c553,448 984,990 1290,1626 301,627 480,1341 533,2140l28 420 -423 19 -2988 138 -391 18 -39 -393c-64,-654 -282,-1137 -655,-1449 -381,-319 -943,-479 -1685,-479 -386,0 -715,33 -985,98l0 0c-251,61 -452,148 -602,260 -142,106 -247,229 -315,369l0 2c-69,142 -104,309 -104,501 0,334 132,606 395,812l8 7c158,130 410,288 754,474 354,192 803,410 1346,656 725,320 1335,607 1828,862 508,262 892,491 1150,683 268,200 505,422 709,664 204,244 379,512 523,803l0 2c143,292 251,602 321,926 70,324 106,664 106,1020 0,795 -151,1521 -452,2177 -302,657 -751,1239 -1349,1743 -592,500 -1279,874 -2061,1124 -772,246 -1630,369 -2573,369 -706,0 -1365,-64 -1977,-192 -617,-129 -1183,-324 -1698,-585l-2 0c-516,-263 -956,-573 -1317,-930 -366,-363 -648,-773 -844,-1230 -186,-434 -322,-886 -408,-1354 -85,-464 -121,-945 -107,-1442l11 -381 382 -21zm14346 2099l2928 0 508 0 -103 497 -607 2941 -68 332 -337 0 -2924 0 -507 0 102 -498 603 -2941 68 -332 337 0zm321750 74840l2702 -428 160 -25 63 149c114,270 241,499 380,687 134,181 281,325 441,432l0 0c158,105 348,185 566,238 225,55 484,82 776,82 300,0 568,-33 803,-99 229,-64 429,-161 600,-288l2 -1c108,-80 189,-166 241,-258 48,-87 73,-182 73,-285 0,-69 -12,-134 -35,-193 -23,-58 -59,-113 -106,-165l0 0c-54,-54 -166,-120 -336,-197l0 -1c-186,-85 -433,-178 -740,-280l0 1c-844,-279 -1531,-530 -2062,-754 -540,-228 -918,-429 -1134,-604l0 0c-339,-272 -594,-588 -764,-945 -171,-360 -256,-761 -256,-1200 0,-436 81,-844 244,-1222 162,-376 406,-722 732,-1037 891,-863 2201,-1294 3929,-1294 677,0 1277,64 1796,189 530,128 976,322 1338,580l1 1c362,260 658,564 887,914 229,350 393,745 490,1185l47 211 -214 37 -2579 448 -170 29 -59 -164c-60,-167 -139,-313 -236,-438l0 0c-94,-121 -208,-221 -338,-301l0 0c-190,-115 -400,-203 -632,-262 -231,-59 -484,-89 -758,-89 -276,0 -510,23 -703,67 -182,42 -326,103 -433,182 -105,81 -183,165 -232,252 -45,80 -67,165 -67,257 0,92 22,174 66,247 47,79 123,152 225,219 69,44 228,109 477,196 254,88 600,197 1038,325l0 0c690,201 1266,399 1726,596 473,202 833,407 1080,613 346,287 607,606 782,956 177,353 266,735 266,1145 0,520 -110,1008 -330,1462 -218,450 -544,865 -976,1244 -433,379 -955,663 -1563,851 -602,186 -1287,280 -2056,280 -762,0 -1440,-70 -2033,-211 -599,-142 -1113,-357 -1541,-645 -428,-289 -788,-635 -1078,-1040 -289,-403 -510,-865 -662,-1384l-66 -226 232 -37zm12113 189l2762 0 255 0 -52 250 -564 2696 -35 165 -168 0 -2762 0 -255 0 52 -249 564 -2696 35 -165 168 0zm6895 -7632l2606 0 255 0 -52 250 -221 1061c324,-393 658,-711 1000,-955 562,-400 1150,-601 1761,-601 215,0 440,28 672,82 228,54 464,133 704,237l196 85 -91 194 -1072 2288 -81 172 -178 -65c-114,-42 -233,-73 -354,-93l0 0c-121,-20 -248,-29 -382,-29 -215,0 -433,41 -653,122l0 0c-225,83 -455,211 -688,382 -233,171 -441,370 -623,597l0 0c-183,230 -342,489 -474,775l0 1c-134,290 -269,672 -403,1142 -138,482 -274,1047 -408,1694l0 1 -681 3240 -35 165 -168 0 -2792 0 -255 0 52 -249 2161 -10328 35 -165 168 0zm5292 7632l2762 0 255 0 -52 250 -564 2696 -35 165 -168 0 -2762 0 -255 0 52 -249 564 -2696 35 -165 168 0zm4668 2861l2988 -14258 35 -165 168 0 2782 0 255 0 -52 250 -2978 14258 -34 165 -168 0 -2792 0 -255 0 52 -249zm6401 -2861l2762 0 255 0 -52 250 -564 2696 -35 165 -168 0 -2762 0 -255 0 52 -249 564 -2696 35 -165 168 0zm-364779 -36533l8686 2997 1081 373 -279 1105c-692,2741 -1621,5145 -2788,7211 -1187,2102 -2612,3842 -4274,5219 -1667,1379 -3562,2414 -5681,3104 -2096,683 -4401,1025 -6910,1025 -3122,0 -5978,-587 -8565,-1758 -2589,-1171 -4894,-2924 -6912,-5255 -2013,-2331 -3520,-5077 -4520,-8238 -988,-3124 -1484,-6651 -1484,-10579 0,-4140 498,-7837 1492,-11093 1007,-3297 2520,-6125 4538,-8485 2027,-2364 4382,-4143 7067,-5335 2677,-1189 5654,-1784 8932,-1784 2865,0 5480,468 7843,1405 2372,941 4468,2349 6283,4225 1104,1125 2062,2485 2874,4077 793,1556 1455,3353 1987,5389l314 1199 -1204 313 -8882 2310 -1263 329 -264 -1282c-232,-1127 -593,-2134 -1083,-3022 -477,-863 -1078,-1609 -1801,-2237l-5 -5c-708,-618 -1496,-1082 -2364,-1393l0 -5c-868,-311 -1832,-466 -2889,-466 -1461,0 -2775,280 -3937,840 -1163,561 -2199,1411 -3104,2552 -912,1144 -1602,2670 -2070,4576 -486,1978 -729,4364 -729,7156 0,2973 240,5500 721,7580 463,2000 1143,3577 2042,4726l5 5c889,1148 1905,2004 3045,2568 1135,562 2417,843 3842,843 1040,0 1995,-175 2867,-526 874,-352 1682,-886 2425,-1602 747,-716 1396,-1654 1946,-2811 577,-1213 1044,-2660 1402,-4337l294 -1376 1325 457zm22045 -4171l-7724 -1521 -1289 -254 326 -1273c463,-1808 1097,-3390 1904,-4746l-3 -2c826,-1389 1833,-2540 3019,-3454l5 -5c1199,-913 2668,-1597 4410,-2047 1685,-436 3616,-655 5795,-655 1963,0 3688,130 5175,389 1546,269 2844,681 3893,1234 1026,543 1910,1165 2647,1865 755,717 1357,1520 1801,2409 440,881 766,2082 974,3603 199,1453 299,3205 299,5255l-5 10 -93 10818 5 0c0,1544 32,2858 97,3940 65,1085 162,1969 292,2649l0 5c122,660 305,1361 545,2099 246,756 547,1530 898,2317l782 1751 -1915 0 -8427 0 -878 0 -294 -837c-129,-368 -267,-794 -409,-1269 -58,-195 -120,-408 -186,-642 -286,243 -575,473 -869,691 -841,625 -1714,1149 -2620,1575l-5 5c-1823,844 -3765,1266 -5825,1266 -1795,0 -3421,-273 -4873,-816 -1481,-554 -2764,-1386 -3845,-2493 -1071,-1098 -1877,-2349 -2417,-3752 -535,-1391 -802,-2908 -802,-4549 0,-1078 122,-2113 365,-3102 243,-987 609,-1920 1099,-2796 495,-886 1090,-1666 1784,-2342 695,-677 1486,-1248 2372,-1715 836,-440 1859,-854 3065,-1239 1182,-377 2527,-725 4034,-1041l5 0c1955,-399 3606,-786 4948,-1155 921,-253 1693,-498 2317,-732l0 -96c0,-769 -82,-1408 -244,-1920 -137,-433 -330,-766 -577,-1000l2 -2c-246,-226 -643,-408 -1194,-545 -656,-163 -1497,-246 -2523,-246 -657,0 -1222,66 -1694,196 -434,120 -799,294 -1094,521l-10 10c-295,223 -572,552 -833,985 -296,492 -560,1098 -792,1816l-340 1054 -1080 -213zm10378 8002c-172,49 -352,100 -539,151 -935,256 -1973,517 -3115,784 -1145,268 -2074,527 -2788,776 -663,230 -1133,445 -1411,641 -385,311 -672,648 -858,1013 -184,360 -276,772 -276,1239 0,979 331,1813 993,2518 323,344 685,600 1086,768 409,171 876,257 1401,257 627,0 1231,-110 1815,-329l0 -1c611,-229 1212,-576 1803,-1037l-1 -1c418,-337 760,-707 1023,-1107 260,-396 453,-835 581,-1317l10 -29c87,-300 154,-790 202,-1464 51,-707 75,-1611 75,-2708l0 -152zm14809 3906l8541 -1419 1178 -196 236 1178c155,774 389,1454 702,2036 293,545 657,1001 1093,1366l5 5c422,356 939,628 1552,813l5 0c657,199 1425,298 2305,298 997,0 1855,-95 2572,-287 660,-176 1198,-431 1613,-765 223,-180 388,-388 494,-619 111,-243 166,-538 166,-880 0,-222 -27,-410 -81,-563 -45,-128 -109,-245 -193,-347 -99,-95 -302,-207 -606,-337 -411,-176 -956,-350 -1631,-521l1 -3c-3461,-829 -6298,-1628 -8509,-2393 -2305,-797 -3969,-1575 -4989,-2331 -1436,-1069 -2517,-2353 -3241,-3851 -721,-1492 -1081,-3174 -1081,-5043 0,-1686 309,-3249 928,-4684 614,-1424 1536,-2715 2767,-3868l-2 -2c1240,-1167 2808,-2039 4702,-2614 1835,-557 3963,-836 6386,-836 2295,0 4309,208 6040,621 1801,430 3306,1085 4513,1961l5 5c1192,872 2198,1953 3019,3244 807,1269 1428,2730 1863,4382l335 1272 -1293 260 -8024 1611 -1162 233 -287 -1147c-139,-556 -338,-1042 -595,-1454 -245,-394 -545,-724 -897,-988l-10 -5c-349,-266 -786,-468 -1309,-607 -573,-152 -1254,-228 -2042,-228 -1042,0 -1919,75 -2629,226 -620,132 -1103,316 -1449,553 -168,128 -287,262 -358,400 -67,130 -100,292 -100,483 0,139 25,258 75,356 61,121 165,241 311,360 261,211 981,510 2162,898 1304,428 3072,919 5304,1473 2330,574 4321,1219 5969,1935l-1 2c1713,744 3068,1569 4064,2473l10 10c1027,956 1798,2099 2312,3428 503,1300 755,2759 755,4376 0,1777 -346,3443 -1038,4995 -685,1536 -1706,2939 -3062,4207l0 0c-1370,1284 -3053,2242 -5048,2873 -1945,615 -4187,922 -6727,922 -2296,0 -4369,-259 -6220,-775 -1891,-528 -3538,-1323 -4942,-2384 -1396,-1053 -2551,-2301 -3463,-3739 -909,-1433 -1577,-3054 -2003,-4857l-305 -1289 1316 -219zm43825 -11908l-7724 -1521 -1289 -254 326 -1273c466,-1819 1099,-3401 1901,-4748 827,-1389 1833,-2540 3019,-3454l5 -5c1199,-913 2668,-1597 4410,-2047 1685,-436 3616,-655 5795,-655 1964,0 3688,130 5175,389 1546,269 2843,681 3893,1234 1026,543 1910,1165 2648,1865 755,717 1357,1520 1801,2409 440,881 766,2082 974,3603 199,1453 299,3205 299,5255l-5 10 -93 10818 5 0c0,1544 32,2858 97,3940 65,1085 162,1969 292,2649l0 5c122,660 305,1362 545,2099 246,756 547,1530 898,2317l782 1751 -1915 0 -8427 0 -878 0 -294 -837c-129,-368 -267,-794 -409,-1269 -58,-195 -120,-409 -186,-642 -286,243 -576,473 -869,691 -840,625 -1713,1149 -2619,1575l-5 5c-1823,844 -3765,1266 -5825,1266 -1795,0 -3421,-273 -4873,-816 -1481,-554 -2765,-1386 -3845,-2493 -1071,-1098 -1877,-2349 -2417,-3752 -536,-1392 -802,-2908 -802,-4549 0,-1078 122,-2113 365,-3102 243,-987 609,-1920 1099,-2796 495,-886 1090,-1666 1784,-2342 695,-677 1486,-1248 2372,-1715 836,-440 1859,-854 3065,-1239 1182,-377 2527,-725 4034,-1041l5 0c1955,-399 3606,-786 4948,-1155 920,-253 1693,-498 2317,-732l0 -96c0,-769 -82,-1408 -244,-1920 -137,-433 -330,-766 -577,-1000l2 -2c-245,-226 -643,-408 -1194,-545 -656,-163 -1497,-246 -2523,-246 -657,0 -1222,66 -1695,196 -434,120 -799,294 -1094,521l-10 10c-295,223 -572,552 -833,985 -296,492 -560,1099 -792,1816l-340 1054 -1080 -213zm10378 8002c-172,49 -352,100 -539,151 -935,256 -1973,517 -3115,784 -1144,268 -2073,527 -2788,775 -663,231 -1134,445 -1412,641 -385,311 -672,648 -858,1013 -184,360 -277,772 -277,1239 0,504 81,958 241,1362 163,410 414,795 752,1155 323,344 685,600 1086,768 410,171 877,257 1401,257 627,0 1231,-110 1815,-329l0 -1c611,-229 1212,-576 1803,-1037l-1 -1c418,-337 760,-707 1023,-1107 260,-396 453,-835 581,-1317l10 -24c86,-299 153,-791 202,-1469 51,-707 75,-1611 75,-2708l0 -152zm16762 15136l0 -48390 0 -1245 1245 0 8510 0 1245 0 0 1245 0 48390 0 1245 -1245 0 -8510 0 -1245 0 0 -1245zm37324 -12374l8490 1544 1398 254 -435 1346c-584,1805 -1337,3402 -2263,4790 -938,1405 -2052,2593 -3345,3563l0 -1c-1298,983 -2751,1714 -4358,2197 -1592,478 -3331,716 -5216,716 -2978,0 -5589,-538 -7834,-1616 -2277,-1094 -4149,-2728 -5616,-4905l-5 -10c-1135,-1707 -1986,-3637 -2553,-5785 -560,-2124 -841,-4452 -841,-6979 0,-3023 369,-5735 1106,-8139 748,-2440 1875,-4547 3379,-6319 1505,-1781 3223,-3121 5151,-4021 1935,-904 4058,-1356 6365,-1356 2566,0 4879,470 6938,1410 2068,944 3855,2354 5362,4229 1496,1868 2596,4207 3302,7018 686,2736 1000,5939 941,9609l-20 1225 -1220 0 -20010 0c82,744 222,1426 421,2046 291,907 709,1677 1254,2307l5 5c541,631 1140,1100 1795,1407 646,303 1372,454 2173,454 529,0 1005,-74 1426,-223 411,-144 782,-361 1115,-647l-2 -2c348,-306 659,-712 932,-1220 296,-552 547,-1215 747,-1988l289 -1115 1131 206zm-1054 -9398c-77,-710 -206,-1357 -386,-1941 -265,-854 -643,-1564 -1134,-2131 -489,-565 -1025,-985 -1606,-1260 -567,-268 -1195,-403 -1882,-403 -745,0 -1413,144 -2005,430 -604,291 -1149,736 -1638,1332l0 5c-498,603 -873,1325 -1123,2166 -165,552 -276,1153 -335,1802l10109 0zm62837 2806l8686 2997 1081 373 -279 1105c-692,2741 -1621,5145 -2788,7211 -1187,2102 -2612,3842 -4275,5219 -1667,1379 -3561,2414 -5681,3104 -2096,683 -4401,1025 -6910,1025 -3122,0 -5978,-587 -8565,-1758 -2589,-1171 -4893,-2924 -6912,-5255 -2013,-2331 -3521,-5078 -4521,-8238 -988,-3124 -1483,-6651 -1483,-10578 0,-4140 498,-7837 1492,-11093 1007,-3297 2520,-6125 4538,-8485 2027,-2364 4383,-4143 7067,-5335 2677,-1189 5654,-1784 8932,-1784 2865,0 5480,468 7843,1405 2372,941 4467,2349 6283,4225 1105,1125 2062,2485 2874,4077 793,1556 1455,3353 1987,5389l314 1199 -1204 313 -8883 2310 -1263 329 -264 -1282c-232,-1127 -593,-2134 -1084,-3022 -477,-863 -1078,-1609 -1801,-2237l-5 -5c-708,-618 -1496,-1082 -2364,-1393l0 -5c-868,-311 -1832,-466 -2889,-466 -1461,0 -2775,280 -3937,840 -1163,561 -2199,1412 -3104,2552 -911,1144 -1601,2669 -2070,4577 -486,1978 -729,4364 -729,7156 0,2973 240,5500 721,7580 463,2000 1143,3577 2042,4726l5 5c889,1148 1905,2004 3044,2568 1136,562 2417,843 3842,843 1039,0 1995,-175 2866,-526 874,-352 1683,-886 2426,-1602 747,-716 1395,-1654 1946,-2811 576,-1213 1043,-2660 1402,-4338l294 -1376 1325 457zm22045 -4171l-7724 -1521 -1288 -254 326 -1273c466,-1819 1099,-3401 1901,-4748 827,-1389 1833,-2540 3019,-3454l5 -5c1199,-913 2668,-1597 4411,-2047 1685,-436 3616,-655 5794,-655 1964,0 3688,130 5175,389 1546,269 2843,681 3893,1234 1026,543 1910,1165 2648,1865 755,717 1357,1520 1801,2409 440,881 766,2082 974,3603 199,1453 299,3205 299,5255l-5 10 -93 10818 5 0c0,1544 32,2858 97,3940 65,1085 162,1969 292,2649l0 5c122,660 305,1362 545,2099 246,756 547,1530 898,2317l782 1751 -1915 0 -8427 0 -878 0 -294 -837c-129,-368 -268,-794 -409,-1269 -58,-195 -120,-409 -186,-642 -286,243 -576,473 -869,691 -840,625 -1713,1149 -2619,1575l-5 5c-1823,844 -3765,1266 -5825,1266 -1795,0 -3421,-273 -4873,-816 -1481,-554 -2764,-1386 -3844,-2493 -1071,-1098 -1877,-2349 -2417,-3752 -535,-1391 -803,-2908 -803,-4549 0,-2181 488,-4152 1464,-5898 495,-886 1090,-1666 1784,-2342 695,-677 1486,-1248 2372,-1715 836,-440 1859,-854 3065,-1239 1181,-377 2527,-725 4034,-1041l5 0c1955,-399 3606,-786 4948,-1155 920,-253 1693,-498 2317,-732l0 -96c0,-769 -82,-1408 -244,-1920 -137,-433 -330,-766 -577,-1000l2 -2c-245,-226 -643,-408 -1194,-545 -656,-163 -1497,-246 -2523,-246 -657,0 -1222,66 -1695,196 -434,120 -799,294 -1094,521l-10 10c-294,223 -572,552 -833,985 -296,492 -560,1099 -792,1816l-340 1054 -1080 -213zm10378 8002c-172,49 -352,100 -539,151 -935,256 -1973,517 -3115,784 -1144,268 -2073,527 -2788,775 -663,231 -1134,445 -1412,641 -385,311 -672,648 -858,1013 -184,360 -277,772 -277,1239 0,504 81,958 241,1362 163,410 414,795 753,1155 323,344 685,600 1086,768 410,171 877,257 1402,257 627,0 1231,-110 1814,-329l0 -1c611,-229 1212,-576 1804,-1037l-1 -1c418,-337 760,-707 1023,-1107 260,-396 454,-835 581,-1317l10 -24c86,-299 153,-791 202,-1469 51,-707 75,-1611 75,-2708l0 -152zm16762 15136l0 -48390 0 -1245 1245 0 8510 0 1245 0 0 1245 0 48390 0 1245 -1245 0 -8510 0 -1245 0 0 -1245zm46774 -23465l-8397 1645 -1272 249 -197 -1285c-121,-792 -317,-1479 -588,-2059 -252,-541 -568,-986 -946,-1335 -375,-346 -809,-607 -1300,-782l0 -2c-510,-181 -1092,-272 -1747,-272 -883,0 -1661,160 -2334,477 -668,315 -1256,794 -1766,1435l1 0c-1083,1374 -1625,3788 -1625,7242 0,1994 151,3681 452,5061 283,1296 689,2299 1218,3006 520,695 1125,1214 1813,1557 684,341 1469,511 2355,511 666,0 1255,-97 1769,-290 499,-188 944,-473 1337,-853 398,-386 746,-932 1042,-1635 323,-765 582,-1714 779,-2844l216 -1239 1233 227 8366 1544 1250 231 -258 1243c-458,2204 -1133,4148 -2021,5830 -907,1717 -2036,3161 -3385,4328l2 2c-1355,1179 -2941,2060 -4759,2646 -1781,574 -3770,860 -5965,860 -2523,0 -4803,-438 -6837,-1314 -2045,-881 -3830,-2202 -5352,-3964 -1514,-1748 -2646,-3824 -3396,-6225 -739,-2367 -1108,-5044 -1108,-8028 0,-3010 371,-5704 1111,-8081 753,-2416 1888,-4497 3404,-6240 1533,-1763 3336,-3085 5409,-3966 2059,-875 4367,-1312 6924,-1312 2072,0 3947,249 5625,745 1714,507 3213,1270 4496,2288 1272,1013 2364,2288 3274,3821 889,1499 1602,3244 2138,5235l346 1285 -1309 256zm4969 -16340l0 -8585 0 -1245 1245 0 8510 0 1245 0 0 1245 0 8585 0 1245 -1245 0 -8510 0 -1245 0 0 -1245zm0 39805l0 -35051 0 -1245 1245 0 8510 0 1245 0 0 1245 0 35051 0 1245 -1245 0 -8510 0 -1245 0 0 -1245zm15262 -18027c0,-1625 187,-3232 557,-4818 367,-1573 921,-3128 1659,-4663l0 -5c752,-1549 1663,-2919 2729,-4106 1069,-1190 2297,-2197 3682,-3015l1 1c1381,-822 2839,-1439 4371,-1848 1535,-410 3143,-616 4822,-616 2593,0 4970,467 7130,1400 2164,936 4085,2331 5758,4185 1667,1846 2916,3933 3747,6262 825,2312 1238,4855 1238,7628 0,2790 -418,5352 -1251,7685 -837,2343 -2096,4451 -3776,6323l0 5c-1691,1879 -3606,3288 -5744,4230 -2138,941 -4485,1411 -7040,1411 -1569,0 -3111,-195 -4630,-586 -1519,-391 -2986,-971 -4401,-1739 -1441,-782 -2720,-1757 -3838,-2925l-5 0c-1107,-1157 -2037,-2492 -2789,-4003l0 -5c-740,-1499 -1298,-3159 -1668,-4979 -367,-1801 -552,-3742 -552,-5823zm11217 496c0,1628 173,3050 519,4266 333,1170 822,2148 1469,2934l5 5c639,782 1347,1365 2120,1748 757,374 1599,562 2522,562 1831,0 3371,-770 4621,-2310 645,-790 1134,-1774 1465,-2951 345,-1227 517,-2667 517,-4322 0,-1600 -173,-3006 -518,-4213 -331,-1159 -820,-2135 -1464,-2924 -636,-784 -1339,-1367 -2107,-1748 -754,-374 -1592,-561 -2513,-561 -1834,0 -3384,770 -4642,2310l-5 5c-646,785 -1135,1763 -1467,2932 -347,1219 -520,2643 -520,4268zm-127031 190028c0,-909 285,-1650 857,-2218 571,-569 1283,-854 2133,-854 383,0 741,45 1076,138 334,92 528,138 582,138 197,0 322,-92 376,-276l188 0 80 1971 -206 0c-328,-1091 -969,-1637 -1924,-1637 -652,0 -1169,238 -1554,713 -385,475 -577,1112 -577,1910 0,510 67,952 201,1325 134,373 315,654 542,845 227,190 461,329 703,414 242,85 500,128 776,128 704,0 1369,-296 1996,-889l161 158c-274,358 -623,634 -1047,827 -424,194 -889,291 -1398,291 -880,0 -1595,-273 -2142,-819 -547,-546 -820,-1267 -820,-2165zm8873 2984c-808,0 -1490,-282 -2047,-844 -557,-562 -836,-1295 -836,-2202 0,-889 276,-1618 827,-2189 550,-571 1253,-857 2109,-857 861,0 1565,285 2112,852 548,568 822,1310 822,2229 0,889 -278,1612 -831,2171 -554,559 -1273,839 -2157,839zm1959 -3019c0,-421 -42,-795 -125,-1124 -83,-327 -189,-590 -318,-789 -128,-198 -279,-362 -452,-491 -173,-128 -342,-216 -506,-263 -164,-47 -333,-70 -504,-70 -292,0 -555,62 -788,185 -233,122 -416,276 -550,461 -135,183 -246,402 -336,653 -89,252 -151,493 -183,725 -33,230 -49,465 -49,706 0,298 30,591 90,877 59,286 155,574 286,860 131,286 327,518 586,694 260,175 568,262 926,262 362,0 677,-88 943,-262 266,-176 465,-408 600,-694 134,-286 231,-574 291,-860 60,-286 90,-577 90,-869zm6183 -1334c0,151 -18,295 -54,434 -36,139 -106,287 -212,443 -105,157 -243,292 -418,405 -173,113 -410,207 -709,282 -300,75 -647,113 -1042,113 -179,0 -385,-9 -618,-26l0 1614c0,325 52,537 157,634 104,98 333,152 685,164l0 167 -2506 0 0 -167c340,-29 550,-92 631,-189 81,-97 121,-330 121,-700l0 -3811c0,-317 -42,-519 -125,-607 -84,-88 -292,-150 -626,-185l0 -167 2367 0c268,0 530,25 780,75 251,50 501,131 749,244 247,111 447,276 597,494 149,217 223,478 223,785zm-3052 -965l0 2281c209,18 379,27 510,27 1038,0 1557,-430 1557,-1289 0,-451 -143,-782 -429,-996 -287,-213 -731,-320 -1334,-320 -119,0 -200,21 -242,62 -42,41 -63,120 -63,236zm8208 965c0,151 -18,295 -54,434 -36,139 -106,287 -212,443 -104,157 -243,292 -418,405 -173,113 -410,207 -709,282 -300,75 -647,113 -1043,113 -179,0 -385,-9 -618,-26l0 1614c0,325 52,537 157,634 104,98 332,152 685,164l0 167 -2506 0 0 -167c340,-29 550,-92 631,-189 81,-97 121,-330 121,-700l0 -3811c0,-317 -42,-519 -125,-607 -83,-88 -292,-150 -627,-185l0 -167 2367 0c268,0 530,25 780,75 251,50 501,131 749,244 248,111 448,276 597,494 149,217 224,478 224,785zm-3052 -965l0 2281c209,18 379,27 510,27 1038,0 1557,-430 1557,-1289 0,-451 -143,-782 -429,-996 -287,-213 -731,-320 -1334,-320 -119,0 -200,21 -242,62 -42,41 -62,120 -62,236zm9138 5027l0 167 -2282 0 0 -167c239,-6 403,-29 492,-69 89,-41 134,-116 134,-226 0,-138 -57,-331 -170,-581l-367 -832 -2345 0 -412 1014c-48,122 -72,235 -72,339 0,236 203,355 609,355l0 167 -1772 0 0 -167c221,-12 393,-95 515,-251 123,-156 321,-553 595,-1193l1862 -4321 179 0 2228 4999c144,323 263,528 358,616 95,88 245,138 448,150zm-4386 -2095l2068 0 -1038 -2421 -1030 2421zm7760 1303l0 -3908c0,-323 -49,-530 -147,-621 -99,-91 -339,-148 -721,-172l0 -167 2658 0 0 167c-376,18 -616,73 -721,167 -104,94 -157,302 -157,625l0 3908c0,323 54,532 161,629 107,97 346,151 716,163l0 167 -2658 0 0 -167c376,-12 614,-64 716,-158 101,-94 152,-305 152,-634zm4180 -4480l-483 0c-501,0 -837,66 -1007,200 -170,132 -309,436 -416,909l-215 0 54 -1496 5048 0 54 1496 -215 0c-101,-480 -237,-785 -407,-914 -170,-131 -509,-195 -1016,-195l-484 0 0 4483c0,321 51,529 152,622 101,94 337,150 707,167l0 167 -2613 0 0 -167c370,-24 602,-83 698,-180 96,-95 143,-332 143,-706l0 -4386zm9129 5272l0 167 -2282 0 0 -167c239,-6 403,-29 492,-69 89,-41 134,-116 134,-226 0,-138 -57,-331 -170,-581l-367 -832 -2345 0 -412 1014c-48,122 -71,235 -71,339 0,236 203,355 609,355l0 167 -1772 0 0 -167c221,-12 392,-95 514,-251 123,-156 321,-553 595,-1193l1862 -4321 179 0 2228 4999c143,323 263,528 358,616 96,88 245,138 448,150zm-4386 -2095l2068 0 -1038 -2421 -1029 2421zm7715 1928c155,0 300,-9 434,-26 134,-18 252,-37 353,-57 102,-21 200,-54 295,-101 95,-47 173,-85 233,-115 60,-29 121,-78 183,-147 63,-67 111,-116 143,-145 33,-29 70,-84 112,-163 42,-79 68,-130 80,-154 12,-24 36,-75 72,-154 36,-79 54,-122 54,-128l224 0 -429 1524 -4815 0 0 -167c328,-22 540,-82 636,-179 95,-97 143,-301 143,-612l0 -3909c0,-311 -48,-515 -143,-612 -96,-97 -308,-157 -636,-180l0 -167 2524 0 0 167c-352,24 -579,84 -680,180 -101,97 -152,302 -152,613l0 4170c0,153 47,251 139,295 93,44 303,66 631,66l600 0zm3276 -625l0 -3908c0,-323 -49,-530 -148,-621 -98,-91 -338,-148 -720,-172l0 -167 2658 0 0 167c-376,18 -616,73 -721,167 -104,94 -157,302 -157,625l0 3908c0,323 54,532 161,629 107,97 346,151 716,163l0 167 -2658 0 0 -167c376,-12 614,-64 716,-158 101,-94 152,-305 152,-634zm8243 792l0 167 -2282 0 0 -167c239,-6 403,-29 492,-69 89,-41 134,-116 134,-226 0,-138 -57,-331 -170,-581l-367 -832 -2345 0 -412 1014c-48,122 -72,235 -72,339 0,236 203,355 609,355l0 167 -1772 0 0 -167c221,-12 392,-95 514,-251 123,-156 321,-553 595,-1193l1862 -4321 179 0 2229 4999c143,323 263,528 358,616 95,88 245,138 448,150zm-4386 -2095l2068 0 -1038 -2421 -1030 2421zm12889 -678c0,264 -30,522 -90,775 -60,253 -170,514 -331,783 -162,270 -369,503 -619,700 -251,197 -585,360 -1000,489 -416,129 -886,194 -1412,194l-2545 0 0 -167c340,-25 556,-83 649,-177 92,-94 139,-299 139,-616l0 -3905c0,-323 -43,-527 -130,-615 -87,-88 -306,-148 -658,-179l0 -167 2420 0c544,0 1029,60 1457,180 427,120 770,276 1031,466 260,191 475,417 645,678 171,261 288,518 350,770 63,252 94,516 94,792zm-985 62c0,-251 -25,-493 -76,-723 -51,-232 -142,-465 -273,-703 -131,-236 -301,-440 -510,-609 -209,-170 -483,-310 -823,-417 -340,-108 -728,-163 -1164,-163 -185,0 -309,24 -371,71 -63,47 -94,138 -94,271l0 4457c0,141 33,234 98,284 66,50 188,75 367,75 1898,0 2846,-848 2846,-2544zm2291 1919l0 -3908c0,-323 -49,-530 -147,-621 -99,-91 -339,-148 -721,-172l0 -167 2658 0 0 167c-376,18 -616,73 -720,167 -104,94 -157,302 -157,625l0 3908c0,323 54,532 161,629 107,97 346,151 716,163l0 167 -2658 0 0 -167c376,-12 614,-64 716,-158 102,-94 152,-305 152,-634zm5120 625c155,0 300,-9 434,-26 134,-18 252,-37 354,-57 101,-21 200,-54 295,-101 95,-47 173,-85 233,-115 60,-29 121,-78 183,-147 62,-67 111,-116 143,-145 33,-29 70,-84 112,-163 42,-79 69,-130 81,-154 12,-24 36,-75 71,-154 36,-79 54,-122 54,-128l223 0 -430 1524 -4815 0 0 -167c329,-22 540,-82 636,-179 95,-97 143,-301 143,-612l0 -3909c0,-311 -48,-515 -143,-612 -95,-97 -307,-157 -636,-180l0 -167 2524 0 0 167c-352,24 -579,84 -680,180 -102,97 -152,302 -152,613l0 4170c0,153 46,251 139,295 92,44 303,66 631,66l599 0zm4099 -377c0,169 49,274 148,315 98,41 362,62 792,62l242 0c639,0 1095,-75 1369,-223 275,-150 522,-461 743,-935l251 0 -403 1492 -4833 0 0 -167c328,-25 540,-85 636,-182 95,-97 143,-301 143,-612l0 -3906c0,-311 -48,-515 -143,-612 -96,-97 -308,-157 -636,-180l0 -167 4752 0 27 1259 -224 0c-77,-393 -197,-646 -358,-757 -161,-112 -495,-167 -1002,-167l-1209 0c-119,0 -198,19 -237,57 -39,37 -58,117 -58,239l0 1931 1379 0c382,0 628,-56 738,-166 111,-112 192,-326 246,-644l206 0 0 2016 -206 0c-60,-352 -146,-576 -260,-673 -113,-97 -355,-145 -725,-145l-1379 0 0 2167zm5889 -4728l-483 0c-501,0 -837,66 -1007,200 -170,132 -309,436 -416,909l-215 0 54 -1496 5048 0 54 1496 -215 0c-101,-480 -237,-785 -407,-914 -170,-131 -509,-195 -1016,-195l-483 0 0 4483c0,321 51,529 152,622 101,94 337,150 707,167l0 167 -2613 0 0 -167c370,-24 602,-83 698,-180 96,-95 143,-332 143,-706l0 -4386zm5424 0l-483 0c-501,0 -837,66 -1007,200 -170,132 -309,436 -416,909l-215 0 54 -1496 5048 0 53 1496 -215 0c-101,-480 -237,-785 -407,-914 -170,-131 -509,-195 -1016,-195l-483 0 0 4483c0,321 51,529 152,622 101,94 337,150 707,167l0 167 -2613 0 0 -167c370,-24 603,-83 698,-180 96,-95 143,-332 143,-706l0 -4386zm9129 5272l0 167 -2282 0 0 -167c239,-6 403,-29 492,-69 90,-41 134,-116 134,-226 0,-138 -57,-331 -170,-581l-367 -832 -2345 0 -412 1014c-47,122 -71,235 -71,339 0,236 203,355 609,355l0 167 -1772 0 0 -167c221,-12 392,-95 514,-251 123,-156 321,-553 595,-1193l1862 -4321 179 0 2229 4999c144,323 263,528 358,616 95,88 245,138 447,150zm-4386 -2095l2068 0 -1038 -2421 -1030 2421zm10875 -3398c-167,18 -291,37 -371,57 -81,21 -164,66 -251,137 -87,70 -146,180 -179,330 -33,150 -49,350 -49,603l0 4630 -152 0 -3956 -4841 0 3450c0,446 54,741 161,885 107,144 334,224 680,242l0 167 -2104 0 0 -167c370,-24 607,-104 712,-242 104,-138 156,-433 156,-885l0 -3881c-179,-205 -320,-337 -425,-396 -104,-59 -252,-88 -443,-88l0 -167 1531 0 3446 4260 0 -2966c0,-446 -55,-738 -165,-876 -111,-138 -342,-221 -694,-251l0 -167 2103 0 0 167zm2390 220l-483 0c-501,0 -837,66 -1007,200 -170,132 -309,436 -416,909l-215 0 54 -1496 5048 0 54 1496 -215 0c-101,-480 -237,-785 -407,-914 -170,-131 -509,-195 -1016,-195l-483 0 0 4483c0,321 51,529 152,622 101,94 337,150 707,167l0 167 -2614 0 0 -167c370,-24 603,-83 698,-180 96,-95 144,-332 144,-706l0 -4386zm4171 4480l0 -3908c0,-323 -49,-530 -148,-621 -99,-91 -339,-148 -720,-172l0 -167 2658 0 0 167c-376,18 -616,73 -721,167 -104,94 -157,302 -157,625l0 3908c0,323 54,532 161,629 107,97 346,151 716,163l0 167 -2658 0 0 -167c376,-12 614,-64 716,-158 102,-94 152,-305 152,-634zm-62657 6302c-107,0 -322,64 -644,194l0 -123 1604 -801 70 18 0 5281c0,211 54,349 163,414 109,64 342,100 697,106l0 132 -2479 0 0 -132c337,-12 566,-60 683,-145 118,-85 176,-265 176,-541l0 -3987c0,-276 -89,-414 -268,-414zm3358 5413l-27 -176c680,-117 1258,-403 1732,-857 474,-453 804,-1038 989,-1757 -442,340 -889,510 -1343,510 -484,0 -873,-164 -1168,-494 -295,-330 -443,-761 -443,-1297 0,-597 177,-1095 532,-1493 355,-398 798,-597 1329,-597 592,0 1077,233 1456,698 377,467 567,1065 567,1796 0,235 -21,475 -64,723 -42,247 -140,539 -294,877 -154,337 -355,640 -603,908 -247,267 -601,509 -1061,728 -459,217 -993,361 -1604,431zm1674 -2667c113,0 242,-16 385,-48 143,-32 288,-102 434,-211 146,-107 219,-241 219,-399l0 -342c0,-1486 -394,-2230 -1182,-2230 -185,0 -343,48 -474,145 -132,97 -231,223 -300,381 -69,158 -118,318 -148,483 -30,164 -45,336 -45,518 0,521 100,934 300,1242 200,307 470,461 810,461zm2801 2667l-27 -176c680,-117 1258,-403 1732,-857 474,-453 804,-1038 989,-1757 -441,340 -889,510 -1343,510 -483,0 -873,-164 -1168,-494 -295,-330 -443,-761 -443,-1297 0,-597 178,-1095 533,-1493 355,-398 798,-597 1329,-597 592,0 1077,233 1456,698 377,467 567,1065 567,1796 0,235 -21,475 -64,723 -42,247 -140,539 -294,877 -154,337 -355,640 -602,908 -248,267 -601,509 -1061,728 -460,217 -994,361 -1604,431zm1674 -2667c113,0 242,-16 384,-48 143,-32 288,-102 434,-211 146,-107 219,-241 219,-399l0 -342c0,-1486 -394,-2230 -1181,-2230 -185,0 -343,48 -475,145 -131,97 -231,223 -300,381 -69,158 -118,318 -148,483 -30,164 -45,336 -45,518 0,521 100,934 300,1242 200,307 470,461 810,461zm2801 2667l-26 -176c680,-117 1257,-403 1732,-857 474,-453 804,-1038 989,-1757 -441,340 -889,510 -1342,510 -484,0 -873,-164 -1168,-494 -295,-330 -443,-761 -443,-1297 0,-597 178,-1095 533,-1493 355,-398 798,-597 1329,-597 592,0 1077,233 1456,698 378,467 567,1065 567,1796 0,235 -21,475 -64,723 -42,247 -140,539 -294,877 -154,337 -355,640 -603,908 -247,267 -601,509 -1060,728 -460,217 -994,361 -1604,431zm1674 -2667c113,0 242,-16 385,-48 143,-32 288,-102 434,-211 146,-107 220,-241 220,-399l0 -342c0,-1486 -394,-2230 -1182,-2230 -185,0 -343,48 -474,145 -131,97 -231,223 -300,381 -69,158 -118,318 -148,483 -29,164 -45,336 -45,518 0,521 100,934 300,1242 200,307 470,461 810,461z"/>
   <path class="fil5" d="M215000 180l213552 0 1245 0 0 1245 0 457165c0,13532 -6102,26626 -19157,34651 -25309,15556 -172895,106913 -195641,106913 -22746,0 -170332,-91357 -195641,-106913 -13055,-8025 -19157,-21119 -19157,-34651l0 -457165 0 -1245 1245 0 213552 0zm212308 2490l-212308 0 -212308 0 0 455920c0,12760 5664,24967 17970,32531 24867,15285 172709,106543 194338,106543 21628,0 169470,-91259 194338,-106543 12306,-7564 17970,-19771 17970,-32531l0 -455920zm-361591 176164c0,-909 285,-1650 856,-2218 571,-569 1283,-854 2133,-854 383,0 741,45 1076,138 334,92 528,138 582,138 197,0 322,-92 376,-276l188 0 80 1971 -206 0c-328,-1091 -970,-1637 -1924,-1637 -652,0 -1169,238 -1554,713 -385,475 -577,1112 -577,1910 0,510 67,952 201,1325 134,372 315,654 542,845 227,190 461,329 703,414 242,85 500,128 775,128 704,0 1370,-296 1996,-889l161 158c-274,358 -623,634 -1047,827 -424,194 -889,291 -1398,291 -880,0 -1595,-273 -2142,-819 -547,-546 -820,-1267 -820,-2165zm11997 2693l0 167 -2282 0 0 -167c239,-6 403,-29 492,-69 89,-41 134,-116 134,-226 0,-138 -57,-331 -170,-581l-367 -832 -2345 0 -412 1014c-48,122 -71,235 -71,339 0,236 203,355 609,355l0 167 -1772 0 0 -167c221,-12 392,-95 514,-251 123,-156 321,-553 595,-1193l1862 -4321 179 0 2228 4999c143,323 263,528 358,616 95,88 245,138 447,150zm-4386 -2095l2068 0 -1038 -2421 -1029 2421zm10579 -2781l-2291 5044 -125 0 -2247 -4841 0 3547c0,446 54,741 161,885 107,144 334,224 680,242l0 167 -2103 0 0 -167c370,-24 607,-104 712,-242 104,-138 156,-433 156,-885l0 -3573c0,-323 -49,-530 -147,-621 -99,-91 -333,-148 -703,-172l0 -167 1772 0 2067 4445 1978 -4445 1781 0 0 167c-334,29 -547,91 -640,185 -92,94 -139,296 -139,607l0 3908c0,311 48,515 143,612 95,97 307,157 635,180l0 167 -2506 0 0 -167c352,-24 576,-87 671,-189 95,-103 143,-336 143,-700l0 -3987zm6677 814c0,151 -18,295 -54,434 -36,139 -106,287 -212,443 -105,157 -243,292 -418,405 -173,113 -410,207 -709,282 -300,75 -647,113 -1043,113 -179,0 -385,-9 -618,-26l0 1614c0,325 52,537 157,634 104,98 332,152 685,164l0 167 -2506 0 0 -167c340,-29 550,-92 631,-189 81,-97 121,-330 121,-700l0 -3811c0,-317 -42,-519 -125,-607 -84,-88 -292,-150 -627,-185l0 -167 2367 0c268,0 530,25 780,75 251,50 501,131 749,244 248,111 448,276 597,494 149,217 224,478 224,785zm-3052 -965l0 2281c209,18 379,27 510,27 1038,0 1557,-430 1557,-1289 0,-451 -143,-782 -429,-996 -287,-213 -731,-320 -1334,-320 -119,0 -200,21 -242,62 -42,41 -62,120 -62,236zm4359 4235l0 -3908c0,-323 -49,-530 -147,-621 -99,-91 -339,-148 -721,-172l0 -167 2658 0 0 167c-376,18 -616,73 -720,167 -104,94 -157,302 -157,625l0 3908c0,323 54,532 161,629 107,97 346,151 716,163l0 167 -2658 0 0 -167c376,-12 614,-64 716,-158 102,-94 152,-305 152,-634zm5120 1083c-808,0 -1490,-282 -2047,-844 -556,-562 -836,-1295 -836,-2202 0,-889 276,-1618 827,-2189 550,-571 1253,-857 2109,-857 861,0 1565,285 2112,852 548,568 822,1310 822,2229 0,889 -278,1612 -831,2171 -553,559 -1272,839 -2157,839zm1959 -3019c0,-421 -42,-795 -125,-1124 -84,-327 -190,-590 -318,-789 -128,-198 -279,-362 -452,-491 -173,-128 -342,-216 -505,-263 -164,-47 -333,-70 -504,-70 -292,0 -555,62 -787,185 -233,122 -417,276 -551,461 -135,183 -246,402 -336,653 -90,253 -151,493 -184,725 -33,230 -49,465 -49,706 0,298 30,591 90,877 59,286 155,574 286,860 131,286 327,518 586,694 260,175 569,263 926,263 362,0 677,-88 943,-263 266,-176 465,-408 600,-694 134,-286 231,-574 291,-860 59,-286 89,-577 89,-869zm7687 -2764c-167,18 -291,37 -372,57 -80,21 -164,66 -251,137 -87,70 -146,180 -179,330 -33,150 -49,351 -49,603l0 4630 -152 0 -3956 -4841 0 3450c0,446 54,741 161,885 108,144 334,224 680,242l0 167 -2103 0 0 -167c370,-24 607,-104 712,-242 104,-138 156,-433 156,-885l0 -3881c-179,-205 -321,-337 -425,-396 -104,-59 -252,-88 -443,-88l0 -167 1531 0 3446 4260 0 -2966c0,-446 -55,-738 -166,-876 -111,-138 -342,-221 -694,-251l0 -167 2104 0 0 167zm1137 4700l0 -3908c0,-323 -50,-530 -148,-621 -99,-91 -339,-148 -720,-172l0 -167 2658 0 0 167c-376,18 -616,73 -721,167 -104,94 -157,302 -157,625l0 3908c0,323 54,532 161,629 107,97 346,151 716,163l0 167 -2658 0 0 -167c376,-12 615,-64 716,-158 101,-94 152,-305 152,-634zm10293 -1981c0,264 -30,522 -90,775 -60,253 -170,514 -331,783 -162,270 -369,503 -619,700 -251,197 -585,360 -999,489 -416,129 -886,194 -1413,194l-2545 0 0 -167c340,-25 556,-83 649,-177 92,-94 138,-299 138,-616l0 -3905c0,-323 -43,-527 -130,-615 -87,-88 -306,-148 -658,-179l0 -167 2419 0c545,0 1030,60 1457,180 427,120 770,276 1031,466 260,191 474,417 644,678 172,261 288,518 351,770 63,252 94,516 94,792zm-985 62c0,-251 -25,-493 -76,-723 -51,-232 -142,-465 -273,-703 -131,-236 -301,-440 -510,-609 -209,-170 -483,-310 -824,-417 -340,-108 -728,-163 -1163,-163 -185,0 -309,24 -372,71 -62,47 -94,138 -94,271l0 4457c0,141 33,234 99,284 66,50 188,75 367,75 1897,0 2846,-848 2846,-2544zm2327 -2156c0,0 -24,6 -72,18 -54,11 -110,17 -170,17 -161,0 -289,-41 -385,-123 -95,-82 -143,-191 -143,-326 0,-147 49,-267 148,-361 98,-94 225,-141 380,-141 203,0 373,75 510,225 137,150 206,336 206,559 0,264 -93,519 -278,766 -185,246 -426,443 -725,590l-80 -167c489,-329 734,-640 734,-933 0,-82 -42,-123 -125,-123zm1754 4075l0 -3908c0,-323 -49,-530 -147,-621 -99,-91 -339,-148 -721,-172l0 -167 2658 0 0 167c-376,18 -616,73 -720,167 -104,94 -157,302 -157,625l0 3908c0,323 54,532 161,629 107,97 346,151 716,163l0 167 -2658 0 0 -167c376,-12 614,-64 716,-158 102,-94 152,-305 152,-634zm4180 -4480l-483 0c-501,0 -837,66 -1007,200 -170,132 -309,436 -416,909l-215 0 54 -1496 5048 0 54 1496 -215 0c-101,-480 -237,-785 -407,-914 -170,-131 -509,-195 -1016,-195l-484 0 0 4483c0,321 51,529 152,622 101,94 337,150 707,167l0 167 -2613 0 0 -167c370,-24 602,-83 698,-180 96,-95 143,-332 143,-706l0 -4386zm9129 5272l0 167 -2282 0 0 -167c239,-6 403,-29 492,-69 89,-41 134,-116 134,-226 0,-138 -57,-331 -170,-581l-367 -832 -2345 0 -412 1014c-48,122 -71,235 -71,339 0,236 203,355 609,355l0 167 -1772 0 0 -167c221,-12 392,-95 514,-251 123,-156 321,-553 595,-1193l1862 -4321 179 0 2228 4999c143,323 263,528 358,616 96,88 245,138 448,150zm-4386 -2095l2067 0 -1038 -2421 -1029 2421zm7715 1928c155,0 300,-9 434,-26 134,-18 252,-37 353,-57 102,-21 200,-54 295,-101 95,-47 173,-85 233,-115 60,-29 121,-78 183,-147 63,-67 110,-116 143,-145 33,-29 70,-84 112,-163 42,-79 68,-130 80,-154 12,-24 36,-75 72,-154 36,-79 54,-122 54,-128l224 0 -429 1524 -4815 0 0 -167c328,-22 540,-82 636,-179 95,-97 143,-301 143,-612l0 -3909c0,-311 -48,-515 -143,-612 -96,-97 -308,-157 -636,-180l0 -167 2524 0 0 167c-352,24 -579,84 -680,180 -101,97 -152,302 -152,613l0 4170c0,153 47,251 139,295 92,44 303,66 631,66l600 0zm3276 -625l0 -3908c0,-323 -49,-530 -148,-621 -99,-91 -338,-148 -720,-172l0 -167 2658 0 0 167c-376,18 -616,73 -721,167 -104,94 -157,302 -157,625l0 3908c0,323 54,532 161,629 107,97 346,151 716,163l0 167 -2658 0 0 -167c376,-12 614,-64 716,-158 101,-94 152,-305 152,-634zm8243 792l0 167 -2282 0 0 -167c239,-6 403,-29 492,-69 89,-41 134,-116 134,-226 0,-138 -57,-331 -170,-581l-367 -832 -2345 0 -412 1014c-48,122 -72,235 -72,339 0,236 203,355 609,355l0 167 -1772 0 0 -167c221,-12 392,-95 514,-251 123,-156 321,-553 595,-1193l1862 -4321 179 0 2228 4999c144,323 263,528 358,616 95,88 245,138 448,150zm-4386 -2095l2068 0 -1038 -2421 -1030 2421zm-57521 7605c-107,0 -322,64 -645,194l0 -123 1604 -801 70 18 0 5281c0,211 54,349 163,414 109,64 342,100 697,106l0 132 -2479 0 0 -132c337,-12 566,-60 683,-145 118,-85 176,-265 176,-541l0 -3987c0,-276 -90,-414 -268,-414zm3358 5413l-27 -176c680,-117 1258,-403 1732,-857 474,-453 804,-1038 989,-1757 -442,340 -889,510 -1343,510 -483,0 -873,-164 -1168,-494 -295,-330 -443,-761 -443,-1297 0,-597 178,-1095 533,-1493 355,-398 798,-597 1329,-597 592,0 1077,233 1456,698 377,467 567,1065 567,1796 0,235 -21,475 -64,723 -42,247 -140,539 -294,877 -154,337 -355,640 -603,908 -247,267 -601,509 -1060,728 -460,217 -993,361 -1604,431zm1674 -2667c113,0 242,-16 385,-48 143,-32 288,-102 434,-211 146,-107 220,-241 220,-399l0 -342c0,-1486 -394,-2230 -1182,-2230 -185,0 -343,48 -474,145 -131,97 -231,223 -300,381 -69,158 -118,318 -148,483 -30,164 -45,336 -45,518 0,521 100,934 300,1242 200,307 470,461 810,461zm3911 -2746c-107,0 -322,64 -645,194l0 -123 1604 -801 70 18 0 5281c0,211 54,349 163,414 109,64 342,100 697,106l0 132 -2479 0 0 -132c337,-12 566,-60 683,-145 118,-85 176,-265 176,-541l0 -3987c0,-276 -89,-414 -268,-414zm3554 4533c137,0 342,79 613,238 272,158 509,237 712,237 328,0 605,-125 832,-375 227,-251 340,-561 340,-927 0,-227 -33,-428 -100,-604 -67,-175 -159,-310 -277,-406 -118,-95 -264,-175 -437,-236 -173,-60 -336,-100 -488,-117 -152,-18 -315,-26 -488,-26l0 -115c203,-70 377,-139 524,-207 146,-67 300,-158 461,-273 161,-114 285,-254 371,-418 87,-164 130,-352 130,-563 0,-276 -91,-502 -273,-678 -182,-176 -420,-264 -712,-264 -280,0 -527,75 -738,225 -212,150 -410,386 -595,708l-134 -35c155,-417 366,-758 631,-1026 266,-267 643,-400 1132,-400 412,0 746,112 1003,335 257,223 385,513 385,871 0,241 -63,452 -188,634 -125,182 -343,375 -653,581 358,153 639,346 841,583 203,238 304,575 304,1014 0,623 -243,1122 -730,1496 -486,374 -1084,560 -1794,560 -310,0 -556,-46 -739,-137 -182,-91 -273,-213 -273,-365 0,-94 31,-169 94,-225 62,-56 144,-83 246,-83zm6398 -1549l2202 0 0 528 -2202 0 0 -528zm6507 -2984c-107,0 -322,64 -644,194l0 -123 1604 -801 70 18 0 5281c0,211 54,349 163,414 109,64 342,100 697,106l0 132 -2479 0 0 -132c337,-12 566,-60 683,-145 118,-85 176,-265 176,-541l0 -3987c0,-276 -89,-414 -268,-414zm3358 5413l-27 -176c680,-117 1258,-403 1732,-857 474,-453 804,-1038 989,-1757 -442,340 -889,510 -1343,510 -483,0 -873,-164 -1168,-494 -295,-330 -443,-761 -443,-1297 0,-597 177,-1095 533,-1493 355,-398 798,-597 1329,-597 592,0 1077,233 1456,698 377,467 567,1065 567,1796 0,235 -21,475 -64,723 -42,247 -140,539 -294,877 -154,337 -355,640 -603,908 -247,267 -601,509 -1061,728 -460,217 -993,361 -1604,431zm1674 -2667c113,0 242,-16 385,-48 144,-32 288,-102 434,-211 146,-107 220,-241 220,-399l0 -342c0,-1486 -394,-2230 -1182,-2230 -185,0 -343,48 -474,145 -131,97 -231,223 -300,381 -69,158 -118,318 -148,483 -30,164 -45,336 -45,518 0,521 100,934 300,1242 200,307 470,461 810,461zm3911 -2746c-107,0 -322,64 -644,194l0 -123 1604 -801 70 18 0 5281c0,211 54,349 163,414 109,64 342,100 697,106l0 132 -2479 0 0 -132c337,-12 565,-60 683,-145 118,-85 176,-265 176,-541l0 -3987c0,-276 -89,-414 -268,-414zm7054 3222l0 528 -913 0 0 1470 -689 0 0 -1470 -2515 0 0 -528 2811 -3952 394 0 0 3952 913 0zm-1611 0l0 -3019 -2148 3019 2148 0zm-20320 -140203l41826 0 415 0 0 415 0 89540c0,1207 -222,2642 -980,4014 -587,1061 -1490,2080 -2853,2918 -4564,2805 -10362,6200 -16316,9625 -5907,3398 -11979,6831 -17135,9740 -838,472 -1755,873 -2616,1153 -870,283 -1695,448 -2341,448 -646,0 -1470,-165 -2341,-448 -861,-280 -1778,-681 -2616,-1153 -5156,-2909 -11228,-6342 -17135,-9740 -5954,-3424 -11752,-6819 -16316,-9625 -1363,-838 -2267,-1857 -2853,-2918 -758,-1372 -980,-2808 -980,-4014l0 -89540 0 -415 415 0 41826 0zm41411 830l-41411 0 -41411 0 0 89125c0,1093 199,2388 877,3615 522,944 1332,1855 2561,2610 4624,2842 10399,6225 16293,9615 5941,3418 11994,6840 17128,9737 784,442 1649,819 2467,1085 788,256 1523,406 2085,406 561,0 1297,-150 2085,-406 818,-266 1682,-643 2467,-1085 5134,-2896 11187,-6319 17128,-9737 5895,-3390 11670,-6773 16293,-9615 1229,-755 2040,-1666 2561,-2610 678,-1227 877,-2523 877,-3615l0 -89125z"/>
  </g>
 </g>
</svg>
