<?xml version="1.0" encoding="utf-8"?>
<!-- Generator: Adobe Illustrator 13.0.0, SVG Export Plug-In . SVG Version: 6.00 Build 14948)  -->
<!DOCTYPE svg PUBLIC "-//W3C//DTD SVG 1.0//EN" "http://www.w3.org/TR/2001/REC-SVG-20010904/DTD/svg10.dtd">
<svg version="1.0" id="Ebene_1" xmlns="http://www.w3.org/2000/svg" xmlns:xlink="http://www.w3.org/1999/xlink" x="0px" y="0px"
	 width="396.2px" height="396.2px" viewBox="0 0 396.2 396.2" enable-background="new 0 0 396.2 396.2" xml:space="preserve">
<path fill="#B99C41" d="M396.2,198.124C396.2,307.5,307.53,396.2,198.104,396.2C88.669,396.2,0,307.5,0,198.124
	C0,88.7,88.669,0,198.104,0C307.53,0,396.2,88.7,396.2,198.124"/>
<path d="M391.966,198.124c0,107.074-86.779,193.841-193.865,193.841c-107.096,0-193.866-86.768-193.866-193.841
	c0-107.082,86.77-193.889,193.866-193.889C305.187,4.235,391.966,91.042,391.966,198.124"/>
<path fill="#FFFFFF" d="M387.723,198.124c0,104.692-84.876,189.599-189.619,189.599c-104.75,0-189.626-84.906-189.626-189.599
	c0-104.74,84.876-189.646,189.626-189.646C302.846,8.478,387.723,93.384,387.723,198.124"/>
<path fill="#B99C41" d="M339.629,198.124c0,78.143-63.353,141.505-141.525,141.505c-78.18,0-141.533-63.362-141.533-141.505
	c0-78.191,63.353-141.553,141.533-141.553C276.276,56.571,339.629,119.933,339.629,198.124"/>
<path d="M335.371,198.124c0,75.792-61.46,137.247-137.25,137.247c-75.838,0-137.291-61.454-137.291-137.247
	c0-75.84,61.453-137.294,137.291-137.294C273.91,60.83,335.371,122.284,335.371,198.124"/>
<path fill="#FFFFFF" d="M331.118,198.124c0,73.44-59.563,132.995-133.014,132.995c-73.499,0-133.022-59.554-133.022-132.995
	c0-73.488,59.523-133.042,133.022-133.042C271.555,65.082,331.118,124.636,331.118,198.124"/>
<path fill="#B99C41" d="M80.877,84.465c1.695,1.412,2.989,2.862,3.88,4.4c0.883,1.53,1.373,3.107,1.491,4.724
	c0.087,1.577-0.197,3.186-0.844,4.802c-0.646,1.656-1.616,3.233-2.949,4.803c-1.049,1.293-2.224,2.547-3.391,3.801
	c-1.215,1.207-2.138,2.098-2.785,2.666c-0.646,0.56-1.253,0.56-1.939,0L53.062,91.854c-0.647-0.528-0.773-1.175-0.324-1.861
	c0.237-0.481,0.647-1.088,1.167-1.854c0.489-0.772,1.136-1.656,1.9-2.666c0.766-1.009,1.491-1.94,2.177-2.744
	c1.333-1.617,2.792-2.87,4.243-3.801c1.491-0.883,3.028-1.451,4.605-1.609c1.569-0.205,3.187,0.04,4.842,0.6
	c1.657,0.607,3.352,1.617,5.047,3.067L80.877,84.465 M76.318,89.915l-4.164-3.47c-1.412-1.175-2.666-1.9-3.793-2.184
	c-1.127-0.324-2.137-0.245-3.067,0.205c-0.892,0.402-1.775,1.167-2.666,2.176c-0.765,0.97-1.372,1.735-1.853,2.382l15.016,12.562
	c0.528-0.568,1.215-1.333,1.98-2.263c0.891-1.049,1.451-2.058,1.695-3.028c0.284-0.97,0.166-1.979-0.323-3.028
	C78.622,92.178,77.691,91.082,76.318,89.915"/>
<path fill="#B99C41" d="M107.613,76.871c0.323,0.363,0.284,0.773-0.079,1.214c-0.647,0.726-1.459,1.578-2.303,2.461
	c-0.891,0.851-2.058,1.939-3.517,3.193c-1.167,0.97-2.256,1.735-3.352,2.342c-1.049,0.56-2.138,0.922-3.266,1.049
	c-1.135,0.079-2.264-0.126-3.478-0.686c-1.167-0.568-2.343-1.577-3.55-2.949l-9.006-10.583c-1.578-1.853-2.421-3.549-2.586-5.125
	c-0.159-1.617,0.165-3.068,1.009-4.4c0.813-1.293,2.02-2.626,3.557-3.959c1.49-1.246,2.745-2.255,3.833-3.028
	c1.088-0.765,1.98-1.372,2.705-1.774c0.45-0.323,0.852-0.284,1.136,0.079l2.54,2.95l0.205,0.646l-0.284,0.568l-6.499,5.528
	c-0.772,0.607-1.136,1.254-1.175,1.822c-0.039,0.56,0.285,1.246,0.97,2.058l2.5,2.902l8.281-7.026l0.607-0.197l0.567,0.284
	l2.58,3.028l0.166,0.599l-0.245,0.568l-8.32,7.065l2.911,3.391c0.686,0.812,1.332,1.254,1.9,1.293
	c0.56,0.079,1.246-0.245,1.972-0.892l6.506-5.488l0.607-0.197l0.56,0.275L107.613,76.871"/>
<path fill="#B99C41" d="M132.078,62.298c0.166,0.284,0.086,0.568-0.276,0.765l-5.497,3.272l-0.481,0.079l-0.686-0.363l-10.261-6.261
	l-0.363,0.284c-0.236,0.166-0.686,0.41-1.333,0.725c-0.6,0.323-1.01,0.568-1.246,0.733l5.449,9.124l0.079,0.647l-0.363,0.521
	l-4.685,2.792l-0.607,0.079l-0.521-0.363L96.871,50.107c-0.362-0.568-0.489-1.096-0.362-1.459c0.119-0.402,0.442-0.805,0.971-1.246
	c1.774-1.498,4.116-3.067,6.979-4.81c1.617-0.97,3.194-1.696,4.645-2.177c1.459-0.489,2.871-0.686,4.243-0.607
	c1.333,0.079,2.626,0.529,3.793,1.293c1.214,0.804,2.263,1.94,3.194,3.47l0.276,0.489c1.057,1.813,1.538,3.588,1.42,5.283
	c-0.126,1.743-0.687,3.312-1.782,4.685l11.514,6.947L132.078,62.298 M114.475,48.688l-0.284-0.442
	c-0.647-1.088-1.53-1.656-2.619-1.735c-1.136-0.039-2.468,0.402-3.998,1.293c-1.01,0.646-1.94,1.207-2.752,1.774l4.164,6.987
	c0.521-0.284,1.411-0.765,2.586-1.451c1.854-1.096,2.981-2.145,3.392-3.115C115.405,51.077,115.239,49.941,114.475,48.688"/>
<path fill="#B99C41" d="M154.207,44.855c0.607,1.656,0.812,3.193,0.607,4.566c-0.205,1.372-0.765,2.618-1.616,3.714
	c-0.884,1.048-2.02,2.019-3.392,2.823c-1.372,0.852-2.949,1.578-4.764,2.263c-1.167,0.442-2.5,0.844-3.959,1.333
	c-1.451,0.441-2.579,0.725-3.431,0.883c-0.607,0.086-1.088,0.126-1.451,0.086c-0.363-0.086-0.687-0.245-0.931-0.528
	c-0.284-0.284-0.528-0.726-0.726-1.333L125.657,34.8c-0.323-0.883-0.402-1.569-0.197-2.058c0.158-0.441,0.607-0.891,1.372-1.293
	c0.765-0.441,1.814-0.93,3.147-1.53c1.333-0.568,2.587-1.096,3.714-1.498c2.626-0.97,4.969-1.53,6.987-1.735
	c2.019-0.158,3.754,0.205,5.213,1.048c1.491,0.852,2.58,2.264,3.344,4.282l0.244,0.726c0.489,1.254,0.607,2.508,0.402,3.793
	c-0.197,1.254-0.725,2.303-1.569,3.194c0.844,0.119,1.656,0.323,2.342,0.726c0.725,0.363,1.372,0.852,1.979,1.491
	c0.561,0.646,1.01,1.419,1.333,2.302L154.207,44.855 M143.103,35.447l-0.198-0.607c-0.449-1.088-1.135-1.735-2.184-1.932
	c-1.01-0.205-2.5,0.079-4.48,0.805c-1.617,0.607-2.626,1.009-2.989,1.167l2.547,6.869l4.44-1.656
	C142.905,39.083,143.875,37.545,143.103,35.447 M147.59,47.118l-0.166-0.402c-0.402-1.057-1.049-1.782-1.94-2.185
	c-0.884-0.402-2.058-0.323-3.509,0.245l-4.441,1.616l2.706,7.342c0.687-0.237,1.246-0.481,1.735-0.639
	c0.481-0.166,1.01-0.324,1.53-0.529c1.901-0.686,3.194-1.49,3.801-2.381C147.913,49.295,147.992,48.285,147.59,47.118"/>
<path fill="#B99C41" d="M176.621,18.453v0.276l-3.518,15.464c-0.197,0.97-0.481,1.782-0.805,2.342
	c-0.362,0.568-0.765,1.049-1.253,1.372l2.185,11.474l-0.166,0.599l-0.521,0.363l-5.371,1.009l-0.607-0.118l-0.363-0.528
	l-2.185-11.466c-0.6-0.158-1.167-0.442-1.696-0.804c-0.481-0.402-1.049-1.009-1.656-1.861l-8.92-13.122l-0.079-0.237l0.079-0.489
	l0.442-0.284l5.938-1.128c0.363-0.079,0.687,0.119,0.97,0.568l6.665,10.78l0.323,0.442l0.402,0.04l0.323-0.197l0.158-0.528
	l2.224-12.475c0.119-0.529,0.324-0.805,0.687-0.844l5.931-1.135l0.529,0.079L176.621,18.453"/>
<path fill="#B99C41" d="M213.933,47.56l-0.205,0.568l-0.726,0.323c-1.452,0.402-3.557,0.521-6.302,0.402
	c-1.696-0.079-3.225-0.402-4.685-0.931c-1.412-0.56-2.705-1.372-3.793-2.46c-1.088-1.088-1.94-2.547-2.547-4.321
	c-0.56-1.774-0.805-3.833-0.687-6.214l0.245-5.292c0.126-2.342,0.567-4.4,1.293-6.096c0.765-1.695,1.775-3.028,2.989-4.038
	c1.207-0.97,2.54-1.656,4.038-2.058c1.451-0.363,3.028-0.528,4.724-0.45c1.333,0.087,2.626,0.205,3.793,0.402
	c1.174,0.245,1.979,0.45,2.381,0.607c0.608,0.205,0.931,0.529,0.892,0.97l-0.205,4.037c0,0.568-0.284,0.813-0.805,0.813h-0.118
	c-1.419-0.205-2.508-0.323-3.273-0.449c-0.765-0.079-1.775-0.158-2.949-0.197c-1.049-0.04-1.94,0.118-2.745,0.481
	c-0.765,0.402-1.412,1.088-1.9,2.137c-0.521,1.009-0.805,2.429-0.883,4.203l-0.245,5.291c-0.079,1.774,0.04,3.186,0.441,4.274
	c0.403,1.049,0.97,1.822,1.696,2.263c0.772,0.489,1.656,0.726,2.705,0.804c0.363,0,0.892,0,1.578,0c0.646,0.047,1.254,0.047,1.735,0
	c0.528,0,1.049,0,1.656,0c0.646-0.039,1.049-0.039,1.254-0.039h0.118c0.529,0.039,0.765,0.323,0.726,0.891L213.933,47.56"/>
<path fill="#B99C41" d="M242.963,40.857c-0.931,4.565-2.745,7.633-5.41,9.329c-2.666,1.695-5.813,2.176-9.488,1.412
	c-3.636-0.726-6.341-2.381-8.162-5.007c-1.814-2.579-2.256-6.135-1.325-10.654l1.009-4.929c0.883-4.479,2.705-7.594,5.363-9.29
	c2.666-1.695,5.82-2.176,9.496-1.412c1.774,0.363,3.352,0.931,4.724,1.735c1.372,0.773,2.5,1.822,3.391,3.068
	c0.844,1.293,1.452,2.831,1.695,4.645c0.285,1.822,0.158,3.919-0.323,6.222L242.963,40.857 M235.896,39.445l0.97-4.89
	c0.481-2.46,0.442-4.313-0.118-5.607c-0.607-1.253-1.822-2.097-3.556-2.468c-1.128-0.197-2.138-0.158-2.989,0.166
	c-0.844,0.323-1.578,1.009-2.138,1.979c-0.567,0.97-1.049,2.263-1.372,3.872l-1.01,4.889c-0.284,1.617-0.41,2.989-0.244,4.077
	c0.158,1.088,0.521,1.979,1.167,2.626s1.578,1.088,2.752,1.333c1.735,0.363,3.147,0.04,4.196-0.891
	C234.604,43.562,235.368,41.866,235.896,39.445"/>
<path fill="#B99C41" d="M270.984,53.372c-0.883,2.145-1.892,3.84-3.068,5.047c-1.167,1.214-2.421,2.019-3.754,2.468
	c-1.372,0.402-2.823,0.521-4.322,0.323c-1.49-0.205-3.068-0.646-4.645-1.293c-1.61-0.686-3.029-1.451-4.196-2.342
	c-1.214-0.931-2.137-2.019-2.784-3.272c-0.686-1.293-1.009-2.784-0.931-4.479c0.04-1.695,0.481-3.596,1.373-5.693l7.106-17.278
	l0.481-0.45h0.607l5.048,2.098l0.489,0.449v0.607l-7.153,17.278c-0.56,1.373-0.883,2.5-0.922,3.431
	c-0.087,0.931,0.157,1.735,0.686,2.381c0.521,0.686,1.333,1.254,2.46,1.735c1.175,0.45,2.138,0.647,2.989,0.528
	c0.844-0.079,1.578-0.481,2.177-1.175c0.608-0.726,1.215-1.735,1.782-3.107l7.146-17.278l0.442-0.441l0.647,0.04l5.008,2.058
	l0.489,0.442v0.646L270.984,53.372"/>
<path fill="#B99C41" d="M292.184,78.732c-0.237,0.402-0.56,0.607-1.01,0.686c-0.441,0.079-0.844,0-1.207-0.245l-3.478-2.303
	c-0.402-0.284-0.686-0.56-0.843-0.883c-0.206-0.323-0.285-0.812-0.245-1.419l1.254-19.013l-0.125-0.528l-0.363,0.165l-9.409,14.171
	l-0.521,0.363l-0.647-0.118l-4.156-2.752l-0.323-0.521l0.118-0.646l15.868-23.941c0.245-0.363,0.607-0.607,1.048-0.686
	c0.403-0.079,0.813,0,1.176,0.244l3.549,2.334l0.686,0.812c0.087,0.324,0.126,0.765,0.087,1.293l-1.372,19.865l0.118,0.441
	l0.362-0.205l9.851-14.77l0.489-0.323l0.647,0.118l4.156,2.745l0.363,0.528l-0.118,0.599L292.184,78.732"/>
<polyline fill="#B99C41" points="327.035,77.802 326.466,78.046 325.859,77.762 320.899,73.078 304.14,90.885 303.533,91.168 
	302.925,90.924 298.966,87.17 298.69,86.603 298.926,85.995 315.686,68.189 310.717,63.513 310.48,62.905 310.677,62.338 
	313.627,59.191 314.195,58.986 314.755,59.191 329.897,73.48 330.181,74.048 330.023,74.655 327.035,77.802 "/>
<path fill="#B99C41" d="M349.44,99.078l-0.237,0.126l-15.387,3.753c-0.97,0.237-1.774,0.363-2.421,0.323
	c-0.687-0.086-1.294-0.244-1.775-0.528l-9.29,7.026l-0.607,0.165l-0.568-0.284l-3.304-4.361l-0.166-0.646l0.324-0.568l9.25-7.026
	c-0.126-0.607-0.126-1.207,0-1.853c0.118-0.647,0.402-1.412,0.923-2.303l7.713-13.808l0.205-0.205l0.441-0.158l0.442,0.284
	l3.675,4.803c0.205,0.323,0.205,0.686-0.079,1.127l-6.625,10.701l-0.236,0.528l0.118,0.363l0.323,0.197l0.528-0.079l12.114-3.556
	c0.52-0.119,0.883-0.04,1.088,0.244l3.675,4.803l0.157,0.528L349.44,99.078"/>
<path fill="#B99C41" d="M89.119,308.51l-0.607,0.197l-0.607-0.284l-5.655-6.333c-0.687-0.773-1.285-1.136-1.854-1.175
	c-0.567,0-1.254,0.323-2.059,1.049l-2.871,2.547l7.271,8.115l0.197,0.607l-0.276,0.56l-2.95,2.666l-0.646,0.205l-0.568-0.244
	l-7.224-8.115l-9.165,8.154l-0.607,0.205l-0.567-0.284l-3.597-4.038l-0.197-0.568l0.236-0.599l16.2-14.455
	c1.813-1.617,3.47-2.507,5.086-2.705c1.57-0.245,3.028,0.079,4.361,0.844c1.333,0.813,2.705,1.94,4.038,3.47
	c1.293,1.459,2.342,2.705,3.147,3.762c0.804,1.088,1.412,1.971,1.861,2.618c0.276,0.489,0.276,0.891-0.087,1.214L89.119,308.51"/>
<path fill="#B99C41" d="M100.665,335.558c-2.949,3.557-5.978,5.449-9.125,5.694c-3.147,0.244-6.136-0.804-9.007-3.186
	c-2.824-2.342-4.439-5.094-4.803-8.241c-0.363-3.146,0.892-6.498,3.833-10.054l3.194-3.833c2.95-3.557,5.979-5.449,9.125-5.694
	c3.107-0.244,6.135,0.844,9.006,3.186c1.373,1.175,2.5,2.429,3.352,3.753c0.804,1.38,1.333,2.792,1.49,4.321
	c0.166,1.499-0.039,3.155-0.686,4.89c-0.607,1.735-1.695,3.509-3.187,5.331L100.665,335.558 M95.097,330.953l3.186-3.833
	c1.578-1.9,2.422-3.596,2.461-4.968c0.086-1.412-0.56-2.705-1.933-3.833c-0.891-0.726-1.782-1.175-2.705-1.254
	c-0.891-0.118-1.822,0.118-2.792,0.726c-0.923,0.568-1.932,1.498-2.989,2.744l-3.187,3.841c-1.049,1.293-1.774,2.46-2.137,3.469
	c-0.41,1.049-0.489,2.019-0.205,2.871c0.245,0.883,0.844,1.696,1.774,2.46c1.373,1.127,2.705,1.538,4.117,1.167
	C92.021,334.028,93.52,332.893,95.097,330.953"/>
<path fill="#B99C41" d="M124.972,349.895c-2.295,3.998-4.961,6.34-8.037,7.104c-3.068,0.765-6.215,0.197-9.448-1.656
	c-3.225-1.861-5.245-4.321-6.136-7.35c-0.883-3.028-0.198-6.537,2.097-10.536l2.509-4.321c2.302-3.998,4.968-6.38,8.036-7.105
	c3.067-0.773,6.214-0.205,9.448,1.656c1.569,0.883,2.902,1.932,3.959,3.146c1.049,1.175,1.774,2.5,2.177,3.999
	c0.442,1.49,0.481,3.107,0.166,4.928c-0.323,1.814-1.096,3.753-2.264,5.812L124.972,349.895 M118.717,346.259l2.5-4.321
	c1.253-2.177,1.821-3.959,1.656-5.371c-0.158-1.411-1.049-2.539-2.587-3.43c-1.009-0.607-1.971-0.891-2.902-0.812
	c-0.891,0.047-1.774,0.41-2.626,1.175c-0.892,0.726-1.695,1.814-2.547,3.233l-2.5,4.361c-0.852,1.411-1.333,2.705-1.577,3.793
	c-0.198,1.088-0.08,2.058,0.323,2.862c0.402,0.813,1.096,1.538,2.145,2.146c1.57,0.883,2.989,1.048,4.275,0.48
	C116.17,349.808,117.463,348.436,118.717,346.259"/>
<polyline fill="#B99C41" points="151.746,346.504 151.257,346.945 150.618,346.906 144.317,344.438 135.35,367.173 134.909,367.614 
	134.262,367.614 129.175,365.635 128.733,365.193 128.733,364.546 137.653,341.819 131.313,339.312 130.871,338.87 130.831,338.263 
	132.4,334.265 132.85,333.823 133.497,333.823 152.795,341.409 153.276,341.859 153.324,342.505 151.746,346.504 "/>
<path fill="#B99C41" d="M171.652,368.584c-0.402,1.735-1.049,3.154-1.979,4.164c-0.931,1.088-2.059,1.814-3.392,2.216
	c-1.333,0.45-2.784,0.647-4.361,0.568c-1.617-0.04-3.352-0.284-5.205-0.726c-1.214-0.245-2.586-0.607-4.038-1.009
	c-1.459-0.45-2.587-0.813-3.352-1.136c-0.567-0.237-0.97-0.481-1.254-0.726c-0.284-0.244-0.441-0.56-0.48-0.97
	c-0.087-0.362-0.048-0.844,0.079-1.49l5.655-24.911c0.197-0.931,0.52-1.538,0.923-1.822c0.41-0.323,1.049-0.442,1.861-0.363
	c0.892,0.087,2.019,0.244,3.471,0.449c1.458,0.237,2.744,0.521,3.919,0.765c2.745,0.646,5.009,1.412,6.783,2.382
	c1.735,0.97,3.029,2.184,3.794,3.714c0.772,1.498,0.93,3.312,0.449,5.409l-0.165,0.726c-0.324,1.333-0.891,2.468-1.735,3.391
	c-0.891,0.931-1.9,1.538-3.067,1.861c0.646,0.521,1.167,1.127,1.577,1.853c0.402,0.686,0.638,1.499,0.804,2.342
	c0.119,0.891,0.079,1.782-0.118,2.705L171.652,368.584 M164.909,366.849l0.08-0.441c0.244-1.088,0.125-2.058-0.442-2.871
	c-0.528-0.804-1.538-1.412-3.068-1.735l-4.606-1.049l-1.735,7.673c0.687,0.158,1.294,0.284,1.814,0.402
	c0.489,0.158,1.009,0.245,1.538,0.402c2.019,0.442,3.51,0.489,4.479,0.079C163.979,368.907,164.585,368.103,164.909,366.849
	 M167.536,354.618l0.118-0.607c0.284-1.128,0.039-2.059-0.726-2.784c-0.725-0.687-2.137-1.293-4.195-1.783
	c-1.696-0.362-2.752-0.599-3.154-0.646l-1.57,7.065l4.599,1.057C165.39,357.56,167.046,356.794,167.536,354.618"/>
<path fill="#B99C41" d="M199.35,378.962c-0.039,0.441-0.275,0.646-0.765,0.646l-5.813-0.402c-0.489,0-0.725-0.284-0.812-0.812
	l-1.048-6.939l-8.557-0.568l-1.979,6.782c-0.118,0.489-0.402,0.726-0.892,0.686l-5.852-0.402c-0.441,0-0.686-0.245-0.646-0.687
	l0.04-0.079v-0.126l7.918-25.558c0.56-1.774,1.49-2.941,2.744-3.509s2.745-0.765,4.519-0.647c1.136,0.04,2.146,0.245,2.989,0.529
	c0.891,0.323,1.617,0.804,2.303,1.53c0.646,0.726,1.088,1.735,1.293,2.989l4.519,26.362l0.039,0.126V378.962 M190.107,365.635
	l-1.774-11.742c-0.087-0.41-0.245-0.607-0.528-0.646c-0.284,0-0.481,0.197-0.607,0.599l-3.313,11.387L190.107,365.635z"/>
<path fill="#B99C41" d="M221.078,376.943c0.039,0.489-0.245,0.805-0.765,0.97c-1.696,0.441-3.959,0.804-6.783,1.009
	c-1.499,0.118-2.871,0.079-4.085-0.079c-1.207-0.166-2.295-0.528-3.265-1.096c-0.97-0.6-1.782-1.451-2.382-2.618
	c-0.607-1.175-1.009-2.666-1.136-4.487l-1.53-21.599l0.197-0.607l0.567-0.276l5.489-0.41l0.608,0.245l0.284,0.528l1.577,21.599
	c0.04,1.049,0.324,1.775,0.726,2.177c0.441,0.363,1.128,0.528,2.138,0.449l7.185-0.489l0.567,0.245l0.324,0.521L221.078,376.943"/>
<path fill="#B99C41" d="M242.482,372.906c0.079,0.489-0.126,0.804-0.646,1.048c-1.617,0.647-3.841,1.293-6.625,1.822
	c-1.452,0.276-2.824,0.402-4.039,0.402c-1.214-0.039-2.342-0.244-3.391-0.686c-1.01-0.45-1.94-1.215-2.666-2.303
	c-0.765-1.088-1.333-2.547-1.657-4.321l-4.156-21.316l0.158-0.607l0.489-0.363l5.411-1.049l0.599,0.158l0.41,0.489l4.117,21.315
	c0.206,1.048,0.568,1.734,1.009,2.098c0.481,0.323,1.215,0.402,2.177,0.205l7.066-1.372l0.608,0.158l0.402,0.489L242.482,372.906"/>
<path fill="#B99C41" d="M275.795,360.548l0.04,0.607l-0.529,0.646c-1.128,0.97-2.988,1.979-5.528,3.028
	c-1.578,0.647-3.115,1.01-4.606,1.128c-1.538,0.126-3.028-0.079-4.479-0.599c-1.499-0.529-2.871-1.459-4.125-2.792
	c-1.285-1.373-2.382-3.146-3.305-5.323l-1.979-4.889c-0.931-2.224-1.372-4.243-1.412-6.096c-0.047-1.861,0.276-3.517,0.923-4.889
	c0.686-1.412,1.617-2.618,2.792-3.588c1.167-0.97,2.5-1.782,4.078-2.429c1.246-0.481,2.461-0.922,3.628-1.207
	c1.175-0.323,1.979-0.489,2.429-0.489c0.646-0.079,1.009,0.087,1.207,0.489l1.538,3.753c0.198,0.529,0.08,0.892-0.402,1.088
	l-0.126,0.04c-1.372,0.45-2.381,0.773-3.146,1.01c-0.726,0.244-1.657,0.607-2.745,1.057c-0.97,0.402-1.735,0.922-2.264,1.608
	c-0.567,0.686-0.844,1.577-0.844,2.705c0,1.135,0.315,2.547,1.01,4.203l1.972,4.842c0.686,1.656,1.459,2.871,2.263,3.675
	c0.813,0.813,1.617,1.254,2.508,1.333c0.844,0.119,1.774-0.039,2.744-0.441c0.363-0.126,0.844-0.363,1.452-0.646
	c0.607-0.284,1.127-0.528,1.577-0.726c0.481-0.205,0.97-0.489,1.53-0.726c0.529-0.284,0.892-0.489,1.049-0.568l0.126-0.039
	c0.48-0.205,0.844-0.04,1.049,0.48L275.795,360.548"/>
<path fill="#B99C41" d="M296.387,349.288c0.237,0.402,0.119,0.804-0.284,1.207c-1.333,1.135-3.233,2.429-5.694,3.84
	c-1.293,0.765-2.5,1.333-3.675,1.695c-1.167,0.363-2.303,0.521-3.431,0.441c-1.127-0.079-2.224-0.52-3.272-1.293
	c-1.088-0.805-2.059-1.971-2.949-3.549l-10.821-18.776l-0.039-0.646l0.362-0.521l4.764-2.705l0.607-0.086l0.528,0.362l10.82,18.776
	c0.521,0.93,1.049,1.498,1.617,1.656c0.521,0.165,1.247,0,2.099-0.521l6.262-3.596l0.639-0.04l0.528,0.363L296.387,349.288"/>
<path fill="#B99C41" d="M311.687,324.376c1.459,1.853,2.382,3.596,2.871,5.165c0.481,1.617,0.56,3.107,0.284,4.527
	c-0.323,1.372-0.93,2.666-1.86,3.872c-0.931,1.214-2.059,2.342-3.431,3.391c-1.373,1.088-2.745,1.94-4.117,2.508
	c-1.372,0.599-2.792,0.844-4.243,0.804c-1.412-0.04-2.863-0.521-4.322-1.372c-1.412-0.891-2.863-2.224-4.282-3.998l-11.467-14.739
	L281,323.935l0.324-0.568l4.322-3.352l0.607-0.205l0.52,0.284l11.467,14.739c0.93,1.167,1.735,1.979,2.547,2.5
	c0.765,0.528,1.578,0.733,2.382,0.607c0.844-0.119,1.735-0.568,2.705-1.333c0.97-0.726,1.617-1.49,1.94-2.303
	c0.284-0.765,0.323-1.569,0-2.46c-0.285-0.891-0.892-1.9-1.783-3.067l-11.467-14.699l-0.158-0.607l0.323-0.56l4.321-3.352l0.6-0.205
	l0.568,0.284L311.687,324.376"/>
<path fill="#B99C41" d="M332.926,305.718c1.333,1.214,2.184,2.468,2.666,3.801c0.45,1.333,0.489,2.666,0.245,4.038
	c-0.323,1.373-0.891,2.705-1.696,4.077c-0.852,1.372-1.94,2.744-3.233,4.156c-0.845,0.93-1.815,1.9-2.902,2.989
	c-1.097,1.049-1.98,1.814-2.667,2.342c-0.489,0.363-0.891,0.607-1.253,0.726c-0.362,0.126-0.686,0.126-1.089-0.039
	c-0.323-0.118-0.765-0.402-1.254-0.844l-18.738-17.286c-0.726-0.646-1.088-1.207-1.128-1.695c-0.079-0.521,0.118-1.128,0.607-1.814
	c0.481-0.726,1.207-1.656,2.098-2.791c0.97-1.128,1.822-2.138,2.627-3.028c1.9-2.059,3.714-3.588,5.449-4.637
	c1.695-1.049,3.391-1.577,5.086-1.458c1.696,0.086,3.352,0.851,4.929,2.303l0.568,0.528c1.009,0.883,1.696,1.979,2.059,3.186
	c0.402,1.214,0.442,2.381,0.079,3.557c0.805-0.284,1.617-0.449,2.422-0.449c0.812,0,1.616,0.165,2.42,0.489
	c0.813,0.323,1.578,0.765,2.264,1.412L332.926,305.718 M318.753,302.367l-0.441-0.442c-0.892-0.765-1.814-1.009-2.784-0.725
	c-0.97,0.284-2.185,1.214-3.597,2.744c-1.214,1.293-1.9,2.058-2.137,2.381l5.323,4.89l3.194-3.431
	C320.212,305.679,320.371,303.865,318.753,302.367 M328.083,310.726l-0.323-0.323c-0.852-0.726-1.735-1.088-2.706-1.049
	c-1.009,0.079-2.019,0.686-3.067,1.822l-3.194,3.47l5.781,5.292c0.481-0.529,0.883-0.97,1.246-1.333
	c0.363-0.362,0.725-0.772,1.088-1.175c1.42-1.49,2.184-2.784,2.303-3.833C329.377,312.508,329.014,311.577,328.083,310.726"/>
<path d="M160.185,315.576l-0.528,0.323c-0.56-0.039-1.167-0.126-1.854-0.205c-0.646-0.118-1.498-0.323-2.507-0.568
	c-0.805-0.197-1.49-0.442-2.059-0.726c-0.6-0.284-1.088-0.646-1.491-1.127c-0.402-0.441-0.646-1.049-0.765-1.735
	c-0.126-0.686-0.087-1.538,0.158-2.469l1.822-7.341c0.315-1.254,0.804-2.185,1.451-2.752c0.646-0.6,1.412-0.923,2.216-0.97
	c0.851-0.04,1.821,0.087,2.871,0.323c1.048,0.284,1.9,0.529,2.586,0.773c0.687,0.197,1.207,0.402,1.609,0.607l0.323,0.521
	l-0.521,2.059l-0.205,0.284l-0.323,0.04l-4.479-1.088c-0.528-0.166-0.93-0.118-1.175,0.04c-0.276,0.166-0.48,0.528-0.638,1.088
	l-0.489,2.019l5.733,1.412l0.284,0.205l0.04,0.362l-0.521,2.098l-0.205,0.284l-0.363,0.039l-5.694-1.411L154.854,310
	c-0.118,0.567-0.118,0.97,0.04,1.214c0.166,0.284,0.489,0.481,1.009,0.607l4.488,1.128l0.276,0.197l0.047,0.371L160.185,315.576"/>
<path d="M171.691,314.527c-0.197,1.127-0.765,1.932-1.735,2.5c-0.93,0.568-2.177,0.686-3.714,0.402
	c-0.687-0.119-1.333-0.284-2.059-0.481c-0.725-0.205-1.372-0.45-1.94-0.726l-0.363-0.607l0.363-1.822l0.166-0.236l0.323-0.087h0.079
	c0.804,0.245,1.53,0.45,2.263,0.647c0.687,0.166,1.207,0.323,1.491,0.363c0.529,0.086,0.891,0.086,1.088,0l0.402-0.639l-0.118-0.528
	l-0.568-0.568l-2.579-2.177c-0.567-0.489-0.97-1.009-1.214-1.656c-0.245-0.647-0.323-1.293-0.205-2.019
	c0.166-0.765,0.449-1.373,0.852-1.822c0.442-0.442,1.049-0.765,1.735-0.883c0.726-0.166,1.616-0.126,2.666,0.039
	c0.567,0.118,1.049,0.245,1.498,0.363c0.441,0.118,0.844,0.244,1.207,0.402c0.363,0.126,0.726,0.284,1.128,0.489l0.371,0.599
	l-0.324,1.822l-0.489,0.362l-0.04-0.039c-0.528-0.166-1.127-0.323-1.813-0.528c-0.733-0.197-1.333-0.324-1.861-0.442
	c-0.442-0.079-0.765-0.079-0.97,0l-0.323,0.442l0.087,0.402l0.441,0.528l2.5,2.058c0.772,0.686,1.293,1.293,1.498,1.9
	C171.731,313.233,171.818,313.841,171.691,314.527"/>
<path d="M180.257,318.801l-0.529,0.402c-0.726,0.048-1.293,0-1.774-0.039c-0.647-0.079-1.215-0.197-1.657-0.363
	c-0.441-0.158-0.812-0.402-1.088-0.726c-0.284-0.323-0.489-0.765-0.568-1.293c-0.119-0.52-0.119-1.167,0-1.932l0.804-6.506
	l-1.774-0.521l-0.323-0.205l-0.118-0.323l0.197-1.49l0.205-0.323l0.323-0.087l1.814,0.205l0.205-1.854l0.521-0.37l2.831-0.158
	l0.079,0.04l0.245,0.119l0.079,0.284l-0.284,2.381l1.861,0.245l0.285,0.166l0.118,0.363l-0.245,1.813l-0.158,0.323l-0.323,0.079
	l-1.861-0.236l-0.804,6.537l-0.04,0.686l0.158,0.323l0.489,0.158l1.128,0.126l0.402,0.441L180.257,318.801"/>
<polyline points="185.217,319.203 185.059,319.526 184.697,319.613 182.031,319.408 181.747,319.25 181.628,318.888 
	181.826,316.057 182.031,315.733 182.354,315.654 185.02,315.898 185.344,316.017 185.422,316.34 185.217,319.203 "/>
<polyline points="200.888,319.613 200.77,319.937 200.447,320.055 197.497,320.133 197.173,319.976 197.008,319.653 196.811,307.09 
	194.302,308.187 194.027,308.265 193.782,307.981 193.743,305.395 193.94,305.032 197.615,303.297 198.143,303.179 200.202,303.139 
	200.485,303.258 200.644,303.581 200.888,319.613 "/>
<path d="M218.333,314.156c0.079,1.096-0.079,2.019-0.528,2.792c-0.402,0.804-1.088,1.451-1.94,1.893
	c-0.883,0.449-1.932,0.733-3.107,0.852h-0.236c-1.214,0.079-2.263,0-3.194-0.323c-0.97-0.284-1.695-0.804-2.264-1.538
	c-0.56-0.686-0.883-1.569-0.97-2.666l-0.039-0.276c-0.04-0.733,0.087-1.419,0.362-2.105c0.284-0.646,0.734-1.207,1.294-1.695
	c-1.294-0.726-2.019-1.814-2.138-3.226v-0.284c-0.079-1.009,0.079-1.9,0.521-2.626c0.41-0.726,1.057-1.333,1.901-1.735
	c0.891-0.402,1.9-0.646,3.107-0.765h0.244c1.862-0.166,3.352,0.118,4.44,0.804c1.136,0.686,1.735,1.814,1.861,3.352l0.04,0.244
	c0.118,1.451-0.402,2.626-1.578,3.549c0.607,0.41,1.136,0.891,1.538,1.459c0.402,0.599,0.607,1.246,0.686,2.019V314.156
	 M214.051,307.295v-0.118c-0.079-0.647-0.284-1.136-0.687-1.499c-0.402-0.323-1.009-0.442-1.774-0.402l-0.245,0.039
	c-0.804,0.079-1.372,0.284-1.695,0.686c-0.363,0.402-0.528,0.931-0.442,1.577v0.119c0.04,0.607,0.284,1.048,0.647,1.372
	c0.402,0.363,0.923,0.489,1.57,0.45l0.725-0.086c0.647-0.04,1.175-0.276,1.499-0.639
	C213.972,308.384,214.09,307.903,214.051,307.295 M214.619,314.361l-0.04-0.244c-0.04-0.56-0.245-1.049-0.646-1.451
	c-0.363-0.402-0.891-0.568-1.578-0.528l-0.686,0.087c-0.686,0.039-1.167,0.284-1.49,0.765c-0.324,0.442-0.45,0.97-0.411,1.538
	l0.04,0.236c0.047,0.646,0.284,1.175,0.734,1.538c0.402,0.402,1.009,0.568,1.735,0.481h0.244c0.725-0.039,1.286-0.323,1.609-0.765
	C214.492,315.576,214.658,315.008,214.619,314.361"/>
<path d="M231.898,312.019c0.205,1.049,0.079,2.019-0.285,2.831c-0.362,0.844-0.969,1.49-1.813,2.019
	c-0.813,0.521-1.822,0.883-2.989,1.088l-0.284,0.039c-1.167,0.197-2.216,0.158-3.187-0.079c-0.97-0.205-1.735-0.646-2.382-1.333
	c-0.607-0.646-1.009-1.538-1.175-2.587l-0.04-0.284c-0.118-0.726-0.04-1.412,0.205-2.097c0.237-0.687,0.6-1.293,1.128-1.814
	c-1.333-0.607-2.138-1.617-2.343-3.076l-0.079-0.236c-0.165-1.009-0.04-1.9,0.324-2.666c0.363-0.773,0.923-1.412,1.775-1.861
	c0.851-0.481,1.813-0.844,3.027-1.01l0.245-0.04c1.813-0.323,3.312-0.157,4.479,0.442c1.175,0.607,1.861,1.656,2.138,3.193
	l0.047,0.245c0.197,1.412-0.206,2.618-1.294,3.675c0.647,0.324,1.167,0.765,1.609,1.333c0.45,0.521,0.733,1.167,0.852,1.932
	L231.898,312.019 M227.095,305.482l-0.039-0.126c-0.087-0.646-0.363-1.088-0.773-1.412c-0.442-0.284-1.009-0.363-1.774-0.244
	l-0.245,0.047c-0.805,0.119-1.333,0.402-1.648,0.804c-0.284,0.442-0.41,0.97-0.284,1.578v0.118c0.118,0.568,0.362,1.049,0.765,1.333
	c0.402,0.284,0.931,0.402,1.578,0.284l0.725-0.126c0.646-0.118,1.088-0.363,1.412-0.765
	C227.095,306.57,227.174,306.081,227.095,305.482 M228.223,312.508l-0.04-0.245c-0.119-0.567-0.362-1.048-0.766-1.411
	c-0.402-0.363-0.93-0.528-1.616-0.41l-0.687,0.126c-0.687,0.118-1.128,0.402-1.412,0.883c-0.245,0.489-0.323,1.009-0.245,1.577
	l0.04,0.245c0.126,0.646,0.363,1.167,0.852,1.53c0.442,0.363,1.049,0.489,1.735,0.363l0.284-0.04
	c0.686-0.118,1.207-0.442,1.53-0.923C228.223,313.754,228.302,313.146,228.223,312.508"/>
<path d="M245.668,309.314l-0.039,0.362l-0.284,0.205l-1.451,0.363l0.804,3.225l-0.039,0.323l-0.285,0.245l-2.949,0.687l-0.276-0.04
	l-0.205-0.284l-0.804-3.225l-6.38,1.53l-0.362-0.04l-0.205-0.284l-0.529-2.137l0.087-0.726l4.724-10.866l0.481-0.442l2.381-0.607
	l0.324,0.087l0.245,0.236l2.263,9.369l1.451-0.323l0.363,0.04l0.205,0.284L245.668,309.314 M239.532,308.226l-1.214-4.89
	l-0.118-0.079l-0.04,0.04l-2.342,5.575v0.158l0.158,0.039L239.532,308.226z"/>
<path fill="#B99C41" d="M303.935,209.101l-0.56-0.646l-0.166-0.158c-8.333-9.944-14.818-19.968-23.217-33.942l-0.04-0.149v-0.036
	c0.03-0.248,0.264-0.807,0.646-1.367c0.647-1.048,1.656-2.216,2.5-3.146c0.892-0.931,1.578-1.577,1.578-1.577l0.567-0.56
	l-0.449-0.646l-0.118-0.166l-11.105-16.836l-0.323-0.481l-0.528,0.039c0,0-2.255,0.197-6.215,0.363
	c-3.959,0.205-9.653,0.402-16.514,0.402c-22.738,0-58.472-2.058-87.628-12.759l-2.657-0.97l1.569,2.382
	c3.84,5.733,10.016,14.092,10.016,27.419c0,5.489-1.049,11.789-3.754,19.1c-3.055,8.38-10.384,13.06-15.931,15.501l-8.299-14.197
	c0.404-0.081,0.894-0.193,1.493-0.334c3.518-0.892,9.692-2.792,12.8-5.458c4.125-3.548,10.946-10.37,10.946-20.913
	c0-4.519-1.293-9.691-4.526-15.464c-1.246-2.342-4.313-5.977-8.801-9.447c-4.519-3.469-10.458-6.742-17.398-8.114
	c-2.989-0.568-5.615-1.009-8.447-1.009c-3.146,0-6.538,0.528-10.899,2.019c-6.743,2.303-11.467,5.898-14.614,9.25
	c-1.58,1.72-2.739,3.345-3.548,4.725l-0.293-0.648c-0.079,0-3.186,1.127-6.34,3.714c-3.107,2.5-6.38,6.577-6.38,12.31
	c0,0.812,0.087,1.577,0.205,2.421c0.119,0.93,0.324,1.9,0.647,2.91c1.372,4.4,4.4,6.301,6.901,8.154
	c2.547,1.861,4.645,3.557,5.371,7.878l0.125,1.009c0.04,0.481,0.08,0.931,0.08,1.372c-0.04,2.705-0.932,4.235-2.059,5.205
	c-1.088,0.97-2.461,1.419-3.352,1.577c-0.442,0.079-0.765,0.118-0.852,0.118h-0.158c-0.442,0.087-0.726,0.489-0.726,0.931
	l0.324,0.686l0.284,0.205l0.323,0.079c0.316,0.04,0.844,0.079,1.491,0.079c1.333,0,3.273-0.197,5.205-1.009
	c1.663-0.738,3.327-2.038,4.393-4.111c3.641,1.853,13.53,7.858,18.344,19.292l0.205,0.45l0.482,0.079
	c2.381,0.441,4.519,0.323,6.821,0.441c0.647,0.04,1.333,0.126,1.98,0.205c1.253,0.158,2.586,0.481,4.077,1.009l0.087,0.04h0.236
	l0.813-0.363c0.402-0.528,0.323-0.812,0.323-1.214c0-0.452-0.06-0.962-0.165-1.53c0.126-0.04,0.765-0.245,1.372-0.931
	c0.607-0.686,1.088-1.861,1.088-3.596c0-0.499-0.041-1.079-0.147-1.694l0.029-0.001c-0.04-0.323-0.158-0.804-0.285-1.616
	c-0.133-0.683-0.31-1.509-0.488-2.36c1.634,3.18,3.501,7.409,4.538,10.146c-0.016,0.004-0.037,0.01-0.05,0.014l0.001,0.005
	l-1.089,0.152l0.402,1.049l1.617,4.605l0.284,0.726l0.765-0.118l1.518-0.225c0.317,0.637,0.868,1.737,1.589,3.213
	c3.391,7.184,10.544,22.932,12.8,33.389l0.245,1.009l1.01-0.362c3.998-1.459,7.311-2.059,10.055-2.059
	c4.882,0,7.91,1.893,10.016,4.519c2.059,2.666,3.068,6.135,3.51,9.25c0.284,1.932,0.362,3.667,0.362,4.96
	c0,0.931-0.039,1.617-0.039,1.94l-0.04,0.323l-0.079,1.695l1.49-0.844c0,0,1.412-0.852,2.871-1.9
	c0.725-0.528,1.491-1.088,2.059-1.656c0.56-0.607,1.128-1.127,1.167-2.098l-0.039-0.402l-0.015,0.004l-0.025-0.13l-0.004,0.001
	c-0.077-0.559-0.161-2.347-0.524-4.606c-0.6-3.509-1.854-8.232-4.882-12.191c-3.028-3.912-7.958-6.987-15.465-6.987
	c-1.96,0-4.135,0.25-6.475,0.696c-0.178-0.283-0.395-0.66-0.631-1.138c-2.87-5.503-9.64-21.757-12.787-29.259
	c2.808-1.117,7.97-4.083,12.787-9.54c5.45-6.135,10.339-15.425,10.339-28.428c0-5.909-1.041-12.577-3.407-20.065
	c23.987,5.779,50.397,8.441,87.108,8.441c2.758,0,5.555-0.034,8.451-0.038l0.114,0.156c1.203,1.898,4.549,7.691,6.749,10.507
	c-0.152,0.217-0.45,0.557-0.818,0.92c-0.766,0.765-1.854,1.696-2.745,2.421c-0.883,0.726-1.57,1.254-1.57,1.254l-0.686,0.528
	l0.441,0.687c0,0.039,1.128,1.774,2.824,4.519c5.15,8.14,15.728,25.168,19.139,31.617c-0.121,0.286-0.607,0.93-1.166,1.811
	c-1.735,2.626-4.487,7.712-4.448,16.962c0,3.501,0.382,7.615,1.321,12.419c-4.827-5.391-18.202-18.23-48.159-23.002
	c-4.117-0.647-8.076-0.923-11.83-0.923c-13.447,0-23.904,3.304-26.081,4.077c-5.859,2.303-9.369,4.764-11.467,7.145
	c-2.146,2.382-2.752,4.724-2.752,6.538c0,1.782,0.607,3.154,0.733,3.478v0.04h0.039c1.854,4.156,5.284,15.062,7.39,22.041
	c1.167,3.761,1.933,6.379,1.933,6.379l0.284,1.009l0.97-0.402c0,0,1.412-0.568,2.823-1.451c0.734-0.441,1.459-0.93,2.066-1.538
	c0.56-0.607,1.088-1.293,1.088-2.255l-0.04-0.449v-0.079c-1.096-4.803-2.989-9.368-4.724-13.485
	c-1.735-4.116-3.273-7.791-3.636-10.701c-0.039-0.441-0.079-0.891-0.079-1.293c0-1.088,0.197-1.979,0.6-2.783
	c1.94-3.793,7.997-6.214,14.819-7.507c6.79-1.293,14.258-1.538,18.904-1.538c2.312,0,3.89,0.059,4.48,0.074l-0.001,0.004h0.079
	c10.93,1.357,20.15,4.253,27.851,7.948l-0.013,0.017l-1.386,1.001c0.324,0.646,1.088,1.94,2.217,3.714
	c1.656,2.626,3.919,6.222,5.82,9.526c0.923,1.656,1.735,3.233,2.342,4.566c0.6,1.333,0.97,2.46,1.01,3.028l0.118,2.342l1.491-1.822
	l4.448-5.283l0.158-0.166l0.04-0.237l0.039-0.528c0-1.088-0.441-2.5-0.97-3.998c-0.56-1.451-1.167-2.823-1.734-3.636h-0.04v-0.039
	c-0.18-0.206-0.386-0.412-0.598-0.617c0.675,0.512,1.333,1.028,1.97,1.547c9.653,7.831,14.984,16.474,16.964,21.765l0.481,0.687
	l0.891,0.323c0.805-0.039,1.246-0.489,1.774-0.93c0.727-0.726,1.491-1.774,2.059-2.871c0.608-1.127,1.049-2.216,1.088-3.304
	l-0.079-0.568v-0.079l-0.079-0.205v-0.04l-0.04-0.04c-3.754-8.563-5.734-15.503-6.546-21.236c-0.276-2.105-0.402-4.038-0.402-5.82
	c0-10.457,4.479-15.701,8.155-19.581L303.935,209.101z M293.253,209.903C293.253,209.904,293.253,209.904,293.253,209.903
	l-0.021,0.01L293.253,209.903z M102.723,167.96c-1.774-1.813-4.038-3.714-5.853-6.017c-1.821-2.342-3.154-5.047-3.154-8.556
	c0-0.41,0-0.812,0.047-1.254c0.237-2.586,1.933-4.929,3.676-6.584c0.643-0.643,1.289-1.17,1.843-1.581
	c-0.179,0.435-0.317,0.828-0.392,1.139c-0.852,3.43-1.215,6.458-1.215,9.164c-0.038,10.436,5.654,15.528,10.828,16.629
	c0.853,4.161,0.962,7.885,0.962,9.654c0,0.159,0,0.299,0,0.427l-2.963,0.787c0.161-0.91,0.298-2.09,0.298-3.429
	C106.8,175.271,105.996,171.233,102.723,167.96z M132.078,200.017l0.41-0.079l0.844-0.079h0.323l0.039,0.04l0.002-0.004
	c0.224,0.175,0.43,0.371,0.612,0.573c-0.849-0.086-1.881-0.187-2.912-0.279L132.078,200.017z M132.527,195.253l-0.245-0.04
	c-0.521,0-0.804,0.363-0.931,0.528l-0.284,0.844c-0.118,0.804-0.158,1.861-0.158,2.342l0.04,0.205v1.016
	c-1.292-0.11-2.511-0.197-3.266-0.208c-0.936-1.727-2.297-3.632-3.8-5.578c-2.019-2.618-4.322-5.323-6.253-7.507
	c-0.285-0.325-0.563-0.639-0.832-0.94c0.743,0.168,4.593,1.059,9.388,1.059c2.355,0,4.925-0.21,7.44-0.826
	c0.178,3.381,0.661,6.307,1.243,8.704c0.118,0.521,0.236,1.01,0.363,1.491c0.042,0.155,0.083,0.299,0.125,0.449
	C134.569,196.079,133.63,195.509,132.527,195.253z M161.806,161.827l-0.004-0.001c-1.617,7.507-5.173,12.112-8.888,14.857
	c-3.318,2.425-6.794,3.402-9.169,3.596c2.278-2.68,3.904-6.36,4.406-11.23v-0.005c0.087-0.087,0.367-0.287,0.772-0.516
	c0.726-0.489,1.735-1.254,2.54-2.705c0.805-1.459,1.451-3.557,1.696-6.703c0-0.363,0-0.812,0-1.372c0-2.066-0.245-5.457-2.137-8.761
	c-1.901-3.312-5.497-6.506-11.83-7.997c-1.01-0.284-2.146-0.402-3.352-0.402c-5.82,0.04-13.289,2.666-16.798,7.507
	c-1.578,2.303-2.059,5.331-3.155,8.28c-1.049,2.941-2.579,5.772-6.017,7.831l-0.158,0.04c-0.284,0.039-1.215-0.568-2.019-1.656
	c-0.852-1.049-1.656-2.381-2.224-3.47c-0.237-0.41-0.6-2.105-0.6-4.243c0-2.949,0.6-6.9,2.539-10.614
	c1.979-3.762,5.252-7.31,10.703-9.573c2.949-1.214,6.538-2.059,10.663-2.059c4.684,0,10.008,1.088,15.946,3.873
	c15.427,7.436,17.162,18.334,17.201,23.176C161.92,160.74,161.847,161.485,161.806,161.827z M134.096,179.269
	c-0.639-0.812-1.814-1.743-3.872-3.517c-1.696-1.49-2.745-3.998-2.706-6.458c0-1.696,0.442-3.312,1.451-4.605
	c1.01-1.293,2.547-2.303,4.811-2.705c0.521-0.079,1.05-0.118,1.53-0.118c2.019,0,3.794,0.647,5.087,1.774
	c1.254,1.127,2.019,2.705,2.059,4.803c0,1.333-0.363,2.87-1.128,4.605c-1.761,3.77-4.252,6.282-7.009,7.979
	c0.124-0.197,0.226-0.43,0.226-0.669C134.506,179.829,134.301,179.545,134.096,179.269z M113.783,182.406l-0.035-0.353
	c-0.039-0.568,0.403-1.451,0.931-2.263c0.237-0.402,0.521-0.805,0.765-1.128l0.285-0.528l0.197-0.726l-0.118-0.481v-0.047
	l-0.04-0.04c-1.504-2.412-1.887-4.821-1.962-6.238l0.266-0.094h0.04v-0.047c2.784-1.285,4.842-4.637,6.546-8.075
	c1.648-3.43,2.862-6.939,3.344-8.595c0.449-1.538,1.861-3.233,3.88-4.479c2.02-1.293,4.646-2.145,7.429-2.145
	c2.303,0,4.685,0.568,7.027,1.979c1.616,0.97,2.586,2.342,3.146,3.833c0.607,1.538,0.773,3.233,0.773,4.645
	c0,0.545-0.024,1.044-0.057,1.492c-1.757-2.04-5.167-5.076-10.164-5.451h-0.481c-2.508,0-6.096,0.891-9.211,3.272
	c-3.068,2.382-5.568,6.301-5.568,12.034v0.284c0.118,2.539,1.814,5.772,3.469,8.477c1.657,2.705,3.273,4.842,3.273,4.842l0.324,0.45
	l0.521-0.086c0.037,0,1.924-0.227,3.611-0.677c-0.086,0.039-0.172,0.08-0.259,0.117c-3.715,1.569-7.667,1.979-10.497,1.979
	c-1.255,0-2.303-0.086-3.029-0.166c-0.458-0.025-0.771-0.064-0.951-0.09c-0.058-0.016-0.098-0.028-0.098-0.028l-0.003,0.013
	c-0.05-0.008-0.076-0.013-0.076-0.013l-0.379,1.712c-0.718-0.805-1.363-1.522-1.844-2.115c-0.362-0.41-0.646-0.733-0.844-0.97
	l-0.205-0.284L113.783,182.406z M279.934,174.138L279.934,174.138l0.018-0.002L279.934,174.138z M94.724,187.991L94.724,187.991
	l0.003-0.008L94.724,187.991z M265.937,233.129c-0.077-0.042-0.146-0.081-0.219-0.121c0.339,0.172,0.679,0.344,1.012,0.52
	C266.45,233.385,266.181,233.25,265.937,233.129z"/>
<path d="M263.594,232.885c0.931,2.058,11.23,16.915,11.467,21.118l4.401-5.292c0.285-1.293-1.49-6.017-2.5-7.389
	C273.973,237.853,264.202,233.405,263.594,232.885"/>
<path d="M301.269,256.747c-3.754-8.604-5.773-15.629-6.577-21.441c-2.105-14.739,3.588-21.6,7.989-26.205l-0.158-0.158
	c-8.438-10.094-14.937-20.188-23.423-34.24l-0.079-0.442c-0.039-2.105,5.008-6.869,5.008-6.869l-0.118-0.157l-11.104-16.876
	c0,0-63.685,5.244-110.76-12.034c5.363,8.075,15.828,21.844,6.373,47.362c-3.345,9.124-11.467,13.966-17.201,16.387l-9.487-16.229
	l0.607,0.039c1.167-0.079,10.899-2.46,14.614-5.693c5.86-5.007,16.759-16.387,6.262-35.242
	c-2.342-4.321-12.035-14.416-25.561-17.081c-6.301-1.214-10.702-1.822-18.857,0.97c-13.202,4.44-18.455,14.005-19.022,16.513
	c-4.078,16.955,3.438,23.823,9.535,24.746c1.333,6.222,1.088,11.592,1.088,11.592l-4.724,1.246l-0.441,0.126l0.119-0.323
	c0.567-2.137,1.774-9.045-3.273-14.132c-3.627-3.674-9.968-8.193-9.243-16.552c0.521-5.898,7.469-9.896,7.469-9.896
	s-13.731,5.007-11.909,17.443c0.158,0.891,0.363,1.774,0.646,2.744c2.58,8.162,10.821,6.908,12.272,16.19
	c0.079,0.323,0.118,0.646,0.166,1.057c0.726,7.065-3.959,8.761-6.104,9.163c-0.481,0.079-0.844,0.119-0.962,0.119
	c-0.567,0,8.076,1.372,10.655-5.331c2.705,1.293,14.212,7.35,19.63,20.188c2.255,0.402,4.354,0.284,6.696,0.402
	c0.687,0.047,1.38,0.126,2.105,0.205c1.294,0.205,2.666,0.528,4.235,1.049c0.323,0.079,0.323-1.207-0.118-2.862
	c-0.687-2.469-2.342-5.654-5.332-6.38c-0.481-0.087-0.402,2.989-0.402,2.989s1.735-0.449,2.342,0c1.333,0.962,1.893,2.46,1.893,2.46
	s-8.029-0.852-8.959-0.686c-0.93-1.774-2.382-3.84-3.999-5.978c-2.019-2.626-4.321-5.244-6.222-7.429
	c-2.216-2.547-3.912-4.4-4.039-4.763c-0.686-2.098,2.342-4.85,2.067-5.41c-1.9-3.028-2.105-6.056-2.105-7.389l0.891-0.323
	c4.724-2.098,8.36-12.878,9.37-16.111c1.491-5.126,11.222-10.338,19.7-5.126c6.183,3.675,3.999,13.083,3.999,13.083
	s-3.873-6.379-10.82-6.868c-4.361-0.237-14.417,3.107-14.291,14.62c0.118,4.361,6.538,12.838,6.538,12.838s3.068-0.402,4.685-1.088
	c1.491-0.646,0.646-1.096-3.313-4.526c-4.558-3.999-4.605-13.848,3.999-15.385c6.664-1.049,12.358,4.203,8.518,12.396
	c-6.822,14.778-25.237,11.553-25.237,11.553s9.29,2.381,17.611-0.047c0.118,3.801,0.646,7.065,1.246,9.691
	c0.126,0.529,0.245,1.01,0.363,1.459c0.646,2.342,1.38,4.077,1.822,5.086c0.324,0.726,0.568,1.088,0.568,1.088
	s2.295-0.568,1.609-5.252c-0.04-0.56-1.893-9.045-1.656-8.722c1.695,1.617,5.939,10.946,7.516,15.267l0.079,0.245
	c-0.568,0.158-0.97,0.237-1.049,0.237h-0.08l1.657,4.645l2.217-0.362c0,0,11.672,23.255,14.779,37.426
	c18.699-6.861,23.621,4.243,24.834,12.436c0.481,3.351,0.363,6.222,0.323,7.105l-0.04,0.284c0,0,6.058-3.509,5.607-5.007
	l-0.039-0.158c-0.363-2.792-0.647-27.655-26.854-22.285c-1.893-2.342-10.86-23.91-14.211-31.938
	c5.331-1.577,33.597-17.609,19.543-58.789c26.207,6.498,55.119,9.203,97.399,8.722c0.237,0,4.921,8.359,7.43,11.387
	c0.646,0.883-5.576,5.567-5.576,5.567s17.69,27.979,22.09,36.464c0.686,1.451-9.811,7.546-3.715,33.909
	c0.805,3.959-8.36-18.003-49.828-24.667c-18.494-2.91-34.811,2.184-37.43,3.146c-17.288,6.79-13.328,14.778-12.926,15.953
	c1.9,4.282,5.331,15.141,7.468,22.127c1.136,3.754,1.9,6.419,1.9,6.419s5.853-2.429,5.411-4.645l-0.04-0.126
	c-2.098-9.321-7.595-18.003-8.36-24.265c-0.197-1.735-0.04-3.265,0.647-4.598c5.852-11.103,38.645-9.408,39.212-9.447
	c38.684,4.803,56.366,28.784,60.483,39.729c0.686,2.019,4.929-3.998,4.448-6.143L301.269,256.747 M111.572,179.505
	c2.059-0.922,2.619-3.312,0.237-3.872l0.245-0.489C114.514,177.447,114.917,178.859,111.572,179.505 M147.219,168.931
	c0.048-1.538,4.322-0.568,5.009-9.897c0.086-2.705,0.646-13.761-13.242-17.16c-5.489-1.372-15.348,1.38-19.18,6.79
	c-2.824,3.99-2.058,11.947-9.488,16.347c-1.822,1.009-4.361-2.949-5.694-5.488c-1.294-2.508-2.382-19.257,13.124-25.724
	c6.538-2.658,16.033-3.509,27.375,1.9c19.258,9.203,17.934,24.186,17.563,26.323c-3.588,16.922-16.996,19.825-21.073,19.138
	C144.515,178.536,146.659,174.664,147.219,168.931"/>
</svg>
