<?xml version="1.0" encoding="utf-8"?>
<!-- Generator: Adobe Illustrator 13.0.2, SVG Export Plug-In . SVG Version: 6.00 Build 14948)  -->
<!DOCTYPE svg PUBLIC "-//W3C//DTD SVG 1.0//EN" "http://www.w3.org/TR/2001/REC-SVG-20010904/DTD/svg10.dtd">
<svg version="1.0" id="Layer_1" xmlns="http://www.w3.org/2000/svg" xmlns:xlink="http://www.w3.org/1999/xlink" x="0px" y="0px"
	 width="319.5px" height="376.313px" viewBox="0 0 319.5 376.313" enable-background="new 0 0 319.5 376.313" xml:space="preserve">
<g>
	<path fill="#38923D" d="M159.75,376.313c58.5-7.875,159.75-66.375,159.75-209.813V0H0v166.5
		C0,309.938,101.25,368.438,159.75,376.313z"/>
	<path fill="#FFFFFF" d="M5.103,5.102c0,9.589,0,161.398,0,161.398c0,134.403,92.218,195.892,154.647,204.646
		c62.429-8.754,154.648-70.242,154.648-204.646c0,0,0-151.809,0-161.398C304.678,5.102,14.824,5.102,5.103,5.102z"/>
	<g>
		<path fill="#38923D" d="M265.5,10.969c0,0-0.088,0.034-0.224,0.096c-3.457,0.011-6.223,1.53-9.521,1.685
			c-1.395,0.065-3.864-0.487-4.88,0.361c-0.58,0.486-0.868,1.445-1.059,2.41c-0.872-0.133-1.87-0.034-2.628-0.611
			c-2.237-1.703-2.575-5.019-5.873-5.065c-2.872-0.041-4.274,4.294-4.758,6.753c-0.357,1.83-0.723,2.512-1.749,4.041
			c-0.844,1.258-1.009,2.589-0.707,4.105c0.688,3.458,4.565,3.721,7.272,5.18C236.907,33.059,231.515,36,225.281,36
			c-14.203,0-10.828-9.281-29.531-9.281c-18.984,0-34.031,16.313-34.031,38.813c0,12.094,7.031,18,7.031,21.094
			c0,5.203-4.781,10.547-4.781,24.75c0,23.344,10.969,58.5,10.969,72c0,1.688-5.133,0.633-6.188,1.688
			c0,8.579-13.641,19.97-18.563,19.97c-5.203,0-2.391-23.626-23.906-23.626c-16.404,0-24.188,12.657-24.188,12.657
			s-0.861-1.485-4.447-2.399l15.374-20.169c0.376-0.494,0.281-1.199-0.212-1.576c-0.348-0.266-0.798-0.285-1.167-0.106l1.42-2.125
			c0.346-0.517,0.207-1.214-0.31-1.56c-0.172-0.115-0.363-0.158-0.555-0.169l2.955-4.875c0.322-0.532,0.151-1.223-0.379-1.545
			c-0.532-0.322-1.223-0.152-1.545,0.379l-3.192,5.266l1.4-2.659c0.289-0.55,0.079-1.23-0.472-1.52
			c-0.55-0.29-1.23-0.079-1.519,0.471l-1.506,2.862l4.651-10.313c0.256-0.566,0.005-1.234-0.563-1.488
			c-0.565-0.256-1.233-0.004-1.487,0.563l-3.778,8.376l7.916-20.634c0.223-0.58-0.072-1.235-0.647-1.454
			c-0.58-0.223-1.235,0.071-1.453,0.647l-11.496,29.968l11.937-40.12c0.178-0.596-0.162-1.222-0.757-1.399
			c-0.596-0.178-1.222,0.162-1.4,0.757l-15.141,50.893l11.33-68.576c0.101-0.613-0.313-1.192-0.926-1.293s-1.192,0.313-1.293,0.926
			l-7.927,47.974l3.967-37.359c0.066-0.618-0.382-1.172-1-1.237c-0.617-0.066-1.172,0.382-1.237,1l-2.702,25.438l3.067-49.813
			c0.039-0.621-0.434-1.154-1.054-1.192c-0.621-0.039-1.153,0.434-1.192,1.054l-2.686,43.627l0.81-36.783
			c0.013-0.622-0.479-1.136-1.101-1.15c-0.621-0.013-1.135,0.479-1.149,1.101l-0.577,26.218l-0.174-15.333
			c-0.006-0.621-0.516-1.119-1.138-1.112c-0.621,0.006-1.118,0.516-1.112,1.138l0.421,37.231l-3.423-56.438
			c-0.037-0.62-0.571-1.092-1.191-1.055c-0.621,0.038-1.092,0.571-1.055,1.191l1.905,31.405l-2.474-26.7
			c-0.059-0.62-0.605-1.075-1.224-1.018c-0.62,0.059-1.075,0.605-1.017,1.224l4.996,53.919l-8.388-57.747
			c-0.089-0.615-0.66-1.042-1.274-0.952c-0.615,0.089-1.042,0.661-0.952,1.274l10.757,74.059l-15.484-66.787
			c-0.141-0.605-0.745-0.982-1.351-0.843c-0.605,0.141-0.982,0.745-0.843,1.351l0.496,2.136c-0.238-0.126-0.519-0.177-0.8-0.105
			c-0.603,0.152-0.967,0.765-0.815,1.366l5.737,22.666l-5.159-17.909c-0.172-0.598-0.795-0.943-1.392-0.77
			c-0.598,0.172-0.942,0.795-0.77,1.393l16.351,56.756l-19.56-52.12c-0.219-0.581-0.867-0.876-1.449-0.658
			c-0.581,0.219-0.875,0.867-0.658,1.449l7.149,19.05l-3.745-9.002c-0.238-0.573-0.896-0.846-1.47-0.606
			c-0.574,0.238-0.846,0.896-0.606,1.47l16.831,40.465l-19.29-38.03c-0.281-0.555-0.958-0.776-1.512-0.495
			c-0.555,0.281-0.775,0.958-0.494,1.512l23.821,46.966l-25.63-38.905c-0.342-0.52-1.039-0.662-1.558-0.32
			c-0.52,0.341-0.663,1.039-0.321,1.558l32.576,49.452c-4.672,2.799-6.324,9.461-6.324,9.461s0.657,0.654,3.375,0.654
			c1.032,0,0.657-3.889,0.657-3.889c0-2.563,2.35-4.641,5.249-4.641c2.9,0,5.25,2.078,5.25,4.641s-2.35,4.641-5.25,4.641
			c-2.625,0-6.562,0.277-6.562,1.591s12.844,9.188,13.593,28.876c0,4.874-3.75,4.408-4.124,2.343
			c-0.998-10.784-3.416-18.422-12.136-27.475c-2.235-2.224-8.395-1.415-9.66,2.097c-0.008,0.018-0.017,0.03-0.024,0.048
			c-0.004,0.009-0.009,0.018-0.012,0.03c-0.644,1.561-1.044,3.362-1.044,5.428c0,19.314,15.75,30.375,15.75,43.594
			c0,8.346-5.906,11.904-5.906,14.625c0,3.467,3.846,5.625,15.75,5.625c11.25,0,13.781-0.281,13.781-1.969
			c0-3.19-4.078-4.078-4.078-4.078s-2.672-0.611-2.672-3.797c0-2.628,0.655-4.219,1.969-4.219c0.907,0,1.406,0.984,1.406,2.162
			c0,4.729,23.906,24.275,63.563,24.275c20.806,0,44.486-10.854,59.599-24.482l0.044,0.035c0,0,4.201-2.18,9.45-2.18
			c2.907,0,9.376,0.66,9.376,0.66s-2.437-5.063-9.187-5.063c-0.945,0-2.127,0.061-3.414,0.158c5.743-6.711,9.226-13.76,9.226-20.316
			c-2.32,2.32-6.188,1.969-6.188,1.969v-4.5c0,0,9.281-8.578,9.281-19.969c0-7.313-2.531-11.531-2.531-11.531
			s-1.406,2.531-3.938,2.531c-0.984,0,0.281-4.922,0.281-17.438c0-8.438-0.844-12.657-0.844-12.657s-2.391,3.094-6.469,3.094
			c0,0,0.844-3.656,0.844-10.125c0-11.25-4.781-16.031-4.781-16.031s-0.281,7.875-5.063,7.875c0-20.391-1.828-22.5-5.906-24.75
			c1.125,6.609-1.969,9.563-1.969,9.563s-0.984,0.422-2.391-2.391s-0.984-9.844-0.984-14.766s-4.5-5.906-4.5-5.906
			s0.984,7.313-1.125,7.313c-1.27,0-3.094-1.406-3.094-1.406s0.563-6.047,0.563-10.969S200.531,117,200.531,117
			s-1.406-3.234-1.406-6.188s0.422-4.219,1.688-4.219s2.25,3.375,9.844,3.375s24.469-5.906,24.469-31.219
			c0-12.656-11.953-20.813-21.094-20.813c-11.953,0-22.641,11.813-23.906,11.813s-3.375-3.375-5.063-3.375
			c-4.5,0-7.031-3.797-7.031-9.281c0-10.167,7.594-20.953,20.953-20.953c12.234,0,16.875,6.047,25.734,6.047
			c7.46,0,13.665-4.031,18.264-7.543c-0.306,1.694-0.439,3.364,0.308,5.153c1.471,3.52,3.547,5.87,7.724,5.056
			c3.979-0.775,5.526-4.285,9.178-5.478c1.543-0.504,3.05-0.706,4.043-1.969c0.965-1.229,1.468-3.307,0.741-4.785
			c-1.189-2.417-3.947-2.855-5.23-4.867c4.324-2.113,5.755-5.753,5.755-8.911c0-2.25,1.336-3.586,2.531-4.781
			S268.031,10.125,265.5,10.969z M211.43,78.117c3.727,0,4.5,1.688,4.5,3.375c0,3.797-3.305,6.68-7.664,6.68
			c-1.898,0-4.219-0.844-4.219-2.883C204.047,81.211,208.266,78.117,211.43,78.117z M169.126,131.437c0,0-1.969-4.875-1.969-14.812
			c0-20.438,5.063-30.565,8.905-37.406c0.844,0,0.563,5.813,0.563,9.094C176.625,110.25,169.126,131.437,169.126,131.437z
			 M170.3,203.767c1.322,5.463-7.779,6.332-7.878,1.262C162.352,201.433,169.416,200.11,170.3,203.767z M158.344,232.313
			c-3.656,0-6.328,3.234-7.594,1.969s2.25-6.047,7.172-6.047c6.469,0,8.227,4.992,7.172,6.047S162,232.313,158.344,232.313z
			 M159.75,255.938c0,0.932-0.503,1.688-1.125,1.688c-0.622,0-1.125-0.756-1.125-1.688s0.503-1.688,1.125-1.688
			C159.247,254.251,159.75,255.007,159.75,255.938z M139.5,209.392c1.125-1.125,6.75,6.469,11.672,6.469s9.492-6.539,11.391-4.641
			s-1.828,9.352-11.883,9.352C141.469,220.571,138.375,210.517,139.5,209.392z M130.219,259.735
			c-1.406,4.922-9.984,5.203-9.984,3.516s3.234-3.63,5.766-6.469s1.828-8.859,3.375-8.859S131.625,255.798,130.219,259.735z
			 M141.294,267.606c-1.636,2.469-6.347,0.773-6.576-1.961c-0.082-0.984-0.027-2.421,0.598-3.252
			c1.096-1.449,2.984-2.197,4.638-1.278c0.979,0.54,1.62,1.529,1.804,2.681C141.946,264.982,141.926,266.652,141.294,267.606z
			 M132.915,228.385c-0.657,2.157-1.443,4.166-2.37,5.95l0.011-0.026c0,0-8.212,17.974-14.024,17.974
			c-1.312,0-2.391-0.844-2.391-2.391s9.515-6.799,9.515-11.58c0-3.656-1.124-5.906-5.156-5.906c-2.437,0-4.454,1.877-4.454,4.457
			c0.752-0.752,2.765-0.422,4.078-0.422c1.314,0,1.688,0.751,1.688,1.688c0,2.25-1.969,2.996-5.344,2.996
			c-3.616,0-5.179-1.186-5.18-1.19c-4.201-3.854-6.164-11.443-6.164-24.403c0-22.5,9.375-28.124,16.968-28.124
			c10.22,0,14.906,8.063,14.906,26.344c0,4.157-0.476,8.16-1.327,11.816c1.197-0.294,2.605-0.566,3.718-0.566
			c13.641,4.781,12.234,18.281,12.234,18.281l-10.547-10.547c0,0-0.704-0.563-1.266,0c8.562,10.441,7.068,9.26,10.828,17.438
			c0,0-3.375-0.141-7.594-5.625c4.219,7.031,8.719,18.563,8.719,18.563S135.232,260.864,132.915,228.385z M157.359,276.892
			c-5.625,0-12.023-8.367-11.25-9.141s7.031,3.234,11.109,3.234c5.625,0,7.875-2.25,8.719-1.406S162.984,276.892,157.359,276.892z
			 M197.616,104.072c0.371,0.687-0.003,1.825-0.042,2.709c-0.044,1.042-0.077,2.059-0.559,3.011
			c-0.828,1.635-1.714,3.241-3.045,4.534c-0.721,0.699-1.187,1.699-2.18,2.064c-1.347,0.496-1.519-0.235-1.286-1.432
			c0.156-0.8,0.68-1.386,0.844-2.172c0.188-0.892,0.077-2.272-0.002-3.169c-0.187-2.094-0.779-3.796-1.762-5.627
			c-0.787-1.46-1.8-2.725-1.896-4.422c-0.088-1.543-0.239-3.531,0.183-4.971c0.237-0.809,0.612-1.878,1.503-2.161
			c1.088-0.346,1.516,0.607,1.944,1.408c0.969,1.802,1.686,3.958,2.909,5.703c0.545,0.776,1.016,1.602,1.549,2.385
			C196.269,102.654,197.225,103.35,197.616,104.072z M180.422,106.734c0-8.125,1.529-16.51,4.746-23.995
			c0.872-2.032,7.509-14.034,10.538-6.875c0.211,0.498-2.625,3.505-2.885,4.245c-0.71,2.038,0.664,4.531-0.494,6.445
			c-1.385,2.286-3.911,3.667-5.226,6.194c-3.126,6.016,0.229,9.588,2.109,14.963c1.042,2.977,0.06,5.385-1.039,7.944
			c-1.048,2.442-1.2,5.435-0.51,8.311c0.684,2.835,3.034,4.819,2.751,8c-0.218,2.461-1.582,4.916-0.666,7.52
			c0.989,2.809,4.195,4.619,5.166,7.48c1.615,4.76-0.242,7.895,3.375,12.22c1.408,1.684,3.059,3.445,3.713,5.562
			c1.143,3.69,0.703,8.37-0.428,11.937c-0.71,2.239-0.947,3.905-0.761,6.202c0.267,3.284,2.354,5.412,3.489,8.289
			c1.235,3.133,0.721,6.934,0.455,10.199c-0.202,2.465-0.967,4.346-2.465,6.332c-2.587,3.415-1.609,8.395-3.285,12.292
			c-1.811,4.21-4.813,7.915-8.068,11.092c-6.636,6.469-15.996,12.331-25.563,12.331c-2.531,0-4.711-0.844-4.711-3.445
			s2.32-3.445,3.445-3.445c13.219,0,33.188-15.891,33.188-45.422C197.297,167.906,180.422,148.781,180.422,106.734z M247.199,26.738
			c0,0-0.979,0.935-2.315,0.935c-1.439-1.19-3.118-1.837-4.553-2.371c-1.402-0.521-2.4-0.919-2.477-1.304
			c-0.047-0.24-0.066-0.429-0.066-0.58c0-0.353,0.104-0.508,0.198-0.648c1.257-1.873,1.858-3.043,2.327-5.438v0.003
			c0.327-1.671,0.821-2.72,1.21-3.31c0.255,0.337,0.554,0.737,0.554,0.737c0.655,0.972,1.468,2.184,2.793,3.193
			c1.048,0.796,2.065,1.028,2.946,1.153c0,0.022,0,0.128,0,0.128l0.267,3.489l0.127,0.436
			C248.766,25.103,247.199,26.738,247.199,26.738z M251.928,37.13c-1.026,0.866-1.633,1.359-2.127,1.459
			c-0.149-0.231-0.356-0.606-0.626-1.252c-0.04-0.093-0.055-0.227-0.055-0.39c0-0.512,0.162-1.327,0.334-2.177
			c0,0,0.489-2.75,0.65-3.647c0.832,0.482,1.896,0.032,3.087,0.287l1.689,0.435c0.65,0.847,1.329,1.569,2.015,2.115
			C254.795,34.91,253.112,36.132,251.928,37.13z M257.344,24.188c-0.984,0-2.391-1.688-4.5-1.688c-0.25,0-0.522,0.056-0.802,0.131
			c-0.09-0.304-0.183-0.625-0.288-0.984c-0.285-0.969-0.024-2.601-0.114-3.894c0.699-1.794,1.835-2.331,4.63-2.871
			c1.542-0.298,3.485-0.145,5.229-0.36c-0.288,0.612-0.499,1.286-0.499,2.072C261,19.406,259.734,24.188,257.344,24.188z"/>
		<path fill="#38923D" d="M108.819,224.957c-1.143-0.782-1.062-3.116-0.632-4.241c0.554-1.445,1.877-2.381,3.436-2.373
			c2.357,0.014,4.219,2.109,4.534,4.316c0.227,1.586,0.503,4.342-0.299,5.717c-1.144,1.955-2.893,2.061-4.95,2.061
			c-1.41,0-3.248-0.03-2.811-1.876c0.143-0.598,0.521-1.155,0.995-1.547c0.317-0.259,1.375-0.457,1.544-0.738
			C111.25,225.243,109.315,225.296,108.819,224.957z"/>
		<path fill="#38923D" d="M118.22,195.94c7.218,0,10.688,9.092,10.688,15.561c0,4.029-0.938,10.498-2.907,10.498
			s-2.437-5.625-2.437-8.719c0-5.063-2.155-7.496-5.438-7.496c-1.498,0-3.187,1.217-3.187,4.402c0,3.191-1.313,3.938-2.719,3.938
			c-3.094,0-4.405-4.684-4.405-7.875C107.813,201.187,111.846,195.94,118.22,195.94z"/>
	</g>
	<g>
		<path fill="#38923D" d="M79.729,304.767v26.621h4.582c0,0,0-10.357,0-11.496c1.143,0,11.918,0,11.918,0v-4.297
			c0,0-10.775,0-11.918,0c0-0.98,0-5.551,0-6.531c1.16,0,13.781,0,13.781,0v-4.297H79.729z"/>
		<rect x="102.385" y="326.599" fill="#38923D" width="4.792" height="4.789"/>
		<path fill="#38923D" d="M118.731,305.312L118.731,305.312c-1.538,0.646-2.866,1.582-3.949,2.777
			c-1.08,1.195-1.924,2.658-2.507,4.35c-0.579,1.675-0.874,3.568-0.874,5.625c0,2.074,0.295,3.973,0.875,5.639
			c0.582,1.679,1.425,3.143,2.505,4.346c1.082,1.205,2.411,2.145,3.949,2.795c1.533,0.643,3.256,0.967,5.125,0.967
			c1.452,0,2.827-0.193,4.088-0.575c1.278-0.387,2.417-0.976,3.385-1.745c0.971-0.769,1.77-1.73,2.376-2.852
			c0.605-1.121,0.982-2.426,1.118-3.881l0.065-0.693h-4.725l-0.055,0.575c-0.15,1.582-0.737,2.777-1.795,3.656
			c-1.06,0.874-2.568,1.323-4.479,1.323c-1.17,0-2.243-0.211-3.188-0.615c-0.931-0.409-1.737-1.012-2.393-1.793
			c-0.666-0.796-1.186-1.798-1.545-2.976c-0.365-1.2-0.549-2.602-0.549-4.171c0-1.533,0.185-2.913,0.549-4.104
			c0.359-1.17,0.875-2.172,1.535-2.98c0.65-0.791,1.455-1.401,2.392-1.814c0.952-0.418,2.048-0.629,3.254-0.629l2.485,0.339
			l1.886,0.944c0.001,0,1.253,1.438,1.253,1.438c0,0.004,0.737,2.329,0.737,2.329l0.492,0.118h4.155l-0.076-0.707
			c-0.137-1.287-0.521-2.482-1.141-3.555c-0.618-1.064-1.426-1.982-2.401-2.734c-0.971-0.742-2.103-1.331-3.365-1.744
			c-1.263-0.413-2.629-0.619-4.06-0.619C121.987,304.345,120.263,304.669,118.731,305.312z"/>
		<rect x="139.278" y="326.599" fill="#38923D" width="4.792" height="4.789"/>
		<path fill="#38923D" d="M154.887,304.894c-1.186,0.369-2.212,0.896-3.05,1.564c-0.847,0.682-1.515,1.503-1.984,2.439
			c-0.474,0.949-0.714,1.994-0.714,3.115c0,0.998,0.164,1.898,0.486,2.689c0.329,0.805,0.857,1.525,1.568,2.148
			c0.69,0.603,1.594,1.135,2.686,1.578c0.001,0,3.878,1.134,3.878,1.134l3.652,0.888l2.316,0.914c0.524,0.295,0.9,0.637,1.118,1.016
			c0,0.004,0.327,1.472,0.327,1.472c0,0.563-0.123,1.046-0.378,1.485c-0.002,0-1.085,1.125-1.085,1.125
			c-0.003,0-1.773,0.747-1.773,0.747c-0.005,0-2.359,0.269-2.359,0.269l-2.646-0.313l-2.074-0.923
			c-0.58-0.404-1.056-0.923-1.414-1.534c-0.359-0.605-0.574-1.344-0.638-2.197l-0.045-0.588h-4.518l0.02,0.654
			c0.039,1.301,0.3,2.531,0.778,3.656c0.484,1.143,1.217,2.141,2.175,2.971c0.95,0.826,2.153,1.477,3.574,1.93
			c1.401,0.447,3.061,0.676,4.932,0.676c1.43,0,2.772-0.206,3.99-0.605c1.226-0.409,2.291-0.984,3.17-1.705
			c0.891-0.73,1.598-1.609,2.102-2.606c0.51-1.007,0.769-2.122,0.769-3.317l-0.455-2.58c-0.002,0-1.192-1.99-1.192-1.99
			l-1.675-1.455c-0.002,0-1.925-0.94-1.925-0.94c-0.009,0-2.355-0.721-2.355-0.721l-3.088-0.773c-0.004,0-2.834-0.733-2.834-0.733
			c-0.001,0-1.639-0.726-1.639-0.726c-0.001,0-0.672-0.729-0.672-0.729l-0.193-1.111c0-0.91,0.407-1.64,1.243-2.225
			c0.896-0.633,2.237-0.949,3.988-0.949c3.487,0,5.317,1.306,5.59,3.995l0.06,0.575h4.537l-0.02-0.658
			c-0.04-1.301-0.327-2.475-0.853-3.494c-0.527-1.02-1.259-1.895-2.171-2.598c-0.903-0.693-1.984-1.226-3.217-1.586
			c-1.215-0.355-2.582-0.531-4.065-0.531C157.378,304.345,156.058,304.528,154.887,304.894z"/>
		<path fill="#38923D" d="M178.073,297.173l4.814,6.16h3.883l-2.888-6.16H178.073z M173.879,304.767v26.621h20.188v-4.332
			c0,0-14.437,0-15.609,0c0-1.007,0-6.232,0-7.234c1.162,0,14.027,0,14.027,0v-4.332c0,0-12.865,0-14.027,0c0-0.977,0-5.449,0-6.426
			c1.171,0,15.047,0,15.047,0v-4.297H173.879z"/>
		<path fill="#38923D" d="M196.168,304.767v4.297c0,0,7.233,0,8.321,0c0,1.205,0,22.324,0,22.324h4.613c0,0,0-21.119,0-22.324
			c1.09,0,8.405,0,8.405,0v-4.297H196.168z"/>
		<path fill="#38923D" d="M220.605,304.767v26.621h20.188v-4.332c0,0-14.436,0-15.609,0c0-1.007,0-6.232,0-7.234
			c1.162,0,14.027,0,14.027,0v-4.332c0,0-12.865,0-14.027,0c0-0.977,0-5.449,0-6.426c1.172,0,15.047,0,15.047,0v-4.297H220.605z"/>
	</g>
</g>
</svg>
