<?xml version="1.0" encoding="utf-8"?>
<!DOCTYPE svg PUBLIC "-//W3C//DTD SVG 1.1//EN" "http://www.w3.org/Graphics/SVG/1.1/DTD/svg11.dtd" [
<!ENTITY ns_svg "http://www.w3.org/2000/svg">
<!ENTITY ns_xlink "http://www.w3.org/1999/xlink">
]>
<svg  version="1.1" id="Layer_1" xmlns="&ns_svg;" xmlns:xlink="&ns_xlink;" width="145.458" height="167.146"
viewBox="0 0 145.458 167.146" overflow="visible" enable-background="new 0 0 145.458 167.146" xml:space="preserve">
<g>
<path d="M0,119.531c13.75,14.257,26.65,21.789,47.991,27.809c-0.056-0.053-2.352,5.352-2.352,5.299
c1.2,1.52,7.091,7.407,13.503,8.93c0.678,0.16,3.707,0.936,6.575,2.223c2.816,1.418,6.11,3.355,6.11,3.355s1.797-1.241,5.257-3.081
c1.646-0.737,3.638-1.415,5.926-1.972c5.323-1.419,10.532-3.596,15.053-9.514c-0.052,0.056-2.201-4.89-2.201-4.89
s6.59-1.756,13.173-3.828c9.736-3.828,23.37-9.072,36.424-24.331c-3.202-5.661-6.078-8.734-11.273-22.102
c-6.301-15.536-10.846-44.873-2.656-74.989c0.007,0.054-12.216-22.387-12.265-22.438C118.555-0.161,98.617,7.84,73.5,8.897
C60.22,9.197,44.611,7.032,26.674,0.83c0.007-0.054-12.018,22.871-12.018,22.871c1.961,6.366,3.804,19.573,3.585,36.273
C17.428,76.288,12.887,95.656,0,119.531"/>
<path fill="#EA1A29" d="M112.495,14.963c-0.808,0.228-29.05,12.697-79.359,1.221c-1.116,2.126-4.565,8.695-4.565,8.695
s11.499,47.851-12.703,92.189c11.854,12.561,33.472,18.367,34.925,18.062c0,0,0.084-4.806-0.476-7.873
c-0.307-1.248-1.363-6.562-1.673-7.816c-0.052-0.362-0.06-0.751,0.153-1.022c0.486-0.369,6.103-5.71,7.622-7.223
c0.524-0.518,1.109-1.283,1.749-1.582c0.094-0.031,0.188-0.063,0.281-0.094c1.036-0.118,5.342,2.945,13.1,3.012
c7.232,0,12.682-3.057,13.506-2.932c1.331,0.194,9.541,8.853,9.656,9.621c0.114,0.783-0.782,6.225-0.942,6.931
c-0.724,3.895-0.47,9.117-0.47,9.117c23.075-4.291,36.23-17.644,36.23-17.644s-23.041-35.406-11.739-93.583
C117.791,24.042,112.793,15.028,112.495,14.963"/>
<path fill="none" stroke="#EA1A29" stroke-width="0.19" d="M112.495,14.963c-0.808,0.228-29.05,12.697-79.359,1.221
c-1.116,2.126-4.565,8.695-4.565,8.695s11.499,47.851-12.703,92.189c11.854,12.561,33.472,18.367,34.925,18.062
c0,0,0.084-4.806-0.476-7.873c-0.307-1.248-1.363-6.562-1.673-7.816c-0.052-0.362-0.06-0.751,0.153-1.022
c0.486-0.369,6.103-5.71,7.622-7.223c0.524-0.518,1.109-1.283,1.749-1.582c0.094-0.031,0.188-0.063,0.281-0.094
c1.036-0.118,5.342,2.945,13.1,3.012c7.232,0,12.682-3.057,13.506-2.932c1.331,0.194,9.541,8.853,9.656,9.621
c0.114,0.783-0.782,6.225-0.942,6.931c-0.724,3.895-0.47,9.117-0.47,9.117c23.075-4.291,36.23-17.644,36.23-17.644
s-23.041-35.406-11.739-93.583C117.791,24.042,112.793,15.028,112.495,14.963z"/>
<path fill="#FFFFFF" d="M58.801,112.354c-1.228,1.151-7.201,6.784-7.504,7.566c-0.289,0.737,0.553,3.693,0.716,4.643
c0.592,3.494,1.305,7.023,1.127,10.741c-0.223,4.492-1.27,7.949-2.729,11.851c-0.432,1.141-2.25,5.07-2.25,5.07
c0.608,0.58,1.224,1.157,1.833,1.734c1.355,1.234,3.157,2.758,4.753,3.609c3.818,2.024,7.299,2.622,11.318,4.235
c0.974,0.387,5.794,3.099,5.794,3.099s3.345-2.42,4.597-2.925c2.771-1.13,5.744-1.832,8.609-2.799
c2.587-0.88,4.952-2.246,7.171-3.863c1.029-0.758,3.213-2.681,3.394-2.99c0,0-1.829-4.128-2.455-5.603
c-0.978-2.5-1.669-5.445-2.063-8.168c-0.681-4.663,0.011-9.347,0.512-13.818c0.163-1.495,1.005-3.308,0.633-4.848
c-0.209-0.824-6.565-7.01-7.354-7.243c-0.73-0.212-7.98,2.413-13.165,2.573C65.888,115.397,60.325,112.653,58.801,112.354"/>
<path fill="none" stroke="#FFFFFF" stroke-width="0.19" d="M58.801,112.354c-1.228,1.151-7.201,6.784-7.504,7.566
c-0.289,0.737,0.553,3.693,0.716,4.643c0.592,3.494,1.305,7.023,1.127,10.741c-0.223,4.492-1.27,7.949-2.729,11.851
c-0.432,1.141-2.25,5.07-2.25,5.07c0.608,0.58,1.224,1.157,1.833,1.734c1.355,1.234,3.157,2.758,4.753,3.609
c3.818,2.024,7.299,2.622,11.318,4.235c0.974,0.387,5.794,3.099,5.794,3.099s3.345-2.42,4.597-2.925
c2.771-1.13,5.744-1.832,8.609-2.799c2.587-0.88,4.952-2.246,7.171-3.863c1.029-0.758,3.213-2.681,3.394-2.99
c0,0-1.829-4.128-2.455-5.603c-0.978-2.5-1.669-5.445-2.063-8.168c-0.681-4.663,0.011-9.347,0.512-13.818
c0.163-1.495,1.005-3.308,0.633-4.848c-0.209-0.824-6.565-7.01-7.354-7.243c-0.73-0.212-7.98,2.413-13.165,2.573
C65.888,115.397,60.325,112.653,58.801,112.354z"/>
<path fill="#FFFFFF" d="M29.227,5.924c0,0,22.536,7.089,44.704,7.089c22.171,0,43.014-8.058,43.014-8.058l9.872,17.573
c0,0-14.886,49.537,12.895,96.304c-13.197,16.694-36.272,22.349-45.087,24.72c0,0-0.438-0.55-0.789-2.197
c-0.32-1.488-0.223-2.546-0.223-2.546s26.768-4.743,40.493-20.843c-0.004,0-25.249-38.459-12.369-94.713
c0.107-0.466-7.455-12.537-7.455-12.537s-17.961,6.773-40.33,6.773c-21.003,0-42.694-5.759-42.694-5.759l-6.773,12.88
c0,0,12.535,44.392-12.88,93.182c12.88,13.558,29.595,18.245,38.747,20.954c0,0-0.167,1.294-0.389,2.09
c-0.265,0.963-0.936,2.382-0.936,2.382s-26.894-5.49-43.522-24.744C32.617,67.646,19.059,23.592,19.396,23.93
C19.64,24.173,29.227,5.924,29.227,5.924"/>
<path fill="none" stroke="#FFFFFF" stroke-width="0.19" stroke-miterlimit="3.864" d="M29.227,5.924c0,0,22.536,7.089,44.704,7.089
c22.171,0,43.014-8.058,43.014-8.058l9.872,17.573c0,0-14.886,49.537,12.895,96.304c-13.197,16.694-36.272,22.349-45.087,24.72
c0,0-0.438-0.55-0.789-2.197c-0.32-1.488-0.223-2.546-0.223-2.546s26.768-4.743,40.493-20.843
c-0.004,0-25.249-38.459-12.369-94.713c0.107-0.466-7.455-12.537-7.455-12.537s-17.961,6.773-40.33,6.773
c-21.003,0-42.694-5.759-42.694-5.759l-6.773,12.88c0,0,12.535,44.392-12.88,93.182c12.88,13.558,29.595,18.245,38.747,20.954
c0,0-0.167,1.294-0.389,2.09c-0.265,0.963-0.936,2.382-0.936,2.382s-26.894-5.49-43.522-24.744
C32.617,67.646,19.059,23.592,19.396,23.93C19.64,24.173,29.227,5.924,29.227,5.924z"/>
<path fill="#EA1A29" d="M72.463,119.267c-0.226,0-0.185,2.955-0.185,4.521c0,2.872,0.008,5.744,0.008,8.613
c0.048,0.546-0.474,3.06-0.278,3.188c0.31,0.201,4.777-3.749,5.076-4.319c0.414-0.796-0.515-2.677-0.524-3.581
c-0.015-2.816,0.546-6.138,0.524-8.961C75.785,118.728,73.764,119.267,72.463,119.267"/>
<path fill="none" stroke="#EA1A29" stroke-width="0.19" d="M72.463,119.267c-0.226,0-0.185,2.955-0.185,4.521
c0,2.872,0.008,5.744,0.008,8.613c0.048,0.546-0.474,3.06-0.278,3.188c0.31,0.201,4.777-3.749,5.076-4.319
c0.414-0.796-0.515-2.677-0.524-3.581c-0.015-2.816,0.546-6.138,0.524-8.961C75.785,118.728,73.764,119.267,72.463,119.267z"/>
<path fill="#EA1A29" d="M71.67,119.152c0.227,0-0.524,3.074-0.524,4.636c0,2.872,0.608,5.793,0.608,8.665
c-0.053,0.543,0.268,3.275,0.073,3.404c-0.31,0.198-4.556-4.447-4.854-5.021c-0.414-0.796-0.115-2.239-0.108-3.15
c0.018-2.813-0.299-6.687-0.281-9.51C67.887,118.175,70.371,119.152,71.67,119.152"/>
<path fill="none" stroke="#EA1A29" stroke-width="0.19" d="M71.67,119.152c0.227,0-0.524,3.074-0.524,4.636
c0,2.872,0.608,5.793,0.608,8.665c-0.053,0.543,0.268,3.275,0.073,3.404c-0.31,0.198-4.556-4.447-4.854-5.021
c-0.414-0.796-0.115-2.239-0.108-3.15c0.018-2.813-0.299-6.687-0.281-9.51C67.887,118.175,70.371,119.152,71.67,119.152z"/>
<path fill="#EA1A29" d="M71.962,136.417c-0.254,2.577-0.118,6.861-0.118,9.591c0,4.826-0.056,11.385-0.056,16.204
c0.104,0,3.353-2.038,5.102-2.531c0,0,0.236-11.128,0.194-14.869c-0.01-0.782,0-3.471-0.223-4.166
C76.553,139.707,72.822,136.828,71.962,136.417"/>
<path fill="#EA1A29" d="M71.643,136.389c0.25,2.573,0.114,6.773,0.114,9.5c0,4.826-0.021,11.37-0.021,16.19
c-0.104,0-4.177-1.613-5.15-2.292c0,0-0.041-11.958,0-15.707c0.011-0.782-0.226-2.549,0-3.247
C66.896,139.894,70.784,136.799,71.643,136.389"/>
<path fill="#EA1A29" d="M72.341,136.153c-0.128,0.139,3.283,3.665,4.743,4.378c0.602,0.288,2.09-0.157,2.841-0.157
c1.837-0.007,8.381,0.285,8.433,0.285c0,0-0.25-4.04-0.65-4.36c-0.292-0.229-1.575,0.021-1.957-0.027
c-2.059-0.299-4.705,0.09-6.822,0.056C78.215,136.313,72.248,135.881,72.341,136.153"/>
<path fill="#EA1A29" d="M77.084,131.27c-0.782,0.278-6.666,5.721-5.257,4.848c0.097-0.059,3.529,0.897,3.146-0.021
c1.555,0.097,12.191,0.528,12.706,0.083c0.421-0.365-0.024-4.423-0.024-5C85.27,131.125,78.385,130.864,77.084,131.27"/>
<path fill="#EA1A29" d="M71.828,136.118c0.128,0.14-3.655,3.554-5.112,4.264c-0.602,0.292-1.981,0.277-2.733,0.277
c-1.843-0.003-8.853-0.09-8.905-0.09c0,0,0.216-4.159,0.619-4.472c0.292-0.229,2.8,0.136,3.182,0.083
c2.059-0.299,4.326,0.031,6.44,0C66.034,136.167,71.917,135.846,71.828,136.118"/>
<path fill="#EA1A29" d="M66.548,131.187c0.782,0.271,5.227,4.795,5.24,4.848c0.028,0.114-1.433,0.146-2.273,0.063
c-1.559,0.097-13.993-0.108-13.993-0.108s-0.031-4.356-0.031-4.931C57.876,131,65.249,130.78,66.548,131.187"/>
<path d="M48.029,25.705c-0.004,0.062,53.783-0.043,53.783-0.043s-3.126,14.173-3.195,14.194c0.069,0.081-1.131-4.217-6.2-4.48
H77.084v10.879c7.675,0,31.988,0.01,31.988,0.01v13.343c0,0-2.205-3.985-8.513-3.985l-9.754,0.011v6.506l6.109,0.007
c6.354,0,8.753-4.862,8.753-4.862s0.056,20.201,0,20.201c0,0-2.838-6.231-9.232-6.309l-5.984,0.011c0,0,0.027,6.61,0.027,8.183
c0.104,0,4.489-2.949,4.489-2.949l5.202,6.461l-9.719,7.716c0,0,0.031,3.349-0.007,5.623c0,7.101,4.343,9.82,4.343,9.82
l-19.121-0.004c0,0,4.684-2.576,4.684-9.413l-0.018-1.982c-0.059-0.01-2.709,0.87-7.716,1.305
c-5.008,0.435-8.325,0.065-8.325,0.065l0.015,0.72c0,6.761,4.325,9.278,4.325,9.326H49.002c0-0.059,4.777-2.771,4.777-10.111
l-0.007-2.271c-0.789-0.411-1.85-1.029-2.451-1.35c-1.131-0.653-2.254-1.308-3.391-1.972c-7.212-4.806-11.976-12.195-12.254-21.226
c-0.268-8.613,2.607-16.382,8.488-21.901c1.359-1.281,2.785-2.475,4.347-3.462c0.727-0.466,5.038-3.032,5.038-3.032
c0.014-0.04,0-5.626,0-5.626s0.024-2.711-0.584-4.28C51.958,28.24,50.574,26.805,48.029,25.705"/>
<path fill="none" stroke="#EA1A29" stroke-width="0.19" d="M48.029,25.705c-0.004,0.062,53.783-0.043,53.783-0.043
s-3.126,14.173-3.195,14.194c0.069,0.081-1.131-4.217-6.2-4.48H77.084v10.879c7.675,0,31.988,0.01,31.988,0.01v13.343
c0,0-2.205-3.985-8.513-3.985l-9.754,0.011v6.506l6.109,0.007c6.354,0,8.753-4.862,8.753-4.862s0.056,20.201,0,20.201
c0,0-2.838-6.231-9.232-6.309l-5.984,0.011c0,0,0.027,6.61,0.027,8.183c0.104,0,4.489-2.949,4.489-2.949l5.202,6.461l-9.719,7.716
c0,0,0.031,3.349-0.007,5.623c0,7.101,4.343,9.82,4.343,9.82l-19.121-0.004c0,0,4.684-2.576,4.684-9.413l-0.018-1.982
c-0.059-0.01-2.709,0.87-7.716,1.305c-5.008,0.435-8.325,0.065-8.325,0.065l0.015,0.72c0,6.761,4.325,9.278,4.325,9.326H49.002
c0-0.059,4.777-2.771,4.777-10.111l-0.007-2.271c-0.789-0.411-1.85-1.029-2.451-1.35c-1.131-0.653-2.254-1.308-3.391-1.972
c-7.212-4.806-11.976-12.195-12.254-21.226c-0.268-8.613,2.607-16.382,8.488-21.901c1.359-1.281,2.785-2.475,4.347-3.462
c0.727-0.466,5.038-3.032,5.038-3.032c0.014-0.04,0-5.626,0-5.626s0.024-2.711-0.584-4.28
C51.958,28.24,50.574,26.805,48.029,25.705z"/>
<path fill="#FFFFFF" d="M54.597,28.167c0,0.058,1.582,2.199,1.586,6.837l0.024,48.822c0,0,1.23,0.703,2.75,1.127
c1.746,0.494,2.928,0.661,2.928,0.661c0.038-0.08,0-18.815,0-19.781h4.698c4.492,0,5.713,2.189,5.766,2.189l-0.004-8.339
c0,0-0.922,1.573-5.762,1.573h-4.698V32.741h30.569c3.188,0,4.84,1.604,4.861,1.586c-0.021,0.018,1.429-6.103,1.429-6.16
C98.776,28.198,54.653,28.167,54.597,28.167"/>
<path fill="#EA1A29" d="M64.657,35.302c0,0,0.011,3.09,0,3.09c0.06-0.028,5.369,0,5.369,0c1.815,0,5.049-3.034,5.049-3.09
C75.075,35.302,64.688,35.302,64.657,35.302"/>
<path fill="none" stroke="#EA1A29" stroke-width="0.19" d="M64.657,35.302c0,0,0.011,3.09,0,3.09c0.06-0.028,5.369,0,5.369,0
c1.815,0,5.049-3.034,5.049-3.09C75.075,35.302,64.688,35.302,64.657,35.302z"/>
<path fill="#FFFFFF" d="M74.542,39.367c-0.894,0.57-2.649,1.61-4.646,1.61c-0.01,0.004-5.24,0.004-5.24,0.004v3.639
c0,0,5.619-0.007,5.619-0.045c2.532,0.01,4.306,1.199,4.277,1.199C74.553,45.802,74.582,39.421,74.542,39.367"/>
<path fill="#FFFFFF" d="M53.554,43.677c-2.056,1.029-3.905,2.188-5.623,3.564c-5.365,4.291-8.729,10.538-9.361,17.334
c-0.285,3.027-0.246,6.579,0.418,9.417c1.721,7.435,7.883,13.658,14.768,16.684c2.862,1.252,5.895,2.143,9.094,2.608
c6.064,0.883,13.989-0.299,17.525-1.568c0,0,0.059-4.639,0-4.639c-0.692,0.136-1.533,0.386-2.236,0.525
c-2.729,0.573-5.49,0.89-8.48,0.89c-11.708,0-21.762-3.54-25.322-14.827c-0.918-2.886-1.15-6.704-0.619-9.883
c0.762-4.572,2.497-8.667,5.984-11.84c0.87-0.751,1.742-1.499,2.612-2.25c0.42-0.328,0.823-0.747,1.241-1.072V43.677z"/>
<path fill="#EA1A29" d="M68.621,47.153c0.028,0.028-3.988,0.051-3.964,0.021c0.018-0.017,0,11.277,0,11.311
c0,0.049,3.37,0.021,3.411,0.021c4.364,0,6.434-5.474,6.485-5.474V74.18c0,0-3.957-5.595-7.007-5.595c0,0-2.89,0.014-2.89,0v17.327
c0,0,5.494,0.695,8.923,0.271c3.516-0.438,6.819-1.329,6.819-1.329l-0.004-30.833c0-3.397-3.307-5.109-3.307-5.109v2.705
C77.088,51.6,74.553,47.153,68.621,47.153"/>
<path fill="none" stroke="#EA1A29" stroke-width="0.19" d="M68.621,47.153c0.028,0.028-3.988,0.051-3.964,0.021
c0.018-0.017,0,11.277,0,11.311c0,0.049,3.37,0.021,3.411,0.021c4.364,0,6.434-5.474,6.485-5.474V74.18
c0,0-3.957-5.595-7.007-5.595c0,0-2.89,0.014-2.89,0v17.327c0,0,5.494,0.695,8.923,0.271c3.516-0.438,6.819-1.329,6.819-1.329
l-0.004-30.833c0-3.397-3.307-5.109-3.307-5.109v2.705C77.088,51.6,74.553,47.153,68.621,47.153z"/>
<path fill="#FFFFFF" d="M81.581,48.89c0,0,1.61,2.117,1.61,4.193c0,0,0.024,15.536,0,17.352c-0.153,9.573,0,15.631,0,25.089
c0,6.864-1.982,7.932-1.982,7.932h8.151c0,0-1.318-1.283-1.318-7.292c0.015-5.692,0.028-13.693,0.038-19.386
c-0.055-1.548-0.014-8.116-0.014-8.116h9.156c3.081,0,6.047,2.184,6.047,2.184v-7.823c0,0-2.386,1.698-5.126,1.698L88.066,64.75
c0,0-0.018-11.704-0.018-11.758l13.735,0.007c2.685,0,4.966,1.179,4.966,1.179l-0.003-5.287H81.581z"/>
<path fill="#FFFFFF" d="M94.583,79.563c0,0.056-4.104,2.932-4.104,2.932v4.572c0.056,0,6.381-4.681,6.381-4.681L94.583,79.563z"/>
<path fill="#FFFFFF" d="M56.214,94.345v1.631c0,5.289-1.652,7.476-1.652,7.476h8.548c0,0-1.225-1.436-1.225-6.516v-1.267
C60.049,95.433,57.72,94.814,56.214,94.345"/>
<path fill="none" stroke="#000000" stroke-width="0.19" stroke-miterlimit="3.864" d="M59.441,115.532c0,0,4.017,1.837,6.742,2.473
c4.146,0.963,6.722,1.225,10.901,0.438c2.921-0.55,7.171-2.556,7.171-2.556l5.334,5.421c0,0-0.706,4.628-1.363,8.012
c-0.41,2.758-0.477,4.364-0.306,7.146c0.208,3.411,0.643,5.341,1.651,8.61c0.918,2.977,3.105,7.351,3.105,7.351
s-2.027,2.382-4.674,3.616c-5.303,2.479-10.369,2.974-14.295,5.091c-0.354,0.191-1.684,0.946-1.916,1.367
c-0.334-0.682-4.604-2.306-7.122-3.308c-2.055-0.667-4.113-1.328-6.161-1.992c-1.753-0.57-2.967-1.186-4.573-2.396
c-1.272-0.96-2.917-2.858-2.917-2.858c0.344-0.904,2.246-4.924,3.115-8.256c1.301-4.958,1.6-7.956,1.308-13.074
c0,0-0.786-4.002-1.012-6.009c-0.132-0.904-0.765-3.3-0.765-3.3L59.441,115.532z"/>
<path fill-rule="evenodd" clip-rule="evenodd" fill="#EA1A29" d="M53.519,82.401V51.836C43.453,58.255,43.373,76.656,53.519,82.401
"/>
<path fill="none" stroke="#EA1A29" stroke-width="0.19" stroke-miterlimit="3.864" d="M53.519,82.401V51.836
C43.453,58.255,43.373,76.656,53.519,82.401z"/>
<path d="M20.836,116.102c0-1.362,1.109-2.472,2.476-2.472c1.366,0,2.476,1.109,2.476,2.472c0,1.37-1.109,2.477-2.476,2.477
C21.945,118.579,20.836,117.472,20.836,116.102"/>
<path fill="none" stroke="#000000" stroke-width="0.19" stroke-miterlimit="3.864" d="M20.836,116.102
c0-1.362,1.109-2.472,2.476-2.472c1.366,0,2.476,1.109,2.476,2.472c0,1.37-1.109,2.477-2.476,2.477
C21.945,118.579,20.836,117.472,20.836,116.102z"/>
<path fill="#FFFFFF" d="M22.151,116.102c0-0.64,0.521-1.157,1.161-1.157c0.644,0,1.161,0.518,1.161,1.157
c0,0.644-0.518,1.162-1.161,1.162C22.672,117.264,22.151,116.746,22.151,116.102"/>
<path fill="none" stroke="#FFFFFF" stroke-width="0.19" stroke-miterlimit="3.864" d="M22.151,116.102
c0-0.64,0.521-1.157,1.161-1.157c0.644,0,1.161,0.518,1.161,1.157c0,0.644-0.518,1.162-1.161,1.162
C22.672,117.264,22.151,116.746,22.151,116.102z"/>
<path d="M26.848,116.102c0-1.362,1.105-2.472,2.473-2.472c1.37,0,2.476,1.109,2.476,2.472c0,1.37-1.105,2.477-2.476,2.477
C27.954,118.579,26.848,117.472,26.848,116.102"/>
<path fill="none" stroke="#000000" stroke-width="0.19" stroke-miterlimit="3.864" d="M26.848,116.102
c0-1.362,1.105-2.472,2.473-2.472c1.37,0,2.476,1.109,2.476,2.472c0,1.37-1.105,2.477-2.476,2.477
C27.954,118.579,26.848,117.472,26.848,116.102z"/>
<path fill="#FFFFFF" d="M28.163,116.102c0-0.64,0.519-1.157,1.158-1.157c0.644,0,1.161,0.518,1.161,1.157
c0,0.644-0.518,1.162-1.161,1.162C28.681,117.264,28.163,116.746,28.163,116.102"/>
<path fill="none" stroke="#FFFFFF" stroke-width="0.19" stroke-miterlimit="3.864" d="M28.163,116.102
c0-0.64,0.519-1.157,1.158-1.157c0.644,0,1.161,0.518,1.161,1.157c0,0.644-0.518,1.162-1.161,1.162
C28.681,117.264,28.163,116.746,28.163,116.102z"/>
<path d="M23.771,111.234c0-1.366,1.109-2.476,2.476-2.476c1.367,0,2.476,1.109,2.476,2.476c0,1.37-1.108,2.477-2.476,2.477
C24.88,113.71,23.771,112.604,23.771,111.234"/>
<path fill="none" stroke="#000000" stroke-width="0.19" stroke-miterlimit="3.864" d="M23.771,111.234
c0-1.366,1.109-2.476,2.476-2.476c1.367,0,2.476,1.109,2.476,2.476c0,1.37-1.108,2.477-2.476,2.477
C24.88,113.71,23.771,112.604,23.771,111.234z"/>
<path fill="#FFFFFF" d="M25.085,111.234c0-0.64,0.521-1.161,1.161-1.161s1.161,0.521,1.161,1.161c0,0.641-0.521,1.162-1.161,1.162
S25.085,111.875,25.085,111.234"/>
<circle fill="none" stroke="#FFFFFF" stroke-width="0.19" stroke-miterlimit="3.864" cx="26.247" cy="111.234" r="1.161"/>
<path d="M113.38,116.102c0-1.362,1.106-2.472,2.473-2.472c1.37,0,2.476,1.109,2.476,2.472c0,1.37-1.105,2.477-2.476,2.477
C114.487,118.579,113.38,117.472,113.38,116.102"/>
<path fill="none" stroke="#000000" stroke-width="0.19" stroke-miterlimit="3.864" d="M113.38,116.102
c0-1.362,1.106-2.472,2.473-2.472c1.37,0,2.476,1.109,2.476,2.472c0,1.37-1.105,2.477-2.476,2.477
C114.487,118.579,113.38,117.472,113.38,116.102z"/>
<path fill="#FFFFFF" d="M114.695,116.102c0-0.64,0.519-1.157,1.162-1.157c0.64,0,1.161,0.518,1.161,1.157
c0,0.644-0.521,1.162-1.161,1.162C115.213,117.264,114.695,116.746,114.695,116.102"/>
<path fill="none" stroke="#FFFFFF" stroke-width="0.19" stroke-miterlimit="3.864" d="M114.695,116.102
c0-0.64,0.519-1.157,1.162-1.157c0.64,0,1.161,0.518,1.161,1.157c0,0.644-0.521,1.162-1.161,1.162
C115.213,117.264,114.695,116.746,114.695,116.102z"/>
<path d="M119.39,116.102c0-1.362,1.108-2.472,2.476-2.472c1.366,0,2.472,1.109,2.472,2.472c0,1.37-1.105,2.477-2.472,2.477
C120.499,118.579,119.39,117.472,119.39,116.102"/>
<path fill="none" stroke="#000000" stroke-width="0.19" stroke-miterlimit="3.864" d="M119.39,116.102
c0-1.362,1.108-2.472,2.476-2.472c1.366,0,2.472,1.109,2.472,2.472c0,1.37-1.105,2.477-2.472,2.477
C120.499,118.579,119.39,117.472,119.39,116.102z"/>
<path fill="#FFFFFF" d="M120.704,116.102c0-0.64,0.522-1.157,1.162-1.157s1.161,0.518,1.161,1.157c0,0.644-0.521,1.162-1.161,1.162
S120.704,116.746,120.704,116.102"/>
<path fill="none" stroke="#FFFFFF" stroke-width="0.19" stroke-miterlimit="3.864" d="M120.704,116.102
c0-0.64,0.522-1.157,1.162-1.157s1.161,0.518,1.161,1.157c0,0.644-0.521,1.162-1.161,1.162S120.704,116.746,120.704,116.102z"/>
<path d="M116.316,111.234c0-1.366,1.105-2.476,2.472-2.476c1.37,0,2.477,1.109,2.477,2.476c0,1.37-1.106,2.477-2.477,2.477
C117.421,113.71,116.316,112.604,116.316,111.234"/>
<path fill="none" stroke="#000000" stroke-width="0.19" stroke-miterlimit="3.864" d="M116.316,111.234
c0-1.366,1.105-2.476,2.472-2.476c1.37,0,2.477,1.109,2.477,2.476c0,1.37-1.106,2.477-2.477,2.477
C117.421,113.71,116.316,112.604,116.316,111.234z"/>
<path fill="#FFFFFF" d="M117.63,111.234c0-0.64,0.518-1.161,1.161-1.161c0.64,0,1.158,0.521,1.158,1.161
c0,0.641-0.519,1.162-1.158,1.162C118.148,112.396,117.63,111.875,117.63,111.234"/>
<path fill="none" stroke="#FFFFFF" stroke-width="0.19" stroke-miterlimit="3.864" d="M117.63,111.234
c0-0.64,0.518-1.161,1.161-1.161c0.64,0,1.158,0.521,1.158,1.161c0,0.641-0.519,1.162-1.158,1.162
C118.148,112.396,117.63,111.875,117.63,111.234z"/>
<path d="M31.122,27.487c0-1.366,1.106-2.474,2.477-2.474c1.366,0,2.472,1.107,2.472,2.474c0,1.367-1.105,2.475-2.472,2.475
C32.228,29.961,31.122,28.854,31.122,27.487"/>
<path fill="none" stroke="#000000" stroke-width="0.19" stroke-miterlimit="3.864" d="M31.122,27.487
c0-1.366,1.106-2.474,2.477-2.474c1.366,0,2.472,1.107,2.472,2.474c0,1.367-1.105,2.475-2.472,2.475
C32.228,29.961,31.122,28.854,31.122,27.487z"/>
<path fill="#FFFFFF" d="M32.436,27.487c0-0.642,0.521-1.161,1.162-1.161c0.64,0,1.161,0.52,1.161,1.161s-0.521,1.161-1.161,1.161
C32.958,28.648,32.436,28.128,32.436,27.487"/>
<circle fill="none" stroke="#FFFFFF" stroke-width="0.19" stroke-miterlimit="3.864" cx="33.598" cy="27.487" r="1.162"/>
<path d="M37.13,28.449c0-1.368,1.109-2.477,2.477-2.477c1.366,0,2.476,1.108,2.476,2.477c0,1.366-1.109,2.474-2.476,2.474
C38.24,30.922,37.13,29.815,37.13,28.449"/>
<circle fill="none" stroke="#000000" stroke-width="0.19" stroke-miterlimit="3.864" cx="39.606" cy="28.449" r="2.476"/>
<path fill="#FFFFFF" d="M38.445,28.449c0-0.642,0.521-1.162,1.162-1.162c0.64,0,1.157,0.521,1.157,1.162
c0,0.64-0.518,1.159-1.157,1.159C38.966,29.608,38.445,29.088,38.445,28.449"/>
<path fill="none" stroke="#FFFFFF" stroke-width="0.19" stroke-miterlimit="3.864" d="M38.445,28.449
c0-0.642,0.521-1.162,1.162-1.162c0.64,0,1.157,0.521,1.157,1.162c0,0.64-0.518,1.159-1.157,1.159
C38.966,29.608,38.445,29.088,38.445,28.449z"/>
<path d="M35.497,23.097c0-1.367,1.109-2.475,2.476-2.475s2.476,1.107,2.476,2.475c0,1.368-1.109,2.476-2.476,2.476
S35.497,24.465,35.497,23.097"/>
<circle fill="none" stroke="#000000" stroke-width="0.19" stroke-miterlimit="3.864" cx="37.972" cy="23.097" r="2.476"/>
<path fill="#FFFFFF" d="M36.811,23.097c0-0.64,0.521-1.16,1.161-1.16s1.161,0.521,1.161,1.16c0,0.642-0.521,1.161-1.161,1.161
S36.811,23.739,36.811,23.097"/>
<circle fill="none" stroke="#FFFFFF" stroke-width="0.19" stroke-miterlimit="3.864" cx="37.972" cy="23.097" r="1.161"/>
<path d="M109.583,26.718c0-1.366,1.109-2.474,2.476-2.474c1.367,0,2.473,1.107,2.473,2.474c0,1.367-1.105,2.477-2.473,2.477
C110.693,29.195,109.583,28.085,109.583,26.718"/>
<circle fill="none" stroke="#000000" stroke-width="0.19" stroke-miterlimit="3.864" cx="112.058" cy="26.718" r="2.474"/>
<path fill="#FFFFFF" d="M110.898,26.718c0-0.64,0.521-1.161,1.161-1.161c0.637,0,1.162,0.521,1.162,1.161
c0,0.642-0.525,1.162-1.162,1.162C111.419,27.88,110.898,27.36,110.898,26.718"/>
<path fill="none" stroke="#FFFFFF" stroke-width="0.19" stroke-miterlimit="3.864" d="M110.898,26.718
c0-0.64,0.521-1.161,1.161-1.161c0.637,0,1.162,0.521,1.162,1.161c0,0.642-0.525,1.162-1.162,1.162
C111.419,27.88,110.898,27.36,110.898,26.718z"/>
<path d="M103.575,27.678c0-1.366,1.106-2.474,2.473-2.474c1.37,0,2.476,1.107,2.476,2.474c0,1.368-1.105,2.476-2.476,2.476
C104.681,30.154,103.575,29.046,103.575,27.678"/>
<path fill="none" stroke="#000000" stroke-width="0.19" stroke-miterlimit="3.864" d="M103.575,27.678
c0-1.366,1.106-2.474,2.473-2.474c1.37,0,2.476,1.107,2.476,2.474c0,1.368-1.105,2.476-2.476,2.476
C104.681,30.154,103.575,29.046,103.575,27.678z"/>
<path fill="#FFFFFF" d="M104.889,27.678c0-0.64,0.519-1.159,1.161-1.159c0.641,0,1.162,0.52,1.162,1.159
c0,0.642-0.521,1.161-1.162,1.161C105.408,28.839,104.889,28.32,104.889,27.678"/>
<circle fill="none" stroke="#FFFFFF" stroke-width="0.19" stroke-miterlimit="3.864" cx="106.051" cy="27.678" r="1.162"/>
<path d="M105.209,22.329c0-1.367,1.105-2.475,2.476-2.475c1.366,0,2.473,1.107,2.473,2.475c0,1.368-1.106,2.476-2.473,2.476
C106.315,24.804,105.209,23.697,105.209,22.329"/>
<path fill="none" stroke="#000000" stroke-width="0.19" stroke-miterlimit="3.864" d="M105.209,22.329
c0-1.367,1.105-2.475,2.476-2.475c1.366,0,2.473,1.107,2.473,2.475c0,1.368-1.106,2.476-2.473,2.476
C106.315,24.804,105.209,23.697,105.209,22.329z"/>
<path fill="#FFFFFF" d="M106.524,22.329c0-0.64,0.518-1.16,1.161-1.16c0.64,0,1.158,0.521,1.158,1.16
c0,0.642-0.519,1.161-1.158,1.161C107.042,23.49,106.524,22.97,106.524,22.329"/>
<path fill="none" stroke="#FFFFFF" stroke-width="0.19" stroke-miterlimit="3.864" d="M106.524,22.329
c0-0.64,0.518-1.16,1.161-1.16c0.64,0,1.158,0.521,1.158,1.16c0,0.642-0.519,1.161-1.158,1.161
C107.042,23.49,106.524,22.97,106.524,22.329z"/>

<path fill="none" stroke="#000000" stroke-width="0.216" stroke-linecap="round" stroke-linejoin="round" stroke-miterlimit="3.864" d="
M55.56,136.073h32.231 M71.737,118.884v43.202 M66.586,118.175v13.095 M77.084,118.446v12.824 M55.734,131.18h10.853
M66.586,131.27l5.241,4.587 M71.828,135.857l5.257-4.587 M77.084,131.18h10.571 M66.586,140.84v18.947 M77.084,140.729v18.795
M55.077,140.659h11.51 M77.084,140.659h11.271 M71.828,136.118l-5.178,4.576 M71.828,136.118l5.257,4.541"/>
</g>
</svg>
