<?xml version="1.0" encoding="iso-8859-1"?>
<!DOCTYPE svg PUBLIC "-//W3C//DTD SVG 1.0//EN" "http://www.w3.org/TR/2001/REC-SVG-20010904/DTD/svg10.dtd">
<!-- Creator: CorelDRAW -->
<svg xmlns="http://www.w3.org/2000/svg" xmlns:odm="http://product.corel.com/CGS/11/cddns/" xml:space="preserve" width="1201px" height="637px" style="shape-rendering:geometricPrecision; text-rendering:geometricPrecision; image-rendering:optimizeQuality; fill-rule:evenodd"
     viewBox="0 0 1202 638">
 <defs>
  <style type="text/css">
   <![CDATA[
    .fil25 {fill:#1F1A17}
    .fil0 {fill:#FFFFFF}
    .fil3 {fill:#000000}
    .fil26 {fill:#0000C7}
    .fil14 {fill:#080808}
    .fil20 {fill:#101010}
    .fil21 {fill:#191919}
    .fil19 {fill:#212121}
    .fil23 {fill:#292929}
    .fil7 {fill:#313131}
    .fil12 {fill:#3A3A3A}
    .fil2 {fill:#424242}
    .fil10 {fill:#4A4A4A}
    .fil22 {fill:#525252}
    .fil17 {fill:#5A5A5A}
    .fil18 {fill:#9C9C9C}
    .fil24 {fill:#ADADAD}
    .fil4 {fill:#B5B5B5}
    .fil6 {fill:#BDBDBD}
    .fil1 {fill:#C5C5C5}
    .fil8 {fill:#CECECE}
    .fil11 {fill:#D6D6D6}
    .fil5 {fill:#DEDEDE}
    .fil13 {fill:#E6E6E6}
    .fil16 {fill:#EFEFEF}
    .fil9 {fill:#F7F7F7}
    .fil15 {fill:#FFFFFF}
   ]]>
  </style>
 </defs>
 <g id="Umriss">
  <g>
   <g>
    <path class="fil0" d="M601 622c321,0 582,-136 582,-303 0,-167 -261,-303 -582,-303 -321,0 -582,136 -582,303 0,167 261,303 582,303z"/>
    <path class="fil0" d="M601 618l0 0 0 9 0 0 0 -9zm0 0c160,0 304,-34 409,-89l4 8c-106,55 -252,90 -413,90l0 -9zm409 -89c104,-54 169,-128 169,-210l8 0c0,85 -66,162 -173,218l-4 -8zm169 -210l0 0 8 0 0 0 -8 0zm0 0l0 0 8 0 0 0 -8 0zm0 0c0,-82 -65,-156 -169,-210l4 -8c107,56 173,133 173,218l-8 0zm-169 -210c-105,-55 -249,-89 -409,-89l0 -9c161,0 307,35 413,90l-4 8zm-409 -89l0 0 0 -9 0 0 0 9zm0 0l0 0 0 -9 0 0 0 9zm0 0c-160,0 -304,34 -409,89l-4 -8c106,-55 252,-90 413,-90l0 9zm-409 89c-104,54 -169,128 -169,210l-8 0c0,-85 66,-162 173,-218l4 8zm-169 210l0 0 -8 0 0 0 8 0zm0 0l0 0 -8 0 0 0 8 0zm0 0c0,82 65,156 169,210l-4 8c-107,-56 -173,-133 -173,-218l8 0zm169 210c105,55 249,89 409,89l0 9c-161,0 -307,-35 -413,-90l4 -8zm409 89l0 0 0 9 0 0 0 -9z"/>
   </g>
   <path class="fil1" d="M694 532c0,-1 -1,-2 -1,-4 0,-1 -1,-3 -1,-5 4,-1 6,-4 11,-6 9,8 4,15 9,22 1,8 -3,14 6,12 2,0 2,0 4,-2 2,-2 3,-9 4,-11 0,-5 0,-5 4,-6 2,0 4,6 9,7 3,-1 7,-14 3,-15 -3,-9 -8,-17 -17,-19 -1,0 -1,-1 -1,-2 1,-2 1,-2 4,-3 2,3 16,11 19,10 1,-6 5,-16 -2,-17 -3,-2 -3,-2 -7,-4 -4,-3 -9,-4 -13,-5 18,-2 42,22 19,30 0,9 6,27 -8,27 -16,-12 -6,22 -24,14 -1,-13 -12,-57 -18,-23z"/>
   <path class="fil1" d="M564 538c0,6 -1,11 5,12 0,3 10,-2 12,-3 16,4 20,11 34,1 8,0 30,7 27,-5 0,-3 1,-12 -1,-13 -12,-28 -21,-70 -25,-100 2,-3 2,-3 5,-4 2,14 42,74 39,81 -8,-9 -36,-70 -40,-71 5,16 33,100 23,116 -9,1 -17,-1 -26,0 -19,10 -26,-2 -48,1 -8,-2 -5,-7 -5,-15z"/>
   <path class="fil2" d="M712 539c1,7 0,11 6,12 -9,2 -5,-4 -6,-12z"/>
   <path class="fil3" d="M581 547c-2,-1 -9,2 -12,3 -6,-1 -5,-6 -5,-12 3,-11 3,-11 3,-14 1,0 6,-22 7,-27 3,-9 3,-18 5,-25 5,-3 8,-24 8,-30 0,0 0,-1 0,-2 0,-5 0,-9 0,-14 -6,-6 -14,13 -14,17 0,0 0,0 0,1 -9,10 -19,29 -21,42 -1,2 -2,2 -4,2 -6,-2 -5,3 -5,6 -1,8 -7,-5 -11,-6 -7,-4 -19,20 -13,24 16,9 6,26 -2,15 -6,-2 -12,-4 -18,-2 -7,1 -7,2 -6,9 0,1 1,2 1,3 -4,5 -6,7 -6,13 -11,0 -11,-14 -13,-14 -5,-8 -9,2 -9,6 -7,0 -6,-8 -6,-14 -1,-1 -1,-1 -1,-8 1,-1 2,-2 4,-4 1,-2 1,-2 2,-5 -5,-6 -10,2 -12,6 -5,-1 -6,-3 -6,-7 3,-7 4,-14 12,-16 7,0 15,-5 24,-5 14,6 14,8 24,-4 7,-7 -12,-3 -15,-3 -2,-7 2,-13 9,-14 0,1 0,3 0,4 -2,1 -6,6 0,4 4,0 -1,-10 8,-10 0,13 21,-4 11,-5 0,2 -8,9 -8,3 2,-12 16,-20 27,-23 15,-13 -28,2 -31,-1 -11,0 -20,1 -29,-6 -1,-2 -1,-3 -2,-4 -1,-5 -27,-8 -34,-14 -8,-9 15,-17 19,-22 2,-2 -1,-4 -2,-5 -18,2 -36,0 -49,-12 -8,-10 2,-12 8,-12 14,-7 -5,-7 -12,-8 -17,-11 -47,-15 -66,-15 -16,-10 -51,-2 -67,-14 -18,-3 -56,-18 -70,-29 0,-1 -1,-1 -1,-2 -3,-5 -9,-7 -13,-9 -6,-10 -12,-21 1,-25 8,-1 7,-3 2,-8 -13,-4 -11,-16 -18,-25 0,-3 0,-9 2,-11 5,1 16,10 14,2 -9,-9 -19,-20 -21,-35 2,-3 3,-7 6,-8 16,3 28,18 47,21 2,5 9,13 2,12 -9,-5 -37,-23 -49,-22 3,15 26,15 22,34 7,6 21,2 29,6 0,1 -1,3 -1,4 3,6 13,3 19,4 4,1 2,2 2,6 0,9 26,0 33,-1 2,0 12,-1 13,1 -3,4 -6,4 -11,4 2,11 33,-6 38,-4 0,2 -13,17 -2,12 41,-8 -9,-25 -22,-26 -1,-7 5,-3 4,-9 -5,-2 -59,-16 -56,-7 1,1 2,1 3,1 0,3 1,3 -2,4 -4,-1 -7,-3 -11,-4 -2,-5 10,-4 5,-6 -3,-1 -6,-2 -8,-3 -7,-4 3,-4 6,-4 20,10 59,9 82,11 4,2 12,5 8,-3 0,-1 0,-1 1,-2 1,0 2,1 4,1 10,0 19,0 30,0 16,2 34,8 51,7 0,0 1,0 1,0 1,0 2,1 3,2 17,0 34,0 51,-1 1,-1 1,-1 2,-1 0,-1 1,-1 1,-1 27,-1 35,7 53,25 0,4 0,7 2,11 0,0 0,0 0,0 -6,9 -13,30 -5,39 1,1 2,3 2,5 1,3 1,4 -2,5 -21,-21 -7,-36 -6,-59 -6,-6 -12,-12 -18,-18 -5,0 -8,-1 -12,2 -1,0 -3,0 -5,-1 -5,0 -7,0 -12,2 -6,0 -10,1 -16,-1 -4,0 -10,1 -5,5 5,4 12,0 16,4 3,0 3,1 4,3 -7,0 -23,-3 -28,1 0,7 35,10 40,5 8,-3 19,5 0,5 -8,6 10,11 7,17 -5,1 -27,3 -20,9 2,0 25,1 16,6 -4,2 -4,4 1,5 4,-1 6,-2 7,2 -1,3 -24,13 -13,14 4,-2 4,-2 7,-5 6,0 11,-4 13,2 -2,2 -3,3 -4,5 -12,2 -5,9 8,4 2,-2 5,-1 8,0 0,5 9,27 14,14 1,-6 10,-3 17,-6 4,0 4,0 6,4 1,6 -4,7 -5,13 0,7 18,10 17,-6 0,0 -1,-1 -1,-2 -1,-6 4,-9 10,-5 0,8 -7,22 6,24 19,23 -9,-5 -15,11 -1,0 -2,-1 -3,-1 -6,-6 -14,9 -6,10 5,-2 8,-3 9,-8 9,3 1,20 -1,26 -24,-1 -5,28 0,6 10,0 2,6 2,14 18,4 29,-2 36,9 -4,1 -4,1 -6,3 0,6 -3,10 3,13 1,1 2,2 3,3 11,0 1,-9 9,-9 10,-2 8,-15 9,-23 0,-4 4,-10 6,-4 -6,6 7,12 4,-4 2,-15 -2,-8 -3,-19 -15,-16 11,-32 3,-38 -1,-2 -1,-4 -2,-6 0,-1 -1,-3 -1,-4 0,-3 0,-4 3,-4 7,3 4,15 13,16 8,-7 -7,-23 -14,-25 -6,1 -1,-9 -3,-9 0,-6 6,-1 0,-10 -4,-4 -8,-1 -9,4 -9,4 -6,-5 -3,-10 15,-3 -4,-16 -9,-20 -1,-7 -5,-21 -11,-21 0,-1 -1,-2 -1,-3 -2,-4 -8,-10 0,-7 2,0 3,-1 5,-3 3,0 2,-1 3,3 1,14 17,9 8,1 -1,-2 -2,-4 1,-5 6,5 7,-8 -1,-5 -1,0 -3,0 -4,0 -1,0 -1,0 -2,0 -2,0 -3,-1 -4,-3 0,0 0,-1 -1,-1 -1,-8 3,-16 3,-27 0,-5 2,-17 -6,-16 -4,3 -4,8 -11,8 -22,-6 10,-11 16,-13 -3,-9 -38,-6 -36,10 -3,0 -4,-1 -6,-2 -8,-9 -12,12 -11,17 7,8 33,-17 27,4 0,4 4,7 7,10 0,11 -3,12 4,20 1,3 -1,2 -1,3 -1,1 6,28 14,29 3,7 -3,3 -6,3 -1,10 -1,10 -2,11 -3,8 -1,1 -4,0 -6,-6 -6,-9 -11,1 0,5 -15,29 -20,36 -3,0 -3,-2 -3,-5 1,-2 1,-4 -1,-5 -4,-6 -7,-1 -8,4 -4,4 -4,-1 -5,-4 -3,-8 9,-5 16,-7 15,-15 18,-27 18,-50 0,-1 -1,-3 -1,-5 -1,-8 2,-18 2,-27 -2,-4 -3,-8 -7,-11 -5,-2 -11,0 -15,4 -8,0 -9,-16 -9,-22 4,-6 6,-12 12,-15 5,-1 11,0 15,-3 6,-4 11,-5 18,-6 8,0 37,12 39,8 13,-7 16,-9 18,-10 10,11 -20,24 -11,42 1,31 -5,80 20,103 5,0 11,1 14,-3 2,-1 3,-3 5,-5 3,-3 2,-5 2,-9 0,-14 -4,-33 0,-46 10,-21 16,-24 39,-27 10,-2 20,-1 29,0 4,0 7,0 10,2 20,-1 38,-4 58,-6 6,-1 12,-2 18,-4 2,1 4,1 5,1 11,0 28,-6 37,-4 1,0 2,1 3,1 16,3 34,-2 50,-5 13,-2 25,-5 37,-8 4,0 14,-1 5,3 -33,8 -65,15 -98,20 -2,0 -2,-1 -3,-3 -2,-2 -3,-4 -6,-1 -7,0 -13,0 -20,1 -8,7 -41,4 -42,16 -28,5 15,13 24,11 4,-8 12,-3 17,-8 6,-4 11,-18 23,-15 0,1 0,2 0,3 0,2 0,2 1,3 15,0 28,-3 42,-4 3,0 3,0 5,-2 0,0 0,0 1,0 4,0 23,-7 21,2 -12,1 -59,5 -64,11 -1,13 0,8 6,13 14,11 3,-10 12,-3 3,2 24,6 19,-4 5,0 19,1 19,-4 0,-2 1,-1 3,-2 19,0 15,3 17,-7 1,0 3,0 4,0 1,1 1,1 2,2 0,1 29,-2 13,4 -15,10 -98,20 -97,34 0,4 6,-2 5,5 -21,0 -9,17 5,12 1,-1 1,-2 1,-3 -5,-9 13,2 21,1 1,-14 4,-7 13,-5 0,0 22,-2 15,-9 -9,-3 -4,-4 2,-4 5,4 30,7 21,-3 0,-4 25,-5 27,-1 -8,7 -34,21 -45,24 -2,-9 -51,5 -62,5 -7,4 -26,14 -5,14 2,-2 11,-4 9,1 -11,3 -26,3 -25,17 7,6 16,7 18,-3 5,0 34,12 21,-4 -2,-1 -3,-1 -4,-2 1,-2 3,-1 5,-1 8,1 34,12 32,-4 -2,-1 -3,-2 -4,-3 -4,-3 -3,-4 1,-4 1,0 2,0 3,1 3,2 20,9 19,4 5,-15 16,-2 23,-12 4,0 -7,-7 8,-6 10,4 20,-4 21,-12 18,-4 7,-5 16,-10 1,-1 20,-17 11,-16 -6,-5 -26,6 -31,8 -6,0 -7,0 -8,-5 -11,-6 -3,-5 4,-5 18,-1 14,-11 25,-15 1,-1 23,-19 13,-19 -7,-5 -35,11 -41,13 -3,0 -5,1 -7,-1 0,-2 18,-11 22,-12 7,-7 12,-9 19,-17 8,-9 -27,-2 -29,0 -5,0 -10,3 -9,-3 15,-4 32,-6 45,-13 4,0 4,0 6,3 -1,7 -13,23 -7,25 15,1 0,19 2,25 -2,2 -11,8 -5,11 3,2 6,1 8,5 -5,21 -25,34 -43,44 -6,2 -6,2 -7,3 0,0 -1,0 -2,0 -5,0 -10,5 -14,7 -11,1 -18,7 -28,11 -3,0 -5,2 -7,5 -7,0 -11,2 -17,5 -27,7 -58,17 -85,23 -2,-2 -29,7 -23,13 0,1 1,2 1,3 -3,2 -12,18 -14,22 -5,2 -10,6 -14,10 -18,2 -20,6 -2,8 0,17 -26,22 -25,30 17,16 -45,29 -59,18 -29,-3 22,21 11,26 -1,0 -14,2 -6,6 2,4 19,24 24,16 6,-4 6,-4 19,-9 4,1 9,2 13,5 0,3 1,3 -2,3 -7,-3 -6,0 -7,5 0,0 0,0 0,0 -3,1 -6,0 -6,3 -2,2 -2,2 -3,3 -3,-4 -5,-18 -14,-6 -17,1 -17,-14 -31,-15 0,8 11,15 16,20 1,29 15,-16 25,17 6,5 10,0 6,-5 -1,-4 -2,-8 3,-9 9,2 14,10 17,19 -2,13 -2,13 -3,15 -5,-1 -7,-7 -9,-7 0,-6 -6,-1 -6,7 -2,3 -2,6 -2,10 -2,2 -2,2 -4,2 -6,-1 -5,-5 -6,-12 -5,-7 0,-14 -9,-22 -3,-3 -11,1 -11,6 0,2 1,4 1,5 -6,15 -15,2 -16,-7 0,0 0,-1 0,-1 8,-8 11,-5 10,-19 -3,-1 -5,-6 -8,-6 -3,-1 -3,-1 -7,-5 -6,-7 -8,2 -5,3 0,1 1,2 1,3 -3,10 -3,10 -4,12 -2,0 -2,0 -4,-1 0,0 0,0 0,0 3,-7 -37,-67 -39,-81 -4,-5 -8,2 -5,4 4,30 13,72 25,100 0,3 -1,10 1,13 3,12 -19,5 -27,5 -14,10 -18,3 -34,-1z"/>
   <path class="fil4" d="M722 549c0,-4 0,-7 2,-10 1,0 1,-1 2,-1 -1,2 -2,9 -4,11z"/>
   <path class="fil5" d="M459 520c0,7 0,7 1,8 0,6 -1,14 6,14 4,-2 2,-5 9,-6 2,0 2,14 13,14 3,-2 6,-9 6,-13 0,-1 -1,-2 -1,-3 1,-4 6,-8 6,-9 6,-2 12,0 18,2 8,11 18,-6 2,-15 0,-9 6,-19 13,-24 4,1 10,14 11,6 2,-3 2,-3 5,-6 2,0 3,0 4,-2 3,-2 20,-34 21,-42 0,-1 0,-1 0,-1 7,-4 5,-14 14,-17 0,5 0,9 0,14 0,-5 1,-12 -4,-11 -7,15 -32,72 -43,71 -13,-11 -7,-14 -19,6 0,6 6,6 9,11 3,39 -38,-12 -34,23 -8,12 -6,17 -20,9 -6,-25 -6,10 -17,-10 -1,-7 -3,-13 0,-19z"/>
   <path class="fil6" d="M569 550c3,-1 10,-4 12,-3 -2,1 -12,6 -12,3z"/>
   <path class="fil2" d="M603 546c18,-5 11,-29 11,-43 0,12 1,23 1,35 -1,1 -10,12 -12,8z"/>
   <path class="fil4" d="M488 550c0,-6 2,-8 6,-13 0,4 -3,11 -6,13z"/>
   <path class="fil5" d="M603 546c-4,-5 2,-58 3,-67 0,-4 0,-7 0,-11 0,-26 8,-5 9,8 -1,0 -2,1 -3,1 0,-3 2,-12 -3,-12 0,3 -1,12 2,14 0,4 0,22 2,23 0,0 1,1 1,1 0,14 7,38 -11,43z"/>
   <path class="fil6" d="M641 530c2,1 1,10 1,13 -2,-3 -1,-10 -1,-13z"/>
   <path class="fil7" d="M724 539c0,-8 6,-13 6,-7 -4,1 -4,1 -4,6 -1,0 -1,1 -2,1z"/>
   <path class="fil6" d="M739 539c1,-2 1,-2 3,-15 4,1 0,14 -3,15z"/>
   <path class="fil1" d="M717 538c-6,-8 4,-18 4,-2 -2,2 -2,2 -4,2z"/>
   <path class="fil8" d="M677 521c1,9 10,22 16,7 0,2 1,3 1,4 -7,20 -24,-11 -17,-11z"/>
   <path class="fil9" d="M607 541c-1,-5 2,-28 4,-28 1,11 4,19 -4,28z"/>
   <path class="fil6" d="M592 482c-8,1 -20,52 -12,56 -1,1 -1,2 -2,3 -9,-3 4,-63 14,-62 0,1 0,2 0,3z"/>
   <path class="fil10" d="M578 541c1,-1 1,-2 2,-3 2,-3 9,-21 10,-21 -1,6 -6,21 -12,24z"/>
   <path class="fil4" d="M466 542c0,-4 4,-14 9,-6 -7,1 -5,4 -9,6z"/>
   <path class="fil9" d="M592 482c6,6 -2,28 -2,35 -1,0 -8,18 -10,21 -8,-4 4,-55 12,-56z"/>
   <path class="fil11" d="M482 538c1,-5 2,-4 6,-6 -1,5 -1,9 -6,6z"/>
   <path class="fil6" d="M628 509c-2,-7 -13,19 2,24 -9,9 -13,-17 -10,-23 0,-11 9,-10 8,-1z"/>
   <path class="fil9" d="M628 509c1,8 8,18 2,24 -15,-5 -4,-31 -2,-24z"/>
   <path class="fil4" d="M488 532c-4,2 -5,1 -6,6 -4,-5 4,-11 6,-6z"/>
   <path class="fil1" d="M731 528c-12,-15 3,-20 5,-2 -2,0 -4,1 -5,2z"/>
   <path class="fil1" d="M682 528c-1,-3 -1,-3 0,-6 7,1 7,5 0,6z"/>
   <path class="fil4" d="M499 525c0,1 -5,5 -6,9 -1,-7 -1,-8 6,-9z"/>
   <path class="fil4" d="M692 523c0,-5 8,-9 11,-6 -5,2 -7,5 -11,6z"/>
   <path class="fil8" d="M463 528c4,-15 7,-4 16,-10 4,0 3,2 3,5 -5,4 -4,10 -11,5 -3,0 -8,2 -8,0z"/>
   <path class="fil11" d="M720 503c0,4 -2,8 2,11 4,5 0,10 -6,5 -10,-33 -24,12 -25,-17 -5,-5 -16,-12 -16,-20 14,1 14,16 31,15 9,-12 11,2 14,6z"/>
   <path class="fil5" d="M567 524c0,-8 2,-20 7,-27 -1,5 -6,27 -7,27z"/>
   <path class="fil12" d="M677 520c3,-4 7,-7 9,-11 4,-2 -5,-12 -7,-14 3,0 5,5 8,6 1,14 -2,11 -10,19z"/>
   <path class="fil4" d="M519 523c-3,-3 -2,-6 3,-5 0,3 0,3 -3,5z"/>
   <path class="fil7" d="M482 523c0,-3 1,-5 -3,-5 0,-3 0,-3 -2,-4 4,-1 5,0 6,-4 0,0 1,13 -1,13z"/>
   <path class="fil7" d="M720 503c1,-1 1,-1 3,-3 0,1 0,2 1,3 0,1 0,2 1,2 -5,1 -4,5 -3,9 -4,-3 -2,-7 -2,-11z"/>
   <path class="fil13" d="M504 520c-2,-2 -4,-4 -6,-2 -31,3 14,-35 14,-20 -3,5 -10,9 -5,16 7,4 3,5 -3,6z"/>
   <path class="fil14" d="M728 500c0,-1 1,-2 1,-3 0,0 0,0 0,0 5,2 7,2 12,2 4,0 -1,-5 4,-6 7,1 3,11 2,17 -3,1 -17,-7 -19,-10z"/>
   <path class="fil5" d="M447 510c0,4 1,6 6,7 5,-2 5,-5 12,-6 -1,3 -1,3 -2,5 -1,-8 -11,9 -17,0 0,-6 0,-6 1,-6z"/>
   <path class="fil11" d="M660 507c2,1 2,1 4,1 4,2 5,-9 4,-12 0,-1 -1,-2 -1,-3 1,-3 2,-3 5,-3 4,4 4,4 7,5 2,2 11,12 7,14 -2,-8 -8,-11 -15,-15 -2,11 -12,24 -11,13z"/>
   <path class="fil9" d="M696 511c0,-6 -1,-10 6,-8 0,5 -1,6 -6,8z"/>
   <path class="fil6" d="M453 517c2,-4 7,-12 12,-6 -7,1 -7,4 -12,6z"/>
   <path class="fil15" d="M493 515c0,-7 11,-12 10,-2 -3,1 -7,2 -10,2z"/>
   <path class="fil6" d="M664 508c1,-2 1,-2 4,-12 1,3 0,14 -4,12z"/>
   <path class="fil1" d="M477 514c-2,-2 0,-4 1,-5 1,0 2,0 4,1 0,0 0,0 1,0 -1,4 -2,3 -6,4z"/>
   <path class="fil4" d="M532 488c-7,5 -13,15 -13,24 -6,-4 6,-28 13,-24z"/>
   <path class="fil16" d="M713 505c-2,-2 -4,-6 1,-5 0,4 0,4 -1,5z"/>
   <path class="fil6" d="M723 500c0,-3 3,-2 6,-3 0,1 -1,2 -1,3 -3,1 -3,1 -4,3 -1,-1 -1,-2 -1,-3z"/>
   <path class="fil2" d="M478 509c-2,-3 -9,1 -9,-3 2,0 4,0 6,1 6,-1 6,-1 7,-2 0,-1 0,-1 1,-3 0,3 -1,4 -1,8 -2,-1 -3,-1 -4,-1z"/>
   <path class="fil11" d="M729 497c1,-5 0,-8 7,-5 5,2 5,2 5,7 -5,0 -7,0 -12,-2z"/>
   <path class="fil12" d="M741 499c0,-5 0,-5 -5,-7 3,0 2,0 2,-3 4,2 4,2 7,4 -5,1 0,6 -4,6z"/>
   <path class="fil6" d="M469 506c0,-1 0,-1 0,-2 2,-4 3,-4 7,-5 3,-3 5,1 7,3 -1,2 -1,2 -1,3 -3,-4 -12,-3 -7,2 -2,-1 -4,-1 -6,-1z"/>
   <path class="fil5" d="M475 507c-5,-5 4,-6 7,-2 -1,1 -1,1 -7,2z"/>
   <path class="fil2" d="M611 479c0,0 1,-1 1,-2 1,0 2,-1 3,-1 -5,8 -2,17 -2,26 -2,-1 -2,-19 -2,-23z"/>
   <path class="fil6" d="M473 496c-4,2 -8,3 -8,8 -19,1 9,-17 8,-8z"/>
   <path class="fil11" d="M621 499c-13,-19 10,-20 3,-1 -1,0 -2,0 -3,1z"/>
   <path class="fil1" d="M723 495c-4,-4 2,-9 4,-4 -2,3 -2,3 -4,4z"/>
   <path class="fil12" d="M465 504c0,-5 4,-6 8,-8 0,3 0,2 3,3 -4,1 -5,1 -7,5 -2,-5 -2,-1 -4,0z"/>
   <path class="fil1" d="M682 477c2,-3 3,-4 6,-6 11,-5 -40,-29 -11,-26 14,11 76,-2 59,-18 -1,-8 25,-13 25,-30 -18,-2 -16,-6 2,-8 4,-4 9,-8 14,-10 4,0 16,-16 14,-22 0,-1 -1,-2 -1,-3 4,-7 16,-11 23,-13 27,-6 58,-16 85,-23 6,-3 10,-5 17,-5 3,-1 6,-3 7,-5 10,-4 17,-10 28,-11 0,4 13,-6 14,-7 1,0 2,0 2,0 0,0 0,0 0,1 15,-5 55,-28 50,-48 -2,-4 -5,-3 -8,-5 1,-4 4,-7 5,-11 -2,-6 13,-24 -2,-25 0,-5 13,-24 7,-25 -2,-3 -2,-3 -6,-3 19,-3 1,18 1,25 24,9 -14,32 5,41 12,52 -163,93 -194,99 -10,6 -20,5 -30,13 -3,20 -15,29 -30,41 -1,18 -27,31 -21,38 1,21 -51,26 -66,18 -12,0 34,20 8,26 0,7 15,17 21,18 -5,8 -22,-12 -24,-16z"/>
   <path class="fil4" d="M672 490c-3,0 -4,0 -5,3 -3,-1 -1,-10 5,-3z"/>
   <path class="fil4" d="M543 494c0,-3 -1,-8 5,-6 -3,3 -3,3 -5,6z"/>
   <path class="fil2" d="M459 494c4,-3 21,-11 24,-5 -9,0 -17,5 -24,5z"/>
   <path class="fil8" d="M652 465c0,4 5,16 4,5 4,-5 11,-2 16,2 -2,16 -13,1 -14,14 -7,0 -18,-32 -6,-21z"/>
   <path class="fil12" d="M658 486c1,-13 12,2 14,-14 1,17 -8,3 -14,14z"/>
   <path class="fil4" d="M552 486c2,-13 12,-32 21,-42 -1,8 -18,40 -21,42z"/>
   <path class="fil6" d="M507 485c-4,0 -13,1 -15,-3 3,0 22,-4 15,3z"/>
   <path class="fil16" d="M662 478c0,-6 7,-4 7,-1 -2,0 -4,1 -7,1z"/>
   <path class="fil13" d="M611 479c-3,-2 -2,-11 -2,-14 5,0 3,9 3,12 0,1 -1,2 -1,2z"/>
   <path class="fil4" d="M688 471c-3,2 -4,3 -6,6 -8,-4 5,-6 6,-6z"/>
   <path class="fil8" d="M527 482c-12,-11 14,-40 13,-12 -6,1 -3,0 -7,-3 -8,6 7,12 -6,15z"/>
   <path class="fil11" d="M603 470c0,3 1,6 1,9 -20,0 -4,-33 -2,-11 0,1 1,1 1,2z"/>
   <path class="fil17" d="M604 479c0,-3 -1,-6 -1,-9 1,-1 2,-1 3,-2 0,4 0,7 0,11 -1,0 -2,0 -2,0z"/>
   <path class="fil12" d="M652 465c1,3 1,7 4,5 1,11 -4,-1 -4,-5z"/>
   <path class="fil18" d="M501 472c1,0 1,0 0,4 -6,2 -2,-3 0,-4z"/>
   <path class="fil7" d="M501 476c1,-4 1,-4 0,-4 0,-1 0,-3 0,-4 4,-1 5,-3 11,-4 0,6 8,-1 8,-3 10,1 -11,18 -11,5 -9,0 -4,10 -8,10z"/>
   <path class="fil5" d="M579 472c4,-13 5,-19 8,-30 0,6 -3,27 -8,30z"/>
   <path class="fil8" d="M600 451c-4,-7 3,-8 -8,-9 0,-15 25,4 8,9z"/>
   <path class="fil12" d="M690 445c13,-3 8,-3 4,-11 1,-1 1,-1 2,-11 1,11 1,11 2,12 -5,0 1,4 4,4 1,4 1,4 2,5 -3,0 -14,2 -14,1z"/>
   <path class="fil7" d="M704 444c6,-2 5,-3 1,-9 5,1 4,7 5,-4 2,9 2,9 3,11 -4,0 -5,2 -9,2z"/>
   <path class="fil8" d="M690 445c-1,-1 -1,-1 -3,-5 -9,0 -19,-2 -19,-9 -17,-18 -1,-36 8,-1 16,14 4,-6 0,-11 -1,-17 17,13 18,15 4,8 9,8 -4,11z"/>
   <path class="fil1" d="M704 444c-1,-1 -1,-1 -2,-5 -1,-4 -1,-3 -4,-4 -1,-1 -1,-1 -2,-12 4,-11 9,11 9,12 4,6 5,7 -1,9z"/>
   <path class="fil11" d="M713 442c-1,-2 -1,-2 -3,-11 1,-7 0,-11 -4,-16 -1,-2 -1,-6 -3,-7 -1,-9 -10,-24 0,-25 2,1 4,3 6,4 -1,3 -3,7 0,10 0,7 5,24 13,27 0,7 -6,3 -5,9 6,8 3,8 -4,9z"/>
   <path class="fil19" d="M698 435c3,1 3,0 4,4 -3,0 -9,-4 -4,-4z"/>
   <path class="fil8" d="M479 434c9,7 18,6 29,6 3,3 46,-12 31,1 -2,-6 -59,14 -60,-7z"/>
   <path class="fil4" d="M573 443c0,-4 8,-23 14,-17 -9,3 -7,13 -14,17z"/>
   <path class="fil8" d="M656 432c-9,-6 5,-10 4,-1 -1,0 -3,1 -4,1z"/>
   <path class="fil4" d="M621 426c-3,1 -3,1 -5,4 -3,-2 1,-9 5,-4z"/>
   <path class="fil7" d="M517 432c11,-1 4,-18 14,-18 -1,2 -1,4 -1,6 0,-5 -9,0 -2,4 -2,2 -2,5 0,7 -11,2 -11,2 -11,1z"/>
   <path class="fil12" d="M528 431c9,-2 9,-6 10,-15 1,2 1,2 3,3 0,1 0,2 0,3 -5,0 -3,10 -13,9z"/>
   <path class="fil9" d="M670 427c-2,-2 -9,-11 -3,-12 1,4 5,9 3,12z"/>
   <path class="fil5" d="M498 432c0,-4 26,-12 30,-23 4,-6 6,-14 14,-14 -1,7 -1,16 -4,21 -1,9 -1,13 -10,15 -2,-2 -2,-5 0,-7 0,-1 1,-2 2,-4 0,-2 0,-4 1,-6 -10,0 -3,17 -14,18 -4,-3 -3,-10 -8,0 -4,0 -7,0 -11,0z"/>
   <path class="fil7" d="M595 428c5,-1 6,-15 9,-9 -8,0 2,9 -9,9z"/>
   <path class="fil4" d="M542 395c-8,0 -10,8 -14,14 -4,11 -30,19 -30,23 -17,-2 22,-18 25,-19 2,-5 15,-31 19,-18z"/>
   <path class="fil13" d="M595 428c-1,-1 -2,-2 -3,-3 -8,-8 7,-6 -1,-10 1,-3 3,-3 4,-6 -7,-11 -18,-5 -36,-9 0,-8 8,-14 -2,-14 -5,22 -24,-7 0,-6 2,-6 10,-23 1,-26 0,0 0,-1 0,-1 6,-16 34,12 15,-11 -13,-2 -6,-16 -6,-24 -5,-7 -16,1 -10,5 0,1 1,2 1,2 0,4 -1,7 -1,10 -5,0 -14,2 -16,-4 1,-6 6,-7 5,-13 0,-3 0,-3 2,-5 5,-7 20,-31 20,-36 5,-10 5,-7 11,-1 0,9 -12,13 -3,14 1,1 1,1 2,2 1,3 2,4 1,8 -1,0 -2,0 -3,1 -15,-14 -7,6 7,4 0,-24 1,-25 0,-29 1,-1 1,-1 2,-11 3,0 9,4 6,-3 -8,-1 -15,-28 -14,-29 7,1 4,3 9,6 0,1 1,2 1,3 6,0 10,14 11,21 5,4 24,17 9,20 -3,5 -6,14 3,10 3,-1 5,-4 9,-4 6,9 0,4 0,10 0,8 -3,13 1,22 0,1 1,3 1,4 -4,13 -7,-11 -11,-7 2,12 2,15 13,13 8,6 -18,22 -3,38 1,11 5,4 3,19 0,0 0,0 0,0 -6,-2 -15,6 -10,8 -1,8 1,21 -9,23 -3,-6 -4,8 -9,9z"/>
   <path class="fil8" d="M443 416c7,6 33,9 34,14 -9,-3 -32,-2 -34,-14z"/>
   <path class="fil7" d="M589 412c0,2 0,2 2,3 8,4 -7,2 1,10 -6,-3 -3,-7 -3,-13z"/>
   <path class="fil6" d="M541 422c0,-1 0,-2 0,-3 3,-4 11,-32 13,-13 -4,0 -7,7 -3,8 -3,4 -2,14 -10,8z"/>
   <path class="fil1" d="M723 400c-6,-10 -7,5 -1,1 5,27 -6,12 -8,-5 0,-3 -1,-4 0,-6 5,1 43,8 36,14 -13,-16 -27,6 -15,3 4,6 4,6 5,8 -9,9 -10,-17 -17,-15z"/>
   <path class="fil20" d="M530 420c-1,2 -2,3 -2,4 -7,-4 2,-9 2,-4z"/>
   <path class="fil7" d="M740 415c-1,-2 -1,-2 -5,-8 1,-3 3,-3 4,0 -5,3 5,5 1,8z"/>
   <path class="fil8" d="M682 374c-2,1 -4,17 3,15 0,-3 1,-6 1,-9 3,-2 8,-3 10,1 -1,4 -10,7 -1,17 1,5 3,7 6,11 1,2 1,5 1,7 -24,-9 -27,-13 -30,-43 -24,-14 7,-16 10,1z"/>
   <path class="fil12" d="M702 416c0,-2 0,-5 -1,-7 0,0 1,-1 2,-1 2,1 2,5 3,7 -2,0 -3,1 -4,1z"/>
   <path class="fil15" d="M598 416c2,-10 5,-25 -8,-28 3,-7 14,-19 1,-25 -9,-1 -14,3 -17,-7 18,1 38,-12 15,-9 0,-10 7,-15 -6,-15 0,-10 5,-5 11,-4 11,-7 5,-21 21,-17 -1,8 -9,-3 -6,14 -22,19 18,29 -1,40 -6,10 9,4 9,8 -26,5 11,38 -19,43z"/>
   <path class="fil13" d="M739 407c-1,-3 -3,-3 -4,0 -12,3 2,-19 15,-3 -3,5 -6,8 -11,3z"/>
   <path class="fil6" d="M482 405c7,1 -5,10 -2,14 -13,0 0,-9 2,-14z"/>
   <path class="fil5" d="M480 419c-3,-4 9,-13 2,-14 -3,-3 -5,0 -7,3 -4,2 -11,0 -13,4 -9,8 -17,-3 -2,-6 12,-14 50,-23 51,-43 6,-7 15,1 12,9 -1,3 -3,6 0,9 -1,0 -1,1 -1,2 -2,0 1,14 -5,21 -2,0 -28,22 -32,12 -1,1 -3,2 -5,3z"/>
   <path class="fil4" d="M589 412c2,-2 2,-2 6,-3 -1,3 -3,3 -4,6 -2,-1 -2,-1 -2,-3z"/>
   <path class="fil20" d="M701 409c-3,-4 -5,-6 -6,-11 -9,-10 0,-13 1,-17 2,0 5,1 7,2 -10,1 -1,16 0,25 -1,0 -2,1 -2,1z"/>
   <path class="fil7" d="M462 412c2,-4 9,-2 13,-4 -2,2 -3,2 -6,3 -1,12 -2,0 -7,1z"/>
   <path class="fil13" d="M554 406c4,0 -2,7 -3,8 -4,-1 -1,-8 3,-8z"/>
   <path class="fil9" d="M743 407c-1,-2 -1,-2 -1,-5 4,0 5,3 1,5z"/>
   <path class="fil9" d="M496 414c-1,-8 20,-18 18,-13 -6,6 -10,10 -18,13z"/>
   <path class="fil10" d="M686 405c-1,-2 -1,-2 -2,-10 6,0 5,8 2,10z"/>
   <path class="fil13" d="M723 400c0,0 -1,0 -1,1 -6,4 -5,-11 1,-1z"/>
   <path class="fil19" d="M489 410c-1,-9 10,-27 7,-7 -5,6 -5,6 -7,7z"/>
   <path class="fil21" d="M686 403c-1,-2 -3,-7 1,-7 0,6 0,6 -1,7z"/>
   <path class="fil7" d="M665 402c1,0 1,0 2,0 7,-1 4,-5 2,-10 0,-1 0,-3 0,-4 5,8 6,14 -4,14z"/>
   <path class="fil1" d="M665 402c-7,-6 -4,-21 4,-14 0,1 0,3 0,4 -7,0 -5,4 -2,10 -1,0 -1,0 -2,0z"/>
   <path class="fil13" d="M667 402c-3,-6 -5,-10 2,-10 2,5 5,9 -2,10z"/>
   <path class="fil9" d="M467 407c1,-4 3,-3 7,-4 -2,4 -3,4 -7,4z"/>
   <path class="fil20" d="M491 407c1,-4 1,-9 4,-11 1,5 -1,7 -4,11z"/>
   <path class="fil7" d="M517 404c6,-7 3,-21 5,-21 4,0 6,1 8,-3 0,6 -3,4 -8,5 1,6 1,16 -5,19z"/>
   <path class="fil12" d="M709 387c2,2 2,2 5,3 -1,2 0,3 0,6 -3,-1 -5,-6 -5,1 -3,-3 -1,-7 0,-10z"/>
   <path class="fil6" d="M619 392c1,-1 2,-3 4,-4 0,0 0,0 0,0 3,16 -10,10 -4,4z"/>
   <path class="fil9" d="M485 402c-4,-3 -4,-6 2,-6 1,4 1,5 -2,6z"/>
   <path class="fil3" d="M696 395c-1,-3 -4,-8 0,-8 1,1 2,7 0,8z"/>
   <path class="fil7" d="M512 391c0,-12 -6,0 -5,6 1,-2 1,-3 3,-4 -8,17 -7,-10 3,-10 0,2 0,5 -1,8z"/>
   <path class="fil12" d="M623 388c-2,1 -3,3 -4,4 -2,-6 -6,0 -6,4 -5,-2 4,-10 10,-8z"/>
   <path class="fil12" d="M573 396c-5,-4 -3,-9 1,-2 0,0 0,1 -1,2z"/>
   <path class="fil19" d="M512 391c0,1 -1,2 -2,2 -2,1 -2,2 -3,4 -1,-6 5,-18 5,-6z"/>
   <path class="fil2" d="M682 374c0,9 0,22 4,6 0,3 -1,6 -1,9 -7,2 -5,-14 -3,-15z"/>
   <path class="fil12" d="M737 386c13,-1 -2,-13 -4,-21 0,0 7,15 7,6 4,4 5,9 9,13 -5,0 -6,2 -12,2z"/>
   <path class="fil13" d="M717 380c-3,-8 -3,-8 -4,-15 -2,-31 11,-11 32,-14 8,2 34,4 33,13 -2,1 -8,14 -10,16 -16,0 -9,-17 -20,-17 0,5 10,24 1,21 -4,-4 -5,-9 -9,-13 -2,-6 -7,-23 -7,-6 2,8 17,20 4,21 -7,-4 -10,2 -20,-6z"/>
   <path class="fil9" d="M501 393c-9,-7 -11,-3 6,-12 2,2 -4,11 -6,12z"/>
   <path class="fil8" d="M462 394c0,-5 -25,-2 -29,-2 -5,-3 -22,-8 -22,-15 13,12 31,14 49,12 1,1 4,3 2,5z"/>
   <path class="fil9" d="M726 384c-3,-4 8,-13 12,-2 -4,0 -6,1 -12,2z"/>
   <path class="fil2" d="M577 382c-4,-7 -14,0 -4,4 0,1 0,1 -5,0 0,-8 7,-13 9,-4z"/>
   <path class="fil10" d="M768 380c2,-2 8,-15 10,-16 -1,7 -4,14 -10,16z"/>
   <path class="fil20" d="M610 385c-1,-4 -1,-10 5,-8 -1,4 -1,7 -5,8z"/>
   <path class="fil4" d="M777 379c2,-4 11,-20 14,-22 2,6 -10,22 -14,22z"/>
   <path class="fil14" d="M577 382c1,3 -1,3 -4,4 -10,-4 0,-11 4,-4z"/>
   <path class="fil12" d="M584 381c-1,-1 -1,-1 -2,-3 8,-12 4,16 2,3z"/>
   <path class="fil2" d="M706 378c9,0 7,0 5,-9 1,-1 1,-1 2,-4 1,7 1,7 4,15 -4,-1 -7,-1 -11,-2z"/>
   <path class="fil20" d="M584 381c0,-1 0,-3 0,-4 5,0 4,8 0,4z"/>
   <path class="fil13" d="M706 378c-17,-11 -25,-11 -32,-29 -4,-2 -6,-2 -5,-7 17,-2 11,18 22,19 0,-7 -4,-16 -6,-24 -5,0 -9,3 -15,0 -8,-6 -8,-8 -9,-19 1,-6 9,-5 9,-11 6,-13 4,-27 2,-41 5,-2 8,-26 9,-32 5,-5 29,-15 30,-16 5,0 42,0 41,7 -7,0 -13,1 -20,2 -5,0 -14,-1 -17,4 -21,5 42,-1 23,7 -6,0 -9,2 -14,2 -3,-5 -29,5 -16,8 2,1 2,1 2,4 -17,11 13,5 0,18 -4,1 -12,4 -6,8 0,6 -11,16 -1,20 6,6 3,11 13,12 4,3 -1,3 -3,6 -1,0 -2,0 -3,0 -2,-4 -4,5 -7,4 0,-1 0,-26 -6,-15 0,0 -1,0 -1,0 -8,4 -6,8 -15,8 0,12 9,2 13,2 2,9 5,8 14,8 15,10 -14,5 -17,5 -1,-2 -9,-2 -9,1 4,1 4,1 6,2 4,5 10,3 10,9 -8,10 2,31 1,12 2,-4 5,-5 4,-9 0,0 0,-1 0,-2 1,-1 2,-2 3,-3 9,8 -6,21 5,31 2,9 4,9 -5,9z"/>
   <path class="fil1" d="M522 383c0,-1 0,-2 1,-2 3,0 3,-4 2,-6 6,-5 9,1 5,5 -2,4 -4,3 -8,3z"/>
   <path class="fil7" d="M725 377c-5,-4 -8,-32 -1,-22 1,5 5,21 1,22z"/>
   <path class="fil16" d="M720 376c-1,-2 -5,-9 -1,-10 1,4 3,7 1,10z"/>
   <path class="fil9" d="M707 376c-7,-6 -21,-9 -5,-9 7,-4 9,7 5,9z"/>
   <path class="fil13" d="M432 379c1,-4 3,-5 -1,-5 1,-3 3,-4 6,-3 12,-1 5,1 11,5 2,3 12,-8 15,-9 -1,2 -7,8 -4,10 0,0 0,1 1,1 15,-1 10,-33 25,-30 -1,3 -10,22 -8,23 2,9 17,-24 20,-25 0,7 -8,22 3,9 1,-3 1,-2 4,-3 17,16 -54,43 -72,27z"/>
   <path class="fil2" d="M768 368c8,9 -13,1 -3,-4 2,1 2,1 3,4z"/>
   <path class="fil9" d="M517 381c-5,-4 -12,-2 -2,-9 6,-10 3,6 2,9z"/>
   <path class="fil16" d="M678 376c-2,-4 -5,-5 -8,-8 0,-5 10,3 8,8z"/>
   <path class="fil20" d="M733 365c0,-17 5,0 7,6 0,9 -7,-6 -7,-6z"/>
   <path class="fil7" d="M523 372c0,2 0,2 2,3 1,2 1,6 -2,6 -3,-3 -1,-6 0,-9z"/>
   <path class="fil16" d="M745 373c-14,-32 28,-10 28,-9 -7,0 -8,-2 -14,3 -12,-15 -11,-2 -14,6z"/>
   <path class="fil20" d="M768 368c0,7 -8,-2 -2,-2 1,1 1,1 2,2z"/>
   <path class="fil9" d="M580 377c-5,-6 5,-14 7,-4 -3,1 -5,2 -7,4z"/>
   <path class="fil6" d="M459 377c10,-2 13,-23 19,-30 1,-1 8,-3 7,1 -15,-3 -10,29 -25,30 -1,0 -1,-1 -1,-1z"/>
   <path class="fil7" d="M420 375c4,0 8,1 11,-1 4,0 2,1 1,5 -3,-4 -12,0 -12,-4z"/>
   <path class="fil4" d="M448 376c2,-2 17,-20 15,-9 -3,1 -13,12 -15,9z"/>
   <path class="fil19" d="M571 372c-12,-15 8,-14 4,-1 -1,0 -3,1 -4,1z"/>
   <path class="fil19" d="M591 371c-4,-4 -2,-8 3,-3 0,2 -1,2 -3,3z"/>
   <path class="fil6" d="M420 375c-11,-4 2,-3 7,-2 2,-3 9,-9 10,-2 -3,-1 -5,0 -6,3 -3,2 -7,1 -11,1z"/>
   <path class="fil6" d="M477 371c11,-5 9,-17 14,-26 3,-2 3,-3 6,-1 0,1 0,2 0,2 -3,1 -18,34 -20,25z"/>
   <path class="fil19" d="M485 348c1,-4 -6,-2 -7,-1 0,-4 9,-2 13,-2 -5,9 -3,21 -14,26 -2,-1 7,-20 8,-23z"/>
   <path class="fil20" d="M722 362c0,-6 0,-6 0,-6 1,6 1,6 0,6z"/>
   <path class="fil20" d="M669 342c0,-3 3,-1 1,-5 6,3 10,0 15,0 2,8 6,17 6,24 -11,-1 -5,-21 -22,-19z"/>
   <path class="fil16" d="M730 361c-2,-4 -2,-4 -2,-6 6,0 4,2 2,6z"/>
   <path class="fil20" d="M478 369c1,-4 6,-18 8,-18 0,9 -2,11 -8,18z"/>
   <path class="fil4" d="M813 341c-7,2 -19,6 -23,13 -6,-6 21,-15 23,-13z"/>
   <path class="fil4" d="M555 352c-4,1 -7,5 -6,10 -8,-1 0,-16 6,-10z"/>
   <path class="fil8" d="M501 347c0,-1 0,-1 0,-2 7,-8 -4,-27 13,-13 0,2 -13,11 -3,11 1,-6 3,-5 9,-5 1,4 2,7 3,11 1,5 10,8 6,13 -6,0 -19,-9 -20,-15 -3,0 -5,3 -8,0z"/>
   <path class="fil11" d="M549 362c-1,-5 2,-9 6,-10 1,0 2,1 3,1 0,0 0,1 0,1 -1,5 -4,6 -9,8z"/>
   <path class="fil8" d="M419 365c-6,-17 -102,-27 -122,-28 -10,-2 -90,-25 -93,-38 14,11 52,26 70,29 16,12 51,4 67,14 19,0 49,4 66,15 7,1 26,1 12,8z"/>
   <path class="fil7" d="M497 346c0,0 0,-1 0,-2 1,0 2,1 4,1 0,1 0,1 0,2 -4,1 -7,11 -1,8 -11,13 -3,-2 -3,-9z"/>
   <path class="fil9" d="M566 357c-5,-6 5,-8 7,-1 -4,-1 -4,-1 -7,1z"/>
   <path class="fil4" d="M699 352c-2,-5 0,-7 4,-9 1,4 -2,5 -4,9z"/>
   <path class="fil7" d="M588 354c0,-4 0,-4 1,-5 4,1 3,4 -1,5z"/>
   <path class="fil13" d="M723 339c2,-7 4,-6 11,-7 3,-1 3,-1 4,-2 9,-2 38,-6 14,-7 -4,1 -10,4 -14,3 -20,-4 15,-7 21,-9 14,-2 86,-26 60,3 -5,10 -15,2 -19,12 -5,0 -29,-1 -14,5 17,4 -16,4 -22,4 2,11 -35,4 -41,-2z"/>
   <path class="fil7" d="M521 349c-2,1 -2,1 -5,1 0,-6 3,-5 5,-1z"/>
   <path class="fil15" d="M750 340c-13,-4 -7,-6 4,-8 -1,3 -1,7 -4,8z"/>
   <path class="fil4" d="M703 341c-4,-2 0,-6 3,-3 -1,1 -2,2 -3,3z"/>
   <path class="fil15" d="M730 340c-2,-2 -2,-2 -2,-4 4,0 6,2 2,4z"/>
   <path class="fil13" d="M426 325c1,8 5,5 13,5 15,2 53,-7 52,1 -6,7 -33,25 -38,12 -6,-2 -17,15 -22,2 -9,-4 -23,10 -30,-5 -10,-1 -19,-1 -27,-7 -17,-22 14,-14 24,-9 7,0 23,-2 28,1z"/>
   <path class="fil2" d="M800 332c-3,0 -19,0 -14,5 -15,-6 9,-5 14,-5z"/>
   <path class="fil4" d="M734 332c-7,1 -9,0 -11,7 -1,-6 4,-16 11,-7z"/>
   <path class="fil12" d="M610 335c-2,-10 -6,-1 -1,1 -1,19 -6,-12 1,-6 0,2 0,3 0,5z"/>
   <path class="fil19" d="M584 343c-1,-5 -3,-8 3,-9 0,4 0,7 -3,9z"/>
   <path class="fil15" d="M438 347c-9,-11 -18,-1 -30,-5 -4,-4 -4,-4 -6,-5 -23,-2 5,-21 11,-2 7,4 7,-4 10,-4 10,11 54,-3 55,6 -6,2 -14,8 -20,6 -6,-8 -12,2 -20,4z"/>
   <path class="fil7" d="M514 332c2,0 1,4 1,5 5,0 5,0 5,1 -6,0 -8,-1 -9,5 -10,0 3,-9 3,-11z"/>
   <path class="fil15" d="M677 336c-24,-12 -2,-24 3,-41 22,0 -3,-39 28,-31 0,7 -16,4 -8,15 0,3 -1,6 -3,8 0,22 -27,20 -27,40 3,5 13,5 7,9z"/>
   <path class="fil19" d="M610 335c0,1 -1,1 -1,1 -5,-2 -1,-11 1,-1z"/>
   <path class="fil7" d="M541 331c2,6 11,4 16,4 0,-3 1,-6 1,-10 1,16 -17,13 -17,6z"/>
   <path class="fil2" d="M738 330c0,-1 0,-2 0,-4 4,1 10,-2 14,-3 24,1 -5,5 -14,7z"/>
   <path class="fil11" d="M623 317c-3,-3 -5,-5 -1,-9 7,2 22,18 14,25 -9,-1 -6,-13 -13,-16z"/>
   <path class="fil17" d="M691 328c-3,1 -3,0 -3,3 -2,-1 -2,-1 -6,-2 0,-3 8,-3 9,-1z"/>
   <path class="fil20" d="M574 334c-1,-5 -1,-5 0,-11 9,0 5,8 0,11z"/>
   <path class="fil12" d="M621 325c1,2 1,4 2,6 -11,2 -11,-1 -13,-13 4,-4 7,20 11,7z"/>
   <path class="fil15" d="M801 326c0,-15 32,-26 15,-4 -5,1 -10,2 -15,4z"/>
   <path class="fil9" d="M550 334c-13,-5 4,-12 5,-1 -2,0 -3,0 -5,1z"/>
   <path class="fil2" d="M675 328c-8,-4 3,-12 3,-1 -1,0 -2,1 -3,1z"/>
   <path class="fil15" d="M779 325c-5,-8 -3,-7 10,-8 -3,6 -4,6 -10,8z"/>
   <path class="fil20" d="M674 327c0,-1 0,-3 0,-4 5,0 5,3 0,4z"/>
   <path class="fil13" d="M967 254c1,-1 10,-2 11,-3 5,-2 25,-13 31,-8 0,8 -7,10 -11,16 -9,5 2,6 -16,10 -1,8 -11,16 -21,12 -2,-5 -21,-2 -8,3 0,1 0,2 0,3 -7,10 -18,-3 -23,12 -7,0 -12,-3 -19,-4 -1,-1 -2,-1 -3,-1 -9,-6 -7,2 -1,4 1,1 2,2 4,3 2,16 -24,5 -32,4 -2,-4 -21,-4 -5,1 1,1 2,1 4,2 13,16 -16,4 -21,4 -2,10 -11,9 -18,3 -1,-14 14,-14 25,-17 2,-5 -7,-3 -9,-1 -21,0 -2,-10 5,-14 11,0 60,-14 62,-5 11,-3 37,-17 45,-24z"/>
   <path class="fil15" d="M383 335c-11,-7 -12,-16 3,-9 0,5 2,7 -3,9z"/>
   <path class="fil12" d="M696 305c-1,4 -2,5 -6,6 0,10 21,-5 7,-6 6,-11 6,14 6,15 3,1 5,-8 7,-4 -4,1 -4,4 -2,7 -9,0 -12,1 -14,-8 -4,0 -13,10 -13,-2 9,0 7,-4 15,-8z"/>
   <path class="fil14" d="M698 322c0,-3 -1,-4 2,-4 2,3 1,3 -2,4z"/>
   <path class="fil15" d="M850 317c-1,-1 -1,-1 -7,-4 -1,-15 30,-10 33,1 -27,-7 -11,-3 -26,3z"/>
   <path class="fil2" d="M327 334c7,-2 0,-8 -3,-5 -1,-8 -10,-4 -15,-1 1,-3 3,-2 6,-3 4,-1 18,-3 21,1 -18,1 13,8 -9,8z"/>
   <path class="fil22" d="M426 325c0,0 1,0 2,0 1,4 10,4 10,2 0,1 0,2 1,3 -8,0 -12,3 -13,-5z"/>
   <path class="fil1" d="M327 334c-3,-3 -3,-3 -3,-5 3,-3 10,3 3,5z"/>
   <path class="fil4" d="M915 313c2,-3 4,-5 7,-5 -1,2 -4,4 -7,5z"/>
   <path class="fil1" d="M428 325c0,0 1,-1 1,-1 4,0 5,0 8,2 0,0 0,0 1,1 0,2 -9,2 -10,-2z"/>
   <path class="fil7" d="M567 318c-6,-4 -11,-1 -10,5 -6,-4 5,-12 10,-5z"/>
   <path class="fil9" d="M572 323c-3,-5 -1,-14 6,-13 1,6 -1,9 -6,13z"/>
   <path class="fil10" d="M620 321c-4,-9 -1,-14 -1,-22 2,0 -3,10 3,9 -4,4 -2,6 1,9 -3,0 -3,1 -3,4z"/>
   <path class="fil7" d="M584 315c-6,0 -1,7 1,1 4,6 -6,7 -5,-3 2,0 2,0 4,2z"/>
   <path class="fil4" d="M458 325c-1,-1 -1,-2 -1,-4 6,-3 6,3 1,4z"/>
   <path class="fil6" d="M509 306c8,3 0,17 14,14 -5,13 -14,-9 -14,-14z"/>
   <path class="fil4" d="M670 307c0,6 -8,5 -9,11 -4,-5 5,-8 9,-11z"/>
   <path class="fil2" d="M429 324c0,-1 0,-1 2,-1 0,-4 0,-4 1,-4 1,2 2,2 5,2 -2,2 -1,3 0,5 -3,-2 -4,-2 -8,-2z"/>
   <path class="fil2" d="M713 316c2,-3 7,-3 3,-6 13,0 0,4 -3,6z"/>
   <path class="fil6" d="M346 323c0,0 0,0 0,-1 14,-4 5,11 0,1z"/>
   <path class="fil9" d="M509 306c-3,-1 -6,-2 -8,0 -3,0 -6,0 -8,-1 1,-3 5,-4 4,-8 -2,-6 -7,-2 -13,-2 0,-5 7,-2 6,-9 -1,-4 -3,-3 -7,-2 0,-3 3,-4 2,-6 0,-6 -12,-5 -19,-5 2,-7 16,-3 20,-9 3,-6 -15,-11 -7,-17 19,0 8,-8 0,-5 -5,5 -40,2 -40,-5 5,-4 21,-1 28,-1 14,-1 16,-10 5,-5 -3,1 -6,1 -9,2 -4,-4 -11,0 -16,-4 1,-3 2,-4 5,-5 6,2 10,1 16,1 5,0 8,-1 12,-2 2,1 4,1 5,1 4,0 4,0 12,-2 6,6 12,12 18,18 -1,23 -15,38 6,59 3,2 7,1 10,4 1,3 1,8 5,4 3,-3 4,-3 8,-4 2,1 2,3 1,5 -1,3 -4,4 -5,6 -7,3 -16,0 -17,6 -14,3 -6,-11 -14,-14z"/>
   <path class="fil21" d="M584 315c0,0 0,1 1,1 -2,6 -7,-1 -1,-1z"/>
   <path class="fil12" d="M593 320c-1,-4 -2,-6 3,-5 1,3 1,3 -3,5z"/>
   <path class="fil15" d="M894 308c-21,-15 -28,-3 1,-15 4,0 12,9 13,12 -5,1 -10,2 -14,3z"/>
   <path class="fil1" d="M302 323c4,0 9,0 11,-3 3,0 2,2 2,5 -3,1 -5,0 -6,3 -2,0 -17,-1 -7,-5z"/>
   <path class="fil4" d="M732 313c-11,-9 8,-27 8,-7 7,8 -1,7 -8,7z"/>
   <path class="fil13" d="M747 297c13,-2 -1,-5 -5,-6 1,-13 26,-9 35,-9 10,-3 17,-6 26,-7 2,-2 2,-2 7,-3 5,-4 32,-12 39,-10 -2,10 -14,14 -16,26 0,0 -1,1 -1,1 -7,0 -13,1 -20,2 -4,5 7,0 9,6 -11,7 -22,1 -33,1 2,15 -14,5 -23,6 0,15 -29,7 -18,-7z"/>
   <path class="fil14" d="M696 305c0,0 1,0 1,0 14,1 -7,16 -7,6 4,-1 5,-2 6,-6z"/>
   <path class="fil13" d="M336 326c-3,-4 -17,-2 -21,-1 0,-3 1,-5 -2,-5 -2,-2 -6,0 -8,0 0,0 -1,0 -1,-1 -5,-3 -12,-2 -17,3 -6,-1 -7,0 -8,-6 6,-6 -12,-3 -15,-3 -1,0 -2,-1 -3,-2 2,-13 -6,-6 -22,-4 -2,-2 -7,-3 -9,-4 0,-8 -2,-6 -10,-5 -4,-4 -5,-4 -6,-9 -7,-5 -17,-10 -19,-12 2,-6 6,-5 12,-5 7,6 18,7 27,11 18,17 68,13 89,30 1,3 8,2 11,2 4,3 8,1 12,7 0,1 0,1 0,1 -3,1 -7,2 -10,3z"/>
   <path class="fil12" d="M540 314c1,-2 4,-3 5,-6 0,3 0,5 3,5 -2,2 -2,2 -2,5 -2,-4 -2,-4 -6,-4z"/>
   <path class="fil9" d="M735 311c-5,-2 -3,-8 2,-9 0,4 1,8 -2,9z"/>
   <path class="fil1" d="M432 319c0,-1 0,-1 0,-2 7,-1 -10,-4 -14,2 -5,1 -8,-2 -8,-6 3,0 11,-1 6,-5 20,1 -20,-10 -21,-12 8,1 8,1 10,2 18,5 40,8 59,6 5,2 -1,7 -2,11 -8,0 -19,0 -25,6 -3,0 -4,0 -5,-2z"/>
   <path class="fil12" d="M879 305c-2,0 -4,-1 -5,1 -16,-5 3,-5 5,-1z"/>
   <path class="fil15" d="M518 317c-4,-10 -4,-15 -15,-16 -2,-25 30,8 18,13 -1,1 -2,2 -3,3z"/>
   <path class="fil7" d="M302 323c0,-1 3,1 3,-3 2,0 6,-2 8,0 -2,3 -7,3 -11,3z"/>
   <path class="fil2" d="M418 319c4,-6 21,-3 14,-2 -1,-5 -12,1 -14,2z"/>
   <path class="fil7" d="M911 295c7,1 12,4 19,4 1,5 -16,-2 -19,-4z"/>
   <path class="fil7" d="M287 322c5,-5 12,-6 17,-3 -6,1 -12,-1 -17,3z"/>
   <path class="fil9" d="M440 316c-4,-5 -7,-4 -14,-4 0,-11 52,-2 24,0 -7,4 -7,4 -10,4z"/>
   <path class="fil4" d="M950 297c4,-2 9,-7 14,-7 -1,1 -14,11 -14,7z"/>
   <path class="fil21" d="M599 309c-1,-4 -1,-8 5,-6 0,3 -2,5 -5,6z"/>
   <path class="fil7" d="M389 310c2,7 8,4 14,3 -1,6 -22,0 -14,-3z"/>
   <path class="fil15" d="M779 302c-16,-2 -4,-6 5,-6 0,4 -2,5 -5,6z"/>
   <path class="fil7" d="M908 294c-4,0 -5,1 -1,4 -6,-2 -8,-10 1,-4z"/>
   <path class="fil1" d="M389 310c0,0 0,0 1,-1 4,1 9,0 11,-4 4,0 -1,6 6,7 -1,0 -3,1 -4,1 -6,1 -12,4 -14,-3z"/>
   <path class="fil12" d="M410 313c0,0 0,0 0,0 2,-3 2,-3 6,-5 5,4 -3,5 -6,5z"/>
   <path class="fil15" d="M926 296c-14,-4 -18,-3 -6,-11 6,-1 12,9 6,11z"/>
   <path class="fil6" d="M637 159c1,-2 4,1 5,2 0,17 -20,25 -12,42 1,18 -10,106 30,98 -3,4 -9,3 -14,3 -25,-23 -19,-72 -20,-103 -9,-18 21,-31 11,-42z"/>
   <path class="fil6" d="M323 313c4,0 8,-1 11,2 -3,0 -10,1 -11,-2z"/>
   <path class="fil13" d="M407 312c-7,-1 -2,-7 -6,-7 -3,-2 -16,1 -16,3 -13,0 -26,-9 -28,-21 2,-2 5,-6 9,-9 13,0 27,12 42,12 0,1 0,1 11,4 1,5 -6,3 -9,1 -1,-3 -14,-5 -15,1 1,2 41,13 21,12 -4,2 -4,2 -6,5 -1,-1 -2,-1 -3,-1z"/>
   <path class="fil19" d="M493 302c-7,4 -3,7 0,3 2,1 5,1 8,1 -13,5 -20,-2 -8,-4z"/>
   <path class="fil21" d="M579 300c4,0 4,1 4,5 -14,2 -22,-18 -7,-4 1,-1 2,-1 3,-1z"/>
   <path class="fil2" d="M279 316c-1,-5 -11,-3 -15,-3 3,0 21,-3 15,3z"/>
   <path class="fil17" d="M592 293c1,0 2,0 3,0 -1,14 -4,14 -3,0z"/>
   <path class="fil9" d="M799 298c-6,-2 0,-4 -1,-10 -27,-5 20,-16 28,-15 2,4 10,-7 19,-7 -8,11 -12,21 -25,21 0,-27 -11,10 -21,11z"/>
   <path class="fil10" d="M878 289c-1,6 2,3 2,5 -20,2 -8,-1 -2,-5z"/>
   <path class="fil6" d="M536 307c1,-5 4,-10 8,-4 -4,1 -5,1 -8,4z"/>
   <path class="fil7" d="M583 305c0,-4 0,-5 -4,-5 1,-4 0,-5 -1,-8 14,5 -5,-20 -5,-3 1,0 2,1 3,1 -9,-1 3,-5 3,-14 3,1 1,8 4,0 1,4 0,5 0,29z"/>
   <path class="fil7" d="M821 297c-2,-6 -13,-1 -9,-6 7,-1 13,-2 20,-2 0,3 -8,2 -10,3 -1,4 -1,4 -1,5z"/>
   <path class="fil4" d="M493 302c1,-2 2,-3 4,-5 1,4 -3,5 -4,8 -3,4 -7,1 0,-3z"/>
   <path class="fil7" d="M880 294c0,-2 -3,1 -2,-5 4,0 8,0 12,-2 4,0 4,0 4,1 -4,3 -9,5 -14,6z"/>
   <path class="fil4" d="M966 290c1,-1 1,-1 7,-3 18,-10 38,-23 43,-44 5,20 -35,43 -50,48 0,-1 0,-1 0,-1z"/>
   <path class="fil12" d="M390 309c-1,-2 -3,-1 -5,-1 0,-2 13,-5 16,-3 -2,4 -7,5 -11,4z"/>
   <path class="fil22" d="M562 304c0,-4 -1,-3 3,-3 0,2 -1,2 -3,3z"/>
   <path class="fil7" d="M747 297c9,-5 -4,-1 -5,-6 4,1 18,4 5,6z"/>
   <path class="fil7" d="M704 278c5,0 -9,14 -1,20 -10,-4 1,-14 1,-20z"/>
   <path class="fil10" d="M521 299c3,-1 3,-2 2,-5 4,4 12,4 16,2 2,0 5,-1 7,-1 0,0 1,1 1,1 -7,2 -19,-1 -16,7 -3,-3 -7,-2 -10,-4z"/>
   <path class="fil2" d="M761 295c-5,-5 23,-12 26,-6 -9,2 -18,5 -26,6z"/>
   <path class="fil2" d="M239 307c16,-2 24,-9 22,4 -3,-1 1,-4 1,-5 -8,0 -16,0 -23,1z"/>
   <path class="fil15" d="M939 288c-3,-9 -18,-2 -4,-10 14,-3 22,-27 36,-9 4,1 6,1 6,6 -14,6 -29,-8 -32,12 -2,0 -4,0 -6,1z"/>
   <path class="fil7" d="M953 287c0,-1 0,-2 0,-3 -13,-5 6,-8 8,-3 -15,-1 -4,6 -8,6z"/>
   <path class="fil1" d="M330 309c-4,-2 -6,-3 -11,-3 0,-11 29,-1 11,3z"/>
   <path class="fil4" d="M356 308c-4,-6 10,-8 6,-1 -2,0 -4,0 -6,1z"/>
   <path class="fil5" d="M665 296c0,-16 -1,-33 -1,-49 0,4 1,39 3,40 0,4 1,6 -2,9z"/>
   <path class="fil22" d="M894 288c0,-1 0,-1 -4,-1 4,-1 7,-1 11,-1 1,1 1,1 1,2 -2,0 -5,0 -8,0z"/>
   <path class="fil19" d="M902 288c0,-1 0,-1 -1,-2 2,-4 19,-9 11,-1 -5,1 -5,2 -10,3z"/>
   <path class="fil15" d="M380 305c-7,-5 4,-9 5,-16 5,0 11,9 11,13 -2,1 -2,1 -16,3z"/>
   <path class="fil9" d="M562 298c0,-4 -1,-6 4,-9 5,0 -2,8 -4,9z"/>
   <path class="fil7" d="M833 288c2,-12 14,-16 16,-26 1,5 -15,26 -16,26z"/>
   <path class="fil6" d="M490 286c1,7 -6,4 -6,9 -3,3 -3,3 -7,5 -11,-1 12,-11 13,-14z"/>
   <path class="fil8" d="M523 294c0,-2 -1,-4 -2,-5 0,-13 8,-30 5,-39 0,0 0,0 0,0 2,-1 0,-11 -2,-11 -18,-18 -26,-26 -53,-25 0,-3 20,-1 27,0 29,14 35,28 24,58 0,15 0,22 17,24 -4,2 -12,2 -16,-2z"/>
   <path class="fil22" d="M547 296c0,0 -1,-1 -1,-1 18,-18 9,-23 18,-42 0,-1 0,-1 1,-7 0,23 -3,35 -18,50z"/>
   <path class="fil21" d="M578 292c-1,-1 -1,-1 -2,-2 -1,0 -2,-1 -3,-1 0,-17 19,8 5,3z"/>
   <path class="fil23" d="M592 293c0,-1 -1,-2 -1,-2 -3,-20 11,-6 4,2 -1,0 -2,0 -3,0z"/>
   <path class="fil5" d="M311 288c16,-2 8,-4 0,-4 -3,-3 -48,11 -34,-2 3,-4 10,0 9,-6 -12,3 -12,3 -12,3 -10,3 -30,6 -12,-5 2,-8 -47,7 -49,-7 4,0 17,2 19,-1 -3,-6 -38,0 -21,-13 -1,-2 -15,-5 -19,-7 -2,-9 -1,-10 -10,-14 -7,-12 62,17 70,24 11,1 23,7 34,10 2,1 9,1 11,3 8,1 14,0 3,-4 -4,-1 -6,-2 -9,-1 -2,-2 -47,-15 -20,-13 9,10 39,-2 39,20 10,1 49,8 36,22 -7,20 -9,-17 -26,1 -10,1 -18,-3 -17,9 -8,0 -5,-5 -5,-11 4,-3 10,-1 13,-4z"/>
   <path class="fil4" d="M610 293c1,-5 5,-8 9,-4 -4,0 -6,3 -9,4z"/>
   <path class="fil1" d="M431 290c5,0 9,-3 9,3 -7,7 -13,1 -9,-3z"/>
   <path class="fil15" d="M242 304c-6,-3 -6,-7 -12,-10 -8,0 -41,-29 -18,-14 13,3 28,20 35,14 16,-2 20,8 -5,10z"/>
   <path class="fil20" d="M591 290c0,-3 0,-5 4,-6 -1,5 1,8 -4,6z"/>
   <path class="fil7" d="M395 296c1,-6 14,-4 15,-1 -4,0 -6,-2 -5,3 -2,-1 -2,-1 -10,-2z"/>
   <path class="fil12" d="M220 298c8,-1 10,-3 10,5 -5,-3 0,-5 -10,-5z"/>
   <path class="fil2" d="M664 247c2,-6 2,-6 3,-6 -4,13 0,32 0,46 -2,-1 -3,-36 -3,-40z"/>
   <path class="fil7" d="M681 286c-4,-5 3,-7 5,-2 -2,0 -3,1 -5,2z"/>
   <path class="fil23" d="M369 297c-6,-3 -6,-3 -7,-4 0,-3 11,-1 7,4z"/>
   <path class="fil13" d="M862 266c5,-4 16,-5 23,-8 3,0 6,0 10,-1 3,-2 7,-2 10,-4 16,-4 4,-4 -5,-2 -3,2 -5,2 -9,2 -2,2 -2,2 -9,3 -8,2 -16,5 -25,5 -1,-14 82,-24 97,-34 6,-1 11,-5 17,-7 6,-2 34,-18 41,-13 1,9 -8,13 -13,19 -10,1 -8,13 -25,15 -7,0 -15,-1 -4,5 -3,8 -49,3 -30,9 9,10 -16,7 -21,3 -13,-1 -11,3 -2,4 7,7 -15,9 -15,9 -7,-10 -14,-5 -13,5 -8,1 -26,-10 -21,-1 0,1 0,2 -1,3 -14,5 -26,-12 -5,-12z"/>
   <path class="fil4" d="M283 300c-1,-1 -1,-1 -3,-2 2,-5 10,0 3,2z"/>
   <path class="fil7" d="M408 290c4,0 4,-1 0,-3 12,1 21,-1 33,-2 -1,3 2,8 -1,8 0,-6 -4,-3 -9,-3 16,-6 -26,-1 -12,2 0,1 0,1 0,2 -11,-3 -11,-3 -11,-4z"/>
   <path class="fil9" d="M341 296c-7,-12 -28,-20 -41,-12 -17,0 -8,-13 -5,-13 3,1 71,12 46,25z"/>
   <path class="fil12" d="M889 276c-1,-10 6,-15 13,-5 -9,-2 -12,-9 -13,5z"/>
   <path class="fil6" d="M526 250c3,9 -5,26 -5,39 -8,-9 -1,-30 5,-39z"/>
   <path class="fil8" d="M190 288c4,2 10,4 13,9 -5,-3 -12,-5 -13,-9z"/>
   <path class="fil9" d="M857 274c0,-3 1,-4 5,-4 -1,4 -2,3 -5,4z"/>
   <path class="fil11" d="M408 287c-2,-3 -15,-3 -8,-9 16,-2 16,-2 17,-3 0,0 1,0 1,0 3,8 -8,0 -5,8 3,0 6,0 10,0 3,-3 23,-4 18,2 -12,1 -21,3 -33,2z"/>
   <path class="fil12" d="M753 276c5,-1 7,-1 8,-5 4,0 4,0 4,1 -1,0 -12,10 -12,4z"/>
   <path class="fil12" d="M768 273c7,2 17,5 18,-3 8,4 -16,10 -18,3z"/>
   <path class="fil7" d="M803 275c1,-5 -6,-4 -9,-4 4,-1 10,0 11,-4 2,1 2,4 5,5 -5,1 -5,1 -7,3z"/>
   <path class="fil9" d="M574 282c-1,-1 -1,-1 -1,-5 3,1 4,4 1,5z"/>
   <path class="fil7" d="M710 270c-3,4 -7,2 -6,8 -6,-4 2,-7 6,-8z"/>
   <path class="fil6" d="M753 276c-7,-6 -12,-8 -2,-15 3,1 3,1 17,-2 3,0 26,-2 20,-7 -5,0 -15,0 -18,3 -7,1 -17,6 -20,-2 1,0 1,-1 1,-2 7,-1 5,-1 10,-2 21,-1 81,-1 88,-21 4,0 5,3 3,6 -1,1 -1,2 -1,2 -1,0 -2,0 -3,0 -7,3 -56,17 -53,18 -3,10 -36,5 -46,13 0,12 9,2 12,4 -1,4 -3,4 -8,5z"/>
   <path class="fil9" d="M768 273c0,0 -2,-1 -3,-1 0,-1 0,-1 -4,-1 -3,-2 -12,8 -12,-4 10,-8 43,-3 46,-13 -3,-1 46,-15 53,-18 1,0 2,0 3,0 -2,8 -9,12 -12,19 -1,0 -2,0 -3,0 -3,1 -5,1 -14,1 1,6 8,-1 7,7 -11,2 -38,-10 -24,4 -1,4 -7,3 -11,4 -1,-1 -2,-2 -3,-3 -3,-2 -16,-3 -5,2 -1,8 -11,5 -18,3z"/>
   <path class="fil13" d="M738 258c4,3 3,12 0,17 -12,0 -8,-25 0,-17z"/>
   <path class="fil6" d="M482 279c1,0 2,0 3,-1 1,2 -2,3 -2,6 -5,-1 -5,-3 -1,-5z"/>
   <path class="fil9" d="M589 280c-1,-21 25,-4 4,-3 -1,1 -3,2 -4,3z"/>
   <path class="fil7" d="M738 275c3,-5 4,-14 0,-17 7,1 5,15 0,17z"/>
   <path class="fil12" d="M883 269c-3,-4 0,-3 3,-3 0,2 -1,2 -3,3z"/>
   <path class="fil15" d="M986 266c-39,-7 43,-32 10,-10 -7,3 -5,8 -10,10z"/>
   <path class="fil4" d="M357 287c0,-3 4,-14 9,-9 -4,3 -7,7 -9,9z"/>
   <path class="fil15" d="M902 268c-1,-2 -3,-3 -5,-5 0,-7 21,-3 5,5z"/>
   <path class="fil2" d="M311 288c0,-2 0,-3 0,-4 8,0 16,2 0,4z"/>
   <path class="fil7" d="M418 275c8,3 -4,6 5,8 -4,0 -7,0 -10,0 -3,-8 8,0 5,-8z"/>
   <path class="fil15" d="M498 280c-1,-10 -9,-18 -10,-26 21,-13 -12,-16 1,-26 27,-1 3,20 20,17 1,-7 4,3 0,8 -10,-6 -15,4 -2,6 -2,8 0,20 -9,21z"/>
   <path class="fil22" d="M791 268c-3,1 -4,-1 -5,2 -11,-5 2,-4 5,-2z"/>
   <path class="fil2" d="M682 270c0,-11 -8,-1 -1,1 -4,7 -4,-6 -4,-7 4,-1 12,4 5,6z"/>
   <path class="fil7" d="M482 279c9,-5 -14,-6 -16,-6 0,0 0,0 0,0 7,0 19,-1 19,5 -1,1 -2,1 -3,1z"/>
   <path class="fil7" d="M862 266c1,-7 -5,-1 -5,-5 9,0 17,-3 25,-5 0,1 3,-1 3,2 -7,3 -18,4 -23,8z"/>
   <path class="fil20" d="M682 270c0,0 0,1 -1,1 -7,-2 1,-12 1,-1z"/>
   <path class="fil12" d="M919 258c-6,0 -11,1 -2,4 -9,-1 -11,-5 2,-4z"/>
   <path class="fil7" d="M998 259c4,-6 11,-8 11,-16 9,-1 -10,15 -11,16z"/>
   <path class="fil12" d="M400 278c-1,-4 -6,1 -8,-2 15,-2 15,-2 15,-3 3,-2 3,-2 5,-2 0,0 0,0 3,0 -2,4 -12,5 2,4 -1,1 -1,1 -17,3z"/>
   <path class="fil7" d="M277 282c0,-2 0,-2 -3,-3 0,0 0,0 12,-3 1,6 -6,2 -9,6z"/>
   <path class="fil7" d="M428 277c-1,-1 -1,-1 -1,-4 4,0 5,3 1,4z"/>
   <path class="fil12" d="M829 263c1,-8 -6,-1 -7,-7 9,0 11,0 14,-1 0,3 -3,2 -5,2 -1,6 -1,6 -2,6z"/>
   <path class="fil15" d="M927 259c-9,-6 -15,-10 5,-10 0,8 2,9 -5,10z"/>
   <path class="fil1" d="M392 276c0,-2 2,-8 0,-9 2,0 3,0 4,-1 1,3 2,4 5,2 6,-7 19,-2 14,3 -3,0 -3,0 -3,0 -2,-11 -16,3 -5,2 0,1 0,1 -15,3z"/>
   <path class="fil13" d="M352 268c1,-2 2,-4 3,-6 5,-4 1,-4 -4,-4 -20,-23 36,-3 43,-3 2,2 4,3 6,5 -1,3 -1,5 -4,6 -1,1 -2,1 -4,1 -3,1 -24,17 -23,5 11,-15 -11,1 -17,-4z"/>
   <path class="fil6" d="M466 273c-7,-6 15,-8 20,-9 -4,6 -18,2 -20,9 0,0 0,0 0,0z"/>
   <path class="fil4" d="M672 266c4,-24 9,-48 39,-48 -1,1 -25,11 -30,16 -1,6 -4,30 -9,32z"/>
   <path class="fil22" d="M885 258c0,-3 -3,-1 -3,-2 7,-1 7,-1 9,-3 -1,5 -1,4 4,4 -4,1 -7,1 -10,1z"/>
   <path class="fil7" d="M895 257c-5,0 -5,1 -4,-4 4,0 6,0 9,-2 2,0 5,-1 5,2 -3,2 -7,2 -10,4z"/>
   <path class="fil2" d="M751 261c2,-2 0,-4 -1,-8 3,8 13,3 20,2 -8,1 -16,4 -2,4 -14,3 -14,3 -17,2z"/>
   <path class="fil2" d="M970 246c1,5 2,5 8,5 -1,1 -10,2 -11,3 -2,-4 -27,-3 -27,1 -19,-6 27,-1 30,-9z"/>
   <path class="fil15" d="M267 278c10,-21 -36,2 -24,-13 -2,-5 -15,-5 -20,-6 -1,-7 -6,-5 -10,-11 -9,1 -17,0 -18,-12 15,4 35,9 46,19 10,4 10,4 44,14 1,5 -13,9 -18,9z"/>
   <path class="fil16" d="M412 271c-2,0 -2,0 -5,2 -11,1 3,-13 5,-2z"/>
   <path class="fil7" d="M434 271c0,-4 -1,-5 3,-4 0,3 0,3 -3,4z"/>
   <path class="fil15" d="M377 273c0,-14 -4,-10 -15,-8 0,-10 -1,-9 -10,-10 -13,-12 40,-1 43,9 -6,2 -12,5 -18,9z"/>
   <path class="fil20" d="M770 255c3,-3 13,-3 18,-3 6,5 -17,7 -20,7 -14,0 -6,-3 2,-4z"/>
   <path class="fil7" d="M839 255c3,-7 10,-11 12,-19 0,0 0,-1 1,-2 -1,6 -9,20 -13,21z"/>
   <path class="fil10" d="M905 253c0,-3 -3,-2 -5,-2 9,-2 21,-2 5,2z"/>
   <path class="fil24" d="M207 272c-6,0 -10,-1 -12,5 0,-8 8,-9 12,-5z"/>
   <path class="fil12" d="M396 266c3,-1 3,-3 4,-6 0,2 -3,8 1,8 -3,2 -4,1 -5,-2z"/>
   <path class="fil6" d="M578 253c-2,-5 -7,3 -3,5 -4,12 -8,-15 0,-14 3,6 3,6 3,9z"/>
   <path class="fil15" d="M942 249c-2,-4 13,-12 19,-1 -6,0 -13,0 -19,1z"/>
   <path class="fil7" d="M297 269c3,0 3,-2 3,-4 11,4 5,5 -3,4z"/>
   <path class="fil9" d="M688 256c-1,-1 -16,-18 -3,-18 1,3 -1,6 -1,10 3,3 10,6 4,8z"/>
   <path class="fil4" d="M350 264c2,-2 2,-2 5,-2 -1,2 -2,4 -3,6 -1,-2 -1,-2 -2,-4z"/>
   <path class="fil2" d="M918 247c1,-6 15,-5 5,0 -2,0 -4,0 -5,0z"/>
   <path class="fil7" d="M286 266c3,0 5,1 5,-2 3,-1 5,0 9,1 0,2 0,4 -3,4 -2,-2 -9,-2 -11,-3z"/>
   <path class="fil9" d="M588 258c-5,-12 5,-15 3,-1 -1,1 -2,1 -3,1z"/>
   <path class="fil12" d="M751 251c1,-4 7,-2 10,-2 -5,1 -3,1 -10,2z"/>
   <path class="fil5" d="M578 253c-2,4 -2,4 -3,5 -4,-2 1,-10 3,-5z"/>
   <path class="fil6" d="M719 252c-12,-7 33,-6 17,-1 -7,-1 -11,0 -17,1z"/>
   <path class="fil12" d="M350 264c0,-5 -2,-4 -2,-7 1,0 2,1 3,1 5,0 9,0 4,4 -3,0 -3,0 -5,2z"/>
   <path class="fil12" d="M865 241c8,-2 5,-3 0,-7 5,-1 10,0 12,4 -9,-7 2,14 -12,3z"/>
   <path class="fil12" d="M932 244c-4,-5 15,-11 13,-3 -7,2 -7,2 -13,3z"/>
   <path class="fil7" d="M974 241c17,-2 15,-14 25,-15 -11,4 -7,14 -25,15z"/>
   <path class="fil4" d="M422 260c-2,-10 15,-10 5,0 -1,0 -3,0 -5,0z"/>
   <path class="fil19" d="M939 241c1,-2 5,-5 5,-1 -2,1 -4,1 -5,1z"/>
   <path class="fil15" d="M697 249c-4,-21 -20,-25 24,-26 1,4 -9,6 -13,7 -2,6 -4,17 -11,19z"/>
   <path class="fil4" d="M1013 227c-1,4 -4,7 -5,11 -6,-3 3,-9 5,-11z"/>
   <path class="fil5" d="M564 253c-2,-10 -2,-10 -2,-17 1,4 1,4 2,5 0,2 1,4 1,5 -1,6 -1,6 -1,7z"/>
   <path class="fil2" d="M724 240c-14,2 -14,2 -17,3 -2,2 -2,3 1,5 -13,-3 13,-13 16,-8z"/>
   <path class="fil15" d="M976 238c-8,-11 -2,-11 -14,-3 -4,-5 67,-42 35,-12 -12,2 -6,13 -21,15z"/>
   <path class="fil6" d="M865 241c-6,-5 -7,0 -6,-13 5,-6 52,-10 64,-11 3,-1 38,-6 28,-12 1,0 2,0 4,-1 1,4 6,3 9,2 1,-1 2,-1 3,-2 2,-4 10,-4 14,-5 2,0 3,-1 4,-2 8,-5 1,-3 -4,-3 0,-3 -11,0 -13,0 -4,1 -78,20 -67,21 -2,2 -2,2 -5,2 -1,-2 -38,4 -42,4 -1,-1 -1,-1 -1,-3 1,-1 5,-2 7,-4 33,-5 65,-12 98,-20 5,-1 5,-2 18,-4 2,-2 37,-9 29,0 -3,-4 -32,15 -40,19 -7,1 -28,4 -26,12 -1,0 -3,0 -4,0 -3,-6 -38,4 -45,5 -24,2 -24,2 -27,3 0,3 -1,6 2,5 5,4 8,5 0,7z"/>
   <path class="fil9" d="M877 238c-2,-4 -7,-5 -12,-4 -3,1 -2,-2 -2,-5 3,-1 3,-1 27,-3 7,-1 42,-11 45,-5 -2,10 2,7 -17,7 -6,-4 -14,-2 -3,2 0,5 -14,4 -19,4 5,10 -16,6 -19,4z"/>
   <path class="fil12" d="M688 247c0,-6 3,-5 3,-1 -1,0 -2,1 -3,1z"/>
   <path class="fil6" d="M412 246c6,0 -4,6 -4,10 -14,-2 3,-8 4,-10z"/>
   <path class="fil5" d="M408 256c0,-4 10,-10 4,-10 -1,-2 -2,-2 -4,-2 -9,4 -9,4 -15,5 2,-3 5,-2 4,-6 1,-8 -13,2 -18,2 0,-6 5,-11 9,-14 7,0 55,12 33,18 -3,4 -8,5 -13,7z"/>
   <path class="fil8" d="M348 257c-17,-23 19,-13 29,-6 7,1 12,1 17,4 0,0 0,0 0,0 -7,0 -63,-20 -43,3 -1,0 -2,-1 -3,-1z"/>
   <path class="fil7" d="M768 236c1,8 15,9 18,3 0,4 -19,9 -18,-3z"/>
   <path class="fil2" d="M953 237c-1,-2 -1,-8 4,-4 -1,3 -2,3 -4,4z"/>
   <path class="fil5" d="M191 263c9,-6 -26,-26 -16,-33 7,9 5,21 18,25 5,5 6,7 -2,8z"/>
   <path class="fil1" d="M768 236c3,-4 14,0 18,3 -3,6 -17,5 -18,-3z"/>
   <path class="fil7" d="M377 251c10,0 9,-4 15,-6 -2,3 -3,4 1,4 6,-1 6,-1 15,-5 -7,10 -14,0 -14,11 -5,-3 -10,-3 -17,-4z"/>
   <path class="fil6" d="M526 250c-2,-4 -2,-7 -2,-11 2,0 4,10 2,11z"/>
   <path class="fil8" d="M831 211c5,0 15,-2 18,1 -2,6 -31,11 -20,15 1,1 1,2 1,3 -5,5 -13,0 -17,8 -9,2 -52,-6 -24,-11 1,-12 34,-9 42,-16z"/>
   <path class="fil4" d="M320 243c6,1 -2,8 -2,12 -11,5 2,-10 2,-12z"/>
   <path class="fil5" d="M318 255c0,-4 8,-11 2,-12 -5,-2 -36,15 -38,4 5,0 8,0 11,-4 15,-6 -11,-1 -13,-1 -7,1 -33,10 -33,1 3,-4 15,-3 14,-7 -2,-1 -16,0 -16,1 -6,-1 -16,2 -19,-4 2,-5 15,-3 1,-4 -8,-4 -22,0 -29,-6 4,-19 -19,-19 -22,-34 12,-1 40,17 49,22 2,1 7,2 9,3 4,1 7,3 11,4 10,3 20,5 30,7 1,3 16,1 21,4 13,1 63,18 22,26z"/>
   <path class="fil11" d="M594 232c1,-8 1,-8 2,-9 1,0 1,0 2,0 1,4 1,8 4,10 9,8 -7,13 -8,-1z"/>
   <path class="fil4" d="M392 245c2,0 3,-1 5,-2 1,4 -2,3 -4,6 -4,0 -3,-1 -1,-4z"/>
   <path class="fil12" d="M802 235c-6,-7 6,-5 9,0 -3,0 -6,0 -9,0z"/>
   <path class="fil12" d="M918 228c-2,1 -3,0 -3,2 -11,-4 -3,-6 3,-2z"/>
   <path class="fil9" d="M324 250c0,-6 -2,-12 6,-8 0,4 -2,7 -6,8z"/>
   <path class="fil11" d="M562 236c2,-3 2,-3 3,-12 1,0 1,0 1,-10 0,9 -3,19 -2,27 -1,-1 -1,-1 -2,-5z"/>
   <path class="fil2" d="M954 227c16,-6 -13,-3 -13,-4 5,0 21,0 23,-4 2,2 4,1 7,1 -6,2 -11,6 -17,7z"/>
   <path class="fil22" d="M999 226c5,-6 14,-10 13,-19 10,0 -12,18 -13,19z"/>
   <path class="fil7" d="M577 233c0,-1 2,0 1,-3 5,0 5,-1 8,2 -8,-3 -2,3 0,7 -5,-3 -2,-5 -9,-6z"/>
   <path class="fil12" d="M795 232c-6,-3 3,-9 1,-1 0,0 0,1 -1,1z"/>
   <path class="fil7" d="M830 230c0,-1 0,-2 -1,-3 -11,-4 18,-9 20,-15 1,0 1,0 2,0 2,1 5,2 6,-1 1,2 1,3 3,3 -2,2 -6,3 -7,4 0,-1 0,-2 0,-3 -12,-3 -17,11 -23,15z"/>
   <path class="fil6" d="M381 234c1,-3 1,-4 3,-5 4,1 4,1 4,2 -4,3 -9,8 -9,14 -6,-3 -1,-7 2,-11z"/>
   <path class="fil15" d="M302 246c-5,-22 -44,11 -35,-12 -9,0 -17,0 -26,-1 -6,-15 -37,-4 -38,-14 11,-6 -27,-25 -7,-20 12,7 14,14 24,13 24,9 45,17 71,18 17,5 36,4 11,16z"/>
   <path class="fil9" d="M806 228c-9,-3 1,-5 3,0 -1,0 -2,0 -3,0z"/>
   <path class="fil12" d="M715 231c3,-5 12,-4 17,-4 -9,1 -9,1 -17,4z"/>
   <path class="fil13" d="M941 223c-1,-1 -1,-1 -2,-2 -2,-8 19,-11 26,-12 8,-4 37,-23 40,-19 -7,8 -12,10 -19,17 -8,1 -8,0 -11,7 -5,0 -22,-1 -11,5 -2,4 -18,4 -23,4z"/>
   <path class="fil2" d="M598 223c1,0 3,0 4,0 0,2 0,3 1,5 -3,1 -2,3 -1,5 -3,-2 -3,-6 -4,-10z"/>
   <path class="fil9" d="M945 221c-13,-5 9,-9 14,-9 -3,9 -3,8 -14,9z"/>
   <path class="fil2" d="M293 243c-1,-2 -11,-1 -13,-1 2,0 28,-5 13,1z"/>
   <path class="fil22" d="M812 225c-10,-6 7,-6 10,0 -3,0 -7,0 -10,0z"/>
   <path class="fil13" d="M339 219c2,-3 2,-3 6,-6 4,1 8,3 11,4 1,3 17,0 20,0 14,6 0,6 5,11 -1,5 -14,8 -15,12 -12,-3 -4,-6 -11,-11 -12,2 -14,6 -16,-10z"/>
   <path class="fil5" d="M586 232c-3,-3 -3,-2 -8,-2 -7,-8 -4,-9 -4,-20 -3,-3 -7,-6 -7,-10 6,-21 -20,4 -27,-4 3,-8 2,-15 11,-17 2,1 3,2 6,2 -2,-16 33,-19 36,-10 -6,2 -38,7 -16,13 7,0 7,-5 11,-8 5,1 5,12 6,16 -3,1 -6,25 -3,27 1,0 1,1 1,1 0,3 0,6 -1,9 -2,2 -3,3 -5,3z"/>
   <path class="fil2" d="M366 240c1,-4 14,-7 15,-12 1,0 2,1 3,1 -2,1 -2,2 -3,5 -1,-5 -13,5 -15,6z"/>
   <path class="fil23" d="M467 236c-1,-2 -1,-3 -4,-3 3,-1 6,-1 9,-2 11,-5 9,4 -5,5z"/>
   <path class="fil2" d="M986 207c-4,1 -22,10 -22,12 -11,-6 6,-5 11,-5 3,-7 3,-6 11,-7z"/>
   <path class="fil10" d="M594 232c-1,-4 0,-3 -3,-3 1,-3 1,-6 1,-9 1,2 2,3 4,3 -1,1 -1,1 -2,9z"/>
   <path class="fil7" d="M247 243c0,-4 2,-5 -2,-6 0,-1 14,-2 16,-1 1,4 -11,3 -14,7z"/>
   <path class="fil2" d="M854 221c4,0 41,-6 42,-4 -14,1 -27,4 -42,4z"/>
   <path class="fil1" d="M603 228c-1,-2 -1,-3 -1,-5 8,-3 7,10 1,5z"/>
   <path class="fil9" d="M824 221c-20,-5 22,-10 8,-1 -2,0 -5,0 -8,1z"/>
   <path class="fil7" d="M923 217c2,-9 -17,-2 -21,-2 0,-1 47,-9 49,-10 10,6 -25,11 -28,12z"/>
   <path class="fil11" d="M400 227c0,-1 0,-2 0,-3 29,-9 27,22 0,3z"/>
   <path class="fil16" d="M981 194c-6,2 -12,6 -19,8 -1,0 -1,0 -1,1 -2,0 -4,1 -6,1 -2,1 -3,1 -4,1 -2,1 -49,9 -49,10 -1,0 -1,0 -1,0 -11,-1 63,-20 67,-21 2,0 13,-3 13,0z"/>
   <path class="fil4" d="M452 224c-3,1 -4,2 -5,5 -5,-4 1,-5 5,-5z"/>
   <path class="fil5" d="M565 224c-1,-37 -28,7 -31,-39 0,0 0,0 1,0 0,6 1,22 9,22 1,1 13,-4 15,-4 4,3 5,7 7,11 0,10 0,10 -1,10z"/>
   <path class="fil6" d="M851 212c0,-1 0,-2 0,-2 3,-3 4,-1 6,1 -1,3 -4,2 -6,1z"/>
   <path class="fil6" d="M468 225c5,-2 7,-2 12,-2 -4,1 -7,2 -12,2z"/>
   <path class="fil6" d="M485 224c4,-3 7,-2 12,-2 -8,2 -8,2 -12,2z"/>
   <path class="fil21" d="M581 222c0,-13 4,-17 3,-1 0,0 -2,1 -3,1z"/>
   <path class="fil2" d="M745 216c31,-2 31,-2 32,-3 5,-3 19,-4 26,-3 -20,2 -38,5 -58,6z"/>
   <path class="fil2" d="M849 212c-3,-3 -13,-1 -18,-1 7,-1 13,-1 20,-1 0,0 0,1 0,2 -1,0 -1,0 -2,0z"/>
   <path class="fil5" d="M735 214c-1,-3 -21,-2 -25,-2 23,-1 44,2 67,1 -1,1 -1,1 -32,3 -3,-2 -6,-2 -10,-2z"/>
   <path class="fil17" d="M226 233c0,-1 1,-3 1,-4 14,1 1,-1 -1,4z"/>
   <path class="fil6" d="M400 224c0,1 0,2 0,3 -18,-1 -3,-6 0,-3z"/>
   <path class="fil12" d="M955 204c2,0 4,-1 6,-1 0,3 0,3 3,3 -3,1 -8,2 -9,-2z"/>
   <path class="fil2" d="M594 192c0,11 -4,19 -3,27 -3,-2 0,-26 3,-27z"/>
   <path class="fil2" d="M706 214c2,0 3,-1 4,-2 4,0 24,-1 25,2 -9,-1 -19,-2 -29,0z"/>
   <path class="fil21" d="M961 203c0,-1 0,-1 1,-1 3,0 4,-1 5,2 -1,1 -2,1 -3,2 -3,0 -3,0 -3,-3z"/>
   <path class="fil7" d="M275 225c3,0 2,-2 1,-5 5,3 21,5 24,0 1,6 -5,2 -4,9 -5,-3 -20,-1 -21,-4z"/>
   <path class="fil10" d="M967 204c-1,-3 -2,-2 -5,-2 7,-2 13,-6 19,-8 5,0 12,-2 4,3 2,-4 -14,3 -4,2 -4,1 -12,1 -14,5z"/>
   <path class="fil4" d="M1018 177c6,1 -7,20 -7,25 -6,-2 6,-18 7,-25z"/>
   <path class="fil2" d="M826 207c10,0 10,0 13,-1 13,-3 17,-4 22,-5 1,0 1,1 2,2 -9,-2 -26,4 -37,4z"/>
   <path class="fil11" d="M826 207c-1,0 -3,0 -5,-1 0,-3 15,0 18,0 -3,1 -3,1 -13,1z"/>
   <path class="fil2" d="M866 204c35,-2 35,-2 36,-3 4,0 9,-1 13,-2 1,0 1,0 1,0 -16,3 -34,8 -50,5z"/>
   <path class="fil20" d="M275 225c-10,-2 -20,-4 -30,-7 3,-1 2,-1 2,-4 6,4 22,6 29,6 1,3 2,5 -1,5z"/>
   <path class="fil5" d="M863 203c-1,-1 -1,-2 -2,-2 0,-1 33,1 41,0 -1,1 -1,1 -36,3 -1,0 -2,-1 -3,-1z"/>
   <path class="fil11" d="M276 220c-7,0 -23,-2 -29,-6 -1,0 -2,0 -3,-1 -3,-9 51,5 56,7 -3,5 -19,3 -24,0z"/>
   <path class="fil23" d="M985 197c-1,1 -2,2 -4,2 -10,1 6,-6 4,-2z"/>
   <path class="fil2" d="M417 217c17,-1 34,-1 51,-1 -17,1 -34,1 -51,1z"/>
   <path class="fil5" d="M417 217c-1,-1 -2,-2 -3,-2 1,-3 4,-1 5,0 17,0 34,0 51,0 -1,0 -1,0 -2,1 -17,0 -34,0 -51,1z"/>
   <path class="fil5" d="M177 219c1,-5 6,1 2,-8 -5,-3 -14,-25 -9,-25 2,15 12,26 21,35 2,8 -9,-1 -14,-2z"/>
   <path class="fil6" d="M356 217c7,0 14,0 20,0 -3,0 -19,3 -20,0z"/>
   <path class="fil2" d="M916 199c0,0 0,0 -1,0 3,-2 34,-9 38,-9 0,0 0,1 0,1 -12,3 -24,6 -37,8z"/>
   <path class="fil4" d="M345 213c-4,3 -4,3 -6,6 -6,-4 5,-6 6,-6z"/>
   <path class="fil11" d="M362 208c-16,-1 -16,-1 -30,0 -2,0 -3,-1 -4,-1 0,-4 48,1 54,2 11,3 11,3 31,6 -17,1 -35,-5 -51,-7z"/>
   <path class="fil15" d="M578 210c-11,-10 -2,-36 -31,-14 -6,-1 -4,-20 9,-10 0,0 19,-24 20,-12 -21,6 -2,20 12,9 6,0 4,18 3,22 -4,2 -9,3 -13,5z"/>
   <path class="fil6" d="M544 207c4,-4 10,-6 15,-4 -2,0 -14,5 -15,4z"/>
   <path class="fil7" d="M958 194c9,-4 -1,-3 -5,-3 0,0 0,-1 0,-1 2,-1 12,-2 14,-3 -1,6 4,3 9,3 -13,2 -13,3 -18,4z"/>
   <path class="fil11" d="M237 201c-12,-1 -12,-1 -14,-2 -19,-3 -31,-18 -47,-21 1,-5 29,13 35,16 26,7 57,13 83,13 9,3 25,6 33,2 4,8 -4,5 -8,3 -23,-2 -62,-1 -82,-11z"/>
   <path class="fil7" d="M225 211c7,1 0,-7 -2,-12 2,1 2,1 14,2 -3,0 -13,0 -6,4 -5,3 8,9 8,3 5,2 -7,1 -5,6 -2,-1 -7,-2 -9,-3z"/>
   <path class="fil7" d="M332 208c14,-1 14,-1 30,0 -11,0 -20,0 -30,0z"/>
   <path class="fil6" d="M231 205c2,1 5,2 8,3 0,6 -13,0 -8,-3z"/>
   <path class="fil4" d="M551 179c-9,2 -8,9 -11,17 -1,-5 3,-26 11,-17z"/>
   <path class="fil2" d="M594 192c-1,-4 -1,-15 -6,-16 8,-1 6,11 6,16z"/>
   <path class="fil6" d="M602 188c0,-1 -1,-1 -2,-2 0,-6 8,-1 2,2z"/>
   <path class="fil4" d="M598 179c-4,-5 5,-8 6,-2 -1,1 -1,1 -6,2z"/>
   <path class="fil11" d="M580 161c0,-8 30,7 39,8 -2,4 -31,-8 -39,-8z"/>
   <path class="fil5" d="M547 170c0,-4 12,-3 15,-3 -4,3 -10,2 -15,3z"/>
   <g>
    <path class="fil25" d="M601 576l0 0 0 9 0 0 0 -9zm0 0c149,0 283,-29 381,-76l4 8c-99,48 -235,77 -385,77l0 -9zm381 -76c97,-47 157,-111 157,-181l8 0c0,74 -61,141 -161,189l-4 -8zm157 -181l0 0 8 0 0 0 -8 0zm0 0l0 0 8 0 0 0 -8 0zm0 0c0,-70 -60,-134 -157,-181l4 -8c100,48 161,115 161,189l-8 0zm-157 -181c-98,-47 -232,-76 -381,-76l0 -9c150,0 286,29 385,77l-4 8zm-381 -76l0 0 0 -9 0 0 0 9zm0 0l0 0 0 -9 0 0 0 9zm0 0c-149,0 -283,29 -381,76l-4 -8c99,-48 235,-77 385,-77l0 9zm-381 76c-97,47 -157,111 -157,181l-8 0c0,-74 61,-141 161,-189l4 8zm-157 181l0 0 -8 0 0 0 8 0zm0 0l0 0 -8 0 0 0 8 0zm0 0c0,70 60,134 157,181l-4 8c-100,-48 -161,-115 -161,-189l8 0zm157 181c98,47 232,76 381,76l0 9c-150,0 -286,-29 -385,-77l4 -8zm381 76l0 0 0 9 0 0 0 -9z"/>
   </g>
   <g>
    <path class="fil25" d="M601 620l0 0 0 8 0 0 0 -8zm0 0c161,0 306,-34 412,-89l4 7c-107,56 -254,90 -416,90l0 -8zm412 -89c104,-55 169,-130 169,-212l9 0c0,86 -67,163 -174,219l-4 -7zm169 -212l0 0 9 0 0 0 -9 0zm0 0l0 0 9 0 0 0 -9 0zm0 0c0,-82 -65,-157 -169,-212l4 -7c107,56 174,133 174,219l-9 0zm-169 -212c-106,-55 -251,-89 -412,-89l0 -8c162,0 309,34 416,90l-4 7zm-412 -89l0 0 0 -8 0 0 0 8zm0 0l0 0 0 -8 0 0 0 8zm0 0c-161,0 -306,34 -412,89l-4 -7c107,-56 254,-90 416,-90l0 8zm-412 89c-104,55 -169,130 -169,212l-9 0c0,-86 67,-163 174,-219l4 7zm-169 212l0 0 -9 0 0 0 9 0zm0 0l0 0 -9 0 0 0 9 0zm0 0c0,82 65,157 169,212l-4 7c-107,-56 -174,-133 -174,-219l9 0zm169 212c106,55 251,89 412,89l0 8c-162,0 -309,-34 -416,-90l4 -7zm412 89l0 0 0 8 0 0 0 -8z"/>
   </g>
   <g>
    <path class="fil26" d="M601 596l0 0 0 13 0 0 0 -13zm0 0c154,0 294,-32 395,-83l6 12c-103,52 -245,84 -401,84l0 -13zm395 -83c100,-50 162,-119 162,-194l13 0c0,81 -64,154 -169,206l-6 -12zm162 -194l0 0 13 0 0 0 -13 0zm0 0l0 0 13 0 0 0 -13 0zm0 0c0,-75 -62,-144 -162,-194l6 -12c105,52 169,125 169,206l-13 0zm-162 -194c-101,-51 -241,-83 -395,-83l0 -13c156,0 298,32 401,84l-6 12zm-395 -83l0 0 0 -13 0 0 0 13zm0 0l0 0 0 -13 0 0 0 13zm0 0c-154,0 -294,32 -395,83l-6 -12c103,-52 245,-84 401,-84l0 13zm-395 83c-100,50 -162,119 -162,194l-13 0c0,-81 64,-154 169,-206l6 12zm-162 194l0 0 -13 0 0 0 13 0zm0 0l0 0 -13 0 0 0 13 0zm0 0c0,75 62,144 162,194l-6 12c-105,-52 -169,-125 -169,-206l13 0zm162 194c101,51 241,83 395,83l0 13c-156,0 -298,-32 -401,-84l6 -12zm395 83l0 0 0 13 0 0 0 -13z"/>
   </g>
  </g>
 </g>
</svg>
