<?xml version="1.0" encoding="utf-8"?>
<!-- Generator: Adobe Illustrator 13.0.0, SVG Export Plug-In . SVG Version: 6.00 Build 14948)  -->
<!DOCTYPE svg PUBLIC "-//W3C//DTD SVG 1.0//EN" "http://www.w3.org/TR/2001/REC-SVG-20010904/DTD/svg10.dtd">
<svg version="1.0" xmlns="http://www.w3.org/2000/svg" xmlns:xlink="http://www.w3.org/1999/xlink" x="0px" y="0px"
	 width="350.215px" height="399.6px" viewBox="0 0 350.215 399.6" enable-background="new 0 0 350.215 399.6" xml:space="preserve">
<g id="Ebene_2">
	<path fill="#05348C" d="M12.803,0c-65.4,309,139.969,392.568,161.4,399.6c31.2-9,228.6-100.2,162.6-399.6H12.803z"/>
</g>
<g id="Ebene_3">
	<path fill="#AE9869" d="M29.002,22.2c-66.6,282,145.2,344.4,145.2,344.4s216.6-61.8,145.2-344.4c0,0-115.8-7.8-145.2-7.8
		S29.002,22.2,29.002,22.2z"/>
</g>
<g id="Ebene_4">
	<path fill="#0060AA" d="M39.203,33c-62.4,268.8,135,330.6,135,330.6s196.8-57,137.4-330l-137.4-16.2L39.203,33z"/>
</g>
<g id="Ebene_9">
	<path fill="#05348C" d="M110.432,155.547c0,0-67.434,58.548,2.166,128.147c0,0,27.45,24.15,61.35,24.15c34.5,0,63-24.301,63-24.301
		c70.351-70.35,2.412-129.541,2.412-129.541s48.588,62.341-17.09,113.606c0,0-21.022,15.935-48.322,15.935
		c-26.4,0-45.15-13.949-45.15-13.949C69.098,224.294,110.432,155.547,110.432,155.547z"/>
</g>
<g id="Ebene_8">
	<path fill="#8F6E3B" d="M113.603,149.7c0,0-70.35,61.35-0.75,130.95c0,0,27.45,24.15,61.35,24.15c34.5,0,63-24.3,63-24.3
		c70.35-70.351-0.9-131.1-0.9-131.1s51.9,63.9-13.777,115.164c0,0-21.022,15.937-48.323,15.937c-26.4,0-45.15-13.95-45.15-13.95
		C69.353,221.25,113.603,149.7,113.603,149.7z"/>
	<path fill="#B19B5F" d="M116.181,145.021c0,0-60.136,53.232,2.503,115.872c0,0,24.705,21.735,55.215,21.735
		c31.05,0,56.701-21.87,56.701-21.87c63.314-63.315,4.203-113.904,4.203-113.904s41.696,53.425-17.414,99.562
		c0,0-18.92,14.343-43.49,14.343c-23.76,0-40.635-12.555-40.635-12.555C79.534,207.434,116.181,145.021,116.181,145.021z"/>
</g>
<g id="Ebene_7">
	<polygon fill="#05348C" points="216.403,190.399 183.648,169.616 192.648,159.155 	"/>
	<polygon fill="#05348C" points="164.603,166.8 174.003,206 185.257,167.746 	"/>
	<polygon fill="#05348C" points="134.002,189.2 140.784,174.377 166.853,166.903 	"/>
	<polygon fill="#05348C" points="117.203,150.4 153.203,154.534 149.099,140.895 	"/>
	<polygon fill="#05348C" points="134.002,110 147.955,131.543 157.203,124 144.402,111.2 	"/>
	<polygon fill="#05348C" points="216.403,108.4 200.603,132.4 192.403,116.8 	"/>
	<polygon fill="#05348C" points="231.603,150.4 212.003,144 195.403,155.799 	"/>
	<polygon fill="#05348C" points="187.916,115.114 174.803,83.996 163.091,115.211 	"/>
</g>
<g id="Ebene_6">
	<polygon fill="#B19B5F" points="174.803,87 164.603,115.2 135.803,102.6 150.603,130.6 121.403,141 150.803,151.2 137.002,178.2 
		164.603,166.8 174.803,195.6 184.402,167.4 212.603,178.8 199.402,151.8 228.803,141 200.603,130.2 212.603,102.6 186.203,115.2 	
		"/>
	<polygon fill="#8E733E" points="135.803,102.6 174.002,140.799 164.603,115.2 	"/>
	<polygon fill="#8E733E" points="174.803,87 174.002,140.799 186.203,115.2 	"/>
	<polygon fill="#8E733E" points="212.603,102.6 174.002,140.799 200.603,130.2 	"/>
	<polygon fill="#8E733E" points="228.803,141 174.002,140.799 199.402,151.8 	"/>
	<polygon fill="#8E733E" points="212.603,178.8 174.002,140.799 184.402,167.4 	"/>
	<polygon fill="#8E733E" points="174.803,195.6 174.002,140.799 164.603,166.8 	"/>
	<polygon fill="#8E733E" points="137.002,178.2 174.002,140.799 150.803,151.2 	"/>
	<polygon fill="#8E733E" points="121.403,141 174.002,140.799 150.603,130.6 	"/>
</g>
<g id="Ebene_10">
	<g>
		<g>
			<path fill="#05348C" d="M43.85,56.996l8.719-1.057c2.598-0.314,4.651,0.248,6.159,1.686c1.509,1.439,2.377,3.645,2.605,6.618
				c0.229,2.985-0.287,5.366-1.548,7.14c-1.262,1.775-3.191,2.82-5.79,3.135l-3.458,0.419l0.758,9.87l-5.262,0.639L43.85,56.996z
				 M49.52,61.675l0.611,7.946l2.896-0.351c1.021-0.124,1.783-0.566,2.286-1.325c0.503-0.76,0.706-1.774,0.608-3.045
				c-0.097-1.27-0.451-2.215-1.06-2.833c-0.609-0.618-1.423-0.866-2.444-0.742L49.52,61.675z"/>
			<path fill="#05348C" d="M73.707,52.917c3.276-0.379,5.939,0.633,7.987,3.035c2.048,2.403,3.241,5.911,3.58,10.523
				c0.338,4.602-0.325,8.318-1.989,11.15c-1.664,2.833-4.134,4.44-7.411,4.819c-3.267,0.378-5.926-0.633-7.979-3.036
				c-2.053-2.401-3.249-5.902-3.586-10.503c-0.339-4.613,0.326-8.337,1.995-11.17C67.973,54.902,70.44,53.296,73.707,52.917z
				 M74.097,58.236c-1.598,0.185-2.778,1.155-3.542,2.909c-0.764,1.755-1.035,4.131-0.815,7.13c0.219,2.987,0.832,5.255,1.838,6.804
				c1.006,1.55,2.308,2.231,3.906,2.047c1.608-0.187,2.794-1.157,3.558-2.912c0.763-1.754,1.036-4.125,0.817-7.112
				c-0.221-2.999-0.834-5.273-1.84-6.823C77.012,58.731,75.705,58.049,74.097,58.236z"/>
			<path fill="#05348C" d="M94.771,68.888l0.745,10.776l-5.266,0.575l-1.968-28.474l8.028-0.876
				c2.691-0.294,4.705,0.121,6.042,1.243c1.336,1.123,2.099,3.044,2.287,5.765c0.13,1.882-0.087,3.462-0.651,4.74
				c-0.564,1.279-1.484,2.276-2.76,2.992c0.734,0.15,1.415,0.598,2.042,1.343c0.627,0.745,1.286,1.906,1.977,3.483l3.412,7.775
				l-5.6,0.611l-2.963-6.806c-0.604-1.369-1.182-2.285-1.734-2.75c-0.552-0.464-1.252-0.651-2.103-0.558L94.771,68.888z
				 M96.637,63.574c1.093-0.12,1.859-0.491,2.3-1.117c0.441-0.624,0.616-1.591,0.526-2.901c-0.089-1.297-0.394-2.198-0.913-2.706
				c-0.52-0.507-1.326-0.701-2.418-0.582l-2.216,0.242l0.505,7.305L96.637,63.574z"/>
			<path fill="#05348C" d="M106.145,49.812l18.799-1.908l0.356,5.553l-6.757,0.686l1.474,22.936l-5.269,0.535l-1.475-22.935
				l-6.772,0.688L106.145,49.812z"/>
			<path fill="#05348C" d="M142.126,47.249l0.343,6.034c-1.154-0.6-2.276-1.03-3.365-1.291c-1.089-0.26-2.11-0.348-3.062-0.263
				c-1.257,0.113-2.172,0.438-2.748,0.976c-0.575,0.538-0.833,1.316-0.776,2.334c0.043,0.764,0.28,1.341,0.709,1.731
				s1.189,0.689,2.281,0.899l2.27,0.43c2.315,0.432,3.986,1.254,5.012,2.467c1.026,1.213,1.607,3.016,1.743,5.409
				c0.179,3.145-0.355,5.543-1.6,7.196c-1.245,1.654-3.241,2.604-5.986,2.85c-1.296,0.116-2.605,0.061-3.927-0.166
				c-1.321-0.228-2.654-0.619-4-1.177l-0.353-6.206c1.362,0.851,2.665,1.466,3.908,1.847c1.244,0.381,2.432,0.521,3.567,0.419
				c1.145-0.103,2.008-0.449,2.591-1.039c0.583-0.589,0.846-1.38,0.79-2.374c-0.051-0.891-0.298-1.559-0.74-2.006
				c-0.443-0.446-1.298-0.805-2.566-1.075l-2.072-0.447c-2.071-0.428-3.618-1.268-4.641-2.52c-1.023-1.251-1.599-3.011-1.728-5.276
				c-0.161-2.838,0.373-5.081,1.603-6.727c1.23-1.646,3.071-2.579,5.523-2.798c1.125-0.102,2.286-0.087,3.485,0.042
				C139.587,46.648,140.833,46.892,142.126,47.249z"/>
			<path fill="#05348C" d="M148.56,45.739l6.71-0.402l5.236,14.999l4.107-15.559l6.696-0.401l1.083,28.549l-4.991,0.299
				l-0.792-20.881l-4.118,15.675l-3.348,0.2l-5.286-15.111l0.792,20.881l-5.006,0.3L148.56,45.739z"/>
			<path fill="#05348C" d="M188.091,44.408c3.285,0.208,5.808,1.684,7.563,4.427c1.756,2.744,2.542,6.429,2.355,11.056
				c-0.185,4.615-1.261,8.175-3.227,10.683c-1.967,2.508-4.593,3.658-7.88,3.45c-3.276-0.208-5.795-1.683-7.557-4.427
				c-1.761-2.744-2.549-6.423-2.363-11.037c0.186-4.627,1.265-8.194,3.235-10.701C182.19,45.351,184.813,44.2,188.091,44.408z
				 M187.876,49.743c-1.604-0.102-2.881,0.648-3.834,2.248c-0.955,1.601-1.492,3.905-1.613,6.914
				c-0.119,2.996,0.231,5.349,1.052,7.063c0.821,1.713,2.033,2.621,3.636,2.722c1.613,0.103,2.896-0.647,3.85-2.248
				c0.954-1.601,1.492-3.898,1.611-6.894c0.121-3.008-0.229-5.369-1.05-7.082C190.706,50.752,189.488,49.844,187.876,49.743z"/>
			<path fill="#05348C" d="M203.297,46.118l5.268,0.559l-1.147,17.072c-0.158,2.353,0.004,4.064,0.487,5.133
				c0.484,1.069,1.348,1.67,2.593,1.803c1.255,0.132,2.192-0.277,2.813-1.229c0.618-0.953,1.008-2.605,1.166-4.958l1.148-17.073
				l5.268,0.559l-1.148,17.073c-0.271,4.031-1.199,6.955-2.783,8.772c-1.586,1.817-3.86,2.568-6.825,2.253
				c-2.966-0.314-5.106-1.534-6.421-3.659c-1.314-2.124-1.836-5.202-1.564-9.234L203.297,46.118z"/>
			<path fill="#05348C" d="M223.906,48.343l18.771,2.307l-0.432,5.544l-6.746-0.829l-1.784,22.901l-5.261-0.646l1.783-22.901
				l-6.764-0.832L223.906,48.343z"/>
			<path fill="#05348C" d="M245.581,51.031l5.256,0.701l-0.915,10.832l7.741,1.033l0.916-10.832l5.241,0.7l-2.402,28.421
				l-5.241-0.699l1.018-12.05l-7.74-1.034l-1.02,12.05l-5.256-0.702L245.581,51.031z"/>
			<path fill="#05348C" d="M278.82,55.567l14.151,2.036l-0.504,5.535l-8.9-1.281l-0.481,5.288l8.371,1.205l-0.505,5.534l-8.37-1.204
				l-1.098,12.039l-5.251-0.756L278.82,55.567z"/>
			<path fill="#05348C" d="M311.533,87.56c-1.034,0.553-2.091,0.928-3.167,1.127c-1.077,0.2-2.182,0.215-3.311,0.047
				c-3.39-0.506-5.946-2.228-7.674-5.165s-2.377-6.668-1.949-11.192c0.428-4.537,1.756-7.979,3.982-10.326
				c2.227-2.348,5.034-3.269,8.424-2.763c1.128,0.168,2.198,0.508,3.209,1.019s1.967,1.187,2.869,2.028l-0.556,5.874
				c-0.891-1.071-1.787-1.892-2.689-2.464c-0.902-0.571-1.872-0.935-2.912-1.09c-1.875-0.28-3.427,0.337-4.653,1.851
				c-1.229,1.513-1.98,3.74-2.258,6.68c-0.277,2.928,0.041,5.308,0.951,7.14c0.91,1.832,2.305,2.888,4.18,3.168
				c1.04,0.156,2.051,0.088,3.034-0.203c0.983-0.29,2.009-0.825,3.074-1.604L311.533,87.56z"/>
			<path fill="#05348C" d="M40.25,53.396l8.719-1.057c2.598-0.314,4.651,0.248,6.159,1.686c1.509,1.439,2.377,3.645,2.605,6.618
				c0.229,2.985-0.287,5.366-1.548,7.14c-1.262,1.775-3.191,2.82-5.79,3.135l-3.458,0.419l0.758,9.87l-5.262,0.639L40.25,53.396z
				 M45.92,58.075l0.611,7.946l2.896-0.351c1.021-0.124,1.783-0.566,2.286-1.325c0.503-0.76,0.706-1.774,0.608-3.045
				c-0.097-1.27-0.451-2.215-1.06-2.833c-0.609-0.618-1.423-0.866-2.444-0.742L45.92,58.075z"/>
			<path fill="#05348C" d="M70.107,49.316c3.276-0.379,5.939,0.633,7.987,3.035c2.048,2.403,3.241,5.911,3.58,10.523
				c0.338,4.602-0.325,8.318-1.989,11.15c-1.664,2.833-4.134,4.44-7.411,4.819c-3.267,0.378-5.926-0.633-7.979-3.036
				c-2.053-2.401-3.249-5.902-3.586-10.503c-0.339-4.613,0.326-8.337,1.995-11.17C64.373,51.302,66.84,49.696,70.107,49.316z
				 M70.497,54.636c-1.598,0.185-2.778,1.155-3.542,2.909c-0.764,1.755-1.035,4.131-0.815,7.13c0.219,2.987,0.832,5.255,1.838,6.804
				c1.006,1.55,2.308,2.231,3.906,2.047c1.608-0.187,2.794-1.157,3.558-2.912c0.763-1.754,1.036-4.125,0.817-7.112
				c-0.221-2.999-0.834-5.273-1.84-6.823C73.412,55.131,72.105,54.449,70.497,54.636z"/>
			<path fill="#05348C" d="M91.171,65.288l0.745,10.776l-5.266,0.575l-1.968-28.474l8.028-0.876
				c2.691-0.294,4.705,0.121,6.042,1.243c1.336,1.123,2.099,3.044,2.287,5.765c0.13,1.882-0.087,3.462-0.651,4.74
				c-0.564,1.279-1.484,2.276-2.76,2.992c0.734,0.15,1.415,0.598,2.042,1.343c0.627,0.745,1.286,1.906,1.977,3.483l3.412,7.775
				l-5.6,0.611l-2.963-6.806c-0.604-1.369-1.182-2.285-1.734-2.75c-0.552-0.464-1.252-0.651-2.103-0.558L91.171,65.288z
				 M93.037,59.974c1.093-0.12,1.859-0.491,2.3-1.117c0.441-0.624,0.616-1.591,0.526-2.901c-0.089-1.297-0.394-2.198-0.913-2.706
				c-0.52-0.507-1.326-0.701-2.418-0.582l-2.216,0.242l0.505,7.305L93.037,59.974z"/>
			<path fill="#05348C" d="M102.544,46.211l18.799-1.908l0.356,5.553l-6.757,0.686l1.474,22.936l-5.269,0.535l-1.475-22.935
				l-6.772,0.688L102.544,46.211z"/>
			<path fill="#05348C" d="M138.526,43.649l0.343,6.034c-1.154-0.6-2.276-1.03-3.365-1.291c-1.089-0.26-2.11-0.348-3.062-0.263
				c-1.257,0.113-2.172,0.438-2.748,0.976c-0.575,0.538-0.833,1.316-0.776,2.334c0.043,0.764,0.28,1.341,0.709,1.731
				s1.189,0.689,2.281,0.899l2.27,0.43c2.315,0.432,3.986,1.254,5.012,2.467c1.026,1.213,1.607,3.016,1.743,5.409
				c0.179,3.145-0.355,5.543-1.6,7.196c-1.245,1.654-3.241,2.604-5.986,2.85c-1.296,0.116-2.605,0.061-3.927-0.166
				c-1.321-0.228-2.654-0.619-4-1.177l-0.353-6.206c1.362,0.851,2.665,1.466,3.908,1.847c1.244,0.381,2.432,0.521,3.567,0.419
				c1.145-0.103,2.008-0.449,2.591-1.039c0.583-0.589,0.846-1.38,0.79-2.374c-0.051-0.891-0.298-1.559-0.74-2.006
				c-0.443-0.446-1.298-0.805-2.566-1.075l-2.072-0.447c-2.071-0.428-3.618-1.268-4.641-2.52c-1.023-1.251-1.599-3.011-1.728-5.276
				c-0.161-2.838,0.373-5.081,1.603-6.727c1.23-1.646,3.071-2.579,5.523-2.798c1.125-0.102,2.286-0.087,3.485,0.042
				C135.987,43.048,137.232,43.292,138.526,43.649z"/>
			<path fill="#05348C" d="M144.959,42.139l6.71-0.402l5.236,14.999l4.107-15.559l6.696-0.401l1.083,28.549l-4.991,0.299
				l-0.792-20.881l-4.118,15.675l-3.348,0.2l-5.286-15.111l0.792,20.881l-5.006,0.3L144.959,42.139z"/>
			<path fill="#05348C" d="M184.491,40.808c3.285,0.208,5.808,1.684,7.563,4.427c1.756,2.744,2.542,6.429,2.355,11.056
				c-0.185,4.615-1.261,8.175-3.227,10.683c-1.967,2.508-4.593,3.658-7.88,3.45c-3.276-0.208-5.795-1.683-7.557-4.427
				c-1.761-2.744-2.549-6.423-2.364-11.037c0.186-4.627,1.265-8.194,3.236-10.701C178.591,41.75,181.214,40.6,184.491,40.808z
				 M184.276,46.143c-1.604-0.102-2.881,0.648-3.834,2.248c-0.955,1.601-1.492,3.905-1.613,6.914
				c-0.119,2.996,0.231,5.349,1.052,7.063c0.821,1.713,2.033,2.621,3.636,2.722c1.613,0.103,2.896-0.647,3.85-2.248
				c0.954-1.601,1.492-3.898,1.611-6.894c0.121-3.008-0.229-5.369-1.05-7.082C187.106,47.152,185.889,46.244,184.276,46.143z"/>
			<path fill="#05348C" d="M199.697,42.518l5.268,0.559l-1.147,17.072c-0.158,2.353,0.004,4.064,0.487,5.133
				c0.484,1.069,1.348,1.67,2.593,1.803c1.255,0.132,2.192-0.277,2.813-1.229c0.618-0.953,1.008-2.605,1.166-4.958l1.148-17.073
				l5.268,0.559l-1.148,17.073c-0.271,4.031-1.199,6.955-2.783,8.772c-1.586,1.817-3.86,2.568-6.825,2.253
				c-2.966-0.314-5.106-1.534-6.421-3.659c-1.314-2.124-1.836-5.202-1.564-9.234L199.697,42.518z"/>
			<path fill="#05348C" d="M220.307,44.743l18.771,2.307l-0.432,5.544l-6.746-0.829l-1.784,22.901l-5.261-0.646l1.783-22.901
				l-6.764-0.832L220.307,44.743z"/>
			<path fill="#05348C" d="M241.981,47.431l5.256,0.701l-0.915,10.832l7.741,1.033l0.916-10.832l5.241,0.7l-2.402,28.421
				l-5.241-0.699l1.018-12.05l-7.74-1.034l-1.02,12.05l-5.256-0.702L241.981,47.431z"/>
			<path fill="#05348C" d="M275.221,51.967l14.151,2.036l-0.504,5.535l-8.9-1.281l-0.481,5.288l8.371,1.205l-0.505,5.534
				l-8.37-1.204l-1.098,12.039l-5.251-0.756L275.221,51.967z"/>
			<path fill="#05348C" d="M307.934,83.96c-1.034,0.553-2.091,0.928-3.167,1.127c-1.077,0.2-2.182,0.215-3.311,0.047
				c-3.39-0.506-5.946-2.228-7.674-5.165s-2.377-6.668-1.949-11.192c0.428-4.537,1.756-7.979,3.982-10.326
				c2.227-2.348,5.034-3.269,8.424-2.763c1.128,0.168,2.198,0.508,3.209,1.019s1.967,1.187,2.869,2.028l-0.556,5.874
				c-0.891-1.071-1.787-1.892-2.689-2.464c-0.902-0.571-1.872-0.935-2.912-1.09c-1.875-0.28-3.427,0.337-4.653,1.851
				c-1.229,1.513-1.98,3.74-2.258,6.68c-0.277,2.928,0.041,5.308,0.951,7.14c0.91,1.832,2.305,2.888,4.18,3.168
				c1.04,0.156,2.051,0.088,3.034-0.203c0.983-0.29,2.009-0.825,3.074-1.604L307.934,83.96z"/>
		</g>
		<g>
			<g>
				<path fill="#05348C" d="M42.65,56.996l8.719-1.057c2.598-0.314,4.651,0.248,6.159,1.686c1.509,1.439,2.377,3.645,2.605,6.618
					c0.229,2.985-0.287,5.366-1.548,7.14c-1.262,1.775-3.191,2.82-5.79,3.135l-3.458,0.419l0.758,9.87l-5.262,0.639L42.65,56.996z
					 M48.32,61.675l0.611,7.946l2.896-0.351c1.021-0.124,1.783-0.566,2.286-1.325c0.503-0.76,0.706-1.774,0.608-3.045
					c-0.097-1.27-0.451-2.215-1.06-2.833c-0.609-0.618-1.423-0.866-2.444-0.742L48.32,61.675z"/>
				<path fill="#05348C" d="M72.507,52.917c3.276-0.379,5.939,0.633,7.987,3.035c2.048,2.403,3.241,5.911,3.58,10.523
					c0.338,4.602-0.325,8.318-1.989,11.15c-1.664,2.833-4.134,4.44-7.411,4.819c-3.267,0.378-5.926-0.633-7.979-3.036
					c-2.053-2.401-3.249-5.902-3.586-10.503c-0.339-4.613,0.326-8.337,1.995-11.17C66.772,54.902,69.24,53.296,72.507,52.917z
					 M72.897,58.236c-1.598,0.185-2.778,1.155-3.542,2.909c-0.764,1.755-1.035,4.131-0.815,7.13
					c0.219,2.987,0.832,5.255,1.838,6.804c1.006,1.55,2.308,2.231,3.906,2.047c1.608-0.187,2.794-1.157,3.558-2.912
					c0.763-1.754,1.036-4.125,0.817-7.112c-0.221-2.999-0.834-5.273-1.84-6.823C75.812,58.731,74.505,58.049,72.897,58.236z"/>
				<path fill="#05348C" d="M93.571,68.888l0.745,10.776l-5.266,0.575l-1.968-28.474l8.028-0.876
					c2.691-0.294,4.705,0.121,6.042,1.243c1.336,1.123,2.099,3.044,2.287,5.765c0.13,1.882-0.087,3.462-0.651,4.74
					c-0.564,1.279-1.484,2.276-2.76,2.992c0.734,0.15,1.415,0.598,2.042,1.343c0.627,0.745,1.286,1.906,1.977,3.483l3.412,7.775
					l-5.6,0.611l-2.963-6.806c-0.604-1.369-1.182-2.285-1.734-2.75c-0.552-0.464-1.252-0.651-2.103-0.558L93.571,68.888z
					 M95.437,63.574c1.093-0.12,1.859-0.491,2.3-1.117c0.441-0.624,0.616-1.591,0.526-2.901c-0.089-1.297-0.394-2.198-0.913-2.706
					c-0.52-0.507-1.326-0.701-2.418-0.582l-2.216,0.242l0.505,7.305L95.437,63.574z"/>
				<path fill="#05348C" d="M104.944,49.812l18.799-1.908l0.356,5.553l-6.757,0.686l1.474,22.936l-5.269,0.535l-1.475-22.935
					l-6.772,0.688L104.944,49.812z"/>
				<path fill="#05348C" d="M140.926,47.249l0.343,6.034c-1.154-0.6-2.276-1.03-3.365-1.291c-1.089-0.26-2.11-0.348-3.062-0.263
					c-1.257,0.113-2.172,0.438-2.748,0.976c-0.575,0.538-0.833,1.316-0.776,2.334c0.043,0.764,0.28,1.341,0.709,1.731
					s1.189,0.689,2.281,0.899l2.27,0.43c2.315,0.432,3.986,1.254,5.012,2.467c1.026,1.213,1.607,3.016,1.743,5.409
					c0.179,3.145-0.355,5.543-1.6,7.196c-1.245,1.654-3.241,2.604-5.986,2.85c-1.296,0.116-2.605,0.061-3.927-0.166
					c-1.321-0.228-2.654-0.619-4-1.177l-0.353-6.206c1.362,0.851,2.665,1.466,3.908,1.847c1.244,0.381,2.432,0.521,3.567,0.419
					c1.145-0.103,2.008-0.449,2.591-1.039c0.583-0.589,0.846-1.38,0.79-2.374c-0.051-0.891-0.298-1.559-0.74-2.006
					c-0.443-0.446-1.298-0.805-2.566-1.075l-2.072-0.447c-2.071-0.428-3.618-1.268-4.641-2.52c-1.023-1.251-1.599-3.011-1.728-5.276
					c-0.161-2.838,0.373-5.081,1.603-6.727c1.23-1.646,3.071-2.579,5.523-2.798c1.125-0.102,2.286-0.087,3.485,0.042
					C138.387,46.648,139.632,46.892,140.926,47.249z"/>
				<path fill="#05348C" d="M147.359,45.739l6.71-0.402l5.236,14.999l4.107-15.559l6.696-0.401l1.083,28.549l-4.991,0.299
					l-0.792-20.881l-4.118,15.675l-3.348,0.2l-5.286-15.111l0.792,20.881l-5.006,0.3L147.359,45.739z"/>
				<path fill="#05348C" d="M186.891,44.408c3.285,0.208,5.808,1.684,7.563,4.427c1.756,2.744,2.542,6.429,2.355,11.056
					c-0.185,4.615-1.261,8.175-3.227,10.683c-1.967,2.508-4.593,3.658-7.88,3.45c-3.276-0.208-5.795-1.683-7.557-4.427
					c-1.761-2.744-2.548-6.423-2.363-11.037c0.186-4.627,1.265-8.194,3.235-10.701C180.99,45.351,183.613,44.2,186.891,44.408z
					 M186.676,49.743c-1.604-0.102-2.881,0.648-3.834,2.248c-0.955,1.601-1.492,3.905-1.613,6.914
					c-0.119,2.996,0.231,5.349,1.052,7.063c0.821,1.713,2.033,2.621,3.636,2.722c1.613,0.103,2.896-0.647,3.85-2.248
					c0.954-1.601,1.492-3.898,1.611-6.894c0.121-3.008-0.229-5.369-1.05-7.082C189.506,50.752,188.288,49.844,186.676,49.743z"/>
				<path fill="#05348C" d="M202.097,46.118l5.268,0.559l-1.147,17.072c-0.158,2.353,0.004,4.064,0.487,5.133
					c0.484,1.069,1.348,1.67,2.593,1.803c1.255,0.132,2.192-0.277,2.813-1.229c0.618-0.953,1.008-2.605,1.166-4.958l1.148-17.073
					l5.268,0.559l-1.148,17.073c-0.271,4.031-1.199,6.955-2.783,8.772c-1.586,1.817-3.86,2.568-6.825,2.253
					c-2.966-0.314-5.106-1.534-6.421-3.659c-1.314-2.124-1.836-5.202-1.564-9.234L202.097,46.118z"/>
				<path fill="#05348C" d="M222.706,48.343l18.771,2.307l-0.432,5.544l-6.746-0.829l-1.784,22.901l-5.261-0.646l1.783-22.901
					l-6.764-0.832L222.706,48.343z"/>
				<path fill="#05348C" d="M244.381,51.031l5.256,0.701l-0.915,10.832l7.741,1.033l0.916-10.832l5.241,0.7l-2.402,28.421
					l-5.241-0.699l1.018-12.05l-7.74-1.034l-1.02,12.05l-5.256-0.702L244.381,51.031z"/>
				<path fill="#05348C" d="M277.62,55.567l14.151,2.036l-0.504,5.535l-8.9-1.281l-0.481,5.288l8.371,1.205l-0.505,5.534
					l-8.37-1.204l-1.098,12.039l-5.251-0.756L277.62,55.567z"/>
				<path fill="#05348C" d="M310.333,87.56c-1.034,0.553-2.091,0.928-3.167,1.127c-1.077,0.2-2.182,0.215-3.311,0.047
					c-3.39-0.506-5.946-2.228-7.674-5.165s-2.377-6.668-1.949-11.192c0.428-4.537,1.756-7.979,3.982-10.326
					c2.227-2.348,5.034-3.269,8.424-2.763c1.128,0.168,2.198,0.508,3.209,1.019s1.967,1.187,2.869,2.028l-0.556,5.874
					c-0.891-1.071-1.787-1.892-2.689-2.464c-0.902-0.571-1.872-0.935-2.912-1.09c-1.875-0.28-3.427,0.337-4.653,1.851
					c-1.229,1.513-1.98,3.74-2.258,6.68c-0.277,2.928,0.041,5.308,0.951,7.14c0.91,1.832,2.305,2.888,4.18,3.168
					c1.04,0.156,2.051,0.088,3.034-0.203c0.983-0.29,2.009-0.825,3.074-1.604L310.333,87.56z"/>
			</g>
			<g>
				<g>
					<path fill="#FFFFFF" d="M39.05,53.396l8.719-1.057c2.598-0.314,4.651,0.248,6.159,1.686c1.509,1.439,2.377,3.645,2.605,6.618
						c0.229,2.985-0.287,5.366-1.548,7.14c-1.262,1.775-3.191,2.82-5.79,3.135l-3.458,0.419l0.758,9.87l-5.262,0.639L39.05,53.396z
						 M44.72,58.075l0.611,7.946l2.896-0.351c1.021-0.124,1.783-0.566,2.286-1.325c0.503-0.76,0.706-1.774,0.608-3.045
						c-0.097-1.27-0.451-2.215-1.06-2.833c-0.609-0.618-1.423-0.866-2.444-0.742L44.72,58.075z"/>
					<path fill="#FFFFFF" d="M68.907,49.316c3.276-0.379,5.939,0.633,7.987,3.035c2.048,2.403,3.241,5.911,3.58,10.523
						c0.338,4.602-0.325,8.318-1.989,11.15c-1.664,2.833-4.134,4.44-7.411,4.819c-3.267,0.378-5.926-0.633-7.979-3.036
						c-2.053-2.401-3.249-5.902-3.586-10.503c-0.339-4.613,0.326-8.337,1.995-11.17C63.172,51.302,65.64,49.696,68.907,49.316z
						 M69.297,54.636c-1.598,0.185-2.778,1.155-3.542,2.909c-0.764,1.755-1.035,4.131-0.815,7.13
						c0.219,2.987,0.832,5.255,1.838,6.804c1.006,1.55,2.308,2.231,3.906,2.047c1.608-0.187,2.794-1.157,3.558-2.912
						c0.763-1.754,1.036-4.125,0.817-7.112c-0.221-2.999-0.834-5.273-1.84-6.823C72.212,55.131,70.905,54.449,69.297,54.636z"/>
					<path fill="#FFFFFF" d="M89.971,65.288l0.745,10.776l-5.266,0.575l-1.968-28.474l8.028-0.876
						c2.691-0.294,4.705,0.121,6.042,1.243c1.336,1.123,2.099,3.044,2.287,5.765c0.13,1.882-0.087,3.462-0.651,4.74
						c-0.564,1.279-1.484,2.276-2.76,2.992c0.734,0.15,1.415,0.598,2.042,1.343c0.627,0.745,1.286,1.906,1.977,3.483l3.412,7.775
						l-5.6,0.611l-2.963-6.806c-0.604-1.369-1.182-2.285-1.734-2.75c-0.552-0.464-1.252-0.651-2.103-0.558L89.971,65.288z
						 M91.836,59.974c1.093-0.12,1.859-0.491,2.3-1.117c0.441-0.624,0.616-1.591,0.526-2.901c-0.089-1.297-0.394-2.198-0.913-2.706
						c-0.52-0.507-1.326-0.701-2.418-0.582l-2.216,0.242l0.505,7.305L91.836,59.974z"/>
					<path fill="#FFFFFF" d="M101.344,46.211l18.799-1.908l0.356,5.553l-6.757,0.686l1.474,22.936l-5.269,0.535l-1.475-22.935
						l-6.772,0.688L101.344,46.211z"/>
					<path fill="#FFFFFF" d="M137.326,43.649l0.343,6.034c-1.154-0.6-2.276-1.03-3.365-1.291c-1.089-0.26-2.11-0.348-3.062-0.263
						c-1.257,0.113-2.172,0.438-2.748,0.976c-0.575,0.538-0.833,1.316-0.776,2.334c0.043,0.764,0.28,1.341,0.709,1.731
						s1.189,0.689,2.281,0.899l2.27,0.43c2.315,0.432,3.986,1.254,5.012,2.467c1.026,1.213,1.607,3.016,1.743,5.409
						c0.179,3.145-0.355,5.543-1.6,7.196c-1.245,1.654-3.241,2.604-5.986,2.85c-1.296,0.116-2.605,0.061-3.927-0.166
						c-1.321-0.228-2.654-0.619-4-1.177l-0.353-6.206c1.362,0.851,2.665,1.466,3.908,1.847c1.244,0.381,2.432,0.521,3.567,0.419
						c1.145-0.103,2.008-0.449,2.591-1.039c0.583-0.589,0.846-1.38,0.79-2.374c-0.051-0.891-0.298-1.559-0.74-2.006
						c-0.443-0.446-1.298-0.805-2.566-1.075l-2.072-0.447c-2.071-0.428-3.618-1.268-4.641-2.52
						c-1.023-1.251-1.599-3.011-1.728-5.276c-0.161-2.838,0.373-5.081,1.603-6.727c1.23-1.646,3.071-2.579,5.523-2.798
						c1.125-0.102,2.286-0.087,3.485,0.042C134.787,43.048,136.032,43.292,137.326,43.649z"/>
					<path fill="#FFFFFF" d="M143.759,42.139l6.71-0.402l5.236,14.999l4.107-15.559l6.696-0.401l1.083,28.549l-4.991,0.299
						l-0.792-20.881l-4.118,15.675l-3.348,0.2l-5.286-15.111l0.792,20.881l-5.006,0.3L143.759,42.139z"/>
					<path fill="#FFFFFF" d="M183.291,40.808c3.285,0.208,5.808,1.684,7.563,4.427c1.756,2.744,2.542,6.429,2.355,11.056
						c-0.185,4.615-1.261,8.175-3.227,10.683c-1.967,2.508-4.593,3.658-7.88,3.45c-3.276-0.208-5.795-1.683-7.557-4.427
						c-1.761-2.744-2.549-6.423-2.364-11.037c0.186-4.627,1.265-8.194,3.236-10.701C177.391,41.75,180.014,40.6,183.291,40.808z
						 M183.076,46.143c-1.604-0.102-2.881,0.648-3.834,2.248c-0.955,1.601-1.492,3.905-1.613,6.914
						c-0.119,2.996,0.231,5.349,1.052,7.063c0.821,1.713,2.033,2.621,3.636,2.722c1.613,0.103,2.896-0.647,3.85-2.248
						c0.954-1.601,1.492-3.898,1.611-6.894c0.121-3.008-0.229-5.369-1.05-7.082C185.906,47.152,184.688,46.244,183.076,46.143z"/>
					<path fill="#FFFFFF" d="M198.497,42.518l5.268,0.559l-1.147,17.072c-0.158,2.353,0.004,4.064,0.487,5.133
						c0.484,1.069,1.348,1.67,2.593,1.803c1.255,0.132,2.192-0.277,2.813-1.229c0.618-0.953,1.008-2.605,1.166-4.958l1.148-17.073
						l5.268,0.559l-1.148,17.073c-0.271,4.031-1.199,6.955-2.783,8.772c-1.586,1.817-3.86,2.568-6.825,2.253
						c-2.966-0.314-5.106-1.534-6.421-3.659c-1.314-2.124-1.836-5.202-1.564-9.234L198.497,42.518z"/>
					<path fill="#FFFFFF" d="M219.106,44.743l18.771,2.307l-0.432,5.544l-6.746-0.829l-1.784,22.901l-5.261-0.646l1.783-22.901
						l-6.764-0.832L219.106,44.743z"/>
					<path fill="#FFFFFF" d="M240.781,47.431l5.256,0.701l-0.915,10.832l7.741,1.033l0.916-10.832l5.241,0.7l-2.402,28.421
						l-5.241-0.699l1.018-12.05l-7.74-1.034l-1.02,12.05l-5.256-0.702L240.781,47.431z"/>
					<path fill="#FFFFFF" d="M274.021,51.967l14.151,2.036l-0.504,5.535l-8.9-1.281l-0.481,5.288l8.371,1.205l-0.505,5.534
						l-8.37-1.204l-1.098,12.039l-5.251-0.756L274.021,51.967z"/>
					<path fill="#FFFFFF" d="M306.733,83.96c-1.034,0.553-2.091,0.928-3.167,1.127c-1.077,0.2-2.182,0.215-3.311,0.047
						c-3.39-0.506-5.946-2.228-7.674-5.165s-2.377-6.668-1.949-11.192c0.428-4.537,1.756-7.979,3.982-10.326
						c2.227-2.348,5.034-3.269,8.424-2.763c1.128,0.168,2.198,0.508,3.209,1.019s1.967,1.187,2.869,2.028l-0.556,5.874
						c-0.891-1.071-1.787-1.892-2.689-2.464c-0.902-0.571-1.872-0.935-2.912-1.09c-1.875-0.28-3.427,0.337-4.653,1.851
						c-1.229,1.513-1.98,3.74-2.258,6.68c-0.277,2.928,0.041,5.308,0.951,7.14c0.91,1.832,2.305,2.888,4.18,3.168
						c1.04,0.156,2.051,0.088,3.034-0.203c0.983-0.29,2.009-0.825,3.074-1.604L306.733,83.96z"/>
				</g>
			</g>
		</g>
	</g>
</g>
</svg>
