<?xml version="1.0" encoding="utf-8"?>
<!-- Generator: Adobe Illustrator 13.0.2, SVG Export Plug-In . SVG Version: 6.00 Build 14948)  -->
<!DOCTYPE svg PUBLIC "-//W3C//DTD SVG 1.0//EN" "http://www.w3.org/TR/2001/REC-SVG-20010904/DTD/svg10.dtd">
<svg version="1.0" id="Layer_1" xmlns="http://www.w3.org/2000/svg" xmlns:xlink="http://www.w3.org/1999/xlink" x="0px" y="0px"
	 width="331.725px" height="331.725px" viewBox="0 0 331.725 331.725" enable-background="new 0 0 331.725 331.725"
	 xml:space="preserve">
<radialGradient id="SVGID_1_" cx="64.6309" cy="54.6133" r="219.2794" gradientUnits="userSpaceOnUse">
	<stop  offset="0" style="stop-color:#EDF3F7"/>
	<stop  offset="0.1076" style="stop-color:#E1EAEF"/>
	<stop  offset="0.3019" style="stop-color:#C1D1D9"/>
	<stop  offset="0.5608" style="stop-color:#8EAAB5"/>
	<stop  offset="0.8709" style="stop-color:#477385"/>
	<stop  offset="1" style="stop-color:#285B6F"/>
</radialGradient>
<circle fill="url(#SVGID_1_)" cx="165.862" cy="165.862" r="165.862"/>
<radialGradient id="SVGID_2_" cx="56.7871" cy="53.6328" r="300.8957" gradientUnits="userSpaceOnUse">
	<stop  offset="0" style="stop-color:#FFFFFF"/>
	<stop  offset="0.4324" style="stop-color:#FDFDFE"/>
	<stop  offset="0.6116" style="stop-color:#F6F8F9"/>
	<stop  offset="0.744" style="stop-color:#EAEEF0"/>
	<stop  offset="0.8534" style="stop-color:#D8E0E4"/>
	<stop  offset="0.9475" style="stop-color:#C1CED5"/>
	<stop  offset="1" style="stop-color:#B1C1CA"/>
</radialGradient>
<circle fill="url(#SVGID_2_)" cx="165.864" cy="165.86" r="158.286"/>
<radialGradient id="SVGID_3_" cx="74.9805" cy="77.4048" r="305.925" gradientUnits="userSpaceOnUse">
	<stop  offset="0" style="stop-color:#FCFDFE"/>
	<stop  offset="0.4924" style="stop-color:#70A9CB"/>
	<stop  offset="0.8989" style="stop-color:#0066A2"/>
</radialGradient>
<path fill="url(#SVGID_3_)" d="M309.385,122.854c3.148,10.494,5.173,21.472,5.938,32.797h-49.771
	c-1.187-11.635-4.382-22.684-9.228-32.797H309.385z M259.636,49.196c-25.591-20.521-58.072-32.804-93.427-32.804
	S98.373,28.675,72.781,49.196H259.636z M192.889,69.623c20.015,5.556,37.523,17.197,50.392,32.805h58.295
	c-5.572-11.871-12.658-22.888-21.013-32.805H192.889z M265.55,176.078c-1.188,11.636-4.384,22.685-9.231,32.798h53.063
	c3.149-10.494,5.176-21.473,5.94-32.798H265.55z M243.271,229.303c-12.878,15.614-30.402,27.259-50.435,32.807h87.715
	c8.356-9.917,15.445-20.935,21.02-32.807H243.271z M72.799,282.536c25.589,20.513,58.063,32.79,93.41,32.79
	s67.821-12.277,93.409-32.79H72.799z M66.866,155.651c1.187-11.635,4.381-22.684,9.227-32.797H23.032
	c-3.147,10.494-5.173,21.472-5.937,32.797H66.866z M76.099,208.876c-4.848-10.113-8.044-21.162-9.231-32.798H17.096
	c0.766,11.325,2.791,22.304,5.94,32.798H76.099z M89.147,229.303h-58.3c5.574,11.872,12.662,22.89,21.019,32.807h87.716
	C119.55,256.562,102.025,244.917,89.147,229.303z M89.138,102.427c12.868-15.607,30.377-27.249,50.392-32.805H51.854
	c-8.354,9.917-15.44,20.934-21.013,32.805H89.138z"/>
<radialGradient id="SVGID_4_" cx="91.8848" cy="104.8096" r="188.2146" gradientUnits="userSpaceOnUse">
	<stop  offset="0" style="stop-color:#BBD6EF"/>
	<stop  offset="0.1962" style="stop-color:#ACCCE9"/>
	<stop  offset="0.5765" style="stop-color:#83B2D9"/>
	<stop  offset="1" style="stop-color:#4F90C5"/>
</radialGradient>
<circle fill="url(#SVGID_4_)" cx="165.864" cy="165.862" r="96.239"/>
<g>
	<path fill-rule="evenodd" clip-rule="evenodd" fill="#003C7E" d="M232.425,282.652c-0.086-0.329-0.161-0.648-0.161-0.969
		c0-1.144,0.474-2.229,0.927-3.3c0.437-1.021,0.887-2.075,0.887-3.153c0-0.598-0.138-1.216-0.502-1.835
		c-0.814-1.419-2.606-2.425-5.148-0.954c-1.501,0.868-2.411,2.04-3.044,2.964l-0.109,0.168l1.587,1.412l0.154-0.227
		c0.516-0.807,1.144-1.638,2.206-2.249c0.677-0.393,1.596-0.647,2.177,0.343c0.495,0.858,0.08,1.8-0.443,2.985
		c-0.816,1.827-1.916,4.334-0.205,7.989l0.103,0.233l7.567-4.362l-1.137-1.959C237.282,279.739,232.943,282.338,232.425,282.652"/>
	<path fill-rule="evenodd" clip-rule="evenodd" fill="#003C7E" d="M191.704,286.926l-1.471,0.255
		c-0.096,0.044-3.648,2.572-3.648,2.572l-0.175,0.114l1.027,1.733c0,0,2.133-1.384,2.6-1.683c0.107,0.649,1.798,10.167,1.798,10.167
		l2.359-0.408l-2.257-12.788L191.704,286.926"/>
	<path fill-rule="evenodd" clip-rule="evenodd" fill="#003C7E" d="M218.146,283.677c-1.181,0.22-2.332,0.25-2.861-0.88
		c-0.147-0.326-0.161-0.677-0.037-1.026c0.151-0.423,0.509-0.779,0.989-1.006c1.034-0.488,1.923,0.016,2.267,0.744
		c0.107,0.24,0.151,0.48,0.151,0.712C218.654,282.753,218.4,283.257,218.146,283.677 M221.371,287.815
		c-0.189,0.509-0.642,0.969-1.253,1.251c-0.663,0.313-1.31,0.381-1.835,0.189c-0.415-0.152-0.742-0.465-0.962-0.938
		c-0.437-0.94,0.154-2.003,0.635-2.463c1.165-0.275,2.789-0.413,3.363,0.811C221.488,287.036,221.509,287.435,221.371,287.815z
		 M220.382,283.512c0.348-0.635,0.632-1.268,0.632-1.879c0-0.46-0.096-0.903-0.299-1.34c-0.371-0.787-1.062-1.414-1.886-1.721
		c-0.969-0.356-2.104-0.261-3.27,0.285c-1.31,0.611-2.213,1.501-2.593,2.556c-0.131,0.364-0.203,0.742-0.203,1.123
		c0,0.48,0.116,0.969,0.326,1.433c0.621,1.326,1.632,1.734,2.521,1.893c-0.524,0.745-0.83,1.494-0.83,2.243
		c0,0.481,0.103,0.955,0.321,1.422c0.983,2.112,3.123,2.651,5.73,1.433c1.463-0.69,2.462-1.659,2.885-2.81
		c0.138-0.393,0.203-0.787,0.203-1.179c0-0.512-0.109-1.014-0.336-1.508C222.973,284.158,221.873,283.488,220.382,283.512z"/>
	<path fill-rule="evenodd" clip-rule="evenodd" fill="#003C7E" d="M204.345,291.055c1.195-0.131,2.826-0.079,3.249,1.209
		c0.051,0.168,0.079,0.334,0.079,0.481c0,0.852-0.756,1.491-1.566,1.755c-0.697,0.227-1.354,0.217-1.841-0.037
		c-0.401-0.203-0.685-0.554-0.845-1.041C203.101,292.425,203.814,291.44,204.345,291.055 M204.798,288.915
		c-1.195,0.072-2.339-0.038-2.717-1.224c-0.11-0.343-0.087-0.693,0.079-1.02c0.205-0.401,0.598-0.715,1.115-0.89
		c0.481-0.158,0.945-0.131,1.347,0.072c0.371,0.198,0.656,0.532,0.794,0.948c0.059,0.182,0.086,0.35,0.086,0.516
		C205.502,287.946,205.147,288.485,204.798,288.915z M207.04,289.104c0.567-0.749,0.888-1.501,0.888-2.257
		c0-0.329-0.05-0.656-0.159-0.985c-0.525-1.594-2.287-2.912-4.938-2.044c-2.052,0.663-3.254,2.067-3.254,3.676
		c0,0.364,0.059,0.729,0.175,1.093c0.458,1.391,1.412,1.916,2.285,2.185c-0.721,0.793-1.144,1.631-1.144,2.514
		c0,0.35,0.059,0.697,0.175,1.062c0.722,2.215,2.782,3.002,5.514,2.112c2.264-0.729,3.582-2.257,3.582-3.984
		c0-0.371-0.051-0.749-0.182-1.127C209.545,290,208.497,289.271,207.04,289.104z"/>
	<path fill-rule="evenodd" clip-rule="evenodd" fill="#003C7E" d="M167.928,295.039c-1.15-0.635-2.147-1.181-2.147-2.134
		c0-1.115,1.328-1.201,1.729-1.201c0.873,0,1.783,0.275,2.705,0.838l0.35,0.203l0.028-2.397l-0.131-0.072
		c-0.611-0.319-1.631-0.698-3.048-0.698c-2.432,0-4.133,1.457-4.133,3.553c0,0.924,0.291,1.696,0.902,2.374
		c0.636,0.707,1.482,1.174,2.307,1.631c1.146,0.628,2.145,1.174,2.145,2.178c0,1.064-1.246,1.347-1.975,1.347
		c-1.194,0-2.163-0.553-2.633-0.88l-0.217-0.147l-1.058,1.909l0.18,0.117c1.16,0.742,2.407,1.113,3.8,1.113
		c2.643,0,4.479-1.515,4.479-3.686C171.212,296.836,169.473,295.875,167.928,295.039"/>
	<polyline fill-rule="evenodd" clip-rule="evenodd" fill="#003C7E" points="155.028,289.169 154.146,301.796 156.594,301.964 
		157.488,289.11 155.049,288.936 155.028,289.169 	"/>
	<path fill-rule="evenodd" clip-rule="evenodd" fill="#003C7E" d="M144.768,295.933c-0.18,0.903-0.507,1.515-1.008,1.865
		c-0.544,0.395-1.298,0.495-2.25,0.313c-0.861-0.166-1.473-0.539-1.821-1.1c-0.363-0.581-0.479-1.374-0.306-2.242l1.529-7.887
		l-2.386-0.465l-0.047,0.231l-1.505,7.749c-0.313,1.61-0.126,2.905,0.551,3.867c0.682,0.976,1.865,1.639,3.529,1.965
		c1.72,0.336,3.137,0.124,4.213-0.618c0.959-0.67,1.614-1.77,1.893-3.197l1.557-8.024l-2.399-0.458L144.768,295.933"/>
	<path fill-rule="evenodd" clip-rule="evenodd" fill="#003C7E" d="M128.012,285.789c0.724,0.241,1.23,0.619,1.482,1.123
		c0.126,0.233,0.188,0.502,0.188,0.794c0,0.24-0.037,0.487-0.121,0.742c-0.222,0.67-0.567,1.129-1.029,1.37
		c-0.469,0.24-1.057,0.247-1.753,0.014c0,0-0.364-0.117-0.604-0.196c0.129-0.38,1.182-3.634,1.308-4.021
		C127.706,285.696,128.012,285.789,128.012,285.789 M128.866,283.78l-3.039-0.997l-0.077,0.224l-3.907,12.039l2.327,0.756
		c0,0,1.237-3.792,1.365-4.193c0.208,0.065,0.477,0.153,0.477,0.153c3.186,1.041,5.286-0.563,5.942-2.593
		c0.376-1.15,0.329-2.229-0.131-3.139C131.298,285.02,130.28,284.232,128.866,283.78z"/>
	<path fill-rule="evenodd" clip-rule="evenodd" fill="#003C7E" d="M114.55,278.216l-5.151,11.564l6.51,2.892l0.882-1.974
		c0,0-3.886-1.732-4.269-1.9c0.149-0.35,1.202-2.703,1.358-3.051c0.38,0.159,3.686,1.639,3.686,1.639l0.877-1.975
		c0,0-3.303-1.478-3.681-1.646c0.149-0.35,1.088-2.438,1.237-2.796c0.388,0.175,3.639,1.632,3.639,1.632l1.587-1.676l-6.577-2.927
		L114.55,278.216"/>
	<path fill-rule="evenodd" clip-rule="evenodd" fill="#003C7E" d="M101.962,274.087c1.261,0.766,2.036,1.689,2.307,2.761
		c0.069,0.275,0.098,0.554,0.098,0.838c0,0.749-0.233,1.536-0.695,2.302c-0.483,0.808-1.333,1.827-2.64,2.154
		c-1.06,0.261-2.229,0.014-3.466-0.729c0,0-0.761-0.457-1.046-0.625c0.227-0.371,4.178-6.948,4.402-7.327
		C101.201,273.637,101.962,274.087,101.962,274.087 M103.066,272.208l-3.116-1.877l-0.116,0.203l-6.526,10.851l3.063,1.842
		c3.723,2.236,7.457,1.464,9.518-1.951c0.932-1.559,1.229-3.174,0.857-4.675C106.317,274.918,105.05,273.396,103.066,272.208z"/>
	<path fill-rule="evenodd" clip-rule="evenodd" fill="#003C7E" d="M275.039,188.99l-3.319,12.372l3.291,0.882
		c0,0,2.278-8.528,2.395-8.957c0.416,0.116,6.977,1.871,7.392,1.981c-0.116,0.429-2.089,7.776-2.089,7.776l3.254,0.859
		c0,0,1.96-7.341,2.084-7.771c0.406,0.117,6.438,1.732,6.853,1.835c-0.116,0.437-2.084,7.776-2.084,7.776l2.95,2.092l3.387-12.627
		l-24.055-6.438L275.039,188.99"/>
	<path fill-rule="evenodd" clip-rule="evenodd" fill="#003C7E" d="M289.757,165.134c-7.479-0.525-12.847,3.984-13.355,11.229
		c-0.182,2.541,0.32,5.053,1.478,7.464l0.089,0.182l3.064-0.924l-0.109-0.233c-0.866-1.907-1.251-3.919-1.128-5.812
		c0.166-2.388,1.106-4.384,2.715-5.788c1.771-1.546,4.334-2.288,7.195-2.085c2.782,0.191,5.2,1.312,6.788,3.14
		c1.442,1.661,2.119,3.802,1.951,6.189c-0.161,2.315-0.808,4.057-2.206,6.008l-0.247,0.336l3.8,0.306l0.079-0.109
		c0.48-0.707,1.631-2.724,1.879-6.27c0.25-3.582-0.771-6.801-2.948-9.308C296.603,166.917,293.391,165.381,289.757,165.134"/>
	<path fill-rule="evenodd" clip-rule="evenodd" fill="#003C7E" d="M274.764,141.299l16.384-2.591c0,0,1.34-0.264,2.236-0.438
		c-0.772,0.758-2.645,2.6-2.645,2.6l-13.777,14.331l0.539,3.387l24.598-3.896l-0.59-3.72l-15.904,2.518c0,0-1.347,0.248-2.277,0.416
		c0.69-0.611,1.449-1.412,2.672-2.672c0.087-0.096,13.355-13.873,13.355-13.873l-0.584-3.676l-0.23,0.042l-24.367,3.854
		L274.764,141.299"/>
	<path fill-rule="evenodd" clip-rule="evenodd" fill="#003C7E" d="M260.155,82.359c0,0-5.28-5.461-5.586-5.781
		c0.306-0.292,4.871-4.712,5.177-5.004c0.306,0.313,5.593,5.783,5.593,5.783l3.345-1.428l-9.103-9.429l-0.176,0.166l-17.74,17.136
		l2.614,2.708c0,0,7.553-7.289,7.865-7.602c0.313,0.32,5.593,5.789,5.593,5.789L260.155,82.359"/>
	<path fill-rule="evenodd" clip-rule="evenodd" fill="#003C7E" d="M231.965,46.197l-0.123,0.189l-13.07,20.929l11.054,6.904
		l1.799-2.877c0,0-7.478-4.675-7.858-4.916c0.227-0.364,3.83-6.131,4.057-6.489c0.371,0.233,6.824,4.262,6.824,4.262l1.776-2.848
		c0,0-6.444-4.028-6.824-4.259c0.227-0.364,3.54-5.66,3.767-6.017c0.378,0.226,6.822,4.262,6.822,4.262l2.861-2.222L231.965,46.197"
		/>
	<path fill-rule="evenodd" clip-rule="evenodd" fill="#003C7E" d="M156.16,45.644l-2.535-15.969l-0.233,0.035l-3.487,0.555
		l2.498,15.75c0.306,1.944,0.079,3.48-0.67,4.603c-0.808,1.15-2.245,1.893-4.28,2.212c-1.774,0.285-3.237-0.007-4.355-0.852
		c-1.494-1.113-2.059-2.979-2.275-4.353l-2.465-15.54l-3.716,0.588l2.469,15.622c0.5,3.13,1.684,5.38,3.532,6.698
		c1.827,1.253,4.269,1.639,7.266,1.172c3.214-0.516,5.548-1.769,6.934-3.728C156.122,50.631,156.577,48.286,156.16,45.644"/>
	<path fill-rule="evenodd" clip-rule="evenodd" fill="#003C7E" d="M284.127,116.067c0,0,1.494-0.115,2.426-0.182
		c-0.67,0.563-1.9,1.566-1.9,1.566s-4.53,3.954-5.637,4.922c-0.212-0.53-2.229-5.52-2.438-6.05
		C277.188,116.293,284.127,116.067,284.127,116.067 M272.942,133.231l19.521-18.357l-0.917-2.257h-0.158l-26.58,0.488l1.412,3.487
		c0,0,6.468-0.233,6.773-0.247c0.124,0.292,3.312,8.178,3.422,8.46c-0.227,0.212-4.98,4.691-4.98,4.691L272.942,133.231z"/>
	<path fill-rule="evenodd" clip-rule="evenodd" fill="#003C7E" d="M276.065,93.203c-0.168,0.917-0.735,1.755-1.673,2.401
		c-1.954,1.37-4.603,0.845-6.031-1.192c0,0-1.027-1.473-1.251-1.786c0.354-0.24,6.349-4.441,6.698-4.689
		c0.21,0.313,1.188,1.697,1.188,1.697c0.742,1.062,1.113,2.068,1.113,2.992C276.11,92.823,276.096,93.021,276.065,93.203
		 M268.938,98.7c2.636,1.587,5.593,1.587,8.004-0.093c1.58-1.109,2.563-2.556,2.847-4.194c0.364-2.047-0.321-4.311-2.04-6.759
		l-3.321-4.748l-0.195,0.131L254.03,97.185l2.157,3.095c0,0,7.928-5.555,8.292-5.81c0.22,0.313,1.274,1.812,1.274,1.812
		c0.023,0.058,0.037,0.133,0.037,0.233c0,1.013-1.318,4.077-3.225,8.514l-1.158,2.693l2.525,3.604l1.202-2.796
		C267.567,102.859,268.814,99.888,268.938,98.7z"/>
	<path fill-rule="evenodd" clip-rule="evenodd" fill="#003C7E" d="M208.271,39.57c2.885,0.99,4.864,2.563,5.897,4.668
		c0.495,1.034,0.752,2.178,0.752,3.387c0,1.069-0.191,2.199-0.591,3.342c-0.94,2.731-2.514,4.689-4.537,5.686
		c-2.061,1.006-4.572,1.013-7.45,0.023c0,0-2.168-0.751-2.556-0.875c0.154-0.437,5.754-16.697,5.898-17.126
		C206.064,38.805,208.271,39.57,208.271,39.57 M218.029,52.242c1.15-3.328,1.068-6.519-0.241-9.191
		c-1.463-3.029-4.393-5.308-8.659-6.78l-5.897-2.038l-0.079,0.227l-8.027,23.324l5.892,2.03
		C208.961,62.544,215.48,59.647,218.029,52.242z"/>
	<path fill-rule="evenodd" clip-rule="evenodd" fill="#003C7E" d="M169.26,43.239c0.416,0.03,3.321,0.241,3.321,0.241
		c2.651,0.189,4.377,1.646,4.377,3.678c0,0.079-0.007,0.175-0.015,0.254c-0.175,2.462-2.119,3.854-5.076,3.655
		c0,0-2.544-0.182-3.135-0.224C168.761,50.414,169.232,43.678,169.26,43.239 M172.231,40.051c0,0-2.154-0.154-2.73-0.196
		c0.03-0.422,0.459-6.649,0.494-7.072c0.395,0.021,2.542,0.175,2.542,0.175c2.586,0.182,3.86,1.464,3.714,3.7
		C176.075,39.031,174.052,40.175,172.231,40.051z M176.862,41.36c1.944-0.903,3.169-2.686,3.328-5.053
		c0.023-0.145,0.023-0.292,0.023-0.437c0-2.869-1.944-5.915-6.402-6.227l-7.336-0.516l-0.019,0.233l-1.722,24.605l6.856,0.481
		c2.955,0.203,5.308-0.422,6.967-1.872c1.392-1.202,2.229-2.964,2.376-4.959c0.007-0.152,0.015-0.313,0.015-0.458
		C180.949,44.238,178.96,42.126,176.862,41.36z"/>
	<path fill-rule="evenodd" clip-rule="evenodd" fill="#003C7E" d="M124.546,58.504c-0.166-0.423-7.704-20.07-7.704-20.07
		l-0.225,0.08l-3.298,1.267l8.928,23.251l11.997-4.607l-1.217-3.169C133.027,55.255,124.959,58.35,124.546,58.504"/>
	<path fill-rule="evenodd" clip-rule="evenodd" fill="#003C7E" d="M102.219,70.409c2.974,0.742,6.127,0.182,9.112-1.601
		c2.185-1.318,3.958-3.169,5.272-5.499l0.096-0.175l-2.514-1.988l-0.133,0.233c-1.06,1.806-2.483,3.27-4.108,4.245
		c-2.049,1.24-4.231,1.625-6.295,1.106c-2.292-0.574-4.369-2.233-5.837-4.696c-1.442-2.395-1.911-5.002-1.321-7.361
		c0.532-2.133,1.894-3.912,3.954-5.149c1.988-1.195,3.778-1.676,6.178-1.639l0.42,0.007l-1.93-3.291h-0.136
		c-0.858,0.014-3.172,0.224-6.218,2.054c-6.339,3.814-8.146,11.229-4.289,17.643C96.37,67.469,99.124,69.637,102.219,70.409"/>
	<path fill-rule="evenodd" clip-rule="evenodd" fill="#003C7E" d="M77.521,78.87c0,0,6.19,5.578,6.397,5.77
		c-0.177,0.763-0.697,1.979-2.17,3.611c-1.842,2.047-4.02,3.181-6.298,3.307c-2.359,0.124-4.737-0.838-6.895-2.775
		c-2.084-1.878-3.251-4.086-3.377-6.395c-0.116-2.278,0.821-4.593,2.724-6.698c1.445-1.608,3.363-2.848,5.847-3.772l0.357-0.138
		l-2.848-2.614l-0.136,0.056c-0.968,0.422-3.461,1.697-5.77,4.269c-5.303,5.891-4.98,13.341,0.789,18.532
		c2.654,2.397,5.858,3.62,9.03,3.452c3.182-0.168,6.144-1.667,8.552-4.348c2.371-2.628,3.736-5.737,4.22-7.777l0.03-0.131
		l-7.933-7.145L77.521,78.87"/>
	<path fill-rule="evenodd" clip-rule="evenodd" fill="#003C7E" d="M49.894,93.567l-1.664,3.116l14.221,7.567
		c0,0,1.319,0.663,2.171,1.085c-1.081,0.138-3.812,0.479-3.812,0.479c-0.156,0.023-19.043,3.039-19.043,3.039l-1.755,3.284
		l21.99,11.693l1.768-3.326l-14.644-7.786c0,0-1.261-0.611-2.043-0.989c1.067-0.145,3.669-0.488,3.669-0.488l19.625-3.16l1.61-3.03
		L49.999,93.362L49.894,93.567"/>
	<polyline fill-rule="evenodd" clip-rule="evenodd" fill="#003C7E" points="36.48,122.833 35.383,126.182 59.066,133.88 
		60.23,130.304 36.546,122.606 36.48,122.833 	"/>
	<path fill-rule="evenodd" clip-rule="evenodd" fill="#003C7E" d="M42.243,155.856c7.412,1.172,13.156-2.854,14.295-10.02
		c0.393-2.521,0.119-5.07-0.826-7.574l-0.069-0.182l-3.14,0.648l0.091,0.241c0.7,1.979,0.915,4.012,0.621,5.884
		c-0.376,2.367-1.487,4.281-3.209,5.534c-1.907,1.391-4.519,1.9-7.343,1.456c-5.455-0.866-8.704-5.001-7.898-10.057
		c0.364-2.301,1.155-3.975,2.719-5.788l0.271-0.313l-3.758-0.642l-0.084,0.103c-0.542,0.656-1.872,2.57-2.421,6.08
		C30.335,148.53,34.854,154.685,42.243,155.856"/>
	<path fill-rule="evenodd" clip-rule="evenodd" fill="#003C7E" d="M45.083,174.607c-0.581-0.188-7.187-2.346-7.187-2.346
		s-1.439-0.405-2.341-0.66c0.826-0.292,2.325-0.824,2.325-0.824s5.602-2.163,6.974-2.702
		C44.875,168.651,45.063,174.026,45.083,174.607 M54.896,177.885c0,0-6.15-1.981-6.446-2.075c-0.01-0.313-0.307-8.817-0.322-9.124
		c0.284-0.124,6.285-2.709,6.285-2.709l-0.136-4.019l-0.313,0.13L29.655,170.53l0.082,2.439l25.293,8.68L54.896,177.885z"/>
	<path fill-rule="evenodd" clip-rule="evenodd" fill="#003C7E" d="M37.119,198.034c0-2.498,1.753-3.363,2.932-3.655
		c1.083-0.271,2.208-0.109,3.168,0.474c1.018,0.604,1.729,1.602,2.035,2.796c0,0,0.396,1.595,0.524,2.12
		c-0.417,0.1-7.511,1.862-7.926,1.972c-0.091-0.371-0.502-2.003-0.502-2.003C37.185,199.099,37.119,198.528,37.119,198.034
		 M48.895,198.988c-0.098-0.371-0.537-2.149-0.537-2.149c0-0.756,2.453-3.268,6.167-7.076l1.993-2.047l-1.069-4.267l-0.289,0.299
		l-1.813,1.855c-4.355,4.472-6.562,6.787-7.081,7.844c-1.879-2.441-4.661-3.489-7.521-2.781c-4.278,1.068-5.984,4.688-4.682,9.931
		l1.402,5.622l24.161-6.021l-0.91-3.654C58.716,196.543,49.326,198.879,48.895,198.988z"/>
</g>
<g>
	<path fill="#003C7E" d="M173.739,228.567c-0.787,5.718-2.745,14.513-7.548,19.139c-5.286-3.088-7.371-13.001-8.167-19.167
		c-7.422,3.669-16.3,2.425-22.341-2.761c4.246,0.947,8.97,0.227,13.147-2.234c8.062-4.756,8.725-14.543,8.725-14.543l-0.03-34.946
		h-36.324c0,0-11.569,1.463-15.061,8.243c-2.171,4.239-3.289,8.608-2.313,12.699c-5.352-5.818-6.64-14.367-2.875-21.533
		c-5.929-0.756-15.033-2.648-19.83-7.289c3.2-5.098,13.467-7.114,19.851-7.88c-3.797-7.165-2.512-15.743,2.854-21.575
		c-0.976,4.091-0.229,8.666,2.313,12.692c4.922,7.784,15.061,8.425,15.061,8.425l36.317-0.03l-0.038-37.218
		c-0.945-4.871-4.532-9.679-8.636-12.41c-4.025-2.679-8.901-3.181-13.146-2.233c6.033-5.187,14.897-6.43,22.319-2.775
		c0.813-5.623,2.824-14.461,7.695-19.152c5.266,3.066,7.35,12.911,8.15,19.087c7.392-3.562,16.181-2.301,22.165,2.841
		c-4.229-0.948-9.116-0.446-13.143,2.233c-4.035,2.689-7.56,6.838-8.535,12.176v37.444l38.385-0.035
		c5.046-0.919,10.013-4.378,12.844-8.339c2.775-3.888,3.291-8.607,2.315-12.699c5.361,5.826,6.643,14.396,2.864,21.555
		c5.825,0.786,14.977,2.73,19.843,7.443c-3.184,5.074-13.371,7.084-19.771,7.87c3.692,7.131,2.395,15.621-2.937,21.41
		c0.976-4.092,0.46-8.812-2.315-12.699c-2.782-3.896-7.086-7.304-12.597-8.251h-38.632v34.946c0,0,1.508,11.171,8.528,14.543
		c4.384,2.097,8.904,3.182,13.143,2.234C190,230.957,181.145,232.201,173.739,228.567"/>
	<path fill="#FFFFFF" d="M233.452,160.984c-0.842-0.848-2.121-2.165-2.685-2.701c-0.003,0-0.006-0.001-0.009-0.001
		c0.001-0.001,0.002-0.003,0.002-0.005c0-0.001-0.001-0.002-0.002-0.002c0.003-0.003,0.005-0.006,0.008-0.01
		c2.912-5.529,2.796-11.893,0.126-17.188c0.495,3.675-0.209,7.675-2.625,11.06c-2.826,3.96-7.793,7.419-12.839,8.337l-38.392,0.037
		l-2.68-2.709l0,0h-0.007v-37.444c0.976-5.338,4.5-9.487,8.535-12.176c3.381-2.25,7.366-2.949,11.062-2.559
		c-5.383-2.437-11.791-2.512-17.391,0.192c-0.894-0.813-1.549-1.606-2.617-2.741c-0.025,0.012-0.051,0.021-0.076,0.033
		c-0.636-4.903-2.087-12.108-5.291-16.409c-0.024-0.015-0.044-0.034-0.068-0.048c-4.873,4.689-6.98,13.609-7.798,19.232
		c-5.762-2.842-12.394-2.711-17.897-0.085c2.096,0.376,4.159,1.135,6.036,2.384c1.602,1.066,3.122,2.451,4.44,4.03
		c3.34,2.81,6.079,6.912,6.887,11.08l0.037,37.227l-36.316,0.028c0,0-9.028-0.573-14.18-7.18c-1.322-1.054-2.559-2.35-3.572-3.953
		c-1.215-1.924-2.008-3.974-2.41-6.036c-2.881,5.383-3.075,11.942-0.066,17.622c-6.202,0.75-16.027,2.667-19.529,7.45
		c4.561,2.751,10.748,4.139,15.479,4.831c0.092,0.014,0.185,0.026,0.275,0.041c0.363,0.052,0.719,0.1,1.063,0.144
		c-0.01,0.018-0.017,0.036-0.026,0.055c0.76,0.815,1.845,1.814,2.708,2.655c-2.913,5.553-2.779,11.941-0.078,17.243
		c-0.399-3.625,0.691-7.421,2.585-11.119c3.491-6.78,15.061-8.243,15.061-8.243h36.324v0.021l2.69,2.689l0.028,34.946
		c0,0-0.663,9.786-8.715,14.534c-3.511,2.071-7.419,2.899-11.093,2.551c5.444,2.475,11.937,2.537,17.588-0.257
		c0.001,0.008,0.003,0.017,0.004,0.024c0.65,0.694,2.042,2.098,2.689,2.676c0.621,4.802,2.027,11.86,5.108,16.216
		c0.123,0.081,0.238,0.177,0.365,0.251c4.803-4.626,6.761-13.421,7.548-19.139c5.88,2.885,12.669,2.686,18.232-0.107
		c-2.136-0.427-4.285-1.198-6.399-2.215c-1.736-0.833-3.135-2.145-4.259-3.646c-5.681-4.134-6.963-13.598-6.963-13.598v-34.946
		h38.632c4.867,0.837,8.791,3.595,11.559,6.911c1.442,1.214,2.69,2.597,3.727,4.049c1.313,1.835,2.104,3.854,2.49,5.905
		c2.783-5.307,2.97-11.731,0.073-17.325c6.216-0.764,15.984-2.69,19.459-7.449C245.238,163.062,238.229,161.635,233.452,160.984z"/>
</g>
</svg>
