<?xml version="1.0" encoding="utf-8"?>
<!-- Generator: Adobe Illustrator 13.0.2, SVG Export Plug-In . SVG Version: 6.00 Build 14948)  -->
<!DOCTYPE svg PUBLIC "-//W3C//DTD SVG 1.1 Tiny//EN" "http://www.w3.org/Graphics/SVG/1.1/DTD/svg11-tiny.dtd">
<svg version="1.1" baseProfile="tiny" id="HQFL" xmlns="http://www.w3.org/2000/svg" xmlns:xlink="http://www.w3.org/1999/xlink"
	 x="0px" y="0px" width="551.147px" height="551.145px" viewBox="0 0 551.147 551.145" xml:space="preserve">
<circle fill="#004494" cx="275.573" cy="275.573" r="275.573"/>
<circle fill="#FFFFFF" cx="275.572" cy="275.573" r="181.877"/>
<path fill="#004494" d="M428.208,344.664c-2.375-11.285-5.939-17.817-8.314-29.103c-2.376-11.284-5.939-46.324-5.939-46.324
	s-3.563-27.319-8.908-58.203s-29.102-32.665-41.573-32.665c-12.473,0-20.787-0.594-50.482,0.594
	c-29.696,1.188-43.356,1.188-57.61-1.188c-14.254-2.376-38.01-2.97-38.01-2.97s-28.507,2.375-35.04,3.563
	c-4.557,0.828-11.412,1.655-15.152,2.081l-1.932-9.254c4.982-1.257,9.66-3.485,9.66-7.378c0-7.72-18.708-7.72-18.708-7.72
	s-19.005,0-19.005,8.314c0,7.556,11.501,8.243,15.609,8.307l52.795,266.812c5.52,2.36,11.182,4.438,16.972,6.238l-17.423-83.455
	l3.315-1.021c12.472-5.938,67.706-4.751,81.959-0.594c14.255,4.156,33.854,4.751,55.233,3.563
	c21.383-1.188,53.452-0.594,63.549,0.593c10.097,1.188,22.568,1.188,22.568,1.188S430.583,355.947,428.208,344.664z
	 M201.981,347.154l-32.129-153.891l3.568,0.548c10.096,5.939,17.643,22.314,21.38,38.01c4.224,17.733,11.878,30.883,14.254,36.229
	c2.375,5.345,4.157,5.345,4.751,37.416C214.217,327.656,206.673,341.019,201.981,347.154z"/>
<path fill="#FFFFFF" d="M291.609,204.501c0,0,15.441-1.188,27.32-2.376c11.878-1.188,41.573-4.751,68.893,1.188
	c0,0,10.097,1.188,11.284,12.769s0.891,15.738,0.891,15.738s-16.035-1.782-22.865-3.563s-34.446-3.563-51.669-0.296
	c-17.225,3.267-23.757,2.078-23.757,2.078s-5.048,0.297-6.235-4.751S291.609,204.501,291.609,204.501z"/>
<path fill="#FFFFFF" d="M207.57,249.638c0,0,2.375,13.66,10.393,21.975c0,0,13.066-0.297,19.6-1.188
	c6.533-0.891,24.35-1.484,40.683,1.485c16.333,2.97,29.992,1.781,41.277,0.297c11.284-1.485,26.727-1.188,42.761,0
	c16.036,1.188,32.962,2.673,43.949,2.673l-2.078-21.975c0,0-17.817-0.89-34.743-4.454c-16.928-3.563-32.07-3.86-48.403,0.297
	s-31.181,3.267-43.061,1.188C266.07,247.856,231.029,245.778,207.57,249.638z"/>
<path fill="#FFFFFF" d="M220.339,290.618l0.297,26.132c0,0,7.127,3.563,19.896,0.296c12.769-3.265,34.744-1.188,54.64,2.97
	c19.897,4.158,35.932,3.267,54.342-0.891c18.412-4.157,48.107-0.89,63.845,4.157l-4.75-26.429c0,0-26.43,0.891-43.059-1.782
	c-16.629-2.673-21.975-5.048-39.495-0.593c-17.52,4.455-28.21,3.563-38.604,1.485c-10.394-2.079-17.818-5.939-35.636-4.751
	C233.999,292.399,220.339,290.618,220.339,290.618z"/>
<path fill="#FFFFFF" d="M207.868,356.245c0,0,8.018-15.738,10.393-24.647c0,0,4.455,2.969,15.738,1.781
	c11.284-1.188,30.29-1.485,47.214,1.188c16.929,2.673,37.121,5.345,63.848,0.891c26.726-4.454,73.05,5.939,73.05,5.939l6.83,20.786
	c0,0-15.738-3.859-52.858-3.859c0,0-25.833,0-46.324,1.188c-20.49,1.188-32.665-2.97-32.665-2.97s-26.726-5.643-48.404-5.048
	C223.012,352.087,207.868,356.245,207.868,356.245z"/>
<path fill="#FFFFFF" d="M208.164,243.996c0,0,20.787-2.375,35.634-2.375s41.276,2.375,49.89,4.157c0,0-0.891-17.817-7.722-32.071
	c-6.83-14.254-5.346-29.992-5.346-29.992s-21.083-0.297-38.604-3.86c-17.521-3.563-48.107,0.297-65.924,4.751
	c0,0,0.594,5.049,5.346,8.909c4.751,3.861,14.407,12.421,18.708,31.774C203.116,238.651,208.164,243.996,208.164,243.996z"/>
<path fill="#004494" d="M202.212,191.733l2.406-0.092c1.529-0.058,2.571,0.673,2.886,2.136c0.314,1.462-0.431,2.26-1.926,2.318
	l-2.406,0.091L202.212,191.733z M200.429,208.12c0.372,1.729,1.848,2.643,3.213,2.591l6.536-0.248
	c5.689-0.217,7.333-3.697,6.524-7.452c-0.637-2.958-2.951-5.183-5.902-5.64c0.962-0.706,2.313-2.198,1.791-4.625
	c-0.788-3.656-3.834-6.085-7.833-5.934l-6.21,0.236c-1.365,0.051-2.427,1.063-2.054,2.792L200.429,208.12z M204.202,200.972
	l3.315-0.126c1.561-0.06,3.323,0.51,3.709,2.305c0.386,1.796-0.908,2.481-2.665,2.547l-3.316,0.126L204.202,200.972z"/>
<path fill="#004494" d="M216.045,189.104c-0.375-1.895,0.545-2.882,2.078-2.914c1.533-0.031,2.833,0.909,3.207,2.805l3.165,16.027
	l5.677-0.116c1.665-0.035,2.828,0.876,3.136,2.439c0.295,1.497-0.487,2.514-2.15,2.549l-8.321,0.17
	c-1.37,0.028-2.833-0.91-3.175-2.639L216.045,189.104z"/>
<path fill="#004494" d="M241.25,193.668c1.342-0.004,2.315,0.859,2.554,2.19c0.237,1.331-0.426,2.197-1.77,2.199l-7.727,0.019
	c-1.342,0.002-2.315-0.859-2.553-2.19c-0.238-1.331,0.427-2.197,1.768-2.201L241.25,193.668z"/>
<path fill="#004494" d="M244.899,191.138c-0.259-0.705-0.779-1.882-0.901-2.779c-0.193-1.429,0.7-2.583,2.314-2.519
	c1.748,0.068,2.616,1.161,3.091,2.502l4.462,12.869l0.066,0.002l2.18-12.242c0.38-2.035,1.208-2.696,2.626-2.64
	c1.417,0.057,2.434,0.791,3.372,2.876l5.532,12.548l0.066,0.003l1.009-12.653c0.117-1.318,0.699-2.353,2.445-2.283
	c1.615,0.064,2.832,1.302,3.024,2.73c0.122,0.897-0.083,2.046-0.153,2.738l-1.578,14.514c-0.276,2.567-0.643,3.975-3.213,3.873
	c-2.044-0.082-3.304-1.156-4.19-3.108l-4.893-10.968l-0.066-0.003l-1.962,10.698c-0.366,1.902-1.347,2.888-3.39,2.808
	c-2.571-0.102-3.324-1.553-4.301-4.17L244.899,191.138z"/>
<path fill="#004494" d="M232.417,222.951c0.288,1.63-0.831,3.026-2.492,3.026c-1.663,0-3.274-1.396-3.56-3.026
	c-0.288-1.629,0.83-3.027,2.493-3.027C230.519,219.924,232.129,221.321,232.417,222.951z M237.982,222.817
	c-0.845-4.79-4.786-8.082-10.041-8.082c-5.088,0-7.98,3.591-7.166,8.215c0.657,3.725,4.035,7.417,7.96,7.417
	c0.998,0,1.579-0.1,2.047-0.267l0.08,0.067c-1.8,3.558-4.148,4.956-3.837,6.717c0.158,0.898,1.255,2.595,3.051,2.595
	c1.298,0,2.045-0.666,5.162-5.621C237.056,230.966,238.738,227.108,237.982,222.817z"/>
<path fill="#004494" d="M245.223,227.108c-0.522-2.96-0.303-7.184,3.056-7.184c3.36,0,5.068,4.224,5.59,7.184
	c0.522,2.96,0.303,7.184-3.056,7.184C247.454,234.292,245.745,230.068,245.223,227.108z M239.635,227.108
	c1.096,6.219,5.275,12.372,12.093,12.372c6.817,0,8.827-6.153,7.729-12.372c-1.096-6.22-5.274-12.372-12.092-12.372
	S238.539,220.888,239.635,227.108z"/>
<path fill="#FFFFFF" d="M86.34,380.744c3.408-1.686,9.04-6.731,2.922-20.084c-3.316-7.239-8.475-14.619-15.041-11.611
	c-4.838,2.218-3.611,8.313-1.617,16.775l2.042,8.561c3.084,12.895,6.069,25.34-7.581,31.593c-6.911,3.167-21.1,4.364-31.981-19.388
	c-10.275-22.425-0.591-34.141,6.964-37.725l6.725,14.679c-2.577,1.675-8.583,5.906-2.464,19.26
	c2.662,5.812,7.652,11.91,13.268,9.337c4.838-2.215,3.726-7.379,2.93-10.716l-4.458-19.54c-2.504-10.938-3.251-21.696,7.893-26.802
	c18.659-8.55,30.576,13.125,33.519,19.547c12.237,26.707,1.293,37.271-6.396,40.795L86.34,380.744z"/>
<path fill="#FFFFFF" d="M46.824,311.288l-19.946,2.042l-1.358-13.274c-1.062-10.375,1.235-15.005,7.852-15.683
	c3.024-0.309,10.588-1.082,11.866,11.41L46.824,311.288z M58.547,310.09l-1.964-19.187c-2.203-21.53-18.117-23.958-24.261-23.33
	c-13.329,1.365-20.783,11.595-19.197,27.099l3.744,36.588l67.874-6.945l-1.711-16.731L58.547,310.09z"/>
<path fill="#FFFFFF" d="M81.09,262.277l-0.438,14.248l-13.866-0.426l0.438-14.248L81.09,262.277z"/>
<path fill="#FFFFFF" d="M21.576,204.793l3.539-17.131l61.282,40.599l-3.245,15.703l-72.308,12.771l3.653-17.681l54.118-6.45
	l0.046-0.221L21.576,204.793z"/>
<path fill="#FFFFFF" d="M77.74,155.148l17.179-28.92l31.618,18.781l-5.727,9.64l-8.211-2.921c1.418,5.799,3.578,14.255-3.924,26.884
	c-9.906,16.678-29.027,25.795-49.615,13.565c-16.012-9.513-24.885-28.999-10.946-52.279c12.599-21.209,29.264-22.655,37.81-18.622
	l-8.59,14.46c-2.287-1.359-12.559-0.81-18.63,9.409c-6.128,10.314-5.75,23.45,9.281,32.379c16.014,9.512,26.307,1.671,32.148-8.162
	c1.89-3.18,7.127-14.415-2.944-24.442l-9.563,16.1L77.74,155.148z"/>
<path fill="#FFFFFF" d="M141.486,134.098l-9.978,10.178l-9.907-9.713l9.978-10.177L141.486,134.098z"/>
<path fill="#FFFFFF" d="M142.205,93.875l18.101-11.446c5.119-3.236,11.455-4.543,14.654,0.517c3.707,5.863,1.352,10.95-5.567,15.324
	l-17.439,11.025L142.205,93.875z M144.604,127.884l28.812-18.218c13.931-8.807,16.357-13.152,18.211-18.823
	c1.722-5.248,1.255-11.024-1.64-15.602c-3.606-5.702-9.34-9.947-19.356-7.324c2.081-3.002,6.106-8.808,0.874-17.08
	c-3.757-5.944-13.608-12.082-30.288-1.536l-33.077,20.913L144.604,127.884z M128.086,71.546l16.301-10.307
	c6.445-4.075,11.339-5.146,14.334-0.407c2.895,4.578-0.391,9.242-5.983,12.777L136.06,84.156L128.086,71.546z"/>
<path fill="#FFFFFF" d="M218.142,76.301l38.914-9.384l2.896,12.008l-55.265,13.327l-15.995-66.326l16.35-3.943L218.142,76.301z"/>
<path fill="#FFFFFF" d="M303.516,29.501l0.222,0.025l6.886,27.938l-20.393-2.305L303.516,29.501z M284.454,66.365l29.525,3.337
	l3.543,14.554l18.161,2.052l-20.521-70.982l-19.278-2.179l-36.186,64.572l17.604,1.99L284.454,66.365z"/>
<path fill="#FFFFFF" d="M398.739,92c-7.715,16.217-22.568,17.677-40.89,8.958c-6.688-3.18-15.958-9.273-19.534-18.448
	c-2.153-5.655-1.305-11.354,1.428-17.628l19.433-40.845l15.493,7.37l-19.023,39.988c-4.083,8.58-0.006,15.15,7.08,18.522
	c10.43,4.961,16.728,2.694,20.276-4.771l19.311-40.588l15.493,7.37L398.739,92z"/>
<path fill="#FFFFFF" d="M410.187,107.513l-10.589-7.971l7.424-9.87l10.594,7.97L410.187,107.513z"/>
<path fill="#FFFFFF" d="M443.097,66.48l11.609,13.677c-21.799,32.032-24.764,35.876-29.766,42.029l0.149,0.171
	c6.375-3.5,12.462-7.049,45.289-23.736l11.535,13.593c-22.447,31.409-24.693,34.345-30.27,41.431l0.147,0.17
	c5.795-3.155,11.159-5.942,46.523-22.282l11.029,12.994l-66.675,26.884l-10.45-12.31c20.134-27.972,24.263-33.387,32.518-43.924
	l-0.144-0.171c-11.596,6.605-16.235,8.776-48.627,24.946l-10.156-11.967L443.097,66.48z"/>
<path fill="#FFFFFF" d="M521.326,216.188l-14.94-40.022l-13.441,5.017l13.72,36.768l-11.302,4.221l-13.727-36.768l-16.559,6.182
	l15.607,41.809l-11.307,4.22l-21.371-57.251l63.919-23.858l20.702,55.465L521.326,216.188z"/>
<path fill="#FFFFFF" d="M469.741,257.821l-2.233-16.669l67.622-9.055l2.231,16.671L469.741,257.821z"/>
<path fill="#FFFFFF" d="M492.006,278.351c-3.795-0.229-11.191,1.357-12.506,15.988c-0.713,7.927,0.104,16.896,7.295,17.543
	c5.299,0.476,7.262-5.426,9.729-13.761l2.478-8.445c3.722-12.726,7.309-25.012,22.258-23.667
	c7.573,0.682,20.485,6.686,18.148,32.704c-2.215,24.57-16.436,29.932-24.773,29.294l1.447-16.082
	c3.067-0.175,10.38-0.866,11.697-15.496c0.57-6.365-0.732-14.139-6.88-14.692c-5.305-0.477-6.901,4.56-7.865,7.849l-5.827,19.176
	c-3.258,10.741-7.949,20.451-20.156,19.354c-20.443-1.841-20.031-26.571-19.395-33.607c2.63-29.259,17.376-32.999,25.797-32.241
	L492.006,278.351z"/>
<path fill="#FFFFFF" d="M479.744,347.608c-3.518-1.441-11.03-2.32-16.992,11.103c-3.229,7.277-5.345,16.028,1.253,18.959
	c4.863,2.159,8.625-2.796,13.646-9.891l5.066-7.196c7.624-10.849,14.979-21.322,28.697-15.229
	c6.951,3.086,17.238,12.929,6.635,36.808c-10.007,22.546-25.198,23.039-32.888,19.747l6.553-14.758
	c2.96,0.824,10.11,2.524,16.067-10.898c2.594-5.841,3.865-13.62-1.781-16.126c-4.863-2.159-7.999,2.09-9.972,4.895l-11.696,16.278
	c-6.543,9.117-14.111,16.798-25.316,11.822c-18.759-8.329-10.397-31.607-7.529-38.063c11.92-26.849,27.082-25.638,34.808-22.207
	L479.744,347.608z"/>
<path fill="#FFFFFF" d="M122.269,416.34l1.412,1.272c9.533,8.584,16.526,5.932,20.107,2.379l8.122,7.313l-45.146,50.137
	l-9.887-8.902l31.095-34.531l-11.934-10.746L122.269,416.34z"/>
<path fill="#FFFFFF" d="M166.786,470.147c-4.973-2.788-5.403-8.041-3.452-11.523c2.418-4.308,6.827-5.758,12.048-2.83
	c3.73,2.092,5.216,6.631,2.705,11.105C175.716,471.126,171.344,472.707,166.786,470.147z M177.282,499.027
	c4.277-7.627,3.219-13.123-0.835-19.102c6.118,0.162,10.608-2.984,13.443-8.04c4.557-8.122,2.136-18.96-10.047-25.791
	c-10.276-5.766-21.709-4.225-27.333,5.805c-3.068,5.47-2.674,10.592,0.666,15.518c-11.275-0.878-15.646,6.913-17.319,9.897
	c-4.51,8.038-4.82,20.831,10.347,29.337C161.784,515.391,173.098,506.484,177.282,499.027z M165.069,492.826
	c-2.278,4.063-7.527,7.981-13.578,4.59c-5.304-2.976-6.444-8.52-3.283-14.154c3.58-6.381,9.174-6.84,13.401-4.469
	C168.074,482.42,167.393,488.683,165.069,492.826z"/>
<path fill="#FFFFFF" d="M203.848,481.589c2.744-9.297,9.153-9.188,12.434-8.22c6.562,1.938,8.406,7.438,6.226,14.819
	c-2.26,7.653-8.124,9.391-12.59,8.073C205.088,494.836,200.968,491.339,203.848,481.589z M183.995,506.54
	c-1.948,10.621,4.098,19.342,15.125,22.6c11.666,3.444,25.908-1.168,33.309-26.229c2.691-9.115,9.458-33.373-12.96-39.994
	c-12.668-3.74-24.235,0.871-28.917,16.727c-3.203,10.846,1.225,22.36,13.619,26.02c4.375,1.291,9.71,1.679,13.917-1.837l0.129,0.238
	c-4.101,13.553-10.706,16.457-15.992,14.896c-3.918-1.157-6.177-3.905-5.588-8.586l0.027-0.09L183.995,506.54z"/>
<path fill="#FFFFFF" d="M250.804,504.538c1.129-17.354,3.641-23.759,11.228-23.265c7.586,0.495,9.246,7.171,8.117,24.523
	c-1.13,17.354-3.648,23.857-11.235,23.363C251.327,528.666,249.673,521.891,250.804,504.538z M237.148,503.649
	c-1.538,23.613,5.237,35.1,21.074,36.131c15.835,1.031,24.042-9.48,25.579-33.091c1.538-23.613-5.243-35.006-21.079-36.035
	C246.887,469.621,238.686,480.039,237.148,503.649z"/>
<path fill="#FFFFFF" d="M348.225,470.991l-35.24,8.309l3.295,13.966l32.367-7.633l2.77,11.746l-32.367,7.634l4.056,17.204
	l36.809-8.682l2.77,11.746l-50.408,11.885l-15.654-66.407l48.834-11.513L348.225,470.991z"/>
<path fill="#FFFFFF" d="M388.513,513.216l-13.028,5.777l-5.624-12.684l13.034-5.775L388.513,513.216z"/>
<path fill="#FFFFFF" d="M398.387,427.453l12.203-8.416l19.654,69.326l-11.187,7.717l-57.67-43.104l12.593-8.688l41.397,34.243
	l0.158-0.11L398.387,427.453z"/>
<path fill="#FFFFFF" d="M457.263,465.816l-10.57,9.563l-9.308-10.288l10.57-9.563L457.263,465.816z"/>
</svg>
