<?xml version="1.0" encoding="utf-8"?>
<!-- Generator: Adobe Illustrator 13.0.0, SVG Export Plug-In . SVG Version: 6.00 Build 14948)  -->
<!DOCTYPE svg PUBLIC "-//W3C//DTD SVG 1.0//EN" "http://www.w3.org/TR/2001/REC-SVG-20010904/DTD/svg10.dtd">
<svg version="1.0" id="Ebene_1" xmlns="http://www.w3.org/2000/svg" xmlns:xlink="http://www.w3.org/1999/xlink" x="0px" y="0px"
	 width="273.209px" height="273.209px" viewBox="0 0 273.209 273.209" enable-background="new 0 0 273.209 273.209"
	 xml:space="preserve">
<path fill-rule="evenodd" clip-rule="evenodd" fill="#FFFFFF" d="M136.604,267.274c71.97,0,130.669-58.7,130.669-130.669
	c0-71.971-58.699-130.67-130.669-130.67c-71.97,0-130.669,58.699-130.669,130.67C5.935,208.575,64.634,267.274,136.604,267.274z"/>
<path fill-rule="evenodd" clip-rule="evenodd" fill="#1A4996" d="M136.604,0c75.433,0,136.605,61.173,136.605,136.604
	s-61.173,136.604-136.605,136.604C61.173,273.209,0,212.036,0,136.604S61.173,0,136.604,0L136.604,0z M136.604,10.366
	c-69.707,0-126.237,56.531-126.237,126.238s56.531,126.238,126.237,126.238c69.708,0,126.239-56.531,126.239-126.238
	S206.312,10.366,136.604,10.366z"/>
<path fill-rule="evenodd" clip-rule="evenodd" fill="#1A4996" d="M126.566,253.13c3.296,0.279,6.071,0.447,10.039,0.447
	s9.07-0.271,13.5-0.78c1.923-2.165,1.137-3.807-0.879-5.82c-0.788-1.661-0.964-5.425-0.964-7.787V109.236h14.242V88.348h-14.242
	c-0.368-16.195-3.639-27.166-8.229-35.763c-2.48-12.714,3.743-15.562,13.925-13.926c0.845-6.33,1.688-12.659,2.533-18.989
	c-35.449-9.773-50.637,16.314-35.763,39.877c2.11,6.119,4.22,12.237,6.329,18.356v10.444h-12.976v20.888h12.976V236.78
	c0.022,5.198-0.197,9.873-1.582,12.026C124.145,250.656,124.391,252.448,126.566,253.13L126.566,253.13z M108.596,21.458
	c2.701-0.2,2.304,3.39,0.105,5.175c-2.16,1.698-2.262,8.44-1.898,12.66v210.445c-10.934-2.873-21.242-7.287-30.679-12.999
	l-0.021-0.066C62.389,194.089,48.674,151.504,34.96,108.92c-1.892-5.37-5.571-8.321-8.763-11.042
	c2.438-9.531,8.599-23.347,16.313-30.767c1.372-1.229,3.118,0.062,2.894,1.616c0.247,3.193,0.877,7.68,1.582,12.026L85.281,199.03
	V47.204c-0.222-5.719-0.4-10.331-3.743-13.29c-1.129-0.491-0.226-2.221,1.385-3.066c6.813-3.465,14.004-6.292,21.496-8.401
	L108.596,21.458L108.596,21.458z M216.306,222.221c31.895-37.496,21.349-88.564,0.634-110.453c-0.853-1.076-0.853-2.342,0-3.798
	c14-33.589,1.311-52.351-15.191-68.994c-2.368-2.367-5.104-4.366-7.943-6.261c-8.5-4.689-17.633-8.371-27.241-10.873
	c-1.363-0.491-2.194,0.229-0.895,2.258c0.814,2.62,1.38,5.987,1.582,10.444c0,67.517,0,135.034,0,202.551
	c0.05,3.658-0.161,6.663-0.949,8.229c-1.562,2.149-1.091,4.476,1.414,4.059c7.737-2.131,15.156-5.029,22.162-8.621
	C199.781,235.557,208.523,229.317,216.306,222.221L216.306,222.221z M186.878,56.963c0-5.85,3.945-2.112,4.894-1.238
	c14.227,13.108,16.404,34.998-0.239,52.759c-1.552,1.47-4.654,5.758-4.654-0.547V56.963L186.878,56.963z M186.878,140.478
	c0.159-1.358,1.095-2.524,2.808-3.494c3.444-1.722,6.891-4.052,10.337-7.716c1.649-1.207,3.3-0.928,4.949,0.583
	c18.86,27.183,14.723,64.83-12.812,88.374c-3.076,2.485-5.714,4.045-5.282-0.874C186.878,191.726,186.878,166.102,186.878,140.478z"
	/>
</svg>
