<?xml version="1.0" encoding="utf-8"?>
<!-- Generator: Adobe Illustrator 13.0.2, SVG Export Plug-In . SVG Version: 6.00 Build 14948)  -->
<!DOCTYPE svg PUBLIC "-//W3C//DTD SVG 1.1 Tiny//EN" "http://www.w3.org/Graphics/SVG/1.1/DTD/svg11-tiny.dtd">
<svg version="1.1" baseProfile="tiny" id="Ebene_1" xmlns="http://www.w3.org/2000/svg" xmlns:xlink="http://www.w3.org/1999/xlink"
	 x="0px" y="0px" width="444.795px" height="444.795px" viewBox="0 0 444.795 444.795" xml:space="preserve">
<g>
	<path fill-rule="evenodd" fill="#FFFFFF" stroke="#FFED00" stroke-width="0.216" stroke-miterlimit="22.9256" d="M222.398,416.85
		c107.1,0,194.452-87.352,194.452-194.452c0-107.101-87.352-194.453-194.452-194.453c-107.101,0-194.453,87.352-194.453,194.453
		C27.945,329.498,115.297,416.85,222.398,416.85z"/>
	<path fill-rule="evenodd" fill="#E4293D" d="M101.26,100.787l-42.687,57.07c20.725,35.417,41.449,70.834,62.174,106.252
		c-9.435,23.663-18.869,47.326-28.303,70.989c20.57,13.61,41.14,27.22,61.709,40.831c4.331-14.074,8.661-28.148,12.991-42.223
		c19.642,17.94,39.284,35.881,58.926,53.822c19.023-23.354,38.046-46.708,57.07-70.062c5.877,17.013,11.754,34.025,17.631,51.038
		c18.559-13.919,37.119-27.839,55.678-41.758c-6.805-28.458-13.61-56.915-20.416-85.373c15.775-27.684,31.551-55.368,47.326-83.053
		c-13.456-17.477-26.911-34.953-40.366-52.43c-15.002,24.437-30.004,48.873-45.007,73.31c-9.588-8.197-19.178-16.394-28.767-24.591
		c-1.702-2.629-2.784-6.496-3.248-11.6c19.255-1.972,34.36-15.458,33.407-45.934c-1.127-36.056-29.493-40.04-54.75-40.367
		c-28.146-0.365-56.296,0-84.444,0c0.646,53.72-1.038,102.938-19.024,120.636C127.862,151.825,114.561,126.305,101.26,100.787
		L101.26,100.787z M199.161,167.136c8.197-0.154,16.394-0.309,24.591-0.463c16.187,7.925,32.139,16.593,40.831,48.254
		c4.64,17.322,4.331,30.313-0.928,38.975c-14.539,23.593-29.076,43.078-43.614,61.71c-10.827-13.61-21.653-27.221-32.479-40.831
		C191.428,238.899,195.294,203.018,199.161,167.136L199.161,167.136z M199.625,79.907c12.374-0.001,24.748-0.001,37.122-0.002
		c23.663,0.001,21.807,45.01,0,45.939c-12.374,0-24.748,0-37.122,0C199.625,110.532,199.625,95.22,199.625,79.907z"/>
	<path fill-rule="evenodd" fill="#E4293D" d="M206.687,251.377c0-15.117,0-30.234,0-45.352c-0.219-27.659,38.766-22.742,38.75-5.293
		c0,3.831,0,4.766,0,8.597c-3.138,0-6.275,0-9.413,0c0-1.631,0-3.263,0-4.894c-0.204-8.19-16.177-7.702-16.014,0v15.037h20.659
		v10.268h-20.659v21.882L206.687,251.377z"/>
</g>
<path fill-rule="evenodd" fill="#1858A1" d="M222.397,39.589c100.945,0,182.809,81.863,182.809,182.809
	c0,100.945-81.863,182.809-182.809,182.809S39.589,323.343,39.589,222.398C39.589,121.452,121.452,39.589,222.397,39.589
	L222.397,39.589z M222.397,0C99.591,0,0,99.592,0,222.398s99.591,222.397,222.397,222.397s222.398-99.591,222.398-222.397
	S345.204,0,222.397,0z"/>
</svg>
