<?xml version="1.0" encoding="UTF-8" standalone="no"?>
<!-- Created with Inkscape (http://www.inkscape.org/) -->

<svg
   xmlns:dc="http://purl.org/dc/elements/1.1/"
   xmlns:cc="http://creativecommons.org/ns#"
   xmlns:rdf="http://www.w3.org/1999/02/22-rdf-syntax-ns#"
   xmlns:svg="http://www.w3.org/2000/svg"
   xmlns="http://www.w3.org/2000/svg"
   version="1.1"
   width="400"
   height="730"
   id="svg2"
   xml:space="preserve"><metadata
     id="metadata8"><rdf:RDF><cc:Work
         rdf:about=""><dc:format>image/svg+xml</dc:format><dc:type
           rdf:resource="http://purl.org/dc/dcmitype/StillImage" /><dc:title></dc:title></cc:Work></rdf:RDF></metadata><defs
     id="defs6" /><g
     transform="matrix(1.25,0,0,-1.25,0,729.99998)"
     id="g10"><g
       transform="translate(-48.36748,-595.16808)"
       id="g5173"><path
         d="m 74.9375,-410.1875 -1.5,215.375 0.4375,12.46875 1.71875,12.21875 2.375,12.03125 3.4375,11.59375 4.3125,11.375 4.9375,11.1875 L 96.25,-113 l 6.21875,10.53125 6.90625,10.09375 7.3125,9.875 7.71875,9.65625 7.96875,9.25 8.40625,8.78125 8.375,8.59375 8.8125,8.15625 8.59375,7.75 8.84375,7.28125 8.59375,7.09375 8.59375,6.4375 8.1875,6.25 8.15625,5.5625 7.75,5.375 7.3125,4.71875 6.65625,4.3125 6.25,3.84375 5.8125,3.4375 4.9375,2.8125 4.09375,2.34375 3.4375,1.9375 2.59375,1.28125 1.5,0.875 0.625,0.21875 0.4375,-0.21875 1.5,-0.875 2.59375,-1.28125 3.4375,-1.9375 4.3125,-2.34375 4.9375,-2.8125 5.59375,-3.4375 6.25,-3.84375 6.875,-4.3125 7.3125,-4.71875 7.53125,-5.375 8.15625,-5.5625 8.40625,-6.25 8.375,-6.4375 8.59375,-7.09375 8.84375,-7.28125 8.8125,-7.75 8.59375,-8.15625 8.40625,-8.59375 8.375,-8.78125 8.1875,-9.25 7.5,-9.65625 7.3125,-9.875 6.90625,-10.09375 L 423.375,-113 l 5.59375,-10.9375 5.15625,-11.1875 4.09375,-11.375 3.4375,-11.59375 2.59375,-12.03125 1.5,-12.21875 0.4375,-12.46875 -1.5,-215.375 c -63.5217,12.95089 -128.64537,25.31288 -185.625,33.71875 -61.66709,-9.54398 -123.03187,-20.98505 -184.125,-33.71875 z"
         transform="matrix(0.8,0,0,-0.8,0,841.92)"
         id="path5168"
         style="fill:#ffffff;fill-opacity:1;fill-rule:evenodd;stroke:none" /><path
         d="m 90.243487,1087.1011 60.050783,-101.01589 57.47252,-100.84189 57.63991,100.84189 59.87987,101.01589 -77.60181,-10.9937 -39.91797,-67.8608 -39.92143,67.8608 z m -30.283391,62.3605 147.806984,-27.4876 148.14677,26.6288 1.0311,-150.83447 -0.34325,-9.96525 -1.20428,-9.79126 -2.06559,-9.6195 -2.75142,-9.27936 -3.26984,-9.10415 -4.13003,-8.93232 -4.47403,-8.76293 -4.98908,-8.41697 -5.50859,-8.07353 -5.84919,-7.90515 -6.02124,-7.72993 -6.53963,-7.38642 -6.70829,-7.04276 -6.71283,-6.87337 -6.88369,-6.52755 -7.05235,-6.18389 -7.05575,-5.84038 -6.88137,-5.66861 -6.71168,-5.15679 -6.71169,-4.98151 -6.53623,-4.46616 -6.02124,-4.2944 -5.85266,-3.77905 -5.50512,-3.43554 -4.98907,-3.09194 -4.47403,-2.75073 -3.95796,-2.23308 -3.44191,-1.88957 -2.75372,-1.54597 -2.06328,-1.03069 -1.20425,-0.68711 -0.34427,-0.17196 -0.51859,0.17196 -1.2031,0.68711 -2.06328,1.03069 -2.75488,1.54597 -3.26984,1.88957 -3.95797,2.23308 -4.64494,2.75073 -4.99021,3.09194 -5.33307,3.43554 -5.84919,3.77905 -6.19562,4.2944 -6.53731,4.46616 -6.53969,4.98151 -6.88029,5.15679 -6.88484,5.66861 -7.05458,5.84038 -6.88144,6.18389 -7.05575,6.52755 -6.70938,6.87337 -6.71169,7.04276 -6.365307,7.38642 -6.195627,7.72993 -5.849189,7.90515 -5.507437,8.07353 -4.990154,8.41697 -4.472937,8.76293 -3.958221,8.93232 -3.439088,9.10415 -2.75404,9.27936 -1.894361,9.6195 -1.375541,9.79126 -0.344264,9.96525 1.20374,151.69337 z"
         id="path34"
         style="fill:#2c87ac;fill-opacity:1;fill-rule:evenodd;stroke:none" /><path
         d="m 59.960096,1170.077 147.287104,-26.971 148.49461,26.9709 0,-12.1984 -147.97473,-26.7971 -147.806984,27.6584 z"
         id="path36"
         style="fill:#2c87ac;fill-opacity:1;fill-rule:evenodd;stroke:none" /><path
         d="m 56.368089,784.41924 10.541461,0 5.995886,-46.08396 0.363559,-3.44677 0.362206,-2.72108 0.363559,-2.17696 0.181441,-2.17688 0,-1.99552 0.181441,-2.35833 0.181442,-2.90495 1.092506,0 0,2.36077 0,1.99551 0.181441,1.81407 0,1.81408 0.181441,1.81407 0.363559,2.35833 0.36356,2.72114 0.543646,3.62815 5.633342,45.35833 10.355958,0 -12.172807,-80.0098 -12.35682,0 -12.35743,80.0098 z"
         id="path38"
         style="fill:#2c87ac;fill-opacity:1;fill-rule:evenodd;stroke:none" /><path
         d="m 105.7949,704.40944 10.53841,0 0,79.82836 -10.53841,0 0,-79.82836 z"
         id="path40"
         style="fill:#2c87ac;fill-opacity:1;fill-rule:evenodd;stroke:none" /><path
         d="m 131.05483,784.2378 10.71931,0 0,-31.74896 -0.18144,-2.18054 0,-1.81408 0,-1.99551 0.545,2.35833 0.545,1.9991 0.545,1.6327 0.36356,1.26982 9.45119,30.47914 10.72046,0 -13.26524,-39.55316 15.62594,-40.2752 -10.72053,0 -11.81182,31.2047 -0.18144,0.90707 -0.545,1.26988 -0.545,1.63263 -0.36356,1.26989 -0.36356,0.90707 0,-37.19124 -10.5376,0 0,79.82836 z"
         id="path42"
         style="fill:#2c87ac;fill-opacity:1;fill-rule:evenodd;stroke:none" /><path
         d="m 169.18642,784.2378 35.25009,0 0,-9.43569 -12.35438,0 0,-70.39267 -10.90461,0 0,70.39267 -11.9911,0 0,9.43569 z"
         id="path44"
         style="fill:#2c87ac;fill-opacity:1;fill-rule:evenodd;stroke:none" /><path
         d="m 224.6598,775.70918 -0.72672,-0.18144 -0.91086,0 -1.09007,-0.36288 -1.27056,-0.72563 -1.09013,-1.08845 -0.9108,-1.6327 -0.36356,-1.26981 -0.18144,-1.45133 0,-2.35826 0,-3.08396 0,-43 0,-1.63263 0.18144,-1.6327 0.36356,-1.6327 0.72915,-1.26988 1.09007,-1.08845 1.63399,-0.72563 2.18257,-0.36288 2.3607,0.36288 1.63757,0.90707 1.08885,1.26989 0.72672,1.63263 0.36356,2.17696 0.18144,2.17688 0,2.3607 0,40.27642 0,2.90259 0,2.5397 -0.36356,2.35833 -0.72671,1.81407 -1.08892,1.45126 -1.63758,0.90707 -2.17898,0.36288 z m 0,9.07287 3.2679,-0.18144 3.27149,-0.72563 2.90936,-1.45126 2.54234,-2.17688 2.18143,-2.90503 1.27178,-3.26533 0.72671,-3.80959 0.3622,-4.53521 0,-5.44229 0,-37.91809 0,-1.63507 -0.18144,-1.81407 -0.18076,-1.99552 -0.36356,-2.17688 -0.72678,-1.99552 -0.90836,-1.99551 -1.27063,-1.99552 -1.6375,-1.63263 -2.17899,-1.45133 -2.72649,-1.08844 -3.45436,-0.72563 -3.81297,-0.36288 -1.09251,0 -1.63391,0.18144 -1.81685,0.18144 -1.99972,0.72563 -1.99849,0.90707 -2.18142,1.26989 -1.81563,1.99544 -1.63751,2.53977 -1.45349,3.80959 -0.54365,3.62815 0,3.99339 0,39.91361 0,3.99103 0.36221,3.80959 0.72678,3.26533 1.09007,2.90251 1.81806,2.72115 2.72399,2.36076 3.27271,1.81408 3.45321,0.90707 3.63485,0.36288 z"
         id="path46"
         style="fill:#2c87ac;fill-opacity:1;fill-rule:evenodd;stroke:none" /><path
         d="m 267.53984,774.62074 0,-24.67526 4.90663,0 1.99735,0.18144 1.45586,0.54771 0.9072,1.26982 0.72672,1.99551 0.36356,2.72115 0,3.80959 0.18144,5.0794 -0.18144,3.2654 -0.18145,2.35833 -0.36356,1.63263 -0.545,1.08851 -0.9072,0.54433 -1.27422,0.18144 -1.63392,0 -5.4517,0 z m -10.71931,9.61706 17.25993,0 4.36156,-0.18144 3.27149,-0.54433 2.54478,-1.26988 1.81685,-1.81408 1.27056,-2.54214 0.72672,-3.26533 0.36356,-4.35384 0,-5.44229 0,-4.89803 -0.18145,-3.99096 -0.36355,-3.44677 -0.72678,-2.7248 -1.08886,-2.17689 -1.63513,-1.26989 -2.18143,-0.907 -2.72764,-0.18144 0,-0.54432 2.90936,-0.54433 1.99971,-1.08844 1.63513,-1.6327 1.08886,-2.17689 0.545,-2.72114 0.36356,-3.44678 0,-4.1724 0,-8.71005 0,-4.17241 0.18144,-3.26533 0.18144,-2.35833 0.36559,-1.99551 0.545,-1.99552 0.72671,-1.99544 -10.90583,0 -0.54365,2.72114 -0.545,2.72108 -0.36356,3.08396 -0.18144,3.62821 -0.18144,4.53522 0,5.62609 0,2.17689 0,2.53971 -0.18144,2.90258 -0.54365,2.35833 -0.545,1.99545 -0.72678,1.26988 -1.09251,0.54432 -1.45227,0.36289 -2.36429,0.18144 -3.08741,0 0,-36.64699 -10.5376,0 0,79.82836 z"
         id="path48"
         style="fill:#2c87ac;fill-opacity:1;fill-rule:evenodd;stroke:none" /><path
         d="m 298.73846,704.40944 10.3569,0 0,79.82836 -10.3569,0 0,-79.82836 z"
         id="path50"
         style="fill:#2c87ac;fill-opacity:1;fill-rule:evenodd;stroke:none" /><path
         d="m 339.54442,769.17845 -0.18076,-3.99103 -0.18145,-2.90252 0,-2.17688 0,-1.45126 -0.18144,-1.08851 0,-0.72563 -0.18144,-0.54433 -3.26905,-27.57777 9.44875,0 -3.99827,27.75915 -0.18145,2.35833 -0.18076,2.72114 -0.18144,3.26533 0,4.35384 -0.91201,0 z m -5.99555,15.05935 12.90311,0 12.35687,-79.82836 -10.3596,0 -1.99727,14.69409 -11.99468,0 -1.81563,-14.69409 -10.35711,0 11.26431,79.82836 z"
         id="path52"
         style="fill:#2c87ac;fill-opacity:1;fill-rule:evenodd;stroke:none" /><path
         d="m 75.63186,642.54172 -2.544712,-0.18144 -1.816849,-0.72563 -1.092506,-1.26982 -0.725562,-1.6327 -0.363559,-1.99551 -0.181441,-2.17689 0,-2.54214 0,-11.97302 0,-0.907 0.181441,-1.26988 0.181441,-1.26989 0.543647,-1.26982 0.726712,-1.08844 1.092506,-1.08851 1.635137,-0.54433 2.181424,-0.36288 2.542343,0.36288 1.81563,0.90707 1.092506,1.26982 0.726713,1.6327 0.363559,1.81407 0.181441,2.17689 0,2.17696 0,12.88246 0,1.81407 -0.363559,1.81407 -0.72678,1.45126 -1.08885,1.08845 -1.819287,0.72562 -2.542342,0.18145 z m 0.36356,35.19695 -2.182643,-0.36288 -1.633918,-0.72563 -1.090136,-0.90707 -0.547709,-1.26982 -0.363559,-1.45126 -0.181442,-1.26989 0,-1.08844 0,-13.06512 0,-0.907 0.181442,-1.26989 0.363559,-1.26981 0.547709,-1.08851 0.908424,-0.90701 1.633918,-0.72563 2.000931,-0.18144 2.178986,0.18144 1.635137,0.72563 1.274218,1.08845 0.543647,1.45126 0.363559,1.45125 0.181441,1.45126 0,1.6327 0,10.16254 0,1.81407 -0.181441,1.6327 -0.363559,1.45126 -0.543647,1.45126 -1.092506,1.08851 -1.453492,0.54432 -2.178919,0.36288 z m 0,7.61917 3.812905,-0.18144 3.090999,-0.72563 2.54478,-1.08851 1.997275,-1.63263 1.453492,-1.6327 1.092506,-1.99552 0.726713,-1.99551 0.362205,-1.99545 0.36356,-1.99551 0,-1.99552 0,-1.81407 0,-6.1715 0,-3.80959 -0.545001,-3.2654 -0.907206,-2.5397 -1.455862,-2.35833 -2.360699,-1.81407 -3.271492,-1.26989 2.908136,-0.90707 2.178987,-1.08844 1.637574,-1.45126 1.090069,-1.6327 0.543646,-1.81408 0.36356,-1.99551 0.181441,-2.17689 0,-2.17932 0,-14.14991 0,-2.5397 -0.545001,-2.72115 -0.907206,-2.5397 -1.455862,-2.35833 -2.178986,-2.17688 -2.545999,-1.45126 -2.723987,-0.90707 -2.908137,-0.54703 -3.087411,-0.18145 -3.998273,0.36289 -3.271492,0.72867 -2.726695,1.26989 -1.997546,1.63263 -1.634392,1.81414 -1.092506,1.99545 -0.726374,2.17695 -0.363559,1.99545 -0.181442,1.81414 -0.181441,1.63263 0,1.26989 0,9.61469 0.181441,4.17484 0.362883,3.62814 0.545,2.72115 1.274218,2.17688 1.63446,1.6327 2.179055,1.26982 3.090051,0.90707 -3.453272,1.45126 -2.179122,1.81414 -1.455727,1.99545 -0.907951,2.53977 -0.181441,3.08396 0,11.79516 0,1.26989 0.181441,1.45125 0.181441,1.81408 0.362883,1.81407 0.72942,1.99552 1.089595,1.81407 1.452748,1.81414 2.000592,1.45126 2.542478,1.08844 3.089781,0.90707 3.998273,0.18144 z"
         id="path54"
         style="fill:#2c87ac;fill-opacity:1;fill-rule:evenodd;stroke:none" /><path
         d="m 114.69851,678.4643 -2.36063,-0.18144 -1.63757,-0.72563 -1.08892,-1.08852 -0.72671,-1.26981 -0.36356,-1.26989 -0.18144,-1.45126 0,-1.26988 0,-18.68871 0,-1.26989 0.18144,-1.45126 0.36356,-1.45125 0.72671,-1.26989 1.08892,-1.08844 1.63757,-0.72563 2.17899,-0.18144 2.54593,0.18144 1.63399,0.907 1.27178,1.08851 0.72549,1.45126 0.36695,1.45126 0.18144,1.26988 0,1.26982 0,17.96315 0,1.26982 -0.18144,1.6327 -0.36695,1.45126 -0.72549,1.26988 -1.09014,1.26989 -1.81563,0.72563 -2.36429,0.18144 z m 0.18145,7.80061 2.18257,0 2.72405,-0.36288 2.7265,-0.90707 2.72398,-1.45126 2.36429,-1.99551 1.45227,-2.35833 1.09251,-2.35826 0.545,-2.53977 0.18144,-2.53971 0,-2.5397 0,-47.35377 0,-1.99552 -0.18144,-1.99551 -0.18144,-1.99552 -0.54771,-2.17688 -0.72671,-1.99552 -1.09014,-1.81407 -1.63392,-1.81408 -2.00093,-1.45125 -2.72405,-1.08852 -3.27149,-0.72562 -4.17992,-0.18415 -3.81656,0.18415 -3.08619,0.72562 -2.36429,1.26989 -1.99728,1.45126 -1.45586,1.6327 -1.08892,1.81407 -0.544996,1.99552 -0.545001,1.99551 -0.181441,1.81407 0,1.6327 0,1.45126 0,8.16336 9.267038,0 0,-8.70761 0.18144,-2.53971 0.72672,-1.81407 0.90842,-1.26989 1.08885,-0.907 1.09251,-0.36288 1.27178,-0.18144 1.08892,-0.18144 2.18257,0.36288 1.81563,0.7257 1.09014,1.08844 0.72549,1.45126 0.36694,1.6327 0.18145,1.63263 0,1.6327 0,19.95738 -2.72765,-2.5397 -2.54478,-1.45126 -2.36063,-0.54433 -2.36428,-0.18144 -3.44955,0.18144 -2.546,0.90707 -2.17899,1.26989 -1.63757,1.63263 -1.08892,1.99552 -0.726713,1.99551 -0.36356,1.99551 -0.363559,2.17689 0,1.81408 0,1.81407 0,18.50734 0,1.08844 0,1.6327 0.363559,1.6327 0.36356,1.81407 0.726713,1.99552 1.08892,1.81407 1.63757,1.81407 1.99728,1.45126 2.54599,1.08851 3.26784,0.90701 3.99827,0.18144 z"
         id="path56"
         style="fill:#2c87ac;fill-opacity:1;fill-rule:evenodd;stroke:none" /><path
         d="m 161.08339,642.90454 0,-27.758 5.4517,0 1.81807,0 1.45342,0.18144 0.72672,0.54433 0.54364,0.90707 0.36356,1.08844 0.18144,2.17689 0,2.53977 0.18144,2.72114 0,2.35826 0,1.45133 0,4.71659 -0.18144,3.44921 -0.36356,2.5397 -0.54364,1.6327 -0.90843,0.90701 -1.27178,0.54432 -1.63635,0 -5.81506,0 z m 0,32.83861 0,-24.131 3.27271,0 2.3607,0.18145 1.63636,0.18144 1.27178,0.36288 0.72671,0.54432 0.36356,0.90701 0.36221,1.6327 0.36356,2.17688 0,2.72115 0.18144,2.35833 0,1.9991 -0.18144,2.72114 -0.18144,2.90259 -0.18145,2.17688 -0.18144,1.26989 -0.3622,0.907 -0.545,0.54433 -0.36356,0.18144 -0.545,0.18144 -0.90721,0 -1.45586,0.18144 -2.3607,0 -3.27271,0 z m -10.35589,9.43332 18.71573,0 3.81656,-0.18144 2.72399,-0.54433 2.18264,-1.08851 1.63392,-1.45126 1.08891,-1.99551 0.54839,-2.72108 0.36356,-3.2654 0.18076,-3.99096 0,-4.71665 0,-4.17606 -0.18076,-3.62815 -0.18144,-2.90252 -0.54839,-2.35832 -1.08885,-1.81408 -1.45349,-1.26988 -1.99971,-0.90707 -2.54234,-0.36289 0,-0.54432 1.27056,-0.18144 1.63757,-0.18144 1.45228,-0.7257 1.45342,-0.907 1.08892,-1.6327 0.73037,-2.17689 0.18144,-0.54432 0,-0.54433 0,-0.90707 0.18076,-1.26988 0,-1.99545 0,-2.72358 0,-3.44677 0,-4.89803 0,-4.89803 -0.18076,-3.99103 -0.54839,-3.26534 -0.9072,-2.72114 -1.27178,-1.99551 -1.99728,-1.45126 -2.546,-0.907 -3.27149,-0.54433 -4.1787,0 -16.35265,0 0,79.82599 z"
         id="path58"
         style="fill:#2c87ac;fill-opacity:1;fill-rule:evenodd;stroke:none" /><path
         d="m 191.94529,685.17647 26.35007,0 0,-9.9775 -15.62595,0 0,-23.40537 14.17245,0 0,-9.79613 -14.17245,0 0,-26.66949 15.80759,0 0,-9.9775 -26.53171,0 0,79.82599 z"
         id="path60"
         style="fill:#2c87ac;fill-opacity:1;fill-rule:evenodd;stroke:none" /><path
         d="m 237.81655,675.56178 0,-24.67525 4.90541,0 1.99856,0.18144 1.45221,0.54432 1.09257,1.26989 0.545,1.99551 0.36356,2.72108 0.18144,3.80958 0,5.08313 0,3.26533 -0.18144,2.35833 -0.36356,1.6327 -0.72671,1.08845 -0.91086,0.54432 -1.27178,0.18144 -1.63392,0 -5.45048,0 z m -10.7229,9.61469 17.26352,0 4.36034,-0.18144 3.4532,-0.54433 2.36185,-1.26988 1.81807,-1.81407 1.27178,-2.35833 0.72549,-3.44678 0.36356,-4.35384 0,-5.44222 0,-4.90169 -0.18144,-3.99102 -0.3622,-3.44678 -0.545,-2.72107 -1.09014,-2.17696 -1.63751,-1.26982 -2.17898,-0.90707 -2.90814,-0.18144 0,-0.54432 2.90814,-0.54432 2.17898,-1.08845 1.45587,-1.6327 1.09007,-2.17689 0.545,-2.72114 0.3622,-3.44677 0.18144,-4.17477 0,-8.70762 0,-4.17247 0,-3.08389 0.18144,-2.53977 0.36356,-1.99552 0.545,-1.99545 0.91087,-1.99551 -11.08633,0 -0.545,2.72114 -0.36356,2.72115 -0.36221,3.08396 -0.36356,3.80958 0,4.35378 0,5.62366 0,2.17696 -0.18144,2.72107 -0.18144,2.72358 -0.36356,2.35833 -0.72915,1.99552 -0.72671,1.26981 -1.08892,0.72563 -1.45342,0.36288 -2.18143,0 -3.26912,0 0,-36.64698 -10.54119,0 0,79.82599 z"
         id="path62"
         style="fill:#2c87ac;fill-opacity:1;fill-rule:evenodd;stroke:none" /><path
         d="m 268.49674,685.35784 10.72053,0 0,-70.39267 10.68139,0 0,-9.61469 -21.40192,0 z"
         id="path64"
         style="fill:#2c87ac;fill-opacity:1;fill-rule:evenodd;stroke:none" /><path
         d="m 302.188,605.35048 10.54147,0 0,79.82599 -10.54147,0 0,-79.82599 z"
         id="path66"
         style="fill:#2c87ac;fill-opacity:1;fill-rule:evenodd;stroke:none" /><path
         d="m 326.93079,685.17647 11.26797,0 11.99102,-51.16099 0.54771,-2.90496 0.545,-2.5397 0.54365,-2.5397 0.72671,0 -0.72671,5.62366 -0.36221,5.80747 -0.545,7.4378 -0.36356,40.27642 9.81211,0 0,-79.82599 -11.63133,0 -13.26531,59.87098 -0.545,0 0.545,-6.89713 0.36356,-6.89355 0.91086,-46.0803 -9.81447,0 0,79.82599 z"
         id="path68"
         style="fill:#2c87ac;fill-opacity:1;fill-rule:evenodd;stroke:none" /></g></g></svg>